<svg id="Layer_1" enable-background="new 0 0 512 512" height="512" viewBox="0 0 512 512" width="512" xmlns="http://www.w3.org/2000/svg"><path d="m256 512-6.708-3.354c-37.479-18.741-79.104-28.646-120.375-28.646h-97.917v-85.812l29.105-9.701c44.85-14.951 70.147-62.776 57.59-108.877-7.673-28.17-30.476-51.062-60.998-61.233l-25.697-8.565v-85.812h117.426c17.961 0 32.574-14.613 32.574-32.574 0-15.978 3.188-31.527 9.477-46.216 10.718-25.034 36.437-41.21 65.523-41.21s54.805 16.176 65.522 41.209c6.289 14.688 9.478 30.238 9.478 46.217 0 17.961 14.612 32.574 32.574 32.574h117.426v85.812l-25.698 8.564c-30.521 10.172-53.325 33.063-60.998 61.233-12.557 46.101 12.74 93.926 57.592 108.878l29.104 9.701v85.812h-97.918c-41.271 0-82.896 9.905-120.374 28.645zm-195-62h67.917c43.453 0 87.227 9.856 127.083 28.562 39.855-18.706 83.629-28.562 127.082-28.562h67.918v-34.188l-8.592-2.863c-59.667-19.891-94.043-82.838-77.05-145.222 10.316-37.875 40.395-68.458 80.459-81.811l5.183-1.728v-34.188h-87.426c-34.504 0-62.574-28.071-62.574-62.574 0-11.896-2.374-23.473-7.056-34.409-5.894-13.767-21.143-23.017-37.944-23.017s-32.05 9.25-37.944 23.017c-4.682 10.936-7.056 22.513-7.056 34.409 0 34.503-28.071 62.574-62.574 62.574h-87.426v34.188l5.184 1.728c40.064 13.352 70.142 43.936 80.458 81.811 16.959 62.261-17.264 125.292-77.049 145.222l-8.593 2.863z"/><path d="m241 390h30v60h-30z"/><path d="m241 300h30v60h-30z"/><path d="m241 210h30v60h-30z"/><path d="m241 120h30v60h-30z"/><path d="m181 180h30v60h-30z"/><path d="m181 270h30v60h-30z"/><path d="m181 360h30v60h-30z"/><path d="m301 360h30v60h-30z"/><path d="m301 270h30v60h-30z"/><path d="m301 180h30v60h-30z"/></svg>