<svg id="Layer_1" enable-background="new 0 0 512 512" height="512" viewBox="0 0 512 512" width="512" xmlns="http://www.w3.org/2000/svg"><path d="m301 393.898v-36.478c17.459-6.192 30-22.865 30-42.42v-.367c0-10.581 4.037-20.615 11.367-28.252 33.179-34.573 48.633-73.142 48.633-121.381 0-108.709-61.283-165-135-165-73.708 0-135 56.28-135 165 0 48.245 15.453 86.815 48.632 121.381 7.331 7.637 11.368 17.67 11.368 28.252v.367c0 19.555 12.541 36.228 30 42.42v36.478c-25.85 6.678-45 30.195-45 58.102 0 33.084 26.916 60 60 60 10.574 0 20.898-2.854 30-8.184 9.102 5.33 19.426 8.184 30 8.184 33.084 0 60-26.916 60-60 0-27.907-19.15-51.424-45-58.102zm-109.725-128.291c-27.477-28.627-40.275-60.595-40.275-100.607 0-83.271 40.233-135 105-135s105 51.729 105 135c0 40.006-12.799 71.975-40.278 100.608-12.718 13.251-19.722 30.662-19.722 49.025v.367c0 8.271-6.729 15-15 15-4.648 0-8.743-3.615-15-7.042-6.256 3.426-10.352 7.042-15 7.042s-8.743-3.615-15-7.042c-6.256 3.426-10.352 7.042-15 7.042-8.271 0-15-6.729-15-15v-.367c0-18.364-7.005-35.775-19.725-49.026zm94.725 216.393c-9.32 0-15.999-4.254-19.96-7.823l-10.04-9.044-10.04 9.043c-3.961 3.57-10.64 7.824-19.96 7.824-16.542 0-30-13.458-30-30s13.458-30 30-30h15v-64.916c4.977 1.956 9.935 2.916 15 2.916s10.023-.96 15-2.916v64.916h15c16.542 0 30 13.458 30 30s-13.458 30-30 30z"/><path d="m271 150h30v30h-30z"/><path d="m301 90h30v30h-30z"/><path d="m241 60h30v30h-30z"/></svg>