<svg id="Capa_1" enable-background="new 0 0 512.001 512.001" height="512" viewBox="0 0 512.001 512.001" width="512" xmlns="http://www.w3.org/2000/svg"><path d="m15.001 512.001h482c8.284 0 15-6.716 15-15v-211c0-8.284-6.716-15-15-15h-76v-256c0-6.957-4.783-13-11.554-14.599-6.77-1.597-13.751 1.668-16.863 7.891-40.288 80.577-61.583 171.131-61.583 261.872v.836h-30v-256c0-6.957-4.783-13-11.554-14.599-6.77-1.597-13.751 1.668-16.863 7.891-40.288 80.577-61.584 171.131-61.584 261.872v.836h-30v-256c0-6.957-4.783-13-11.554-14.599-6.771-1.597-13.751 1.668-16.863 7.891-40.287 80.577-61.582 171.131-61.582 261.872v.836h-76c-8.284 0-15 6.716-15 15v211c0 8.284 6.715 15 15 15zm346-241.836c0-61.38 10.263-122.658 30-180.478v226.313c0 8.271-6.729 15-15 15s-15-6.729-15-15zm-120 0c0-61.38 10.263-122.658 30-180.478v226.313c0 8.271-6.729 15-15 15s-15-6.729-15-15zm-120 0c0-61.38 10.263-122.658 30-180.478v226.313c0 8.271-6.729 15-15 15s-15-6.729-15-15zm-91 30.836h61v15c0 24.813 20.187 45 45 45s45-20.187 45-45v-15h30v15c0 24.813 20.187 45 45 45s45-20.187 45-45v-15h30v15c0 24.813 20.187 45 45 45s45-20.187 45-45v-15h61v181h-452v-181z"/><circle cx="196.001" cy="376.001" r="15"/><circle cx="316.001" cy="376.001" r="15"/><circle cx="436.001" cy="376.001" r="15"/><circle cx="76.001" cy="376.001" r="15"/><circle cx="136.001" cy="436.001" r="15"/><circle cx="256.001" cy="436.001" r="15"/><circle cx="376.001" cy="436.001" r="15"/></svg>