<svg id="Layer_1" enable-background="new 0 0 512 512" height="512" viewBox="0 0 512 512" width="512" xmlns="http://www.w3.org/2000/svg"><path d="m453.494 363.494c-20.609 0-39.592 11.113-50.038 28.506h-72.056v-17c0-8.271 6.55-15 14.6-15h43.801c19.057 0 37.68-8.839 49.817-23.644 14.402-17.567 16.858-40.445 10.354-56.813-2.104-5.474-5.594-10.859-10.413-16.086 7.62-28.667 11.441-76.467 11.441-98.457 0-107.307-86.274-165-195-165-107.702 0-195 57.123-195 165 0 21.988 3.822 69.786 11.441 98.456-20.384 22.11-16.375 52.999-.06 72.899 12.138 14.806 30.762 23.645 49.82 23.645h43.799c8.075 0 14.4 6.589 14.4 15v17h-71.856c-10.447-17.393-29.428-28.506-50.038-28.506-32.26 0-58.506 26.246-58.506 58.506 0 20.829 11.209 39.809 28.803 50.191 2.582 22.377 21.645 39.809 44.703 39.809 14.671 0 34.313-12.096 41.879-30h281.088c7.354 18.141 26.77 30 42.021 30 23.058 0 42.121-17.432 44.702-39.809 17.595-10.382 28.804-29.362 28.804-50.191 0-32.26-26.245-58.506-58.506-58.506zm-287.494-33.494h-43.799c-10.167 0-20.119-4.734-26.62-12.665-10.443-12.738-10.27-26.295 3.582-37.962l8.042-6.772-3.623-9.87c-7.564-20.605-12.582-72.468-12.582-97.731 0-99.536 85.234-135 165-135s165 35.464 165 135c0 25.266-5.018 77.13-12.581 97.73l-3.623 9.869 8.04 6.773c13.839 11.655 14.044 25.205 3.582 37.964-6.501 7.93-16.451 12.664-26.617 12.664h-43.801c-24.592 0-44.6 20.187-44.6 45v17h-28.4v-32h-30v32h-32.6v-17c0-24.813-19.918-45-44.4-45zm296.742 118.766-11.656 4.058 1.737 12.219c1.503 10.579-6.361 16.958-14.329 16.958-3.769 0-12.759-5.459-14.676-12.627-2.735-10.23-12.044-17.374-22.637-17.374h-290.431c-10.432 0-19.703 7.007-22.545 17.039-1.97 6.954-11.488 12.758-14.699 12.961-7.733 0-15.876-6.094-14.33-16.952l1.742-12.223-11.66-4.059c-11.519-4.011-19.258-14.766-19.258-26.766 0-15.718 12.788-28.506 28.506-28.506 11.768 0 22.461 7.522 26.609 18.718l3.627 9.788h334.516l3.627-9.788c4.148-11.196 14.842-18.718 26.609-18.718 15.718 0 28.506 12.788 28.506 28.506 0 12-7.739 22.755-19.258 26.766z"/><path d="m346.052 270c13.53 0 45-7.308 45-75 0-33.936-26.052-45-60-45-17.11 0-29.484 2.376-38.942 7.479-9.606 5.183-21.058 15.899-21.058 37.521 0 33.123 41.805 75 75 75zm-15-90c30 0 30 7.969 30 15 0 13.71-1.688 25.829-4.751 34.122-4.019 10.878-8.385 10.878-10.249 10.878-16.401 0-45-28.598-45-45 0-7.031 0-15 30-15z"/><path d="m241.051 195c0-33.939-26.057-45-60-45-17.11 0-29.484 2.376-38.942 7.479-9.606 5.183-21.058 15.9-21.058 37.521 0 67.692 31.47 75 45 75 33.124 0 75-41.806 75-75zm-75 45c-1.864 0-6.231 0-10.249-10.878-3.064-8.293-4.751-20.412-4.751-34.122 0-7.031 0-15 30-15s30 7.969 30 15c0 16.402-28.598 45-45 45z"/><path d="m221.593 267.354c-5.238 9.856-10.542 24.235-10.542 32.646 0 17.383 18.925 30 45 30s45-12.617 45-30c0-8.412-5.303-22.791-10.542-32.646-12.015-22.608-25.37-27.354-34.458-27.354s-22.442 4.746-34.458 27.354zm34.458 3.059c4.959 3.554 12.235 18.494 14.413 26.847-2.593 1.263-7.544 2.741-14.413 2.741-6.868 0-11.82-1.478-14.413-2.741 2.178-8.354 9.454-23.293 14.413-26.847z"/></svg>