<svg height="512" viewBox="0 0 44 60" width="512" xmlns="http://www.w3.org/2000/svg"><g id="027---Slime" transform="translate(-1)"><path id="Shape" d="m45 13c.0001715-1.3400604-.5375802-2.6241057-1.4926363-3.56412151-.9550561-.94001587-2.2474748-1.45731947-3.5873637-1.43587849-.279232-1.64600014-1.2316476-3.10123009-2.6283136-4.01589452-1.3966661-.91466442-3.1112758-1.20604618-4.7316864-.80410548-.6353975-1.24124839-1.8713406-2.06201663-3.261874-2.16615349-1.3905333-.10413686-2.7349391.52338939-3.548126 1.65615349-.8817606-.9907223-2.1210178-1.59052314-3.4450722-1.66741582-1.3240543-.07689267-2.6244119.37542346-3.6149278 1.25741582-1.8036184-2.25804506-4.9606439-2.90953246-7.5108026-1.5499378-2.55015861 1.35959466-3.76878209 4.34392089-2.8991974 7.0999378-1.45305252.92794952-2.31719479 2.5463212-2.28 4.27-3.10213525.5090697-5.28540765 3.3262019-5.00434967 6.4572403.28105797 3.1310384 2.93114457 5.5143036 6.07434967 5.4627597.410957 2.8548859 2.53094306 5.1654326 5.34 5.82-1.0988823 2.8243219.0808773 6.024688 2.75 7.46-1.25 5.8-3.16 14.89-3.16 16.72.0000001 3.3137084 2.6862916 5.9999999 6 5.9999999s5.9999999-2.6862915 6-5.9999999c0-1.83-1.9-10.92-3.16-16.72 1.0670016-.5671747 1.935644-1.4462826 2.49-2.52 2.8479207.8282122 5.8736676-.5486726 7.12-3.24.572321.2214071 1.1704365.3692558 1.78.44-2 9.43-2.23 11.39-2.23 12.04 0 2.7614237 2.2385763 5 5 5s5-2.2385763 5-5c0-1.75-2.19-11.87-2.56-13.59 1.9924549-1.6383883 2.9223599-4.2398168 2.42-6.77 2.5345138-1.0118182 3.7895446-3.8690159 2.82-6.42 1.444421-.9170731 2.319627-2.5090426 2.32-4.22zm-4 2.83c-.2918591.102358-.5199304.3340054-.6177358.6274214-.0978053.293416-.0543367.6155768.1177358.8725786.5677885.8469013.6665561 1.924213.2622257 2.8602379s-1.2564001 1.6026077-2.2622257 1.7697621c-.2969678.0468746-.5570878.224871-.7083326.4847019-.1512449.2598309-.1775632.5739208-.0716674.8552981.7873881 2.1676138-.0099167 4.592577-1.93 5.87-.3243109.2218656-.4886292.6130996-.42 1 .16.97 2.63 12.16 2.63 13.83 0 1.6568542-1.3431458 3-3 3s-3-1.3431458-3-3c0-1.44 2.13-11.34 2.44-12.81.0643451-.2992002-.0118598-.6113917-.206822-.8472959-.1949621-.2359042-.4872135-.3695448-.793178-.3627041-1.050895.0822324-2.1008964-.1697679-3-.72-.2753841-.1737272-.618106-.2025039-.9186041-.0771305s-.5211419.3891966-.5913959.7071305c-.4177153 1.8305587-2.0524405 3.1241962-3.93 3.11-1.56 0-1.85-.77-2.62-.44-.2703771.1172264-.4752814.3477437-.56.63-.3729512 1.1942447-1.2832012 2.145197-2.46 2.57-.4750529.1653072-.7533888.6577475-.65 1.15 2.06 9.46 3.29 15.85 3.29 17.09 0 2.209139-1.790861 4-4 4s-4-1.790861-4-4c0-1.24 1.23-7.63 3.29-17.09.1045261-.489481-.1689314-.9808499-.64-1.15-1.1936222-.4290778-2.1129987-1.3988465-2.477833-2.6136459-.3648342-1.2147995-.1318827-2.5306407.627833-3.5463541.2272632-.3030176.2638192-.7084296.0944272-1.0472136s-.5156551-.5527864-.8944272-.5527864c-1.3435918.0002687-2.6307541-.5402204-3.5713643-1.4996428-.94061023-.9594225-1.45550756-2.2570341-1.4286357-3.6003572.00684072-.3059645-.12679986-.5982159-.36270409-.793178-.23590424-.1949622-.54809569-.2711671-.84729591-.206822-1.50881512.3418868-3.07950019-.2169454-4.03330412-1.4350044-.95380392-1.2180589-1.11969023-2.876922-.42597331-4.2597331s2.12263949-2.241604 3.66927743-2.2052625c.32880458.0462062.65910166-.0738046.88155356-.3203053.22245189-.2465008.30804532-.5873417.22844644-.9096947-.38894207-1.4741975.38969988-3.00567004 1.81-3.56.26478-.10201937.4737523-.31172245.5748468-.57685698.1010944-.26513452.0847914-.56073396-.0448468-.81314302-.95269119-1.99374795-.1087479-4.38230881 1.885-5.335s4.3823088-.10874795 5.335 1.885c.1555213.33818014.4860047.56199405.857751.58089641.3717464.01890236.7232273-.1702354.912249-.49089641.6639208-1.11059962 1.9651004-1.67038936 3.2279918-1.38873734 1.2628913.28165203 2.2029066 1.3412766 2.3320082 2.62873734.0843244.52929709.5440695.91667494 1.08.91.3038091.00615217.5939335-.12617016.7884672-.35961063.1945338-.23344047.2723694-.54267015.2115328-.84038937-.1607605-.70813368.0749307-1.44776929.6157557-1.93233675.5408249-.48456746 1.3018056-.63792837 1.9881019-.40066339.6862962.23726497 1.1900727.8278752 1.3161424 1.54300014.0520745.3023746.2400791.56410662.51.71.76.39 1-.33 2.52-.33 2.209139 0 4 1.790861 4 4-.0462062.32880458.0738046.65910166.3203053.88155356.2465008.22245194.5873417.30804534.9096947.22844644 1.5245192-.32686114 3.0452971.5685753 3.4990587 2.0602514.4537616 1.491676-.3107691 3.0822938-1.7590587 3.6597486z"/><path id="Shape" d="m35 52c-2.209139 0-4 1.790861-4 4s1.790861 4 4 4 4-1.790861 4-4-1.790861-4-4-4zm0 6c-1.1045695 0-2-.8954305-2-2s.8954305-2 2-2 2 .8954305 2 2-.8954305 2-2 2z"/></g></svg>