<svg height="512" viewBox="0 0 60 60" width="512" xmlns="http://www.w3.org/2000/svg"><g id="026---Target"><path id="Shape" d="m30 0c-16.5685425 0-30 13.4314575-30 30s13.4314575 30 30 30 30-13.4314575 30-30c0-7.9564947-3.1607052-15.5871121-8.7867966-21.21320344-5.6260913-5.62609135-13.2567087-8.78679656-21.2132034-8.78679656zm0 58c-15.463973 0-28-12.536027-28-28s12.536027-28 28-28 28 12.536027 28 28-12.536027 28-28 28z"/><path id="Shape" d="m29 6h1c.5522847 0 1-.44771525 1-1s-.4477153-1-1-1h-1c-.5522847 0-1 .44771525-1 1s.4477153 1 1 1z"/><path id="Shape" d="m25.2 6.48c.5522847-.11321838.9082184-.65271525.795-1.205-.1132184-.55228474-.6527153-.90821836-1.205-.795-12.0967945 2.51363205-20.77383823 13.164818-20.79 25.52 0 .5522847.44771525 1 1 1s1-.4477153 1-1c.02855794-11.395421 8.0409959-21.2106575 19.2-23.52z"/><path id="Shape" d="m30 11c-10.4934102 0-19 8.5065898-19 19s8.5065898 19 19 19 19-8.5065898 19-19-8.5065898-19-19-19zm0 36c-9.3888407 0-17-7.6111593-17-17s7.6111593-17 17-17 17 7.6111593 17 17c0 4.5086803-1.7910663 8.8326968-4.9791847 12.0208153-3.1881185 3.1881184-7.512135 4.9791847-12.0208153 4.9791847z"/><path id="Shape" d="m30 22c-4.418278 0-8 3.581722-8 8s3.581722 8 8 8 8-3.581722 8-8c0-2.1217319-.8428547-4.1565632-2.3431458-5.6568542-1.500291-1.5002911-3.5351223-2.3431458-5.6568542-2.3431458zm0 14c-3.3137085 0-6-2.6862915-6-6s2.6862915-6 6-6 6 2.6862915 6 6-2.6862915 6-6 6z"/></g></svg>