<svg id="Layer_1" enable-background="new 0 0 512 512" height="512" viewBox="0 0 512 512" width="512" xmlns="http://www.w3.org/2000/svg"><g><g><path d="m192.241 266.133h-24c-2.122 0-4.157-.843-5.657-2.343l-8-8c-3.125-3.124-3.125-8.189 0-11.313 3.124-3.125 8.189-3.125 11.313 0l5.657 5.657h20.687c4.418 0 8 3.582 8 8s-3.581 7.999-8 7.999z" fill="#647dbe"/></g><g><path d="m216.241 298.133h32v-64h-32c-4.418 0-8 3.582-8 8v48c0 4.419 3.582 8 8 8z" fill="#647dbe"/></g><g><path d="m184.241 258.133h-16c-4.418 0-8 3.582-8 8h-12.687l-13.657-13.657c-3.124-3.125-8.189-3.125-11.313 0-3.125 3.124-3.125 8.189 0 11.313l16 16c1.5 1.5 3.535 2.343 5.657 2.343h48v-16c0-4.417-3.581-7.999-8-7.999z" fill="#6ea5d7"/></g><g><g><path d="m120.241 58.133h-16v-8c0-4.418 3.582-8 8-8 4.418 0 8 3.582 8 8z" fill="#faa51e"/></g><g><path d="m112.241 90.133c-4.418 0-8-3.582-8-8v-8h16v8c0 4.419-3.581 8-8 8z" fill="#faa51e"/></g><g><path d="m104.241 58.133v16h-8c-4.418 0-8-3.582-8-8 0-4.418 3.582-8 8-8z" fill="#faa51e"/></g><g><path d="m136.241 66.133c0 4.418-3.582 8-8 8h-8v-16h8c4.419 0 8 3.582 8 8z" fill="#faa51e"/></g></g><g><g><path d="m216.241 90.133h-16v-8c0-4.418 3.582-8 8-8 4.418 0 8 3.582 8 8z" fill="#faa51e"/></g><g><path d="m208.241 122.133c-4.418 0-8-3.582-8-8v-8h16v8c0 4.419-3.581 8-8 8z" fill="#faa51e"/></g><g><path d="m200.241 90.133v16h-8c-4.418 0-8-3.582-8-8 0-4.418 3.582-8 8-8z" fill="#faa51e"/></g><g><path d="m232.241 98.133c0 4.418-3.582 8-8 8h-8v-16h8c4.419 0 8 3.582 8 8z" fill="#faa51e"/></g></g><g><path d="m376.241 290.133h-128v-104c0-17.673 14.327-32 32-32h112v63.778c0 15.794-4.675 31.235-13.436 44.376l-2.564 3.846z" fill="#647dbe"/></g><g><path d="m376.241 26.133v16h-12c-2.209 0-4 1.791-4 4 0 6.627 5.373 12 12 12h4c0 8.836 7.163 16 16 16h32v-48z" fill="#647dbe"/></g><g><path d="m392.241 74.133h32v16h-32z" fill="#647dbe"/></g><g><path d="m408.241 10.133h-32c-4.418 0-8 3.582-8 8s3.582 8 8 8h32v32c0 8.837 7.164 16 16 16v-48c0-8.836-7.163-16-16-16z" fill="#6ea5d7"/></g><g><path d="m432.241 90.133h-48c-4.418 0-8 3.582-8 8v56c-17.673 0-32 14.327-32 32s14.327 32 32 32h32c17.673 0 32-14.327 32-32v-88c0-4.418-3.582-8-8-8z" fill="#6ea5d7"/></g><g><path d="m232.241 194.133v40c0 8.837 7.163 16 16 16h8c8.837 0 16-7.163 16-16v-40c0-4.418-3.582-8-8-8h-24c-4.418 0-8 3.582-8 8z" fill="#6ea5d7"/></g><g><path d="m288.241 194.133v40c0 8.837 7.163 16 16 16h8c8.837 0 16-7.163 16-16v-40c0-4.418-3.582-8-8-8h-24c-4.418 0-8 3.582-8 8z" fill="#6ea5d7"/></g><g><path d="m264.241 170.133h56c8.837 0 16-7.163 16-16v-88c0-13.255-10.745-24-24-24h-40c-13.255 0-24 10.745-24 24v88c0 8.837 7.164 16 16 16z" fill="#647dbe"/></g><g><path d="m296.241 170.133h-32c-8.837 0-16-7.163-16-16v-88c0-13.255 10.745-24 24-24h16c13.255 0 24 10.745 24 24v88c0 8.837-7.163 16-16 16z" fill="#6ea5d7"/></g><g><path d="m392.241 74.133h32v16h-32z" fill="#faa51e"/></g><g><path d="m248.241 290.133h128v32h-128z" fill="#f5732d"/></g><g><path d="m192.241 250.133h16v32h-16z" fill="#f5732d"/></g><g><path d="m264.241 170.133v16c-4.418 0-8 3.582-8 8s3.582 8 8 8h8c8.837 0 16-7.164 16-16v-16z" fill="#323232"/></g><g><path d="m248.241 98.133c26.51 0 48-21.49 48-48v-8h-32c-13.255 0-24 10.745-24 24v24c0 4.419 3.582 8 8 8z" fill="#8caac8"/></g><g><path d="m312.241 98.133c-26.51 0-48-21.49-48-48v-8h56c17.673 0 32 14.327 32 32v16c0 4.418-3.582 8-8 8z" fill="#d7e6f0"/></g><g><path d="m328.241 122.133h-16v-24c0-8.837 7.163-16 16-16h16v24c0 8.837-7.163 16-16 16z" fill="#6ea5d7"/></g><g><path d="m276.241 90.133c-6.627 0-12-5.373-12-12v-40c0-6.627 5.373-12 12-12 6.627 0 12 5.373 12 12v40c0 6.628-5.372 12-12 12z" fill="#faa51e"/></g><g><circle cx="276.241" cy="78.133" fill="#f04b37" r="12"/></g><g><path d="m248.241 322.133c0 26.51 21.49 48 48 48 8.837 0 16 7.163 16 16 0 8.837-7.163 16-16 16-17.673 0-32 14.327-32 32v16h64c8.836 0 16-7.163 16-16 0-8.837 7.164-16 16-16l48.952.005c17.147.001 31.048-13.899 31.048-31.046v-1.61c0-17.457-13.897-31.353-31.039-31.351-.32 0-.64 0-.96 0-17.673.001-32.001-14.326-32.001-31.999h-128z" fill="#647dbe"/></g><g><path d="m200.241 178.133h-96v48c0 4.418 3.582 8 8 8h80c4.418 0 8-3.582 8-8z" fill="#82aa41"/></g><g><path d="m168.241 178.133h-64v48c0 4.418 3.582 8 8 8h48c4.418 0 8-3.582 8-8z" fill="#a5cd3c"/></g><g><path d="m104.241 178.133h64v8h-64z" fill="#82aa41"/></g><g><path d="m200.241 178.133h-96c-4.418 0-8-3.582-8-8v-8c0-4.418 3.582-8 8-8h96c4.418 0 8 3.582 8 8v8c0 4.419-3.581 8-8 8z" fill="#82aa41"/></g><g><path d="m168.241 178.133h-64c-4.418 0-8-3.582-8-8v-8c0-4.418 3.582-8 8-8h64c4.418 0 8 3.582 8 8v8c0 4.419-3.581 8-8 8z" fill="#a5cd3c"/></g><g><path d="m128.241 178.133h16v56h-16z" fill="#faa51e"/></g><g><path d="m128.241 178.133h16v8h-16z" fill="#f5732d"/></g><g><path d="m128.241 154.133h16v24h-16z" fill="#faa51e"/></g><path d="m178.908 111.467c-10.712 0-20.302 4.885-26.667 12.543-6.364-7.657-15.955-12.543-26.667-12.543-11.763 0-21.333 9.57-21.333 21.333s9.57 21.333 21.333 21.333h53.333c11.763 0 21.333-9.57 21.333-21.333.001-11.763-9.569-21.333-21.332-21.333zm-53.333 26.666c-2.941 0-5.333-2.393-5.333-5.333 0-2.941 2.393-5.333 5.333-5.333 7.432 0 13.863 4.365 16.864 10.667h-16.864zm53.333 0h-16.864c3.001-6.302 9.433-10.667 16.864-10.667 2.941 0 5.333 2.393 5.333 5.333 0 2.942-2.392 5.334-5.333 5.334z" fill="#f5732d"/><g><g><path d="m96.241 202.133h-16v-8c0-4.418 3.582-8 8-8 4.418 0 8 3.582 8 8z" fill="#faa51e"/></g><g><path d="m88.241 234.133c-4.418 0-8-3.582-8-8v-8h16v8c0 4.419-3.581 8-8 8z" fill="#faa51e"/></g><g><path d="m80.241 202.133v16h-8c-4.418 0-8-3.582-8-8 0-4.418 3.582-8 8-8z" fill="#faa51e"/></g><g><path d="m112.241 210.133c0 4.418-3.582 8-8 8h-8v-16h8c4.419 0 8 3.582 8 8z" fill="#faa51e"/></g></g><g><g><path d="m208.241 506.133h-32c-4.418 0-8-3.582-8-8 0-4.418 3.582-8 8-8h32c4.418 0 8 3.582 8 8 0 4.419-3.581 8-8 8z" fill="#f5732d"/></g><path d="m140.241 450.133c-11.028 0-20 8.972-20 20s8.972 20 20 20h4c4.418 0 8-3.582 8-8s-3.582-8-8-8h-4c-2.206 0-4-1.794-4-4s1.794-4 4-4h12c0 13.255 10.745 24 24 24h32c13.255 0 24-10.745 24-24h16c8.837 0 16-7.164 16-16z" fill="#faa51e"/><path d="m208.241 442.133h-8c0-4.418-3.582-8-8-8s-8 3.582-8 8h-8c-4.418 0-8 3.582-8 8h48c0-4.418-3.581-8-8-8z" fill="#f5732d"/></g></g></svg>