<svg id="Layer_1" enable-background="new 0 0 512 512" height="512" viewBox="0 0 512 512" width="512" xmlns="http://www.w3.org/2000/svg"><g><g><path d="m151.022 240-5.657-5.657c-3.124-3.124-8.189-3.124-11.313 0-3.125 3.124-3.125 8.189 0 11.313l8 8c1.5 1.5 3.535 2.343 5.657 2.343h24v16h32v-32h-52.687z" fill="#f0915a"/></g><g><path d="m214.375 216h-26.667c-8.837 0-16-7.163-16-16v-120h42.667z" fill="#323232"/></g><g><path d="m259.708 357.333h-2.745l9.372-9.373c12.497-12.497 12.497-32.758 0-45.255s-32.758-12.497-45.255 0l-64 64c-9.152 9.152-11.89 22.916-6.937 34.874s16.621 19.754 29.564 19.754h48c0 17.673 14.327 32 32 32 8.837 0 16-7.164 16-16v-64c.001-8.836-7.162-16-15.999-16z" fill="#f0915a"/></g><g><path d="m203.708 296v80h4.153c2.091 0 3.806-1.562 4.119-3.63 1.75-11.532 11.706-20.37 23.727-20.37s21.978 8.838 23.727 20.37c.314 2.068 2.028 3.63 4.119 3.63h8.307c2.091 0 3.806-1.562 4.119-3.63 1.75-11.532 11.706-20.37 23.727-20.37s21.978 8.838 23.727 20.37c.314 2.068 2.028 3.63 4.119 3.63 2.294 0 4.153-1.859 4.153-4.153v-75.847z" fill="#82aa41"/></g><g><path d="m163.708 216c-8.35 0-15.701 4.266-20 10.735v-42.735c0-2.209-1.791-4-4-4s-4 1.791-4 4v42.735c-4.299-6.469-11.65-10.735-20-10.735h-8v8c0 13.255 10.745 24 24 24h4v8c0 2.209 1.791 4 4 4s4-1.791 4-4v-8h4c13.255 0 24-10.745 24-24v-8z" fill="#82aa41"/></g><g><path d="m139.708 168 5.334 5.333v10.667h-10.667v-10.667z" fill="#f04b37"/></g><g><path d="m139.708 200v-16c0-8.837-7.163-16-16-16v16c0 8.837 7.164 16 16 16z" fill="#d73228"/></g><g><path d="m139.708 200c8.837 0 16-7.163 16-16v-16c-8.837 0-16 7.163-16 16z" fill="#f04b37"/></g><g><path d="m163.708 248h-16c-4.418 0-8 3.582-8 8h-12.687l-13.657-13.657c-3.124-3.124-8.189-3.124-11.313 0-3.125 3.124-3.125 8.189 0 11.313l16 16c1.5 1.5 3.535 2.343 5.657 2.343h48v-16c0-4.417-3.582-7.999-8-7.999z" fill="#fab991"/></g><g><path d="m203.708 264v-80c0-17.673 14.327-32 32-32h80v80.26c0 10.078-4.004 19.744-11.13 26.87l-4.87 4.87z" fill="#f0915a"/></g><g><path d="m315.708 232h-112c-13.255 0-24-10.745-24-24 0-13.255 10.745-24 24-24h112z" fill="#82aa41"/></g><g><path d="m355.708 40h40v37.333h-40z" fill="#f0915a"/></g><g><path d="m363.708 77.333v58.667c0 8.837-7.163 16-16 16h-32c-8.837 0-16 7.163-16 16 0 8.837 7.163 16 16 16h32c26.51 0 48-21.49 48-48v-58.667z" fill="#fab991"/></g><g><path d="m347.708 69.333v-20c0-2.209 1.791-4 4-4 6.627 0 12 5.373 12 12v4c8.837 0 16 7.164 16 16h-24c-4.418 0-8-3.581-8-8z" fill="#fab991"/></g><g><path d="m355.708 24h32c4.418 0 8 3.582 8 8v8h-40c-4.418 0-8-3.582-8-8 0-4.418 3.582-8 8-8z" fill="#fab991"/></g><g><path d="m219.708 168h40c8.837 0 16-7.163 16-16v-72c0-13.255-10.745-24-24-24h-40c-13.255 0-24 10.745-24 24v56c0 17.673 14.327 32 32 32z" fill="#f0915a"/></g><g><path d="m235.708 168h-16c-17.673 0-32-14.327-32-32v-56c0-13.255 10.745-24 24-24h16c13.255 0 24 10.745 24 24v72c0 8.837-7.163 16-16 16z" fill="#fab991"/></g><g><path d="m179.708 96h64v8c0 4.418 3.582 8 8 8v88c0 8.837 7.163 16 16 16h16c8.837 0 16-7.163 16-16v-112c0-26.51-21.49-48-48-48h-48c-17.673 0-32 14.327-32 32v16c0 4.418 3.582 8 8 8z" fill="#464646"/></g><g><path d="m299.708 68h-128c-2.209 0-4-1.791-4-4s1.791-4 4-4h128c2.209 0 4 1.791 4 4s-1.791 4-4 4z" fill="#82aa41"/></g><g><path d="m395.708 440c0-8.189-3.124-16.379-9.373-22.627l-54.627-54.627v-66.746c0-17.673-14.327-32-32-32s-32 14.327-32 32v80c0 8.487 3.371 16.626 9.373 22.627l41.373 41.373h-2.746c-17.673 0-32 14.327-32 32 0 8.836 7.163 16 16 16h80c8.837 0 16-7.164 16-16z" fill="#fab991"/></g><g><path d="m299.708 264h-96v32h128c0-17.673-14.327-32-32-32z" fill="#a5cd3c"/></g><g><path d="m347.708 216v8c0 13.255 10.745 24 24 24h8v-8c0-13.255-10.745-24-24-24z" fill="#82aa41"/></g><g><path d="m155.708 376h-8c-13.255 0-24 10.745-24 24v8h8c13.255 0 24-10.745 24-24z" fill="#82aa41"/></g><g><path d="m411.708 344h-8c-13.255 0-24 10.745-24 24v8h8c13.255 0 24-10.745 24-24z" fill="#82aa41"/></g><g><g><path d="m214.375 88-7.029-7.029c-9.373-9.373-9.373-24.569 0-33.941l7.029-7.03 7.029 7.029c9.373 9.373 9.373 24.569 0 33.941z" fill="#a5cd3c"/></g><g><path d="m257.042 88-7.029-7.029c-9.373-9.373-9.373-24.569 0-33.941l7.029-7.03 7.029 7.029c9.373 9.373 9.373 24.569 0 33.941z" fill="#a5cd3c"/></g><g><path d="m299.708 88-7.029-7.029c-9.373-9.373-9.373-24.569 0-33.941l7.029-7.03 7.029 7.029c9.373 9.373 9.373 24.569 0 33.941z" fill="#a5cd3c"/></g><g><path d="m171.708 88-7.029-7.029c-9.373-9.373-9.373-24.569 0-33.941l7.029-7.03 7.029 7.029c9.373 9.373 9.373 24.569 0 33.941z" fill="#a5cd3c"/></g></g><g><path d="m363.708 88h32v16h-32z" fill="#82aa41"/></g><g><path d="m171.708 248h32v16h-32z" fill="#82aa41" transform="matrix(0 -1 1 0 -68.292 443.708)"/></g></g></svg>