<svg id="Layer_1" enable-background="new 0 0 512 512" height="512" viewBox="0 0 512 512" width="512" xmlns="http://www.w3.org/2000/svg"><g><g><path d="m128.821 118.933h5.333v21.333h-5.333z" fill="#5a5a6e"/></g><g><path d="m179.487 265.6h-32c-2.122 0-4.156-.843-5.657-2.343l-8-8c-3.124-3.124-3.124-8.189 0-11.313 3.125-3.124 8.189-3.124 11.314 0l5.656 5.657h28.687c4.418 0 8 3.582 8 8s-3.582 7.999-8 7.999z" fill="#f0915a"/></g><g><path d="m187.487 321.6h56v-80h-56c-4.418 0-8 3.582-8 8v64c0 4.418 3.582 8 8 8z" fill="#32283c"/></g><g><path d="m171.487 257.6h-24c-4.418 0-8 3.582-8 8h-12.687l-13.656-13.657c-3.125-3.124-8.189-3.124-11.314 0-3.124 3.124-3.124 8.189 0 11.313l16 16c1.501 1.5 3.535 2.343 5.657 2.343h56v-16c0-4.417-3.581-7.999-8-7.999z" fill="#fab991"/></g><g><path d="m222.154 49.6c-27.982 0-50.667 22.684-50.667 50.667v61.333c0 17.673 14.327 32 32 32h136v-96c0-26.51-21.49-48-48-48z" fill="#5a5a6e"/></g><g><path d="m267.487 225.6h-48c-8.837 0-16-7.163-16-16v-112h64z" fill="#f06423"/></g><g><path d="m435.487 449.6c0-8.189-3.124-16.379-9.373-22.627l-54.627-54.627v-50.746h-112c-8.837 0-16-7.163-16-16v18.746l-38.627 38.627c-6.002 6.001-9.373 14.141-9.373 22.627v64c-17.673 0-32 14.327-32 32 0 8.836 7.164 16 16 16h240c8.837 0 16-7.163 16-16z" fill="#32283c"/></g><g><path d="m371.487 321.6h-112c-8.837 0-16-7.163-16-16v-112c0-17.673 14.327-32 32-32h96z" fill="#463c4b"/></g><g><path d="m443.487 97.6h-64c-4.418 0-8 3.582-8 8v56c-17.673 0-32 14.327-32 32s14.327 32 32 32h48c17.673 0 32-14.327 32-32v-88c0-4.418-3.581-8-8-8z" fill="#5a5a6e"/></g><g><path d="m435.487 449.6c0-8.189-3.124-16.379-9.373-22.627l-54.627-54.627v-66.746c0-17.673-14.327-32-32-32s-32 14.327-32 32v80c0 8.487 3.371 16.626 9.373 22.627l41.373 41.373h-2.746c-17.673 0-32 14.327-32 32 0 8.836 7.164 16 16 16h80c8.836 0 16-7.164 16-16z" fill="#463c4b"/></g><g><path d="m371.487 33.6v16h-12c-2.209 0-4 1.791-4 4 0 6.627 5.373 12 12 12h4c0 8.836 7.164 16 16 16v16h32v-64z" fill="#f0915a"/></g><g><path d="m403.487 17.6h-32c-4.418 0-8 3.582-8 8s3.582 8 8 8h32v32c0 8.837 7.164 16 16 16v-48c0-8.837-7.163-16-16-16z" fill="#fab991"/></g><g><path d="m267.487 177.6h-32c-17.673 0-32-14.327-32-32v-56c0-13.255 10.745-24 24-24h16c13.255 0 24 10.745 24 24z" fill="#fab991"/></g><g><path d="m198.154 97.6h69.333v-2.667c0-25.037-20.296-45.333-45.333-45.333-17.673 0-32 14.327-32 32v8c0 4.418 3.582 8 8 8z" fill="#f06423"/></g><g><path d="m299.487 225.6h-16c-8.837 0-16-7.163-16-16v-112h48v112c0 8.837-7.163 16-16 16z" fill="#f06423"/></g><g><path d="m222.154 49.6c25.037 0 45.333 20.296 45.333 45.333v82.667c0 8.837 7.163 16 16 16h16c8.837 0 16-7.163 16-16 0-8.837 7.163-16 16-16h8v-64c0-26.51-21.49-48-48-48z" fill="#5a5a6e"/></g><g><path d="m203.487 97.6h64v32h-64z" fill="#f0915a"/></g><path d="m163.487 196.267c4.418 0 8-3.582 8-8s-3.582-8-8-8h-16c-.001 0-.002 0-.002 0h-31.995c-.001 0-.002 0-.002 0h-16c-4.418 0-8 3.582-8 8s3.582 8 8 8h16v12.686l-10.99 10.991c-3.124 3.124-3.124 8.189 0 11.313 1.563 1.563 3.609 2.343 5.657 2.343s4.095-.781 5.657-2.343l13.333-13.333c.104-.104.195-.215.292-.323h6.768c.097.108.188.219.292.323l13.333 13.333c1.563 1.563 3.609 2.343 5.657 2.343 2.047 0 4.095-.781 5.657-2.343 3.124-3.124 3.124-8.189 0-11.313l-13.333-13.333c-.104-.104-.216-.196-.324-.293v-10.05h16z" fill="#d76e28"/><g><circle cx="131.487" cy="161.6" fill="#faa51e" r="24"/></g><g><circle cx="131.487" cy="105.6" fill="#d73228" r="16"/></g><g><circle cx="131.487" cy="98.933" fill="#fab991" r="4"/></g><path d="m124.983 162.934 2.586-2.586c.781-.781.781-2.047 0-2.828s-2.047-.781-2.828 0l-2.586 2.586-2.586-2.586c-.781-.781-2.047-.781-2.828 0s-.781 2.047 0 2.828l2.586 2.586-2.586 2.586c-.781.781-.781 2.047 0 2.828.391.391.902.586 1.414.586s1.023-.195 1.414-.586l2.586-2.586 2.586 2.586c.391.391.902.586 1.414.586s1.023-.195 1.414-.586c.781-.781.781-2.047 0-2.828z" fill="#464646"/><path d="m143.649 162.934 2.586-2.586c.781-.781.781-2.047 0-2.828s-2.047-.781-2.828 0l-2.586 2.586-2.586-2.586c-.781-.781-2.047-.781-2.828 0s-.781 2.047 0 2.828l2.586 2.586-2.586 2.586c-.781.781-.781 2.047 0 2.828.391.391.902.586 1.414.586s1.023-.195 1.414-.586l2.586-2.586 2.586 2.586c.391.391.902.586 1.414.586s1.023-.195 1.414-.586c.781-.781.781-2.047 0-2.828z" fill="#464646"/><g><g><g><path d="m72.82 141.6h-10.666c-2.209 0-4-1.791-4-4s1.791-4 4-4h10.666c2.209 0 4 1.791 4 4s-1.791 4-4 4z" fill="#d76e28"/></g></g><g><g><path d="m99.487 141.6h-10.667c-2.209 0-4-1.791-4-4s1.791-4 4-4h10.667c2.209 0 4 1.791 4 4s-1.791 4-4 4z" fill="#d76e28"/></g></g><g><g><path d="m80.82 160.267c-2.209 0-4-1.791-4-4v-10.667c0-2.209 1.791-4 4-4s4 1.791 4 4v10.667c0 2.208-1.791 4-4 4z" fill="#d76e28"/></g></g><g><g><path d="m80.82 133.6c-2.209 0-4-1.791-4-4v-10.667c0-2.209 1.791-4 4-4s4 1.791 4 4v10.667c0 2.209-1.791 4-4 4z" fill="#d76e28"/></g></g></g></g></svg>