<svg id="Layer_1" enable-background="new 0 0 512 512" height="512" viewBox="0 0 512 512" width="512" xmlns="http://www.w3.org/2000/svg"><g><g><path d="m344.513 76.8c-44.183 0-80 35.817-80 80v80h80c44.183 0 80-35.817 80-80 0-44.183-35.817-80-80-80z" fill="#d7e6f0"/></g><g><path d="m379.179 76.8c-44.183 0-80 35.817-80 80v112c0 17.673 14.327 32 32 32 17.673 0 32-14.327 32-32 0-17.673-14.327-32-32-32h48c44.183 0 80-35.817 80-80 0-44.183-35.817-80-80-80z" fill="#6ea5d7"/></g><g><path d="m379.179 444.8c0-8.189-3.124-16.379-9.373-22.627l-54.627-54.627v-66.746c0-17.673-14.327-32-32-32s-32 14.327-32 32v80c0 8.487 3.371 16.626 9.373 22.627l41.373 41.373h-2.746c-17.673 0-32 14.327-32 32 0 8.836 7.163 16 16 16h80c8.837 0 16-7.164 16-16z" fill="#fab991"/></g><g><path d="m155.179 260.8h-24c-2.122 0-4.157-.843-5.657-2.343l-8-8c-3.125-3.125-3.125-8.189 0-11.314 3.124-3.123 8.189-3.123 11.313 0l5.657 5.657h20.687c4.418 0 8 3.582 8 8s-3.581 8-8 8z" fill="#f0915a"/></g><path d="m147.179 252.8h-16c-4.418 0-8 3.582-8 8h-12.687l-13.657-13.657c-3.124-3.123-8.189-3.123-11.313 0-3.125 3.125-3.125 8.189 0 11.314l16 16c1.5 1.5 3.535 2.343 5.657 2.343h48v-16c0-4.418-3.581-8-8-8z" fill="#fab991"/><g><path d="m315.179 292.8h-128v-104c0-17.673 14.327-32 32-32h80v80.26c0 10.078-4.004 19.744-11.13 26.87l-4.87 4.87h8c13.255 0 24 10.745 24 24z" fill="#f0915a"/></g><g><path d="m235.179 362.133h-2.746l9.373-9.373c12.497-12.497 12.497-32.759 0-45.256-12.497-12.496-32.758-12.496-45.255 0l-64 64c-9.152 9.152-11.89 22.916-6.937 34.874 4.953 11.957 16.621 19.754 29.564 19.754h48c0 17.673 14.327 32 32 32 8.837 0 16-7.164 16-16v-64c.001-8.835-7.162-15.999-15.999-15.999z" fill="#f0915a"/></g><g><path d="m155.179 244.8h32v32h-32z" fill="#f0915a"/></g><g><path d="m203.179 172.8h40c8.837 0 16-7.163 16-16v-72c0-13.255-10.745-24-24-24h-40c-13.255 0-24 10.745-24 24v56c0 17.673 14.327 32 32 32z" fill="#f0915a"/></g><g><path d="m219.179 172.8h-16c-17.673 0-32-14.327-32-32v-56c0-13.255 10.745-24 24-24h16c13.255 0 24 10.745 24 24v72c0 8.837-7.163 16-16 16z" fill="#fab991"/></g><g><path d="m355.18 348.8h-208c-4.418 0-8-3.582-8-8 0-26.51 21.49-48 48-48h128c26.51 0 48 21.49 48 48-.001 4.418-3.582 8-8 8z" fill="#aac3d7"/></g><g><path d="m283.179 20.8c-16.876 0-31.301 10.457-37.176 25.241-3.48-.803-7.1-1.241-10.824-1.241h-48c-17.673 0-32 14.327-32 32v16c0 4.418 3.582 8 8 8h64v8c0 4.418 3.582 8 8 8v24c0 8.836 7.163 16 16 16h16c8.837 0 16-7.164 16-16v-40c22.091 0 40-17.909 40-40s-17.908-40-40-40z" fill="#faa51e"/></g><g><path d="m243.179 140.8h-8v-24c0-8.837 7.163-16 16-16h8v24c0 8.837-7.163 16-16 16z" fill="#fab991"/></g><g><path d="m291.179 268.8h-8l4.87-4.87c7.126-7.126 11.13-16.792 11.13-26.87v-32.26h-32c0-13.255-10.745-24-24-24s-24 10.745-24 24c0-13.255-10.745-24-24-24s-24 10.745-24 24c0 10.449 6.68 19.333 16 22.629v65.371h128c0-13.255-10.745-24-24-24z" fill="#d7e6f0"/></g><g><path d="m339.179 44.8h40v37.333h-40z" fill="#f0915a"/></g><g><circle cx="219.179" cy="50.133" fill="#fad241" r="32"/></g><g><path d="m221.846 55.467h168c2.946 0 5.333-2.388 5.333-5.333 0-2.946-2.388-5.333-5.333-5.333h-168z" fill="#8caac8"/></g><g><path d="m199.295 46.546 8.901-4.393 1.427-9.823c.477-3.281 4.509-4.591 6.823-2.217l6.929 7.108 9.784-1.678c3.268-.56 5.759 2.869 4.217 5.804l-4.619 8.786 4.619 8.786c1.543 2.935-.949 6.364-4.217 5.804l-9.784-1.678-6.929 7.108c-2.314 2.374-6.346 1.064-6.823-2.217l-1.427-9.823-8.901-4.393c-2.973-1.467-2.973-5.706 0-7.174z" fill="#f0697d"/></g><g><path d="m363.179 82.133c0-8.836-7.163-16-16-16v-4c0-6.627-5.373-12-12-12-2.209 0-4 1.791-4 4v20c0 4.418 3.582 8 8 8h8v58.667c0 8.836-7.163 16-16 16h-48c-8.837 0-16 7.164-16 16 0 8.836 7.163 16 16 16h48c26.51 0 48-21.49 48-48v-58.667z" fill="#fab991"/></g><g><path d="m339.179 28.8h32c4.418 0 8 3.582 8 8v8h-40c-4.418 0-8-3.582-8-8 0-4.418 3.582-8 8-8z" fill="#fab991"/></g><g><g><path d="m83.179 108.8h-16v-8c0-4.418 3.582-8 8-8 4.418 0 8 3.582 8 8z" fill="#faa51e"/></g><g><path d="m75.179 140.8c-4.418 0-8-3.582-8-8v-8h16v8c0 4.418-3.581 8-8 8z" fill="#faa51e"/></g><g><path d="m67.179 108.8v16h-8c-4.418 0-8-3.582-8-8 0-4.418 3.582-8 8-8z" fill="#faa51e"/></g><g><path d="m99.179 116.8c0 4.418-3.582 8-8 8h-8v-16h8c4.419 0 8 3.582 8 8z" fill="#faa51e"/></g></g><g><path d="m163.109 170.932c-.889-11.743-10.45-21.247-22.197-22.071-9.059-.636-17.138 3.761-21.732 10.674-4.594-6.913-12.673-11.31-21.732-10.674-11.747.825-21.309 10.329-22.197 22.071-.772 10.203 4.844 19.182 13.262 23.367v33.167c0 5.155 4.179 9.333 9.333 9.333h2.667c5.155 0 9.333-4.179 9.333-9.333v-10.666c0-5.155 4.179-9.333 9.333-9.333 5.155 0 9.333 4.179 9.333 9.333v10.667c0 5.155 4.179 9.333 9.333 9.333h2.667c5.155 0 9.333-4.179 9.333-9.333v-33.167c8.42-4.186 14.036-13.164 13.264-23.368z" fill="#d7e6f0"/></g><g><path d="m163.109 170.932c-.889-11.743-10.45-21.247-22.197-22.071-9.059-.636-17.138 3.761-21.732 10.674-4.594-6.913-12.673-11.31-21.732-10.674-11.747.825-21.309 10.329-22.197 22.071-.772 10.203 4.844 19.182 13.262 23.367v33.167c0 5.155 4.179 9.333 9.333 9.333h2.667c5.155 0 9.333-4.179 9.333-9.333v-10.666c0-5.155 4.179-9.333 9.333-9.333 5.155 0 9.333 4.179 9.333 9.333v10.667c0 5.155 4.179 9.333 9.333 9.333h2.667c5.155 0 9.333-4.179 9.333-9.333v-33.167c8.42-4.186 14.036-13.164 13.264-23.368z" fill="#d7e6f0"/></g><g><path d="m162.986 169.706c-1.361-10.885-10.211-19.572-21.116-20.759-4.84-.527-9.427.391-13.392 2.371 7.368 3.681 12.649 11.042 13.298 19.614.536 7.074-2 13.56-6.411 18.267-.014.015-.029.031-.043.046-2.927 3.142-6.936 5.054-11.231 5.054h-35.578v33.167c0 5.154 4.179 9.333 9.333 9.333h2.667c5.155 0 9.333-4.179 9.333-9.333v-10.346c0-4.971 3.751-9.312 8.712-9.633 5.436-.352 9.955 3.953 9.955 9.313v10.667c0 2.284.823 4.375 2.186 5.997 1.712 2.038 4.277 3.336 7.147 3.336h2.667c5.154 0 9.333-4.179 9.333-9.333v-33.167c8.755-4.353 14.478-13.888 13.14-24.594z" fill="#aac3d7"/></g><g><circle cx="99.179" cy="164.8" fill="#fff" r="8"/></g></g></svg>