<svg id="Layer_1" enable-background="new 0 0 512 512" height="512" viewBox="0 0 512 512" width="512" xmlns="http://www.w3.org/2000/svg"><g><g><path d="m289.554 297.373c-12.496-12.497-32.758-12.497-45.254 0l-64 64c-6.002 6.001-9.373 14.141-9.373 22.627v64c-17.673 0-32 14.327-32 32 0 8.837 7.164 16 16 16h64c8.836 0 16-7.163 16-16v-82.745l54.627-54.627c12.497-12.497 12.497-32.759 0-45.255z" fill="#323232"/></g><g><path d="m410.927 448c0-8.189-3.124-16.379-9.373-22.627l-54.627-54.627v-66.746c0-17.673-14.327-32-32-32s-32 14.327-32 32v80c0 8.487 3.371 16.626 9.373 22.627l41.373 41.373h-2.746c-17.673 0-32 14.327-32 32 0 8.837 7.164 16 16 16h80c8.836 0 16-7.163 16-16z" fill="#464646"/></g><g><path d="m314.927 104h-8c-4.418 0-8-3.582-8-8v-28c0-2.209 1.791-4 4-4 2.209 0 4 1.791 4 4 0 2.209 1.791 4 4 4 2.209 0 4-1.791 4-4 0-2.209 1.791-4 4-4 2.209 0 4 1.791 4 4v28c0 4.418-3.582 8-8 8z" fill="#647dbe"/></g><g><path d="m298.927 128h32v24h-32z" fill="#464646"/></g><g><path d="m322.927 104h8v24h-8z" fill="#fab991"/></g><g><path d="m306.927 104h8v24h-8z" fill="#fab991"/></g><g><path d="m330.927 104h-8c-4.418 0-8-3.582-8-8v-28c0-2.209 1.791-4 4-4 2.209 0 4 1.791 4 4 0 2.209 1.791 4 4 4 2.209 0 4-1.791 4-4 0-2.209 1.791-4 4-4 2.209 0 4 1.791 4 4v28c0 4.418-3.582 8-8 8z" fill="#6ea5d7"/></g><g><path d="m226.927 208h-16c-4.418 0-8-3.582-8-8v-56h24z" fill="#f5d7a5"/></g><g><path d="m346.927 192v168h4.153c2.091 0 3.806-1.562 4.119-3.63 1.75-11.532 11.706-20.37 23.727-20.37s21.978 8.838 23.727 20.37c.314 2.068 2.028 3.63 4.119 3.63 2.294 0 4.153-1.859 4.153-4.153v-163.847z" fill="#aa5a28"/></g><g><path d="m162.927 296h56v-64h-56c-4.418 0-8 3.582-8 8v48c0 4.418 3.582 8 8 8z" fill="#4b8c41"/></g><g><path d="m138.927 248h16v32h-16z" fill="#fab991"/></g><g><path d="m122.927 232c8.837 0 16 7.163 16 16v32h-16z" fill="#f0915a"/></g><g><path d="m346.927 320h-128v-128c0-17.673 14.327-32 32-32h96z" fill="#82aa41"/></g><g><path d="m346.927 160h-16c-17.673 0-32 14.327-32 32 0 4.418-3.582 8-8 8h-72c-4.418 0-8-3.582-8-8 0-22.091 17.909-40 40-40h96z" fill="#d76e28"/></g><g><path d="m346.927 32v16h-12c-2.209 0-4 1.791-4 4 0 6.627 5.373 12 12 12h4c0 8.837 7.164 16 16 16v16h32v-64z" fill="#f0915a"/></g><g><path d="m378.927 16h-32c-4.418 0-8 3.582-8 8s3.582 8 8 8h32v32c0 8.837 7.164 16 16 16v-48c0-8.837-7.164-16-16-16z" fill="#fab991"/></g><g><path d="m402.927 96h-48c-4.418 0-8 3.582-8 8v56c-17.673 0-32 14.327-32 32s14.327 32 32 32h32c17.673 0 32-14.327 32-32v-88c0-4.418-3.582-8-8-8z" fill="#a5cd3c"/></g><g><path d="m258.927 176h-48c-8.837 0-16-7.163-16-16v-72c0-13.255 10.745-24 24-24h16c13.255 0 24 10.745 24 24z" fill="#fab991"/></g><path d="m298.927 96c0-26.51-21.49-48-48-48h-24c-17.673 0-32 14.327-32 32v7.95c0-4.393 3.557-7.957 7.95-7.967l39.934.017c4.456.006 8.068 3.615 8.077 8.072l.022 15.823c.01 4.474-3.615 8.106-8.088 8.106l.105 8c0 4.418 3.582 8 8 8v72c0 4.418 3.582 8 8 8h16c4.418 0 8-3.582 8-8v-48h16z" fill="#f5d7a5"/><g><path d="m258.927 144h-8v-16c0-8.837 7.163-16 16-16h8v16c0 8.837-7.163 16-16 16z" fill="#f0915a"/></g><g><path d="m218.927 320-30.343 30.343c-1.061 1.061-1.657 2.5-1.657 4 0 3.124 2.533 5.657 5.657 5.657h154.343v-40z" fill="#82aa41"/></g><g><path d="m218.927 296h128v24h-128z" fill="#d76e28"/></g><g><path d="m170.927 372c-2.209 0-4-1.791-4-4v-224c0-2.209 1.791-4 4-4s4 1.791 4 4v224c0 2.209-1.791 4-4 4z" fill="#d7e6f0"/></g><path d="m146.927 340c-15.439 0-28-12.561-28-28v-112c0-15.439 12.561-28 28-28s28-12.561 28-28c0-2.209-1.791-4-4-4s-4 1.791-4 4c0 11.028-8.972 20-20 20-19.851 0-36 16.15-36 36v112c0 19.85 16.149 36 36 36 11.028 0 20 8.972 20 20 0 2.209 1.791 4 4 4s4-1.791 4-4c0-15.439-12.561-28-28-28z" fill="#64412d"/><g><path d="m118.927 288h-8c-2.209 0-4-1.791-4-4v-56c0-2.209 1.791-4 4-4h8c2.209 0 4 1.791 4 4v56c0 2.209-1.791 4-4 4z" fill="#d76e28"/></g><g><path d="m104.26 232c13.255 0 24 10.745 24 24 0 13.255-10.745 24-24 24-4.418 0-8-3.582-8-8v-32c0-4.418 3.582-8 8-8z" fill="#fab991"/></g></g></svg>