<svg id="Layer_1" enable-background="new 0 0 512 512" height="512" viewBox="0 0 512 512" width="512" xmlns="http://www.w3.org/2000/svg"><g><g><path d="m356.241 212h72c26.51 0 48-21.49 48-48v-48c0-8.837 7.163-16 16-16v64c0 44.183-35.817 80-80 80h-56z" fill="#323232"/></g><path d="m236.241 172v-16h-72v-16c0-13.255-10.745-24-24-24h-24v72h-24c8.837 0 16 7.163 16 16v8h168c-22.091 0-40-17.908-40-40z" fill="#323232"/><g><g><path d="m180.241 356v-80c0-35.346 28.654-64 64-64h-120v72c8.837 0 16 7.163 16 16v16c0 22.091 17.909 40 40 40z" fill="#464646"/></g><g><path d="m380.241 324c-22.091 0-40-17.908-40-40v-72h-80v112c0 35.346 28.654 64 64 64h16v32c-17.673 0-32 14.327-32 32h32c22.091 0 40-17.909 40-40z" fill="#323232"/></g><g><path d="m436.241 324h-118.059c-6.365 0-12.47 2.529-16.971 7.029l-17.941 17.941c-4.5 4.501-10.605 7.03-16.97 7.03h-86.059v-80c0-35.346 28.654-64 64-64h112c44.183 0 80 35.817 80 80z" fill="#646464"/></g><g><path d="m164.241 356c-22.091 0-40 17.908-40 40 0 13.255 10.745 24 24 24v-24h32v-40z" fill="#323232"/></g><g><path d="m436.241 300v-8c0-44.183-35.817-80-80-80v112c0 35.346 28.654 64 64 64h16v64c22.091 0 40-17.909 40-40v-72c-22.091 0-40-17.909-40-40z" fill="#464646"/></g><g><path d="m436.241 452h-32c0-17.673 14.327-32 32-32z" fill="#323232"/></g><g><g><path d="m180.241 428c-13.255 0-24 10.745-24 24h24z" fill="#323232"/></g><g><path d="m220.241 276c-22.091 0-40 17.908-40 40v.002 135.998c22.091 0 40-17.908 40-40v-56c22.091 0 40-17.908 40-40s-17.908-40-40-40z" fill="#464646"/></g></g></g><g><g><path d="m76.241 236h-8v-24c0-8.837 7.163-16 16-16h8v24c0 8.837-7.163 16-16 16z" fill="#323232"/></g><g><path d="m132.241 236h-8v-24c0-8.837 7.163-16 16-16h8v24c0 8.837-7.163 16-16 16z" fill="#646464"/></g><g><g><path d="m80.241 268h-52v-8h52c2.209 0 4 1.791 4 4 0 2.209-1.791 4-4 4z" fill="#323232"/></g><g><path d="m124.241 236v-24h-56c-8.837 0-16 7.163-16 16v8h-24c-4.418 0-8 3.582-8 8v8c0 4.418 3.582 8 8 8h52c2.209 0 4 1.791 4 4s-1.791 4-4 4h-52c-4.418 0-8 3.582-8 8s3.582 8 8 8h96c13.255 0 24-10.745 24-24 0-13.255-10.745-24-24-24z" fill="#646464"/></g><g><circle cx="36.241" cy="236" fill="#323232" r="8"/></g></g><g><path d="m65.575 268c1.593 0 3.006-1.019 3.51-2.53l1.823-5.47h-10.667l1.823 5.47c.504 1.511 1.918 2.53 3.511 2.53z" fill="#d7e6f0"/></g><g><path d="m44.241 268c1.593 0 3.006-1.019 3.51-2.53l1.823-5.47h-10.666l1.823 5.47c.504 1.511 1.918 2.53 3.51 2.53z" fill="#d7e6f0"/></g></g><g><g><path d="m68.241 140h-8v-24c0-8.837 7.163-16 16-16h8v24c0 8.837-7.163 16-16 16z" fill="#323232"/></g><g><path d="m124.241 140h-8v-24c0-8.837 7.163-16 16-16h8v24c0 8.837-7.163 16-16 16z" fill="#464646"/></g><g><g><path d="m72.241 172h-52v-8h52c2.209 0 4 1.791 4 4 0 2.209-1.791 4-4 4z" fill="#323232"/></g><g><path d="m116.241 140v-24h-56c-8.837 0-16 7.164-16 16v8h-24c-4.418 0-8 3.582-8 8v8c0 4.418 3.582 8 8 8h52c2.209 0 4 1.791 4 4s-1.791 4-4 4h-52c-4.418 0-8 3.582-8 8s3.582 8 8 8h96c13.255 0 24-10.745 24-24 0-13.255-10.745-24-24-24z" fill="#646464"/></g><g><circle cx="28.241" cy="140" fill="#323232" r="8"/></g></g><g><path d="m57.575 172c1.593 0 3.006-1.019 3.51-2.53l1.823-5.47h-10.667l1.823 5.47c.504 1.511 1.918 2.53 3.511 2.53z" fill="#d7e6f0"/></g><g><path d="m36.241 172c1.593 0 3.006-1.019 3.51-2.53l1.823-5.47h-10.666l1.823 5.47c.504 1.511 1.918 2.53 3.51 2.53z" fill="#d7e6f0"/></g></g><g><g><path d="m212.241 108v-8h24c8.837 0 16 7.163 16 16v8h-24c-8.836 0-16-7.163-16-16z" fill="#323232"/></g><g><path d="m212.241 164v-8h24c8.837 0 16 7.163 16 16v8h-24c-8.836 0-16-7.163-16-16z" fill="#464646"/></g><g><g><path d="m180.241 112v-52h8v52c0 2.209-1.791 4-4 4-2.209 0-4-1.791-4-4z" fill="#323232"/></g><g><path d="m220.241 84h-8v-24c0-4.418-3.582-8-8-8h-8c-4.418 0-8 3.582-8 8v52c0 2.209-1.791 4-4 4s-4-1.791-4-4v-52c0-4.418-3.582-8-8-8s-8 3.582-8 8v96c0 13.255 10.745 24 24 24s24-10.745 24-24h24v-56c0-8.836-7.163-16-16-16z" fill="#646464"/></g><g><circle cx="212.241" cy="68" fill="#323232" r="8"/></g></g><g><path d="m180.241 97.333c0 1.593 1.019 3.006 2.53 3.51l5.47 1.823v-10.666l-5.47 1.823c-1.511.504-2.53 1.918-2.53 3.51z" fill="#d7e6f0"/></g><g><path d="m180.241 76c0 1.593 1.019 3.006 2.53 3.51l5.47 1.823v-10.666l-5.47 1.823c-1.511.504-2.53 1.917-2.53 3.51z" fill="#d7e6f0"/></g></g></g></svg>