<svg id="Layer_1" enable-background="new 0 0 512 512" height="512" viewBox="0 0 512 512" width="512" xmlns="http://www.w3.org/2000/svg"><g><g><path d="m428.241 235.669h-96v-32h96c17.645 0 32-14.355 32-32s-14.355-32-32-32h-9.373c-10.318 0-20.018 4.018-27.314 11.313-13.339 13.34-31.076 20.687-49.941 20.687h-9.373v-32h9.373c10.318 0 20.018-4.018 27.314-11.313 13.339-13.34 31.076-20.687 49.941-20.687h9.373c35.29 0 64 28.71 64 64s-28.71 64-64 64z" fill="#329682"/></g><g><g><path d="m226.917 347.669c12.347 28.25 40.522 48 73.324 48v48c26.51 0 48-21.49 48-48v-48z" fill="#323232"/></g></g><g><path d="m300.241 443.669h-32c0-17.673 14.327-32 32-32z" fill="#323232"/></g><g><path d="m412.241 347.669h-320v-144h240c44.183 0 80 35.817 80 80z" fill="#faa51e"/></g><g><path d="m140.241 251.669c-26.51 0-48 21.49-48 48v48 96c26.51 0 48-21.49 48-48v-48c26.51 0 48-21.49 48-48 0-26.51-21.49-48-48-48z" fill="#f06423"/></g><g><path d="m60.241 131.669c0-17.673 14.327-32 32-32h24c57.438 0 104 46.562 104 104v72h-96c-17.673 0-32 14.327-32 32v40c-17.673 0-32-14.327-32-32z" fill="#64412d"/></g><g><path d="m60.241 139.669c0 26.51-21.49 48-48 48v48h48c0-8.837 7.163-16 16-16h24c22.091 0 40-17.909 40-40 0-22.091-17.909-40-40-40z" fill="#f06423"/></g><g><path d="m12.241 187.669v48h48c0-26.51-21.49-48-48-48z" fill="#fad7a0"/></g><g><path d="m100.241 139.669h-24v-4c0-6.627 5.373-12 12-12 6.627 0 12 5.373 12 12z" fill="#faa51e"/></g><g><path d="m92.241 443.669h-32c0-17.673 14.327-32 32-32z" fill="#64412d"/></g><g><path d="m76.241 347.669c-22.091 0-40 17.909-40 40 0 13.255 10.745 24 24 24v-24h32v-40z" fill="#64412d"/></g><g><path d="m236.241 59.669h-24c-8.837 0-16 7.163-16 16v20c0 6.627 5.373 12 12 12 6.627 0 12-5.373 12-12v-20c8.837 0 16-7.164 16-16z" fill="#aac3d7"/></g><g><path d="m148.241 187.669v-24h16v8c0 8.836-7.163 16-16 16z" fill="#aac3d7"/></g><g><path d="m284.241 187.669v-48c0-26.51-21.49-48-48-48h-32c-8.837 0-16 7.164-16 16 0 8.836-7.164 16-16 16h-8c-8.837 0-16 7.163-16 16v24h32c13.255 0 24 10.745 24 24v88c0 39.764 32.235 72 72 72h136v-64c0-44.183-35.817-80-80-80h-32c-8.836 0-16-7.164-16-16z" fill="#646464"/></g><g><path d="m268.241 59.669h-24c-8.837 0-16 7.163-16 16v20c0 6.627 5.373 12 12 12 6.627 0 12-5.373 12-12v-20c8.837 0 16-7.164 16-16z" fill="#d7e6f0"/></g><g><path d="m412.241 283.669c0-44.183-35.817-80-80-80v112c0 44.183 35.817 80 80 80v48c26.51 0 48-21.49 48-48v-64c-26.509 0-48-21.491-48-48z" fill="#464646"/></g><g><path d="m412.241 443.669h-32c0-17.673 14.327-32 32-32z" fill="#323232"/></g><g><path d="m12.241 203.669c7.928 0 14.491-5.786 15.761-13.353-4.938-1.717-10.238-2.647-15.761-2.647z" fill="#464646"/></g><g><circle cx="84.241" cy="163.669" fill="#464646" r="8"/></g><g><circle cx="212.241" cy="115.669" fill="#464646" r="8"/></g><g><path d="m268.241 159.669h-16c-2.209 0-4-1.791-4-4s1.791-4 4-4h16c2.209 0 4 1.791 4 4s-1.791 4-4 4z" fill="#f58caa"/></g><g><path d="m246.908 165.002c-1.024 0-2.047-.391-2.829-1.171-1.562-1.563-1.562-4.095 0-5.657l2.505-2.505-2.505-2.505c-1.562-1.563-1.562-4.095 0-5.657 1.563-1.562 4.095-1.562 5.657 0l8.162 8.162-8.162 8.162c-.781.78-1.804 1.171-2.828 1.171z" fill="#f58caa"/></g><g><path d="m284.241 171.669h48v-32c0-8.837-7.163-16-16-16-10.245 0-20.07 4.07-27.314 11.314l-4.686 4.686c-8.837 0-16 7.163-16 16 0 8.836 7.164 16 16 16z" fill="#329682"/></g><g><circle cx="313.575" cy="139.669" fill="#464646" r="8"/></g></g></svg>