<svg id="Layer_1" enable-background="new 0 0 512 512" height="512" viewBox="0 0 512 512" width="512" xmlns="http://www.w3.org/2000/svg"><g><g><path d="m189.594 159.2v171.847c0 2.294 1.859 4.153 4.153 4.153 2.091 0 3.806-1.562 4.119-3.63 1.75-11.532 11.706-20.37 23.727-20.37s21.978 8.838 23.727 20.37c.314 2.068 2.028 3.63 4.119 3.63h8.306c2.091 0 3.806-1.562 4.119-3.63 1.75-11.532 11.706-20.37 23.727-20.37s21.978 8.838 23.727 20.37c.314 2.068 2.028 3.63 4.12 3.63h8.306c2.091 0 3.806-1.562 4.119-3.63 1.75-11.532 11.706-20.37 23.727-20.37s21.978 8.838 23.727 20.37c.314 2.068 2.028 3.63 4.12 3.63h8.306c2.091 0 3.806-1.562 4.119-3.63 1.75-11.532 11.706-20.37 23.727-20.37s21.978 8.838 23.727 20.37c.314 2.068 2.028 3.63 4.12 3.63 2.294 0 4.153-1.859 4.153-4.153v-171.847z" fill="#5a5a6e"/></g><g><path d="m205.594 159.2v-56c0-4.418-3.582-8-8-8h-48c-4.418 0-8 3.582-8 8v88c0 17.673 14.327 32 32 32h104v-64z" fill="#4b8c41"/></g><g><path d="m141.594 15.2h32c8.837 0 16 7.163 16 16h-48c-4.418 0-8-3.582-8-8 0-4.418 3.581-8 8-8z" fill="#d7e6f0"/></g><g><path d="m141.594 31.2v32c0 8.837 7.164 16 16 16v16h32v-16-48z" fill="#aac3d7"/></g><g><path d="m181.594 47.2h-20c-2.209 0-4 1.791-4 4 0 6.627 5.373 12 12 12h4c0 8.837 7.164 16 16 16v-24c0-4.418-3.582-8-8-8z" fill="#d7e6f0"/></g><g><path d="m232.26 47.2c-27.982 0-50.667 22.684-50.667 50.667v61.333c0 17.673 14.327 32 32 32h136v-96c0-26.51-21.49-48-48-48z" fill="#5a5a6e"/></g><g><path d="m277.594 223.2h-48c-8.837 0-16-7.163-16-16v-112h64z" fill="#f06423"/></g><g><path d="m445.593 447.2c0-8.189-3.124-16.379-9.373-22.627l-54.627-54.627v-50.746h-112c-8.837 0-16-7.163-16-16v18.746l-38.627 38.627c-6.002 6.001-9.373 14.141-9.373 22.627v64c-17.748 0-32.122 14.449-31.999 32.225.06 8.747 7.252 15.775 15.999 15.775h240c8.837 0 16-7.163 16-16z" fill="#4b8c41"/></g><g><path d="m381.594 319.2h-112c-8.837 0-16-7.163-16-16v-112c0-17.673 14.327-32 32-32h96z" fill="#82aa41"/></g><g><path d="m453.594 95.2h-64c-4.418 0-8 3.582-8 8v56c-17.673 0-32 14.327-32 32s14.327 32 32 32h48c17.673 0 32-14.327 32-32v-88c0-4.418-3.582-8-8-8z" fill="#a5cd3c"/></g><g><path d="m445.593 447.2c0-8.189-3.124-16.379-9.373-22.627l-54.627-54.627v-66.746c0-17.673-14.327-32-32-32s-32 14.327-32 32v80c0 8.487 3.371 16.626 9.373 22.627l41.373 41.373h-2.746c-17.673 0-32 14.327-32 32 0 8.837 7.164 16 16 16h80c8.836 0 16-7.163 16-16z" fill="#82aa41"/></g><g><path d="m381.594 31.2v16h-12c-2.209 0-4 1.791-4 4 0 6.627 5.373 12 12 12h4c0 8.837 7.164 16 16 16v16h32v-16-48z" fill="#aac3d7"/></g><g><path d="m413.594 15.2h-32c-4.418 0-8 3.582-8 8s3.582 8 8 8h32v32c0 8.837 7.164 16 16 16v-48c0-8.837-7.164-16-16-16z" fill="#d7e6f0"/></g><g><path d="m277.594 175.2h-32c-17.673 0-32-14.327-32-32v-56c0-13.255 10.745-24 24-24h16c13.255 0 24 10.745 24 24z" fill="#aac3d7"/></g><g><path d="m277.594 47.2h-45.334c-17.673 0-32 14.327-32 32v8c0 4.418 3.582 8 8 8h69.333v112c0 8.837 7.163 16 16 16h16c8.837 0 16-7.163 16-16v-112c.001-26.51-21.49-48-47.999-48z" fill="#f06423"/></g><g><path d="m232.26 47.2c25.037 0 45.333 20.296 45.333 45.333v82.667c0 8.837 7.163 16 16 16h16c8.837 0 16-7.163 16-16 0-8.837 7.163-16 16-16h8v-64c0-26.51-21.49-48-48-48z" fill="#788c9b"/></g><g><path d="m257.594 159.2h-24c-2.209 0-4-1.791-4-4v-4c0-4.418 3.582-8 8-8h16c4.418 0 8 3.582 8 8v4c0 2.209-1.791 4-4 4z" fill="#f0697d"/></g><g><path d="m165.594 191.2h-56c-35.346 0-64 28.654-64 64s28.654 64 64 64 64-28.654 64-64v-56c0-4.418-3.582-8-8-8z" fill="#d7e6f0"/></g><g><g><path d="m146.927 249.867c0-20.619-16.715-37.333-37.333-37.333s-37.334 16.714-37.334 37.333c0 11.478 5.184 21.741 13.333 28.589v11.411c0 2.945 2.388 5.333 5.333 5.333h37.333c2.946 0 5.333-2.388 5.333-5.333v-11.411c8.151-6.848 13.335-17.111 13.335-28.589z" fill="#5a5a6e"/></g><g><circle cx="122.927" cy="252.533" fill="#d7e6f0" r="10.667"/></g><g><circle cx="96.26" cy="252.533" fill="#d7e6f0" r="10.667"/></g></g></g></svg>