<svg id="Layer_1" enable-background="new 0 0 512 512" height="512" viewBox="0 0 512 512" width="512" xmlns="http://www.w3.org/2000/svg"><g><g><path d="m207.179 385.6v-40h-64c-8.836 0-16 7.164-16 16v56c0 15.464 12.536 28 28 28 15.464 0 28-12.536 28-28h-16v-32z" fill="#d76e28"/></g><g><g><path d="m431.175 385.602h-56c0 8.83 7.17 16 16 16v61.66c0 18.97-15.37 34.34-34.33 34.34h-29.67c0-6.63 2.69-12.63 7.03-16.97 4.35-4.34 10.35-7.03 16.97-7.03v-40c-22.09 0-40-17.91-40-40v-8h-104c-26.51 0-48-21.49-48-48v-112h208c35.35 0 64 28.65 64 64z" fill="#aa5a28"/></g></g><g><path d="m255.179 65.6h-8c-4.418 0-8-3.582-8-8v-20c0-2.209 1.791-4 4-4 2.209 0 4 1.791 4 4 0 2.209 1.791 4 4 4 2.209 0 4-1.791 4-4 0-2.209 1.791-4 4-4 2.209 0 4 1.791 4 4v20c0 4.418-3.581 8-8 8z" fill="#647dbe"/></g><g><path d="m23.179 145.6h136v-32h-136c-4.418 0-8 3.582-8 8v16c0 4.418 3.582 8 8 8z" fill="#f0915a"/></g><g><path d="m87.179 245.6c-2.209 0-4-1.791-4-4v-224c0-2.209 1.791-4 4-4s4 1.791 4 4v224c0 2.209-1.791 4-4 4z" fill="#d7e6f0"/></g><g><path d="m399.179 289.6v-32c0-26.51 21.49-48 48-48 26.51 0 48 21.49 48 48v112c-26.51 0-48-21.49-48-48v-64c0-8.837-7.163-16-16-16-8.837 0-16 7.163-16 16v32z" fill="#64412d"/></g><g><path d="m223.179 97.6h-64v-56c0-13.255 10.745-24 24-24h16c13.255 0 24 10.745 24 24z" fill="#fab991"/></g><g><path d="m271.179 113.6h-112v96 16 96c8.837 0 16-7.163 16-16 0-44.183 35.817-80 80-80v-16c10.245-10.245 16-24.139 16-38.627z" fill="#f0915a"/></g><g><path d="m215.179 193.6h-56c-8.837 0-16-7.163-16-16v-56c0-4.418 3.582-8 8-8h88c4.418 0 8 3.582 8 8v40c0 17.673-14.326 32-32 32z" fill="#fab991"/></g><g><path d="m191.179 97.6h32v16h-32z" fill="#f0915a"/></g><g><path d="m151.179 25.6v8c0 4.418 3.582 8 8 8h24c4.418 0 8 3.582 8 8 0 4.418 3.582 8 8 8v40c0 8.837 7.163 16 16 16h24v-62c0-18.778-15.222-34-34-34h-46c-4.418 0-8 3.581-8 8z" fill="#64412d"/></g><g><path d="m209.846 41.6c-5.891 0-10.667 4.776-10.667 10.667v13.333c5.891 0 10.667-4.776 10.667-10.667z" fill="#f0915a"/></g><g><path d="m175.179 105.6h-8c-4.418 0-8-3.582-8-8v-16c0-4.418 3.582-8 8-8h8c4.418 0 8 3.582 8 8v16c0 4.418-3.581 8-8 8z" fill="#64412d"/></g><g><path d="m175.179 89.6h-8v-4c0-2.209 1.791-4 4-4 2.209 0 4 1.791 4 4z" fill="#fab991"/></g><g><path d="m159.179 225.6 112-112h-24l-88 88z" fill="#64412d"/></g><g><path d="m303.18 145.6h-88v-32h88c8.837 0 16 7.163 16 16-.001 8.836-7.164 16-16 16z" fill="#f0915a"/></g><g><path d="m207.179 145.6h8v-32h-8c-8.837 0-16 7.163-16 16 0 8.836 7.164 16 16 16z" fill="#fad2b4"/></g><g><path d="m239.179 89.6h32v24h-32z" fill="#d76e28"/></g><g><path d="m263.179 65.6h8v24h-8z" fill="#fab991"/></g><g><path d="m247.179 65.6h8v24h-8z" fill="#fab991"/></g><path d="m63.179 213.6c-15.439 0-28-12.561-28-28v-112c0-15.439 12.561-28 28-28s28-12.561 28-28c0-2.209-1.791-4-4-4s-4 1.791-4 4c0 11.028-8.972 20-20 20-19.851 0-36 16.15-36 36v112c0 19.85 16.149 36 36 36 11.028 0 20 8.972 20 20 0 2.209 1.791 4 4 4s4-1.791 4-4c0-15.44-12.56-28-28-28z" fill="#64412d"/><g><path d="m35.179 161.6h-8c-2.209 0-4-1.791-4-4v-56c0-2.209 1.791-4 4-4h8c2.209 0 4 1.791 4 4v56c0 2.209-1.79 4-4 4z" fill="#d76e28"/></g><g><path d="m23.18 145.6c-4.418 0-8-3.582-8-8v-16c0-4.418 3.582-8 8-8 8.837 0 16 7.163 16 16-.001 8.836-7.164 16-16 16z" fill="#fad2b4"/></g><g><path d="m271.179 65.6h-8c-4.418 0-8-3.582-8-8v-20c0-2.209 1.791-4 4-4 2.209 0 4 1.791 4 4 0 2.209 1.791 4 4 4 2.209 0 4-1.791 4-4 0-2.209 1.791-4 4-4 2.209 0 4 1.791 4 4v20c0 4.418-3.581 8-8 8z" fill="#6ea5d7"/></g><g><g><path d="m447.175 401.602v61.66c0 18.97-15.37 34.34-34.33 34.34h-29.67c0-6.63 2.69-12.63 7.03-16.97 4.35-4.34 10.35-7.03 16.97-7.03v-40c-22.09 0-40-17.91-40-40v-168c35.35 0 64 28.65 64 64v96c0 8.83 7.17 16 16 16z" fill="#d76e28"/></g></g><g><path d="m247.179 305.6c-22.091 0-40 17.909-40 40v128c-13.255 0-24 10.745-24 24h24c22.092 0 40-17.909 40-40v-72c22.091 0 40-17.909 40-40s-17.908-40-40-40z" fill="#d76e28"/></g></g></svg>