<svg id="Layer_1" enable-background="new 0 0 512 512" height="512" viewBox="0 0 512 512" width="512" xmlns="http://www.w3.org/2000/svg"><g><g><path d="m319.708 130.742v-2.742c0-17.673-14.327-32-32-32v36.292c-9.562 5.534-16 15.866-16 27.708h-56v64c17.673 0 32 14.327 32 32v20c0 6.627 5.373 12 12 12s12-5.373 12-12 5.373-12 12-12 12 5.373 12 12 5.373 12 12 12h12c0 17.673 14.327 32 32 32v-144c0-20.898-13.359-38.667-32-45.258z" fill="#8c1e14"/></g><g><path d="m399.708 276c0-6.627-5.373-12-12-12-6.627 0-12 5.373-12 12 0 6.627-5.373 12-12 12-6.627 0-12-5.373-12-12v-20c0-17.673-14.327-32-32-32v-32h56c17.673 0 32-14.327 32-32 8.837 0 16 7.163 16 16v112h-12c-6.627 0-12-5.373-12-12z" fill="#be281e"/></g><g><path d="m391.708 96v64h32v-32c0-17.673-14.327-32-32-32z" fill="#f04b37"/></g><g><path d="m143.708 32h24c8.837 0 16 7.163 16 16v32h-24v-32c-8.836 0-16-7.163-16-16z" fill="#d73228"/></g><g><path d="m63.708 16h32c8.837 0 16 7.163 16 16h-48c-4.418 0-8-3.582-8-8 0-4.418 3.582-8 8-8z" fill="#f04b37"/></g><g><path d="m246.335 297.373c-12.496-12.497-32.758-12.497-45.254 0l-64 64c-6.002 6.001-9.373 14.141-9.373 22.627v64c-17.673 0-32 14.327-32 32 0 8.837 7.163 16 16 16h64c8.837 0 16-7.163 16-16v-82.745l54.627-54.627c12.497-12.497 12.497-32.759 0-45.255z" fill="#be281e"/></g><g><path d="m367.708 448c0-8.189-3.124-16.379-9.373-22.627l-54.627-54.627v-66.746c0-17.673-14.327-32-32-32s-32 14.327-32 32v80c0 8.487 3.371 16.626 9.373 22.627l41.373 41.373h-2.746c-17.673 0-32 14.327-32 32 0 8.837 7.163 16 16 16h80c8.837 0 16-7.163 16-16z" fill="#f04b37"/></g><g><path d="m303.708 304h-128v18.745l-6.628 6.627c-12.497 12.497-12.497 32.758 0 45.255 12.497 12.497 32.758 12.497 45.255 0l32-32c2.026-2.026 3.718-4.259 5.087-6.627h52.285v-32z" fill="#323232"/></g><g><path d="m303.708 352v-47.334c0-17.436-13.67-32.175-31.1-32.653-18.084-.496-32.9 14.016-32.9 31.988v48c0 17.673 14.327 32 32 32 17.673-.001 32-14.328 32-32.001z" fill="#464646"/></g><g><path d="m127.708 160v-56c0-4.418-3.582-8-8-8h-8v-64h-48v32c0 8.837 7.163 16 16 16v16h-8c-4.418 0-8 3.582-8 8v88c0 17.673 14.327 32 32 32h80v80h128v-32l2.564-3.846c8.761-13.141 13.436-28.582 13.436-44.376v-63.778z" fill="#be281e"/></g><g><path d="m103.708 48h-20c-2.209 0-4 1.791-4 4 0 6.627 5.373 12 12 12h4c0 8.837 7.164 16 16 16v-24c0-4.418-3.582-8-8-8z" fill="#f04b37"/></g><g><path d="m319.708 160h56c0-17.673 14.327-32 32-32 26.51 0 48 21.49 48 48v144c-17.673 0-32-14.327-32-32v-112c0-8.837-7.163-16-16-16 0 17.673-14.327 32-32 32h-56z" fill="#d73228"/></g><g><path d="m303.708 32v16h-12c-2.209 0-4 1.791-4 4 0 6.627 5.373 12 12 12h4c0 8.837 7.163 16 16 16v16h32v-64z" fill="#d73228"/></g><g><path d="m335.708 16h-32c-4.418 0-8 3.582-8 8s3.582 8 8 8h32v32c0 8.837 7.164 16 16 16v-48c0-8.837-7.163-16-16-16z" fill="#f04b37"/></g><g><path d="m359.708 96h-48c-4.418 0-8 3.582-8 8v56c-17.673 0-32 14.327-32 32s14.327 32 32 32h32c17.673 0 32-14.327 32-32v-88c0-4.418-3.582-8-8-8z" fill="#f04b37"/></g><g><path d="m159.708 200v40c0 8.837 7.163 16 16 16h8c8.837 0 16-7.163 16-16v-40c0-4.418-3.582-8-8-8h-24c-4.418 0-8 3.582-8 8z" fill="#f04b37"/></g><g><path d="m215.708 200v40c0 8.837 7.163 16 16 16h8c8.837 0 16-7.163 16-16v-40c0-4.418-3.582-8-8-8h-24c-4.418 0-8 3.582-8 8z" fill="#f04b37"/></g><g><path d="m167.708 176h56c8.837 0 16-7.163 16-16v-72c0-13.255-10.745-24-24-24h-40c-13.255 0-24 10.745-24 24v72c0 8.837 7.164 16 16 16z" fill="#d73228"/></g><g><path d="m199.708 176h-32c-8.837 0-16-7.163-16-16v-72c0-13.255 10.745-24 24-24h16c13.255 0 24 10.745 24 24v72c0 8.837-7.163 16-16 16z" fill="#f04b37"/></g><g><path d="m199.645 104.042.042 15.958c.012 4.422 3.599 8 8.021 8v16c0 8.837 7.163 16 16 16h16c8.837 0 16-7.163 16-16v-40c0-8.837-7.163-16-16-16h-24.063c-8.853 0-16.023 7.189-16 16.042z" fill="#323232"/></g><g><path d="m215.708 144h-8v-16c0-8.837 7.163-16 16-16h8v16c0 8.837-7.163 16-16 16z" fill="#d73228"/></g><g><path d="m183.708 32h24c8.837 0 16 7.163 16 16v20c0 6.627-5.373 12-12 12-6.627 0-12-5.373-12-12v-20c-8.836 0-16-7.163-16-16z" fill="#f04b37"/></g><g><path d="m175.708 208c-4.418 0-8-3.582-8-8v-24h24v16c0 8.837-7.163 16-16 16z" fill="#323232"/></g><g><path d="m159.708 144h32v8h-32z" fill="#d73228"/></g><g><path d="m159.708 160v-16h8v8c0 4.418-3.582 8-8 8z" fill="#f58caa"/></g><g><path d="m191.708 160v-16h-8v8c0 4.418 3.582 8 8 8z" fill="#f58caa"/></g></g></svg>