<svg id="Layer_1" enable-background="new 0 0 512 512" height="512" viewBox="0 0 512 512" width="512" xmlns="http://www.w3.org/2000/svg"><g><g><path d="m317.594 130.742v-2.742c0-17.673-14.327-32-32-32v36.292c-9.562 5.534-16 15.866-16 27.708h-64v32h8v32c17.673 0 32 14.327 32 32v20c0 6.627 5.373 12 12 12s12-5.373 12-12 5.373-12 12-12 12 5.373 12 12 5.373 12 12 12h12c0 17.673 14.327 32 32 32v-144c0-20.898-13.36-38.667-32-45.258z" fill="#8c1e14"/></g><g><g><path d="m381.594 276c0-6.627-5.373-12-12-12-6.627 0-12 5.373-12 12 0 6.627-5.373 12-12 12-6.627 0-12-5.373-12-12v-20c0-17.673-14.327-32-32-32v-32h56c17.673 0 32-14.327 32-32 8.837 0 16 7.163 16 16v112h-12c-6.628 0-12-5.373-12-12z" fill="#be281e"/></g><g><path d="m373.594 96v64h32v-32c0-17.673-14.327-32-32-32z" fill="#f04b37"/></g><g><path d="m301.594 160h56c0-17.673 14.327-32 32-32 26.51 0 48 21.49 48 48v144c-17.673 0-32-14.327-32-32v-112c0-8.837-7.163-16-16-16 0 17.673-14.327 32-32 32h-56z" fill="#d73228"/></g></g><path d="m173.594 160h-48v-128h-48v32c0 8.836 7.164 16 16 16v96c0 8.836 7.163 16 16 16h64c8.837 0 16-7.164 16-16s-7.163-16-16-16z" fill="#be281e"/><g><path d="m77.594 16h32c8.837 0 16 7.163 16 16h-48c-4.418 0-8-3.582-8-8 0-4.418 3.581-8 8-8z" fill="#f04b37"/></g><g><path d="m117.594 48h-20c-2.209 0-4 1.791-4 4 0 6.627 5.373 12 12 12h4c0 8.837 7.164 16 16 16v-24c0-4.418-3.582-8-8-8z" fill="#f04b37"/></g><path d="m403.521 408h-5.928v-56c0-26.467-21.533-48-48-48h-48v16h48c17.645 0 32 14.355 32 32v56h-5.928c-1.145 0-2.072.928-2.072 2.072 0 .388.109.769.315 1.098l11.605 18.568c.879 1.407 2.421 2.261 4.08 2.261s3.201-.854 4.08-2.261l11.605-18.568c.206-.329.315-.71.315-1.098.001-1.144-.927-2.072-2.072-2.072z" fill="#d73228"/><g><g><path d="m237.594 384v96c0 8.84-7.16 16-16 16h-80c0-13.25 10.75-24 24-24h32v-56c-22.09 0-40-17.91-40-40v-56c0-8.84 3.58-16.84 9.37-22.63s13.79-9.37 22.63-9.37c17.67 0 32 14.33 32 32v48c0 8.84 7.16 16 16 16z" fill="#be281e"/></g></g><g><path d="m285.594 336h-96c-8.837 0-16-7.163-16-16v-128c0-17.673 14.327-32 32-32h96v160c0 8.837-7.164 16-16 16z" fill="#be281e"/></g><g><g><path d="m333.594 384v96c0 8.84-7.16 16-16 16h-80c0-13.25 10.75-24 24-24h32v-56c-22.09 0-40-17.91-40-40v-56c0-8.84 3.58-16.84 9.37-22.63s13.79-9.37 22.63-9.37c17.67 0 32 14.33 32 32v48c0 8.84 7.16 16 16 16z" fill="#f04b37"/></g></g><g><path d="m197.594 64h-24c-8.837 0-16 7.163-16 16v20c0 6.627 5.373 12 12 12 6.627 0 12-5.373 12-12v-20c8.836 0 16-7.163 16-16z" fill="#323232"/></g><g><path d="m165.594 208h56c8.837 0 16-7.163 16-16v-8c8.837 0 16-7.163 16-16v-48c0-13.255-10.745-24-24-24h-56c-13.255 0-24 10.745-24 24v72c0 8.837 7.163 16 16 16z" fill="#d73228"/></g><g><path d="m197.594 208h-32c-8.837 0-16-7.163-16-16v-72c0-13.255 10.745-24 24-24h16c13.255 0 24 10.745 24 24v72c0 8.837-7.164 16-16 16z" fill="#f04b37"/></g><g><path d="m237.594 64h-24c-8.837 0-16 7.163-16 16v20c0 6.627 5.373 12 12 12 6.627 0 12-5.373 12-12v-20c8.836 0 16-7.163 16-16z" fill="#464646"/></g><g><path d="m157.594 176h32v8h-32z" fill="#d73228"/></g><g><path d="m157.594 192v-16h8v8c0 4.418-3.582 8-8 8z" fill="#f58caa"/></g><g><path d="m189.594 192v-16h-8v8c0 4.418 3.581 8 8 8z" fill="#f58caa"/></g><g><path d="m229.594 176v-48c0-22.091 17.909-40 40-40v48c0 22.091-17.909 40-40 40z" fill="#f04b37"/></g><g><path d="m317.594 80v80h-16c-8.837 0-16 7.164-16 16s7.163 16 16 16h32c8.837 0 16-7.164 16-16v-96z" fill="#f04b37"/></g><g><path d="m301.594 32v16h-12c-2.209 0-4 1.791-4 4 0 6.627 5.373 12 12 12h4c0 8.836 7.164 16 16 16h32v-48z" fill="#d73228"/></g><g><path d="m333.594 16h-32c-4.418 0-8 3.582-8 8s3.582 8 8 8h32v32c0 8.837 7.164 16 16 16v-48c0-8.837-7.164-16-16-16z" fill="#f04b37"/></g></g></svg>