<svg id="Layer_1" enable-background="new 0 0 512 512" height="512" viewBox="0 0 512 512" width="512" xmlns="http://www.w3.org/2000/svg"><g><g><path d="m266.821 71.669v-16c-8.836 0-16 7.164-16 16-13.255 0-24 10.745-24 24v80c0 13.255-10.745 24-24 24-13.255 0-24 10.745-24 24v14.667c0 6.627 5.373 12 12 12s12-5.373 12-12v-14.667c26.51 0 48-21.49 48-48v-80h160c13.255 0 24-10.745 24-24z" fill="#8c1e14"/></g><g><path d="m338.821 231.669h88c4.418 0 8-3.582 8-8 0-4.418-3.582-8-8-8h-72c-10.309 0-18.667-8.357-18.667-18.667h97.333c27.246 0 49.333 22.087 49.333 49.333 0 27.246-22.087 49.333-49.333 49.333h-94.667v-63.999z" fill="#8c1e14"/></g><g><path d="m170.821 39.669h-24c-8.837 0-16 7.163-16 16v20c0 6.627 5.373 12 12 12 6.627 0 12-5.373 12-12v-20c8.837 0 16-7.164 16-16z" fill="#323232"/></g><g><path d="m354.821 343.669c-26.51 0-48-21.49-48-48h-80v48c0 44.183 35.817 80 80 80v8c-17.673 0-32 14.327-32 32h32c26.51 0 48-21.49 48-48z" fill="#8c1e14"/></g><g><path d="m130.821 463.669h-32c0-17.673 14.327-32 32-32z" fill="#464646"/></g><g><path d="m114.821 375.669c-22.091 0-40 17.909-40 40 0 13.255 10.745 24 24 24v-24h32v-40z" fill="#8c1e14"/></g><g><path d="m466.821 359.669c-26.51 0-48-21.49-48-48 0-44.183-35.817-80-80-80h-304v80c0 35.346 28.654 64 64 64h105.373c14.488 0 28.383-5.755 38.627-16 10.245-10.245 24.139-16 38.627-16h57.373c0 44.183 35.817 80 80 80v40c26.51 0 48-21.49 48-48z" fill="#d73228"/></g><g><path d="m418.821 463.669h-32c0-17.673 14.327-32 32-32z" fill="#464646"/></g><g><path d="m178.821 279.669c-26.51 0-48 21.49-48 48v.002 135.998c26.51 0 48-21.49 48-48v-40c26.51 0 48-21.49 48-48s-21.49-48-48-48z" fill="#f04b37"/></g><g><path d="m114.821 151.669c-44.183 0-80 35.817-80 80v80c44.183 0 80-35.817 80-80z" fill="#f04b37"/></g><g><path d="m221.487 93.002c2.946 0 5.333-2.388 5.333-5.333s-2.388-5.333-5.333-5.333c-5.891 0-10.667-4.775-10.667-10.667s4.776-10.667 10.667-10.667c2.946 0 5.333-2.388 5.333-5.333h-16c-8.836 0-16 7.164-16 16h-56c-4.418 0-8 3.582-8 8s-3.582 8-8 8h-40c-4.418 0-8 3.582-8 8v16c0 4.418 3.582 8 8 8h64v32h-32v80c44.183 0 80-35.817 80-80h32c0-2.945-2.388-5.333-5.333-5.333-5.891 0-10.667-4.775-10.667-10.667s4.776-10.667 10.667-10.667c2.946 0 5.333-2.388 5.333-5.333s-2.388-5.333-5.333-5.333c-5.891 0-10.667-4.775-10.667-10.667s4.777-10.667 10.667-10.667z" fill="#d73228"/></g><g><path d="m146.821 103.669c-8.836 0-16 7.164-16 16v16h-56c0 8.836 7.164 16 16 16h56c8.836 0 16-7.164 16-16v-16c0-8.837-7.164-16-16-16z" fill="#f04b37"/></g><g><path d="m98.821 119.669c4.418 0 8 3.582 8 8s-3.582 8-8 8h32v-16z" fill="#8c1e14"/></g><g><path d="m210.821 39.669h-24c-8.837 0-16 7.163-16 16v20c0 6.627 5.373 12 12 12 6.627 0 12-5.373 12-12v-20c8.837 0 16-7.164 16-16z" fill="#464646"/></g><g><path d="m250.821 95.669v80c0 13.255-10.745 24-24 24-13.255 0-24 10.745-24 24v14.667c0 6.627 5.373 12 12 12 6.627 0 12-5.373 12-12v-14.667c26.51 0 48-21.49 48-48v-80h160c13.255 0 24-10.745 24-24h-184c-13.255 0-24 10.745-24 24z" fill="#f04b37"/></g><g><path d="m290.821 55.669c-8.837 0-16 7.163-16 16h16z" fill="#8c1e14"/></g><g><path d="m434.821 95.669c0 8.837-7.163 16-16 16h-24c-8.837 0-16 7.163-16 16 0 8.837 7.163 16 16 16h24c0 17.673-14.327 32-32 32h-56c-17.673 0-32 14.327-32 32 0 17.673-14.327 32-32 32h-40v-16c26.51 0 48-21.49 48-48v-80z" fill="#be281e"/></g><g><path d="m74.821 127.669c0 2.667-23.163 16-32 16s-16-7.163-16-16 7.163-16 16-16 32 13.333 32 16z" fill="#f06423"/></g><g><circle cx="42.821" cy="127.669" fill="#faa51e" r="8"/></g></g></svg>