<svg id="Layer_1" enable-background="new 0 0 512 512" height="512" viewBox="0 0 512 512" width="512" xmlns="http://www.w3.org/2000/svg"><g><g><path d="m135.179 376v-40h-64c-8.837 0-16 7.163-16 16v56c0 15.464 12.536 28 28 28s28-12.536 28-28h-16v-32z" fill="#64412d"/></g><g><path d="m359.179 280v-32c0-26.51 21.49-48 48-48 26.51 0 48 21.49 48 48v112c-26.51 0-48-21.49-48-48v-64c0-8.837-7.163-16-16-16-8.837 0-16 7.163-16 16v32z" fill="#64412d"/></g><g><path d="m327.179 216h-112c-17.673 0-32-14.327-32-32v-16h-96v160c0 26.51 21.49 48 48 48h256v-96c0-35.347-28.653-64-64-64z" fill="#aa5a28"/></g><g><g><path d="m351.179 392v61.66c0 18.97-15.37 34.34-34.34 34.34h-29.66c0-13.25 10.75-24 24-24v-40c-22.09 0-40-17.91-40-40v-8h64c0 8.84 7.16 16 16 16z" fill="#64412d"/></g></g><g><path d="m135.179 464c-13.255 0-24 10.745-24 24h24z" fill="#64412d"/></g><path d="m175.179 296c-22.091 0-40 17.908-40 40v152c22.091 0 40-17.908 40-40v-72c22.091 0 40-17.908 40-40s-17.908-40-40-40z" fill="#d76e28"/><g><g><path d="m159.179 61.333 7.515 7.515c5.433 5.433 8.485 12.802 8.485 20.485 0 6.627-5.373 12-12 12h-1.333c-5.891 0-10.667-4.776-10.667-10.667 0-30.928-25.072-56-56-56l11.124 11.125c4.829 4.829 7.542 11.379 7.542 18.209s-2.713 13.38-7.542 18.209l-12.496 12.497c-14.488 14.488-22.627 34.138-22.627 54.627 0 35.347 28.654 64 64 64s64-28.653 64-64v-48c-.001-22.091-17.909-40-40.001-40z" fill="#faa51e"/></g><g><path d="m151.179 16v25.333c0 6.627 5.373 12 12 12 6.627 0 12-5.373 12-12v-1.333c0-13.255-10.745-24-24-24z" fill="#faa51e"/></g></g><g><path d="m135.18 117.333c-1.592 0-3.128.548-4.367 1.548-6.372 5.149-25.42 23.224-25.735 55.536-.164 16.84 13.544 31.069 30.384 30.914 16.497-.152 29.823-13.571 29.823-30.103 0-32.828-19.322-51.164-25.743-56.35-1.237-.999-2.772-1.545-4.362-1.545z" fill="#fad241"/></g><g><circle cx="135.179" cy="189.333" fill="#fff" r="16"/></g><g><path d="m367.179 464c-13.255 0-24 10.745-24 24h24z" fill="#64412d"/></g><path d="m407.179 392c-8.837 0-16-7.163-16-16v-96c0-35.347-28.654-64-64-64v168c0 22.092 17.909 40 40 40v64h5.664c18.963 0 34.336-15.373 34.336-34.336z" fill="#d76e28"/></g></svg>