<svg id="Layer_1" enable-background="new 0 0 512 512" height="512" viewBox="0 0 512 512" width="512" xmlns="http://www.w3.org/2000/svg"><g><g><path d="m184.241 247.467h32v32h-32z" fill="#82aa41"/></g><g><path d="m184.241 79.467v-8l-2.343 2.343c-3.622 3.622-5.657 8.535-5.657 13.657s2.035 10.035 5.657 13.657l2.343 2.343-2.343 2.343c-3.622 3.622-5.657 8.535-5.657 13.657s2.035 10.035 5.657 13.657l2.343 2.343-2.343 2.343c-3.622 3.622-5.657 8.535-5.657 13.657s2.035 10.035 5.657 13.657l2.343 2.343v32c0 8.836 7.163 16 16 16h26.667v-136z" fill="#2d6e23"/></g><g><path d="m184.241 263.467h-24c-2.122 0-4.157-.843-5.657-2.343l-8-8c-3.125-3.125-3.125-8.189 0-11.314 3.124-3.123 8.189-3.123 11.313 0l5.657 5.657h20.687c4.418 0 8 3.582 8 8s-3.581 8-8 8z" fill="#82aa41"/></g><g><circle cx="152.241" cy="210.133" fill="#647dbe" r="56"/></g><g><g><path d="m188.492 167.467h-28.251c-4.418 0-8 3.582-8 8s3.582 8 8 8 8 3.582 8 8-3.582 8-8 8-8 3.582-8 8 3.582 8 8 8 8 3.582 8 8 3.582 8 8 8 8-3.582 8-8 3.582-8 8-8 8-3.582 8-8c0-4.074 3.047-7.429 6.986-7.929-2.445-12.761-9.217-23.977-18.735-32.071z" fill="#6ea5d7"/></g><g><path d="m136.241 215.467h-18.667c-4.418 0-8-3.582-8-8s-3.582-8-8-8h-4.306c-.666 3.454-1.027 7.018-1.027 10.667 0 14.346 5.4 27.425 14.271 37.333h9.729c4.418 0 8-3.582 8-8s3.582-8 8-8 8-3.582 8-8-3.581-8-8-8z" fill="#6ea5d7"/></g></g><path d="m176.241 255.467h-16c-4.418 0-8 3.582-8 8h-12.687l-13.657-13.657c-3.124-3.123-8.189-3.123-11.313 0-3.125 3.125-3.125 8.189 0 11.314l16 16c1.5 1.5 3.535 2.343 5.657 2.343h48v-16c0-4.419-3.581-8-8-8z" fill="#a5cd3c"/><g><path d="m256.241 407.467h-64c-12.943 0-24.611-7.796-29.564-19.754s-2.215-25.722 6.937-34.874l64-64c12.497-12.497 32.758-12.497 45.255 0s12.497 32.758 0 45.255l-11.398 11.398c12.134 4.547 20.771 16.252 20.771 29.974-.001 17.674-14.328 32.001-32.001 32.001z" fill="#f0915a"/></g><g><path d="m272.241 343.467h-2.745l9.372-9.372c12.497-12.497 12.497-32.759 0-45.255-12.497-12.497-32.758-12.497-45.255 0l-64 64c-9.152 9.151-11.89 22.915-6.937 34.873s16.621 19.754 29.564 19.754h48c0 17.673 14.327 32 32 32 8.837 0 16-7.164 16-16v-64c.001-8.837-7.162-16-15.999-16z" fill="#82aa41"/></g><g><path d="m216.241 295.467v80h4.153c2.091 0 3.806-1.562 4.119-3.63 1.75-11.532 11.706-20.37 23.727-20.37s21.978 8.838 23.727 20.37c.314 2.068 2.028 3.63 4.119 3.63h8.307c2.091 0 3.806-1.562 4.119-3.63 1.75-11.532 11.706-20.37 23.727-20.37s21.978 8.838 23.727 20.37c.314 2.068 2.028 3.63 4.119 3.63 2.294 0 4.153-1.859 4.153-4.153v-75.847z" fill="#4b8c41"/></g><g><path d="m408.241 439.467c0-8.189-3.124-16.379-9.373-22.627l-54.627-54.627v-66.745c0-17.673-14.327-32-32-32s-32 14.327-32 32v80c0 8.487 3.371 16.626 9.373 22.627l41.373 41.373h-2.746c-17.673 0-32 14.327-32 32 0 8.836 7.163 16 16 16h80c8.837 0 16-7.164 16-16z" fill="#a5cd3c"/></g><g><path d="m344.241 295.467h-128v-112c0-17.673 14.327-32 32-32h80v80.26c0 10.078-4.004 19.744-11.13 26.87l-4.87 4.87c17.673 0 32 14.327 32 32z" fill="#82aa41"/></g><g><path d="m328.241 231.467h-112c-13.255 0-24-10.745-24-24 0-13.255 10.745-24 24-24h112z" fill="#4b8c41"/></g><g><path d="m368.241 39.467h40v37.333h-40z" fill="#82aa41"/></g><g><path d="m392.241 76.8c0-8.836-7.163-16-16-16v-4c0-6.627-5.373-12-12-12-2.209 0-4 1.791-4 4v20c0 4.418 3.582 8 8 8h8v58.666c0 8.836-7.163 16-16 16h-32c-8.837 0-16 7.164-16 16 0 8.836 7.163 16 16 16h32c26.51 0 48-21.49 48-48v-58.666z" fill="#a5cd3c"/></g><g><path d="m368.241 23.467h32c4.418 0 8 3.582 8 8v8h-40c-4.418 0-8-3.582-8-8 0-4.419 3.582-8 8-8z" fill="#a5cd3c"/></g><g><path d="m232.241 167.467h40c8.837 0 16-7.163 16-16v-72c0-13.255-10.745-24-24-24h-40c-13.255 0-24 10.745-24 24v56c0 17.673 14.327 32 32 32z" fill="#82aa41"/></g><g><path d="m248.241 167.467h-16c-17.673 0-32-14.327-32-32v-56c0-13.255 10.745-24 24-24h16c13.255 0 24 10.745 24 24v72c0 8.836-7.163 16-16 16z" fill="#a5cd3c"/></g><g><path d="m320.241 135.467c0-5.122-2.035-10.035-5.657-13.657l-2.343-2.343 2.343-2.343c3.622-3.622 5.657-8.535 5.657-13.657s-2.035-10.035-5.657-13.657l-2.343-2.343c0-26.51-21.49-48-48-48h-16l-2.343-2.343c-3.622-3.622-8.535-5.657-13.657-5.657s-10.035 2.035-13.657 5.657l-2.343 2.343c-17.673 0-32 14.327-32 32v16c0 4.418 3.582 8 8 8h64v8c0 4.418 3.582 8 8 8v40l-2.343 2.343c-3.622 3.622-5.657 8.535-5.657 13.657s2.035 10.035 5.657 13.657l2.343 2.343-2.343 2.343c-3.622 3.622-5.657 8.535-5.657 13.657s2.035 10.035 5.657 13.657l2.343 2.343h48l2.343-2.343c3.622-3.622 5.657-8.535 5.657-13.657s-2.035-10.035-5.657-13.657l-2.343-2.343 2.343-2.343c3.622-3.622 5.657-8.535 5.657-13.657s-2.035-10.035-5.657-13.657l-2.343-2.343 2.343-2.343c3.622-3.623 5.657-8.535 5.657-13.657z" fill="#2d6e23"/></g><g><path d="m272.241 135.467c-4.418 0-8-3.582-8-8v-16c0-4.418 3.582-8 8-8 8.837 0 16 7.163 16 16 0 8.836-7.163 16-16 16z" fill="#82aa41"/></g><g><path d="m186.908 68.8h120v5.333h-120z" fill="#a5cd3c"/></g><g><g><path d="m194.908 71.467c4.418 0 8-3.582 8-8s-3.582-8-8-8-8 3.582-8 8c0-4.418-3.582-8-8-8s-8 3.582-8 8 3.582 8 8 8c-4.418 0-8 3.582-8 8s3.582 8 8 8 8-3.582 8-8c0 4.418 3.582 8 8 8s8-3.582 8-8-3.582-8-8-8z" fill="#f58caa"/></g><g><circle cx="186.908" cy="71.467" fill="#fad241" r="5.333"/></g></g><g><g><path d="m234.908 71.467c4.418 0 8-3.582 8-8s-3.582-8-8-8-8 3.582-8 8c0-4.418-3.582-8-8-8s-8 3.582-8 8 3.582 8 8 8c-4.418 0-8 3.582-8 8s3.582 8 8 8 8-3.582 8-8c0 4.418 3.582 8 8 8s8-3.582 8-8-3.582-8-8-8z" fill="#f04b37"/></g><g><circle cx="226.908" cy="71.467" fill="#fad241" r="5.333"/></g></g><g><g><path d="m274.908 71.467c4.418 0 8-3.582 8-8s-3.582-8-8-8-8 3.582-8 8c0-4.418-3.582-8-8-8s-8 3.582-8 8 3.582 8 8 8c-4.418 0-8 3.582-8 8s3.582 8 8 8 8-3.582 8-8c0 4.418 3.582 8 8 8s8-3.582 8-8-3.582-8-8-8z" fill="#f58caa"/></g><g><circle cx="266.908" cy="71.467" fill="#fad241" r="5.333"/></g></g><g><g><path d="m314.908 71.467c4.418 0 8-3.582 8-8s-3.582-8-8-8-8 3.582-8 8c0-4.418-3.582-8-8-8s-8 3.582-8 8 3.582 8 8 8c-4.418 0-8 3.582-8 8s3.582 8 8 8 8-3.582 8-8c0 4.418 3.582 8 8 8s8-3.582 8-8-3.582-8-8-8z" fill="#f04b37"/></g><g><circle cx="306.908" cy="71.467" fill="#fad241" r="5.333"/></g></g><g><path d="m104.241 103.467v8c0 13.255 10.745 24 24 24h8v-8c0-13.255-10.745-24-24-24z" fill="#82aa41"/></g><g><path d="m376.241 215.467v8c0 13.255 10.745 24 24 24h8v-8c0-13.255-10.745-24-24-24z" fill="#82aa41"/></g><g><path d="m200.241 399.467v8c0 13.255-10.745 24-24 24h-8v-8c0-13.255 10.745-24 24-24z" fill="#a5cd3c"/></g><g><path d="m312.241 263.467h-96v32h128c0-17.673-14.327-32-32-32z" fill="#4b8c41"/></g></g></svg>