<svg id="Layer_1" enable-background="new 0 0 512 512" height="512" viewBox="0 0 512 512" width="512" xmlns="http://www.w3.org/2000/svg"><g><path d="m152.241 232.869c-4.418 0-8 3.582-8 8 0-8.836-7.163-16-16-16v80h16c0 4.418 3.582 8 8 8h72v-80z" fill="#dc7846"/><g><path d="m308.525 292.584c-15.621-15.621-40.947-15.621-56.568 0l-64 64c-7.501 7.501-11.716 17.675-11.716 28.284v64c0 .336.017.668.025 1.002-13.815 3.544-24.025 16.078-24.025 30.998 0 8.836 7.163 16 16 16h72c8.837 0 16-7.164 16-16v-79.432l52.284-52.284c15.621-15.62 15.621-40.946 0-56.568z" fill="#f0915a"/></g><g><path d="m404.525 420.584-52.284-52.284v-63.432c0-22.091-17.909-40-40-40s-40 17.909-40 40v80c0 10.609 4.214 20.783 11.716 28.284l36.641 36.641c-13.981 3.427-24.357 16.036-24.357 31.074 0 8.836 7.163 16 16 16h88c8.837 0 16-7.164 16-16v-32c0-10.235-3.905-20.472-11.716-28.283z" fill="#fab991"/></g><g><path d="m216.241 424.869c-10.237 0-20.474-3.905-28.284-11.716-15.621-15.621-15.621-40.948 0-56.568l64-64c15.621-15.621 40.947-15.621 56.568 0s15.621 40.948 0 56.568l-64 64c-7.81 7.81-18.047 11.716-28.284 11.716z" fill="#aa5a28"/></g><g><path d="m312.241 424.869c-22.091 0-40-17.909-40-40v-80c0-22.091 17.909-40 40-40s40 17.909 40 40v80c0 22.091-17.908 40-40 40z" fill="#d76e28"/></g><g><path d="m96.241 64.869 16-16h8c13.255 0 24 10.745 24 24v96l-16 16v124c0 11.046-8.954 20-20 20-11.046 0-20-8.954-20-20v-108l-16-16v-96c0-13.255 10.745-24 24-24z" fill="#96461e"/></g><g><path d="m88.241 224.869c13.255 0 24 10.745 24 24v32c0 13.255-10.745 24-24 24-4.418 0-8-3.582-8-8v-64c0-4.419 3.582-8 8-8z" fill="#f0915a"/></g><g><g><path d="m368.241 160.869c0-17.673-14.327-32-32-32h-24c0-22.091-17.909-40-40-40h-56c-22.091 0-40 17.909-40 40v56c0 8.837 7.163 16 16 16h32v22.111c0 10.984-6.236 20.983-16.051 25.914-9.776 4.912-15.949 14.919-15.949 25.863v54.112c0 8.837 7.163 16 16 16h144c8.837 0 16-7.163 16-16v-56l2.564-3.846c8.761-13.142 13.436-28.584 13.436-44.379v-47.775c0-8.837-7.163-16-16-16z" fill="#f0915a"/></g><g><path d="m240.241 200.869h-48c-8.837 0-16-7.163-16-16v-56c0-22.091 17.909-40 40-40 22.091 0 40 17.909 40 40v56c0 8.836-7.163 16-16 16z" fill="#fab991"/></g></g><g><path d="m352.241 32.869v16h-12c-2.209 0-4 1.791-4 4 0 6.627 5.373 12 12 12h4c0 8.836 7.163 16 16 16h48v-48z" fill="#f0915a"/></g><g><path d="m400.241 16.869h-48c-4.418 0-8 3.582-8 8s3.582 8 8 8h48v32c0 8.837 7.164 16 16 16v-48c0-8.837-7.163-16-16-16z" fill="#fab991"/></g><g><path d="m424.241 80.869h-64c-4.418 0-8 3.582-8 8v72c-17.673 0-32 14.327-32 32s14.327 32 32 32h48c17.673 0 32-14.327 32-32v-104c0-4.419-3.582-8-8-8z" fill="#fab991"/></g><g><path d="m232.241 184.869h-40v-8c0-4.418 3.582-8 8-8h24c4.418 0 8 3.582 8 8z" fill="#f0697d"/></g><g><path d="m216.241 216.869v24c0 8.837 7.163 16 16 16h8c8.837 0 16-7.163 16-16v-24c0-4.418-3.582-8-8-8h-24c-4.418 0-8 3.581-8 8z" fill="#fab991"/></g><g><path d="m272.241 216.869v24c0 8.837 7.163 16 16 16h8c8.837 0 16-7.163 16-16v-24c0-4.418-3.582-8-8-8h-24c-4.418 0-8 3.581-8 8z" fill="#fab991"/></g><g><path d="m276.241 152.869h-4c-4.418 0-8-3.582-8-8v-8c0-4.418 3.582-8 8-8h4c6.627 0 12 5.373 12 12 0 6.627-5.372 12-12 12z" fill="#fab991"/></g></g></svg>