<svg id="Layer_1" enable-background="new 0 0 512 512" height="512" viewBox="0 0 512 512" width="512" xmlns="http://www.w3.org/2000/svg"><g><g><path d="m117.594 75.669c-5.122 0-10.035-2.035-13.657-5.657l-10.343-10.343-8.845 17.689c-4.706 9.412-7.155 19.789-7.155 30.311 0 10.522 2.45 20.899 7.155 30.311l8.845 17.689 10.343-10.343c3.622-3.622 8.534-5.657 13.657-5.657h16v-64z" fill="#8caac8"/></g><g><path d="m221.594 19.669h56c8.837 0 16 7.163 16 16v16h-24v-16h-32c-8.837 0-16-7.164-16-16z" fill="#323232"/></g><g><path d="m261.594 19.669h56c8.837 0 16 7.163 16 16v16h-24v-16h-32c-8.837 0-16-7.164-16-16z" fill="#464646"/></g><g><path d="m98.082 137.979c-4.706-9.411-7.156-19.789-7.156-30.311s2.45-20.9 7.156-30.311l4.4-8.8-8.889-8.889-8.845 17.689c-4.706 9.411-7.155 19.789-7.155 30.311s2.45 20.9 7.155 30.311l8.845 17.689 8.889-8.889z" fill="#d7e6f0"/></g><g><path d="m206.438 77.358-8.845-17.689-10.343 10.343c-3.622 3.622-8.534 5.657-13.657 5.657h-16v64h16c5.122 0 10.035 2.035 13.657 5.657l10.343 10.343 8.845-17.689c4.706-9.411 7.155-19.789 7.155-30.311.001-10.522-2.449-20.9-7.155-30.311z" fill="#8caac8"/></g><g><path d="m193.105 137.979c4.706-9.411 7.156-19.789 7.156-30.311s-2.45-20.9-7.156-30.311l-4.4-8.8 8.889-8.889 8.845 17.689c4.706 9.411 7.155 19.789 7.155 30.311s-2.45 20.9-7.155 30.311l-8.845 17.689-8.889-8.889z" fill="#d7e6f0"/></g><g><path d="m181.594 195.669c-4.418 0-8 3.582-8 8 0-8.836-7.164-16-16-16h-24v80h40c0 4.418 3.582 8 8 8h72v-80z" fill="#dc7846"/></g><g><path d="m133.594 479.669v-408c0-6.627 5.373-12 12-12 6.627 0 12 5.373 12 12v408c0 6.627-5.373 12-12 12-6.628 0-12-5.373-12-12z" fill="#aa5a28"/></g><g><path d="m133.594 187.669c13.255 0 24 10.745 24 24v32c0 13.255-10.745 24-24 24-4.418 0-8-3.582-8-8v-64c0-4.419 3.581-8 8-8z" fill="#f0915a"/></g><g><path d="m253.594 83.669h16v-32h-48c0 17.673 14.326 32 32 32z" fill="#aa5a28"/></g><g><path d="m301.594 51.669h-16v104h80v-40c0-35.347-28.654-64-64-64z" fill="#aa5a28"/></g><g><path d="m341.594 51.669h-72l-80 80v24c0 4.418 3.582 8 8 8h24c4.418 0 8-3.582 8-8h56c19.882 0 36-16.118 36-36s-16.118-36-36-36h24c17.673 0 32-14.328 32-32z" fill="#d76e28"/></g><g><path d="m285.594 331.669v-8c0-22.091-17.909-40-40-40-22.091 0-40 17.909-40 40v40c0 44.183 35.817 80 80 80v48c26.51 0 48-21.49 48-48v-64c-26.51 0-48-21.491-48-48z" fill="#aa5a28"/></g><g><path d="m285.594 491.669h-32c0-17.673 14.327-32 32-32z" fill="#323232"/></g><g><path d="m349.594 267.669h-128v-80c0-17.673 14.327-32 32-32h112v51.156c0 18.808-5.567 37.195-16 52.844z" fill="#f0915a"/></g><g><path d="m221.594 291.669v88h4.153c2.091 0 3.806-1.562 4.119-3.63 1.75-11.532 11.706-20.37 23.727-20.37s21.978 8.838 23.727 20.37c.314 2.068 2.028 3.63 4.119 3.63h8.307c2.091 0 3.806-1.562 4.119-3.63 1.75-11.532 11.706-20.37 23.727-20.37s21.978 8.838 23.727 20.37c.314 2.068 2.028 3.63 4.119 3.63 2.294 0 4.153-1.859 4.153-4.153v-83.847z" fill="#464646"/></g><g><path d="m357.594 27.669v16h-12c-2.209 0-4 1.791-4 4 0 6.627 5.373 12 12 12h4c0 8.836 7.164 16 16 16h32v-48z" fill="#f0915a"/></g><g><path d="m389.594 11.669h-32c-4.418 0-8 3.582-8 8s3.582 8 8 8h32v32c0 8.837 7.164 16 16 16v-48c0-8.837-7.164-16-16-16z" fill="#fab991"/></g><g><path d="m421.594 75.669h-64c-4.418 0-8 3.582-8 8v72c-17.673 0-32 14.327-32 32s14.327 32 32 32h48c17.673 0 32-14.327 32-32v-104c0-4.419-3.582-8-8-8z" fill="#fab991"/></g><g><path d="m205.594 187.669v40c0 8.837 7.163 16 16 16h8c8.837 0 16-7.163 16-16v-40c0-4.418-3.582-8-8-8h-24c-4.419 0-8 3.581-8 8z" fill="#fab991"/></g><g><path d="m261.594 187.669v40c0 8.837 7.163 16 16 16h8c8.837 0 16-7.163 16-16v-40c0-4.418-3.582-8-8-8h-24c-4.419 0-8 3.581-8 8z" fill="#fab991"/></g><g><path d="m365.594 331.669v-8c0-22.091-17.909-40-40-40-22.091 0-40 17.909-40 40v40c0 44.183 35.817 80 80 80v48c26.51 0 48-21.49 48-48v-64c-26.51 0-48-21.491-48-48z" fill="#d76e28"/></g><g><path d="m365.594 491.669h-32c0-17.673 14.327-32 32-32z" fill="#464646"/></g><g><path d="m221.594 267.669h128v24h-128z" fill="#d73228"/></g><g><path d="m221.594 163.669h-24c-4.418 0-8-3.582-8-8v-24c0-4.418 3.582-8 8-8h24c4.418 0 8 3.582 8 8v24c0 4.418-3.582 8-8 8z" fill="#f0915a"/></g><g><path d="m197.594 147.669c-4.418 0-8-3.582-8-8v-8c4.418 0 8 3.582 8 8z" fill="#464646"/></g><g><path d="m205.594 147.669v-8c0-4.418 3.582-8 8-8v8c0 4.418-3.582 8-8 8z" fill="#464646"/></g></g></svg>