<svg id="Layer_1" enable-background="new 0 0 512 512" height="512" viewBox="0 0 512 512" width="512" xmlns="http://www.w3.org/2000/svg"><g><g><path d="m292.525 291.716c-15.621-15.621-40.947-15.621-56.568 0l-64 64c-7.501 7.501-11.716 17.675-11.716 28.284v64c0 .336.017.668.025 1.002-13.815 3.544-24.025 16.078-24.025 30.998 0 8.836 7.163 16 16 16h72c8.837 0 16-7.164 16-16v-79.432l52.284-52.284c15.621-15.621 15.621-40.947 0-56.568z" fill="#82aa41"/></g><g><path d="m176.241 160v-72c0-4.418-3.582-8-8-8h-8v-48h-64v32c0 8.836 7.163 16 16 16h-8c-4.418 0-8 3.582-8 8v104c0 17.673 14.327 32 32 32h128v-64z" fill="#4b8c41"/></g><g><path d="m96.241 16h48c8.837 0 16 7.163 16 16h-64c-4.418 0-8-3.582-8-8 0-4.418 3.582-8 8-8z" fill="#a5cd3c"/></g><g><path d="m152.241 48h-20c-2.209 0-4 1.791-4 4 0 6.627 5.373 12 12 12h4c0 8.837 7.164 16 16 16v-24c0-4.418-3.582-8-8-8z" fill="#a5cd3c"/></g><g><path d="m192.241 344v96h4.153c2.091 0 3.806-1.562 4.119-3.63 1.75-11.532 11.706-20.37 23.727-20.37s21.978 8.838 23.727 20.37c.314 2.068 2.028 3.63 4.119 3.63h8.307c2.091 0 3.806-1.562 4.119-3.63 1.75-11.532 11.706-20.37 23.727-20.37s21.978 8.838 23.727 20.37c.314 2.068 2.028 3.63 4.119 3.63 2.294 0 4.153-1.859 4.153-4.153v-91.847z" fill="#aa5a28"/></g><g><path d="m388.525 419.716-52.284-52.284v-63.432c0-22.091-17.909-40-40-40s-40 17.909-40 40v80c0 10.609 4.214 20.783 11.716 28.284l36.641 36.642c-13.981 3.427-24.357 16.036-24.357 31.074 0 8.836 7.163 16 16 16h88c8.837 0 16-7.164 16-16v-32c0-10.237-3.905-20.474-11.716-28.284z" fill="#a5cd3c"/></g><g><g><path d="m352.241 160c0-17.673-14.327-32-32-32h-24c0-22.091-17.909-40-40-40h-56c-22.091 0-40 17.909-40 40v56c0 8.837 7.163 16 16 16h32v22.111c0 10.984-6.236 20.983-16.051 25.914-9.776 4.912-15.949 14.919-15.949 25.863v46.112h176v-48l2.564-3.846c8.761-13.142 13.436-28.584 13.436-44.379v-63.775z" fill="#82aa41"/></g><g><path d="m224.241 200h-48c-8.837 0-16-7.163-16-16v-56c0-22.091 17.909-40 40-40 22.091 0 40 17.909 40 40v56c0 8.837-7.163 16-16 16z" fill="#a5cd3c"/></g></g><g><path d="m200.241 216v24c0 8.837 7.163 16 16 16h8c8.837 0 16-7.163 16-16v-24c0-4.418-3.582-8-8-8h-24c-4.418 0-8 3.582-8 8z" fill="#a5cd3c"/></g><g><path d="m256.241 216v24c0 8.837 7.163 16 16 16h8c8.837 0 16-7.163 16-16v-24c0-4.418-3.582-8-8-8h-24c-4.418 0-8 3.582-8 8z" fill="#a5cd3c"/></g><g><path d="m260.241 152h-4c-4.418 0-8-3.582-8-8v-8c0-4.418 3.582-8 8-8h4c6.627 0 12 5.373 12 12 0 6.627-5.372 12-12 12z" fill="#a5cd3c"/></g><g><path d="m336.241 344h-144c-8.837 0-16-7.163-16-16v-8h176v8c0 8.837-7.163 16-16 16z" fill="#d76e28"/></g><g><g><path d="m168.241 168h56v8h-56z" fill="#f0697d"/></g><g><path d="m168.241 152v24h16v-8c0-8.837-7.163-16-16-16z" fill="#d7e6f0"/></g><g><path d="m224.241 152v24h-16v-8c0-8.837 7.164-16 16-16z" fill="#d7e6f0"/></g></g><g><path d="m336.241 32v16h-12c-2.209 0-4 1.791-4 4 0 6.627 5.373 12 12 12h4c0 8.836 7.163 16 16 16h48v-48z" fill="#82aa41"/></g><g><path d="m384.241 16h-48c-4.418 0-8 3.582-8 8s3.582 8 8 8h48v32c0 8.837 7.164 16 16 16v-48c0-8.837-7.163-16-16-16z" fill="#a5cd3c"/></g><g><path d="m408.241 80h-64c-4.418 0-8 3.582-8 8v72c-17.673 0-32 14.327-32 32s14.327 32 32 32h48c17.673 0 32-14.327 32-32v-104c0-4.418-3.582-8-8-8z" fill="#a5cd3c"/></g></g></svg>