<svg id="Layer_1" enable-background="new 0 0 512 512" height="512" viewBox="0 0 512 512" width="512" xmlns="http://www.w3.org/2000/svg"><g><g><path d="m253.594 394.133c-3.161 0-5.942 2.086-6.827 5.12l-16.893 57.92c-.186.637-.28 1.297-.28 1.96 0 3.866 3.134 7 7 7h34c3.866 0 7-3.134 7-7 0-.663-.094-1.323-.28-1.96l-16.893-57.92c-.886-3.034-3.667-5.12-6.827-5.12z" fill="#82aa41"/></g><g><path d="m245.594 466.133h16v32h-16z" fill="#aa5a28"/></g><g><path d="m53.594 394.133c-3.161 0-5.942 2.086-6.827 5.12l-16.893 57.92c-.186.637-.28 1.297-.28 1.96 0 3.866 3.134 7 7 7h34c3.866 0 7-3.134 7-7 0-.663-.094-1.323-.28-1.96l-16.893-57.92c-.886-3.034-3.667-5.12-6.827-5.12z" fill="#82aa41"/></g><g><path d="m45.594 466.133h16v32h-16z" fill="#aa5a28"/></g><g><path d="m133.594 242.133c-4.418 0-8 3.582-8 8v8h-8c0-8.836-7.164-16-16-16v48h24v8c0 4.418 3.582 8 8 8h40v-64z" fill="#f0915a"/></g><g><path d="m85.594 242.133h16c4.418 0 8 3.582 8 8v32c0 4.418-3.582 8-8 8h-16c-4.418 0-8-3.582-8-8v-32c0-4.418 3.581-8 8-8z" fill="#fab991"/></g><g><path d="m260.221 299.506c-12.496-12.497-32.758-12.497-45.254 0l-64 64c-6.002 6.001-9.373 14.141-9.373 22.627v64c-17.673 0-32 14.327-32 32 0 8.836 7.164 16 16 16h64c8.836 0 16-7.164 16-16v-82.745l54.627-54.627c12.497-12.497 12.497-32.758 0-45.255z" fill="#f0915a"/></g><g><path d="m413.593 450.133c0-8.189-3.124-16.379-9.373-22.627l-54.627-54.627v-66.745c0-17.673-14.327-32-32-32s-32 14.327-32 32v80c0 8.487 3.371 16.626 9.373 22.627l41.373 41.373h-2.746c-17.673 0-32 14.327-32 32 0 8.836 7.164 16 16 16h80c8.836 0 16-7.164 16-16z" fill="#fab991"/></g><g><path d="m173.594 418.133c-8.189 0-16.379-3.124-22.628-9.373-12.496-12.497-12.496-32.758 0-45.255l64-64c12.498-12.497 32.758-12.497 45.256 0 12.496 12.497 12.496 32.758 0 45.255l-64 64c-6.249 6.249-14.439 9.373-22.628 9.373z" fill="#aa5a28"/></g><g><path d="m317.594 418.133c-17.673 0-32-14.327-32-32v-80c0-17.673 14.327-32 32-32s32 14.327 32 32v80c0 17.673-14.328 32-32 32z" fill="#d76e28"/></g><g><g><path d="m349.594 354.133h-176c-8.837 0-16-7.163-16-16v-24c0-4.418 3.582-8 8-8h192c4.418 0 8 3.582 8 8v24c0 8.837-7.164 16-16 16z" fill="#faa51e"/></g><g><path d="m357.594 274.133h-192c-4.418 0-8-3.582-8-8v-120h208v120c0 4.419-3.582 8-8 8z" fill="#faa51e"/></g><g><path d="m357.594 306.133h-192c-4.418 0-8-3.582-8-8v-16c0-4.418 3.582-8 8-8h192c4.418 0 8 3.582 8 8v16c0 4.419-3.582 8-8 8z" fill="#aa5a28"/></g><g><path d="m218.927 274.133h40v32h-40z" fill="#463c4b"/></g></g><g><path d="m333.594 34.133v32c0 4.418 3.582 8 8 8h8v8h32v-48z" fill="#f0915a"/></g><g><path d="m253.594 34.133h144v24h-144z" fill="#aa5a28"/></g><g><path d="m133.594 66.133h112c4.418 0 8-3.582 8-8v-24c0-4.418-3.582-8-8-8h-112c-4.418 0-8 3.582-8 8v24c0 4.419 3.581 8 8 8z" fill="#aa5a28"/></g><g><path d="m405.594 66.133c4.418 0 8-3.582 8-8v-24c0-4.418-3.582-8-8-8-4.418 0-8 3.582-8 8v24c0 4.419 3.581 8 8 8z" fill="#463c4b"/></g><g><path d="m333.594 66.133v-20c0-2.209 1.791-4 4-4 6.627 0 12 5.373 12 12v4c8.837 0 16 7.164 16 16h-24c-4.419 0-8-3.581-8-8z" fill="#fab991"/></g><g><path d="m373.594 26.133h-32c-4.418 0-8 3.582-8 8 0 4.418 3.582 8 8 8h32c4.418 0 8-3.582 8-8 0-4.418-3.582-8-8-8z" fill="#fab991"/></g><g><path d="m389.594 82.133h-48c-4.418 0-8 3.582-8 8v56c-17.673 0-32 14.327-32 32s14.327 32 32 32h32c17.673 0 32-14.327 32-32v-88c0-4.418-3.582-8-8-8z" fill="#fab991"/></g><g><path d="m229.594 218.133h-56c-17.673 0-32-14.327-32-32v-64c0-17.673 14.327-32 32-32h80c17.673 0 32 14.327 32 32v24c0 13.255-10.745 24-24 24v16c0 17.673-14.327 32-32 32z" fill="#f0915a"/></g><g><path d="m205.594 218.133h-32c-17.673 0-32-14.327-32-32v-64c0-17.673 14.327-32 32-32h32c17.673 0 32 14.327 32 32v64c0 17.673-14.327 32-32 32z" fill="#fab991"/></g><g><path d="m245.594 170.133h-8v-16c0-8.837 7.163-16 16-16h8v16c0 8.837-7.164 16-16 16z" fill="#fab991"/></g><g><g><path d="m157.594 186.133h40v8h-40z" fill="#f0697d"/></g><g><path d="m157.594 178.133v16h8v-8c0-4.418-3.582-8-8-8z" fill="#d7e6f0"/></g><g><path d="m197.594 178.133v16h-8v-8c0-4.418 3.581-8 8-8z" fill="#d7e6f0"/></g></g><g><path d="m149.594 18.133c1.666 0 3.222.833 4.146 2.219l3.854 5.781h-16l3.854-5.781c.924-1.386 2.48-2.219 4.146-2.219z" fill="#aac3d7"/></g><g><path d="m189.594 18.133c1.666 0 3.222.833 4.146 2.219l3.854 5.781h-16l3.854-5.781c.924-1.386 2.48-2.219 4.146-2.219z" fill="#aac3d7"/></g><g><path d="m229.594 18.133c1.666 0 3.222.833 4.146 2.219l3.854 5.781h-16l3.854-5.781c.924-1.386 2.48-2.219 4.146-2.219z" fill="#aac3d7"/></g><g><path d="m149.594 74.133c1.666 0 3.222-.833 4.146-2.219l3.854-5.781h-16l3.854 5.781c.924 1.387 2.48 2.219 4.146 2.219z" fill="#aac3d7"/></g><g><path d="m189.594 74.133c1.666 0 3.222-.833 4.146-2.219l3.854-5.781h-16l3.854 5.781c.924 1.387 2.48 2.219 4.146 2.219z" fill="#aac3d7"/></g><g><path d="m229.594 74.133c1.666 0 3.222-.833 4.146-2.219l3.854-5.781h-16l3.854 5.781c.924 1.387 2.48 2.219 4.146 2.219z" fill="#aac3d7"/></g><g><circle cx="149.594" cy="46.133" fill="#aac3d7" r="8"/></g><g><circle cx="189.594" cy="46.133" fill="#aac3d7" r="8"/></g><g><circle cx="229.594" cy="46.133" fill="#aac3d7" r="8"/></g><g><path d="m93.594 170.133c-3.16 0-5.942 2.086-6.827 5.12l-16.893 57.92c-.186.637-.28 1.297-.28 1.96 0 3.866 3.134 7 7 7h34c3.866 0 7-3.134 7-7 0-.663-.094-1.323-.28-1.96l-16.893-57.92c-.886-3.034-3.667-5.12-6.827-5.12z" fill="#82aa41"/></g><g><path d="m453.594 394.133c-3.16 0-5.942 2.086-6.827 5.12l-16.893 57.92c-.186.637-.28 1.297-.28 1.96 0 3.866 3.134 7 7 7h34c3.866 0 7-3.134 7-7 0-.663-.094-1.323-.28-1.96l-16.893-57.92c-.886-3.034-3.667-5.12-6.827-5.12z" fill="#82aa41"/></g><g><path d="m85.594 290.133h16v8h-16z" fill="#aa5a28"/></g><g><path d="m85.594 290.133v4c0 2.209-1.791 4-4 4-2.209 0-4 1.791-4 4 0 2.209 1.791 4 4 4h24c2.209 0 4-1.791 4-4 0-2.209-1.791-4-4-4-2.209 0-4-1.791-4-4v-4z" fill="#aa5a28"/></g><g><path d="m445.594 466.133h16v32h-16z" fill="#aa5a28"/></g><g><circle cx="101.594" cy="330.133" fill="#aa5a28" r="8"/></g><g><circle cx="85.594" cy="394.133" fill="#aa5a28" r="8"/></g></g></svg>