<svg id="Layer_1" enable-background="new 0 0 512 512" height="512" viewBox="0 0 512 512" width="512" xmlns="http://www.w3.org/2000/svg"><g><g><path d="m347.179 32v16h-12c-2.209 0-4 1.791-4 4 0 6.627 5.373 12 12 12h4c0 8.836 7.163 16 16 16h48v-48z" fill="#96461e"/></g><g><path d="m395.179 16h-48c-4.418 0-8 3.582-8 8s3.582 8 8 8h48v32c0 8.837 7.164 16 16 16v-48c0-8.837-7.163-16-16-16z" fill="#d76e28"/></g><g><path d="m289.806 297.373c-12.496-12.497-32.758-12.497-45.254 0l-64 64c-6.002 6.001-9.373 14.141-9.373 22.627v64c-17.673 0-32 14.327-32 32 0 8.836 7.163 16 16 16h64c8.837 0 16-7.164 16-16v-82.745l54.627-54.627c12.497-12.497 12.497-32.759 0-45.255z" fill="#aa5a28"/></g><g><path d="m411.179 448c0-8.189-3.124-16.379-9.373-22.627l-54.627-54.627v-66.746c0-17.673-14.327-32-32-32s-32 14.327-32 32v80c0 8.487 3.371 16.626 9.373 22.627l41.373 41.373h-2.746c-17.673 0-32 14.327-32 32 0 8.836 7.163 16 16 16h80c8.837 0 16-7.164 16-16z" fill="#d76e28"/></g><g><path d="m331.179 128h-136v32h-24v-72c0-4.418-3.582-8-8-8h-8v-48h-64v32c0 8.836 7.163 16 16 16h-8c-4.418 0-8 3.582-8 8v104c0 17.673 14.327 32 32 32v40c0 4.418 3.582 8 8 8s8-3.582 8-8v-32c0-4.418 3.582-8 8-8s8 3.582 8 8 3.582 8 8 8 8-3.582 8-8v-8h48v80c0 8.836 7.163 16 16 16h64v40c0 4.418 3.582 8 8 8s8-3.582 8-8v-32c0-4.418 3.582-8 8-8s8 3.582 8 8 3.582 8 8 8 8-3.582 8-8v-56l2.564-3.846c8.761-13.141 13.436-28.582 13.436-44.376v-63.778c0-17.673-14.326-32-32-32z" fill="#96461e"/></g><g><path d="m91.179 16h48c8.837 0 16 7.163 16 16h-64c-4.418 0-8-3.582-8-8 0-4.418 3.582-8 8-8z" fill="#d76e28"/></g><g><path d="m147.179 48h-20c-2.209 0-4 1.791-4 4 0 6.627 5.373 12 12 12h4c0 8.837 7.164 16 16 16v-24c0-4.418-3.581-8-8-8z" fill="#d76e28"/></g><g><g><path d="m211.179 184h72c8.837 0 16-7.163 16-16v-8c8.837 0 16-7.163 16-16v-40c0-22.091-17.909-40-40-40h-40c-22.091 0-40 17.909-40 40v64c0 8.837 7.164 16 16 16z" fill="#aa5a28"/></g><g><path d="m259.179 184h-48c-8.837 0-16-7.163-16-16v-64c0-22.091 17.909-40 40-40 22.091 0 40 17.909 40 40v64c0 8.837-7.163 16-16 16z" fill="#d76e28"/></g></g><g><path d="m243.179 168h-24c-4.418 0-8-3.582-8-8 0-4.418 3.582-8 8-8h24c4.418 0 8 3.582 8 8 0 4.418-3.581 8-8 8z" fill="#964628"/></g><g><path d="m203.179 208v40c0 8.837 7.163 16 16 16h8c8.837 0 16-7.163 16-16v-40c0-4.418-3.582-8-8-8h-24c-4.418 0-8 3.582-8 8z" fill="#d76e28"/></g><g><path d="m259.179 208v40c0 8.837 7.163 16 16 16h8c8.837 0 16-7.163 16-16v-40c0-4.418-3.582-8-8-8h-24c-4.418 0-8 3.582-8 8z" fill="#d76e28"/></g><g><path d="m419.179 80h-64c-4.418 0-8 3.582-8 8v72c-17.673 0-32 14.327-32 32s14.327 32 32 32h16v40c0 4.418 3.582 8 8 8s8-3.582 8-8v-32c0-4.418 3.582-8 8-8s8 3.582 8 8 3.582 8 8 8 8-3.582 8-8v-12.292c9.562-5.534 16-15.866 16-27.708v-104c0-4.418-3.581-8-8-8z" fill="#d76e28"/></g></g></svg>