<svg id="Layer_1" enable-background="new 0 0 512 512" height="512" viewBox="0 0 512 512" width="512" xmlns="http://www.w3.org/2000/svg"><g><g><path d="m367.179 159.2 11.716 11.716c18.11 18.11 28.284 42.673 28.284 68.284 0 25.612-10.174 50.174-28.284 68.284l-11.716 11.716z" fill="#4b8c41"/></g><g><path d="m351.179 143.2h-128c-8.837 0-16 7.163-16 16v160c0 8.837 7.163 16 16 16h128c8.837 0 16-7.163 16-16v-160c0-8.837-7.163-16-16-16z" fill="#2d6e23"/></g><g><path d="m351.179 303.2h-128v18.746l-38.627 38.627c-6.002 6.001-9.373 14.14-9.373 22.627v64c-17.673 0-32 14.327-32 32 0 8.837 7.163 16 16 16h64c8.837 0 16-7.163 16-16v-82.745l54.627-54.628c2.026-2.025 3.719-4.259 5.088-6.627h52.285z" fill="#82aa41"/></g><g><path d="m103.179 15.2h32c8.837 0 16 7.163 16 16h-48c-4.418 0-8-3.582-8-8 0-4.418 3.582-8 8-8z" fill="#a5cd3c"/></g><g><path d="m167.179 159.2v-56c0-4.418-3.582-8-8-8h-8v-64h-48v32c0 8.837 7.163 16 16 16v16h-8c-4.418 0-8 3.582-8 8v88c0 17.673 14.327 32 32 32h112v-64z" fill="#82aa41"/></g><g><path d="m143.179 47.2h-20c-2.209 0-4 1.791-4 4 0 6.627 5.373 12 12 12h4c0 8.837 7.164 16 16 16v-40c0 4.418-3.581 8-8 8z" fill="#a5cd3c"/></g><g><path d="m335.179 319.2h-96c-8.837 0-16-7.163-16-16v-112c0-17.673 14.327-32 32-32h96v144c0 8.837-7.163 16-16 16z" fill="#d76e28"/></g><g><path d="m351.179 31.2v4c0 6.627-5.373 12-12 12-2.209 0-4 1.791-4 4 0 6.627 5.373 12 12 12h4c0 8.837 7.163 16 16 16v16h32v-64z" fill="#82aa41"/></g><g><path d="m383.179 15.2h-32c-4.418 0-8 3.582-8 8s3.582 8 8 8h32v32c0 8.837 7.164 16 16 16v-48c0-8.837-7.163-16-16-16z" fill="#a5cd3c"/></g><g><path d="m407.179 95.2h-48c-4.418 0-8 3.582-8 8v56c-17.673 0-32 14.327-32 32s14.327 32 32 32h32c17.673 0 32-14.327 32-32v-88c0-4.418-3.581-8-8-8z" fill="#a5cd3c"/></g><g><g><path d="m199.179 183.2h72c8.837 0 16-7.163 16-16 0-4.418 3.582-8 8-8h8c8.837 0 16-7.163 16-16v-32c0-22.091-17.909-40-40-40h-56c-22.091 0-40 17.909-40 40v56c0 8.837 7.164 16 16 16z" fill="#82aa41"/></g><g><path d="m247.179 183.2h-48c-8.837 0-16-7.163-16-16v-56c0-22.091 17.909-40 40-40 22.091 0 40 17.909 40 40v56c0 8.837-7.163 16-16 16z" fill="#a5cd3c"/></g></g><g><path d="m327.18 111.2h-152c-4.418 0-8-3.582-8-8 0-8.837 7.163-16 16-16h136c8.837 0 16 7.163 16 16-.001 4.418-3.582 8-8 8z" fill="#2d6e23"/></g><g><path d="m271.179 135.2c-4.418 0-8-3.582-8-8v-16c0-4.418 3.582-8 8-8 8.837 0 16 7.163 16 16 0 8.837-7.163 16-16 16z" fill="#a5cd3c"/></g><g><path d="m223.179 135.2h-16c-17.673 0-32 14.327-32 32h72v-8c0-13.255-10.745-24-24-24z" fill="#faa51e"/></g><g><path d="m231.179 183.2h-40c-8.837 0-16-7.163-16-16h72c0 8.837-7.163 16-16 16z" fill="#d76e28"/></g><g><path d="m415.179 447.2c0-8.189-3.124-16.379-9.373-22.627l-54.627-54.628v-66.745c0-17.673-14.327-32-32-32s-32 14.327-32 32v80c0 8.487 3.371 16.626 9.373 22.627l41.373 41.373h-2.746c-17.673 0-32 14.327-32 32 0 8.837 7.163 16 16 16h80c8.837 0 16-7.163 16-16z" fill="#a5cd3c"/></g><g><path d="m207.179 199.2v40c0 8.837 7.163 16 16 16h8c8.837 0 16-7.163 16-16v-40c0-4.418-3.582-8-8-8h-24c-4.418 0-8 3.582-8 8z" fill="#faa51e"/></g><g><path d="m263.179 199.2v40c0 8.837 7.163 16 16 16h8c8.837 0 16-7.163 16-16v-40c0-4.418-3.582-8-8-8h-24c-4.418 0-8 3.582-8 8z" fill="#faa51e"/></g><g><circle cx="223.179" cy="147.2" fill="#d76e28" r="4"/></g></g></svg>