<svg id="Layer_1" enable-background="new 0 0 512 512" height="512" viewBox="0 0 512 512" width="512" xmlns="http://www.w3.org/2000/svg"><g><g><path d="m137.042 268.8h-32c-2.122 0-4.157-.843-5.657-2.343l-8-8c-3.125-3.125-3.125-8.189 0-11.314 3.124-3.123 8.189-3.123 11.313 0l5.657 5.657h28.687c4.418 0 8 3.582 8 8s-3.582 8-8 8z" fill="#f0915a"/></g><path d="m121.042 260.8h-16c-4.418 0-8 3.582-8 8h-12.687l-13.657-13.657c-3.124-3.123-8.189-3.123-11.313 0-3.125 3.125-3.125 8.189 0 11.314l16 16c1.5 1.5 3.535 2.343 5.657 2.343h48v-16c0-4.418-3.582-8-8-8z" fill="#fab991"/><g><path d="m137.042 300.8h56v-64h-56c-4.418 0-8 3.582-8 8v48c0 4.418 3.581 8 8 8z" fill="#82aa41"/></g><g><path d="m177.042 484.8c-17.673 0-32-14.327-32-32v-64c0-8.487 3.371-16.626 9.373-22.627l64-64c12.496-12.497 32.758-12.497 45.254 0 12.497 12.497 12.497 32.758 0 45.255l-54.627 54.627v50.745c0 17.673-14.328 32-32 32z" fill="#aac3d7"/></g><g><path d="m353.042 484.8c-8.189 0-16.379-3.124-22.627-9.373l-64-64c-6.002-6.001-9.373-14.141-9.373-22.627v-80c0-17.673 14.327-32 32-32s32 14.327 32 32v66.745l54.627 54.627c12.497 12.497 12.497 32.758 0 45.255-6.249 6.249-14.438 9.373-22.627 9.373z" fill="#d7e6f0"/></g><g><path d="m321.042 300.8h-128v26.745l-38.627 38.627c-12.497 12.497-12.497 32.758 0 45.255 12.497 12.497 32.758 12.497 45.255 0l63.999-64c4.196-4.196 6.976-9.269 8.354-14.627h49.018v-32z" fill="#4b8c41"/></g><g><path d="m321.042 388.8v-79.334c0-17.436-13.67-32.175-31.1-32.653-18.084-.496-32.9 14.016-32.9 31.988v80c0 17.673 14.327 32 32 32 17.673-.001 32-14.328 32-32.001z" fill="#a5cd3c"/></g><g><g><path d="m321.042 300.8h-128v-104c0-8.837 7.163-16 16-16h112z" fill="#4b8c41"/></g><g><path d="m225.042 300.8h40v-88c0-17.673 14.327-32 32-32h-40c-17.673 0-32 14.327-32 32z" fill="#faa51e"/></g></g><g><path d="m129.042 500.8h64c8.837 0 16-7.163 16-16v-32h-64c-17.673 0-32 14.327-32 32 0 8.837 7.163 16 16 16z" fill="#323232"/></g><g><path d="m385.042 452.8v32c0 8.837-7.163 16-16 16h-80c-8.837 0-16-7.163-16-16 0-17.673 14.327-32 32-32z" fill="#464646"/></g><g><path d="m326.375 52.8v48h10.667v16h32v-64z" fill="#f0915a"/></g><g><path d="m377.042 116.8h-48c-4.418 0-8 3.582-8 8v56c-17.673 0-32 14.327-32 32s14.327 32 32 32h32c17.673 0 32-14.327 32-32v-88c0-4.418-3.582-8-8-8z" fill="#a5cd3c"/></g><g><path d="m209.042 228.8h-32c-17.673 0-32-14.327-32-32v-64h96v64c0 17.673-14.327 32-32 32z" fill="#fab991"/></g><g><path d="m361.042 10.133h-16c-22.091 0-40 17.909-40 40s17.909 40 40 40h16c22.091 0 40-17.909 40-40s-17.909-40-40-40z" fill="#faa51e"/></g><g><circle cx="345.042" cy="50.133" fill="#fad241" r="40"/></g><g><circle cx="345.042" cy="50.133" fill="#faa51e" r="24"/></g><g><path d="m318.375 92.8v-20c0-2.209 1.791-4 4-4 6.627 0 12 5.373 12 12v4c8.837 0 16 7.164 16 16h-24c-4.418 0-8-3.582-8-8z" fill="#fab991"/></g><g><path d="m193.042 300.8h128v24h-128z" fill="#aa5a28"/></g><g><path d="m305.042 132.8h-184c-4.418 0-8-3.582-8-8s3.582-8 8-8h184c4.418 0 8 3.582 8 8s-3.582 8-8 8z" fill="#4b8c41"/></g><g><path d="m290.37 36.8h-162.856c-2.974 0-4.908 3.129-3.578 5.789l2.548 5.097c6.943 13.886 10.557 29.197 10.557 44.721v24.393h143.8v-24.393c0-15.525 3.615-30.836 10.557-44.721l2.548-5.097c1.331-2.66-.603-5.789-3.576-5.789z" fill="#4b8c41"/></g><g><path d="m137.042 92.8h143.8v24h-143.8z" fill="#aa5a28"/></g><g><path d="m165.042 116.8h32c2.209 0 4-1.791 4-4v-16c0-2.209-1.791-4-4-4h-32c-2.209 0-4 1.791-4 4v16c0 2.209 1.79 4 4 4z" fill="#faa51e"/></g><g><path d="m241.042 132.8h40v56c0 13.255-10.745 24-24 24h-16z" fill="#aa5a28"/></g><g><path d="m225.042 132.8h16v16h-16z" fill="#aa5a28"/></g><g><path d="m189.042 212.8h-8c-6.627 0-12-5.373-12-12 0-2.209 1.791-4 4-4h24c2.209 0 4 1.791 4 4 0 6.627-5.373 12-12 12z" fill="#f04b37"/></g><g><path d="m249.042 172.8h-8v-24c0-8.837 7.163-16 16-16h8v24c0 8.837-7.164 16-16 16z" fill="#f0915a"/></g><g><g><path d="m438.375 28.8h-16v-8c0-4.418 3.582-8 8-8 4.418 0 8 3.582 8 8z" fill="#fad241"/></g><g><path d="m430.375 60.8c-4.418 0-8-3.582-8-8v-8h16v8c0 4.418-3.582 8-8 8z" fill="#fad241"/></g><g><path d="m422.375 28.8v16h-8c-4.418 0-8-3.582-8-8 0-4.418 3.582-8 8-8z" fill="#fad241"/></g><g><path d="m454.375 36.8c0 4.418-3.582 8-8 8h-8v-16h8c4.418 0 8 3.582 8 8z" fill="#fad241"/></g></g><g><g><path d="m417.042 92.8h-16v-8c0-4.418 3.582-8 8-8 4.418 0 8 3.582 8 8z" fill="#fad241"/></g><g><path d="m409.042 124.8c-4.418 0-8-3.582-8-8v-8h16v8c0 4.418-3.582 8-8 8z" fill="#fad241"/></g><g><path d="m401.042 92.8v16h-8c-4.418 0-8-3.582-8-8 0-4.418 3.582-8 8-8z" fill="#fad241"/></g><g><path d="m433.042 100.8c0 4.418-3.582 8-8 8h-8v-16h8c4.418 0 8 3.582 8 8z" fill="#fad241"/></g></g><g><path d="m121.042 180.8c0-8.836-7.163-16-16-16s-16 7.164-16 16c0-8.836-7.163-16-16-16s-16 7.164-16 16c0 8.836 7.163 16 16 16-8.837 0-16 7.164-16 16 0 8.836 7.163 16 16 16 5.568 0 10.467-2.848 13.333-7.163v20.496h5.333v-20.496c2.866 4.315 7.765 7.163 13.333 7.163 8.837 0 16-7.164 16-16 0-8.836-7.163-16-16-16 8.837 0 16.001-7.164 16.001-16z" fill="#4b8c41"/></g><g><g><path d="m78.375 209.467c-.512 0-1.023-.195-1.414-.586-.781-.781-.781-2.047 0-2.828l21.333-21.334c.78-.781 2.047-.781 2.828 0s.781 2.047 0 2.828l-21.333 21.334c-.39.391-.902.586-1.414.586z" fill="#a5cd3c"/></g><g><path d="m99.708 209.467c-.512 0-1.023-.195-1.414-.586l-21.333-21.334c-.781-.781-.781-2.047 0-2.828.78-.781 2.047-.781 2.828 0l21.333 21.334c.781.781.781 2.047 0 2.828-.39.391-.902.586-1.414.586z" fill="#a5cd3c"/></g></g><g><path d="m158.375 460.8h-5.333c-4.418 0-8-3.582-8-8h21.333c0 4.418-3.582 8-8 8z" fill="#d76e28"/></g><g><path d="m321.042 460.8h-5.333c-4.418 0-8-3.582-8-8h21.333c0 4.418-3.582 8-8 8z" fill="#faa51e"/></g><g><path d="m225.042 148.8v48c0 17.673-14.327 32-32 32h-16c-17.673 0-32-14.327-32-32v-64h-8v80c0 22.091 17.909 40 40 40h24c22.091 0 40-17.909 40-40v-64z" fill="#aa5a28"/></g></g></svg>