<svg id="Layer_1" enable-background="new 0 0 512 512" height="512" viewBox="0 0 512 512" width="512" xmlns="http://www.w3.org/2000/svg"><g><path d="m453.594 248h-12.305c2.732-4.711 4.305-10.173 4.305-16 0-4.418-3.582-8-8-8s-8 3.582-8 8c0 8.822-7.178 16-16 16h-.129c-1.484-50.011-16.843-96.825-43.647-132.564-26.87-35.826-62.206-56.602-100.224-59.162v-.274c0-8.822 7.178-16 16-16 4.418 0 8-3.582 8-8s-3.582-8-8-8c-5.826 0-11.289 1.573-16 4.305v-12.305c0-4.418-3.582-8-8-8s-8 3.582-8 8v12.305c-4.711-2.732-10.174-4.305-16-4.305-4.418 0-8 3.582-8 8s3.582 8 8 8c8.822 0 16 7.178 16 16v.273c-38.018 2.56-73.354 23.336-100.224 59.162-26.804 35.74-42.164 82.553-43.647 132.564h-.129c-8.822 0-16-7.178-16-16 0-4.418-3.582-8-8-8s-8 3.582-8 8c0 5.827 1.573 11.289 4.305 16h-12.305c-4.418 0-8 3.582-8 8s3.582 8 8 8h12.305c-2.732 4.711-4.305 10.173-4.305 16 0 4.418 3.582 8 8 8s8-3.582 8-8c0-8.822 7.178-16 16-16h.129c1.484 50.011 16.843 96.825 43.647 132.564 26.87 35.826 62.206 56.602 100.224 59.162v.275c0 8.822-7.178 16-16 16-4.418 0-8 3.582-8 8s3.582 8 8 8c5.826 0 11.289-1.573 16-4.305v12.305c0 4.418 3.582 8 8 8s8-3.582 8-8v-12.305c4.711 2.732 10.174 4.305 16 4.305 4.418 0 8-3.582 8-8s-3.582-8-8-8c-8.822 0-16-7.178-16-16v-.273c38.018-2.56 73.354-23.336 100.224-59.162 26.804-35.74 42.164-82.553 43.647-132.564h.129c8.822 0 16 7.178 16 16 0 4.418 3.582 8 8 8s8-3.582 8-8c0-5.827-1.573-11.289-4.305-16h12.305c4.418 0 8-3.582 8-8s-3.582-8.001-8-8.001zm-192 192c-74.99 0-136-82.542-136-184s61.01-184 136-184 136 82.542 136 184-61.01 184-136 184z" fill="#faa037"/><path d="m469.594 248h-12.305c2.732-4.711 4.305-10.173 4.305-16 0-4.418-3.582-8-8-8h-16c-4.418 0-8 3.582-8 8 0 1.624-.247 3.189-.698 4.667-3.306-45.724-18.308-88.205-43.078-121.231-26.87-35.826-62.206-56.602-100.224-59.162v-.274c0-8.822 7.178-16 16-16 4.418 0 8-3.582 8-8s-3.582-8-8-8h-16v-8c0-4.418-3.582-8-8-8h-16c-4.418 0-8 3.582-8 8v8h-16c-4.418 0-8 3.582-8 8s3.582 8 8 8c8.822 0 16 7.178 16 16v2.462c-31.871 6.579-61.166 26.229-84.224 56.973-26.804 35.74-42.164 82.553-43.647 132.564h-.129c-8.822 0-16-7.178-16-16 0-4.418-3.582-8-8-8h-16c-4.418 0-8 3.582-8 8 0 6.12 1.729 11.842 4.721 16.708-2.781 1.253-4.721 4.043-4.721 7.292s1.94 6.039 4.721 7.292c-2.992 4.866-4.721 10.588-4.721 16.708 0 4.418 3.582 8 8 8h16c4.418 0 8-3.582 8-8 0-8.822 7.178-16 16-16h.129c1.484 50.011 16.843 96.825 43.647 132.564 23.058 30.744 52.352 50.395 84.224 56.973v2.464c0 8.822-7.178 16-16 16-4.418 0-8 3.582-8 8s3.582 8 8 8h16v8c0 4.418 3.582 8 8 8h16c4.418 0 8-3.582 8-8v-8h16c4.418 0 8-3.582 8-8s-3.582-8-8-8c-8.822 0-16-7.178-16-16v-.273c38.018-2.56 73.354-23.336 100.224-59.162 24.77-33.026 39.772-75.508 43.078-121.231.451 1.478.698 3.043.698 4.667 0 4.418 3.582 8 8 8h16c4.418 0 8-3.582 8-8 0-5.827-1.573-11.289-4.305-16h12.305c4.418 0 8-3.582 8-8s-3.582-8.001-8-8.001z" fill="#d76e28"/><g><g><path d="m437.594 80h-16v-16c0-4.418 3.582-8 8-8 4.418 0 8 3.582 8 8z" fill="#faa51e"/></g><g><path d="m429.594 120c-4.418 0-8-3.582-8-8v-16h16v16c0 4.418-3.582 8-8 8z" fill="#faa51e"/></g><g><path d="m421.594 80v16h-16c-4.418 0-8-3.582-8-8 0-4.418 3.582-8 8-8z" fill="#faa51e"/></g><g><path d="m461.594 88c0 4.418-3.582 8-8 8h-16v-16h16c4.418 0 8 3.582 8 8z" fill="#faa51e"/></g></g><g><g><path d="m69.594 336h-16v-16c0-4.418 3.582-8 8-8 4.418 0 8 3.582 8 8z" fill="#faa51e"/></g><g><path d="m61.594 376c-4.418 0-8-3.582-8-8v-16h16v16c0 4.418-3.582 8-8 8z" fill="#faa51e"/></g><g><path d="m53.594 336v16h-16c-4.418 0-8-3.582-8-8 0-4.418 3.582-8 8-8z" fill="#faa51e"/></g><g><path d="m93.594 344c0 4.418-3.582 8-8 8h-16v-16h16c4.418 0 8 3.582 8 8z" fill="#faa51e"/></g></g><g><g><path d="m405.594 432h-16v-16c0-4.418 3.582-8 8-8 4.418 0 8 3.582 8 8z" fill="#faa51e"/></g><g><path d="m397.594 472c-4.418 0-8-3.582-8-8v-16h16v16c0 4.418-3.582 8-8 8z" fill="#faa51e"/></g><g><path d="m389.594 432v16h-16c-4.418 0-8-3.582-8-8 0-4.418 3.582-8 8-8z" fill="#faa51e"/></g><g><path d="m429.594 440c0 4.418-3.582 8-8 8h-16v-16h16c4.418 0 8 3.582 8 8z" fill="#faa51e"/></g></g><g><ellipse cx="261.594" cy="256" fill="#6ea5d7" rx="144" ry="192"/></g><g><g><path d="m347.994 180.805c-4.844-16.64-20.197-28.805-38.4-28.805h-64c-22.091 0-40 17.909-40 40v60.005z" fill="#d7e6f0"/></g><g><path d="m309.594 152h-96c-22.091 0-40 17.909-40 40v104c0 39.765 32.235 72 72 72h32c39.765 0 72-32.235 72-72v-104c0-22.091-17.909-40-40-40z" fill="#aac3d7"/></g><g><path d="m245.594 368c-39.765 0-72-32.235-72-72v-104c0-22.091 17.909-40 40-40h64c22.091 0 40 17.909 40 40v104c0 39.765-32.236 72-72 72z" fill="#d7e6f0"/></g></g><g><path d="m221.574 440.479 161.12-80.56c3.144-6.5 6.001-13.268 8.549-20.274l-186.08 93.044c5.313 3.022 10.792 5.627 16.411 7.79z" fill="#d7e6f0"/></g><g><path d="m131.084 337.25 268.91-134.45c3.65 16.89 5.6 34.74 5.6 53.2 0 2.7-.04 5.4-.13 8.07l-248.28 124.14c-10.63-14.91-19.481-32.1-26.1-50.96z" fill="#d7e6f0"/></g><g><path d="m117.594 256c0-27.86 4.45-54.34 12.46-78.23l192.06-96.03c27.32 16.89 50 44.87 64.79 79.61l-266.4 133.2c-1.91-12.46-2.91-25.35-2.91-38.55z" fill="#d7e6f0"/></g><g><path d="m317.594 296v-52.002l-141.517 70.756c5.354 19.891 19.011 36.364 37.03 45.494l103.372-51.686c.718-4.082 1.115-8.274 1.115-12.562z" fill="#fff"/></g><g><path d="m317.594 196.005v-4.005c0-22.091-17.909-40-40-40h-64c-22.091 0-40 17.909-40 40v76.005z" fill="#fff"/></g><path d="m453.594 248h-12.305c2.732-4.711 4.305-10.173 4.305-16 0-4.418-3.582-8-8-8s-8 3.582-8 8c0 8.822-7.178 16-16 16h-.129c-1.484-50.011-16.843-96.825-43.647-132.564-26.87-35.826-62.206-56.602-100.224-59.162v-.274c0-8.822 7.178-16 16-16 4.418 0 8-3.582 8-8s-3.582-8-8-8c-5.826 0-11.289 1.573-16 4.305v-12.305c0-4.418-3.582-8-8-8s-8 3.582-8 8v12.305c-4.711-2.732-10.174-4.305-16-4.305-4.418 0-8 3.582-8 8s3.582 8 8 8c8.822 0 16 7.178 16 16v.273c-38.018 2.56-73.354 23.336-100.224 59.162-26.804 35.74-42.164 82.553-43.647 132.564h-.129c-8.822 0-16-7.178-16-16 0-4.418-3.582-8-8-8s-8 3.582-8 8c0 5.827 1.573 11.289 4.305 16h-12.305c-4.418 0-8 3.582-8 8s3.582 8 8 8h12.305c-2.732 4.711-4.305 10.173-4.305 16 0 4.418 3.582 8 8 8s8-3.582 8-8c0-8.822 7.178-16 16-16h.129c1.484 50.011 16.843 96.825 43.647 132.564 26.87 35.826 62.206 56.602 100.224 59.162v.275c0 8.822-7.178 16-16 16-4.418 0-8 3.582-8 8s3.582 8 8 8c5.826 0 11.289-1.573 16-4.305v12.305c0 4.418 3.582 8 8 8s8-3.582 8-8v-12.305c4.711 2.732 10.174 4.305 16 4.305 4.418 0 8-3.582 8-8s-3.582-8-8-8c-8.822 0-16-7.178-16-16v-.273c38.018-2.56 73.354-23.336 100.224-59.162 26.804-35.74 42.164-82.553 43.647-132.564h.129c8.822 0 16 7.178 16 16 0 4.418 3.582 8 8 8s8-3.582 8-8c0-5.827-1.573-11.289-4.305-16h12.305c4.418 0 8-3.582 8-8s-3.582-8.001-8-8.001zm-192 192c-74.99 0-136-82.542-136-184s61.01-184 136-184 136 82.542 136 184-61.01 184-136 184z" fill="#faa037"/><g><path d="m253.594 328h-16c-13.255 0-24-10.745-24-24h64c0 13.255-10.746 24-24 24z" fill="#d7e6f0"/></g><g><circle cx="217.594" cy="212" fill="#d7e6f0" r="20"/></g><g><circle cx="273.594" cy="212" fill="#aac3d7" r="20"/></g><g><path d="m273.594 192c-11.046 0-20 8.954-20 20 0 5.167 1.976 9.86 5.192 13.409l34.436-17.218c-1.781-9.222-9.886-16.191-19.628-16.191z" fill="#d7e6f0"/></g></g></svg>