<svg id="Layer_1" enable-background="new 0 0 512 512" height="512" viewBox="0 0 512 512" width="512" xmlns="http://www.w3.org/2000/svg"><g><g><path d="m119.708 503.2h184v-80h-184c-22.091 0-40 17.909-40 40 0 22.091 17.909 40 40 40z" fill="#2d6e23"/></g><g><path d="m287.708 311.2v12.224c0 23.527-5.478 46.732-16 67.775v.001c0 17.673 14.327 32 32 32h88c22.091 0 40 17.909 40 40 0 22.091-17.909 40-40 40h-152c-44.183 0-80-35.817-80-80v-112z" fill="#4b8c41"/></g><g><path d="m239.708 503.2c-44.183 0-80-35.817-80-80v-112h80v128c0 35.346 28.654 64 64 64z" fill="#82aa41"/></g><g><path d="m239.708 423.2v8h-79.61c-.26-2.63-.39-5.3-.39-8z" fill="#7dc8aa"/></g><g><path d="m248.268 471.2h-72.57c-1.91-2.55-3.68-5.22-5.28-8h73.95c1.11 2.77 2.42 5.44 3.9 8z" fill="#7dc8aa"/></g><g><path d="m319.708 423.2c0-20.489 8.139-40.139 22.627-54.627l20.686-20.686c3.001-3.001 4.686-7.07 4.686-11.314v-17.373c0-4.418 3.582-8 8-8 4.418 0 8 3.582 8 8v44.686c0 7.244-2.878 14.191-8 19.314-5.122 5.122-8 12.07-8 19.314v20.686z" fill="#2d6e23"/></g><g><path d="m159.708 343.2h80v8h-80z" fill="#4b8c41"/></g><g><path d="m159.708 383.2h80v8h-80z" fill="#4b8c41"/></g><g><path d="m239.708 423.2v8h-79.61c-.26-2.63-.39-5.3-.39-8z" fill="#4b8c41"/></g><g><path d="m248.268 471.2h-72.57c-1.91-2.55-3.68-5.22-5.28-8h73.95c1.11 2.77 2.42 5.44 3.9 8z" fill="#4b8c41"/></g><g><path d="m119.708 159.2c-4.418 0-8-3.582-8-8s3.582-8 8-8c4.411 0 8-3.589 8-8 0-13.233 10.766-24 24-24h8c4.418 0 8 3.582 8 8s-3.582 8-8 8h-8c-4.411 0-8 3.589-8 8 0 13.233-10.766 24-24 24z" fill="#4b8c41"/></g><g><path d="m287.708 311.2h-128v-112c0-17.673 14.327-32 32-32h80v80.26c0 10.078-4.004 19.744-11.13 26.87l-4.87 4.87c17.673 0 32 14.327 32 32z" fill="#f0915a"/></g><g><path d="m239.708 215.2c0-13.255-10.745-24-24-24s-24 10.745-24 24c0-13.255-10.745-24-24-24s-24 10.745-24 24c0 10.449 6.68 19.334 16 22.629v9.371h112v-32z" fill="#2d6e23"/></g><g><path d="m191.708 183.2h-16c-17.673 0-32-14.327-32-32v-56c0-13.255 10.745-24 24-24h16c13.255 0 24 10.745 24 24v72c0 8.837-7.163 16-16 16z" fill="#fab991"/></g><path d="m295.708 111.2c-4.411 0-8-3.589-8-8 0-13.233-10.766-24-24-24h-8c-.337 0-.667.027-.992.068-1.27-4.979-3.712-9.486-7.008-13.223v-18.845c0-13.233-10.766-24-24-24-4.411 0-8-3.589-8-8 0-4.418-3.582-8-8-8s-8 3.582-8 8c0 13.233 10.766 24 24 24 4.411 0 8 3.589 8 8v9.008c-2.557-.658-5.238-1.008-8-1.008h-2.667l-2.343-2.343c-3.622-3.622-8.535-5.657-13.657-5.657s-10.035 2.035-13.657 5.657l-2.343 2.343-2.343-2.343c-3.622-3.622-8.535-5.657-13.657-5.657s-10.035 2.035-13.657 5.657l-2.343 2.343h2.667c-7.534 0-14.454 2.609-19.921 6.966-2.432-1.374-4.079-3.979-4.079-6.966 0-13.233-10.766-24-24-24h-8c-4.418 0-8 3.582-8 8s3.582 8 8 8h8c4.411 0 8 3.589 8 8 0 8.197 4.133 15.445 10.423 19.776-1.559 3.767-2.423 7.894-2.423 12.224v16c0 4.418 3.582 8 8 8l2.343 2.343c3.622 3.622 8.535 5.657 13.657 5.657s10.035-2.035 13.657-5.657l2.343-2.343 2.343 2.343c3.622 3.622 8.535 5.657 13.657 5.657s10.035-2.035 13.657-5.657l2.343-2.343v8c0 4.418 3.582 8 8 8v42.667c0 13.233 10.766 24 24 24 4.411 0 8 3.589 8 8 0 4.418 3.582 8 8 8s8-3.582 8-8c0-13.233-10.766-24-24-24-4.411 0-8-3.589-8-8v-2.667h16c8.837 0 16-7.163 16-16l2.343-2.343c3.622-3.622 5.657-8.535 5.657-13.657s-2.035-10.035-5.657-13.657l-2.343-2.343 2.343-2.343c3.622-3.622 5.657-8.535 5.657-13.657 0-2.79-.623-5.509-1.758-8h1.758c4.411 0 8 3.589 8 8 0 13.233 10.766 24 24 24 4.418 0 8-3.582 8-8s-3.581-8-8-8z" fill="#4b8c41"/><g><path d="m215.708 151.2c-4.418 0-8-3.582-8-8v-16c0-4.418 3.582-8 8-8 8.837 0 16 7.163 16 16 0 8.837-7.163 16-16 16z" fill="#f0915a"/></g><g><path d="m255.708 279.2h-96v32h128c0-17.673-14.327-32-32-32z" fill="#faa51e"/></g><g><path d="m119.708 247.2c0-8.837-7.163-16-16-16v48h56v-32z" fill="#dc7846"/></g><g><path d="m87.708 231.2h16c4.418 0 8 3.582 8 8v32c0 4.418-3.582 8-8 8h-16c-4.418 0-8-3.582-8-8v-32c0-4.418 3.582-8 8-8z" fill="#fab991"/></g><g><path d="m311.708 55.2h40v37.333h-40z" fill="#f0915a"/></g><g><path d="m335.708 92.533c0-8.836-7.163-16-16-16v-4c0-6.627-5.373-12-12-12-2.209 0-4 1.791-4 4v20c0 4.419 3.582 8 8 8h8v58.667c0 8.837-7.163 16-16 16h-32c-8.837 0-16 7.163-16 16 0 8.837 7.163 16 16 16h32c26.51 0 48-21.49 48-48v-58.667z" fill="#fab991"/></g><g><path d="m311.708 39.2h32c4.418 0 8 3.582 8 8v8h-40c-4.418 0-8-3.582-8-8 0-4.418 3.582-8 8-8z" fill="#fab991"/></g><g><path d="m226.375 89.867c-4.418 0-8-3.582-8-8 0-4.411-3.589-8-8-8-4.418 0-8-3.582-8-8s3.582-8 8-8c13.234 0 24 10.767 24 24 0 4.418-3.582 8-8 8z" fill="#2d6e23"/></g><g><path d="m167.708 119.2c-4.418 0-8-3.582-8-8 0-13.233 10.766-24 24-24 4.418 0 8 3.582 8 8s-3.582 8-8 8c-4.411 0-8 3.589-8 8 0 4.418-3.581 8-8 8z" fill="#82aa41"/></g><g><path d="m178.375 71.2c-13.234 0-24-10.767-24-24 0-4.418 3.582-8 8-8s8 3.582 8 8c0 4.411 3.589 8 8 8 4.418 0 8 3.582 8 8s-3.582 8-8 8z" fill="#82aa41"/></g><g><path d="m127.708 103.2c-4.418 0-8-3.582-8-8s3.582-8 8-8c4.411 0 8-3.589 8-8 0-4.418 3.582-8 8-8s8 3.582 8 8c0 13.233-10.766 24-24 24z" fill="#2d6e23"/></g><g><path d="m253.042 129.867c-13.234 0-24-10.767-24-24 0-4.418 3.582-8 8-8s8 3.582 8 8c0 4.411 3.589 8 8 8 4.418 0 8 3.582 8 8s-3.582 8-8 8z" fill="#82aa41"/></g><g><g><path d="m159.708 159.2h32v8h-32z" fill="#f0697d"/></g><g><path d="m159.708 175.2v-16h8v8c0 4.418-3.582 8-8 8z" fill="#d7e6f0"/></g><g><path d="m191.708 175.2v-16h-8v8c0 4.418 3.582 8 8 8z" fill="#d7e6f0"/></g></g></g></svg>