<svg id="Layer_1" enable-background="new 0 0 512 512" height="512" viewBox="0 0 512 512" width="512" xmlns="http://www.w3.org/2000/svg"><g><g><path d="m305.594 304.869v12.224c0 23.527-5.478 46.732-16 67.775v.001 32c0 17.673 14.327 32 32 32h16c17.673 0 32-14.327 32-32h32c0 44.183-35.817 80-80 80h-64c-44.183 0-80-35.817-80-80v-64c0 4.418 3.582 8 8 8 4.418 0 8-3.582 8-8 0-35.346 28.654-64 64-64h32c8.836 0 16 7.163 16 16z" fill="#329682"/></g><g><path d="m188.26 224.869h-26.667c-8.837 0-16-7.163-16-16v-120h42.667z" fill="#d24614"/></g><g><path d="m289.594 160.869h-80c-17.673 0-32 14.327-32 32v160c0 4.418 3.582 8 8 8s8-3.582 8-8c0-35.346 28.654-64 64-64h32c0-8.836-7.164-16-16-16 10.245-10.245 16-24.139 16-38.627z" fill="#f0915a"/></g><g><path d="m41.594 232.869v-48c13.255 0 24 10.745 24 24 0 13.254-10.746 24-24 24z" fill="#faa51e"/></g><g><path d="m177.594 192.869v48c0 8.836-7.164 16-16 16h-52.687l-5.657-5.657c-3.124-3.125-8.189-3.125-11.313 0-3.125 3.124-3.125 8.189 0 11.313l8 8c1.5 1.5 3.535 2.343 5.657 2.343h24v16h32c26.51 0 48-21.49 48-48v-48h-32z" fill="#f0915a"/></g><g><path d="m193.594 176.869h40c8.837 0 16-7.163 16-16v-72c0-13.255-10.745-24-24-24h-40c-13.255 0-24 10.745-24 24v56c0 17.673 14.327 32 32 32z" fill="#f0915a"/></g><g><path d="m209.594 176.869h-16c-17.673 0-32-14.327-32-32v-56c0-13.255 10.745-24 24-24h16c13.255 0 24 10.745 24 24v72c0 8.836-7.164 16-16 16z" fill="#fab991"/></g><g><path d="m233.594 144.869h-8v-24c0-8.837 7.163-16 16-16h8v24c0 8.836-7.164 16-16 16z" fill="#f0915a"/></g><g><path d="m241.594 192.869c-9.561 0-18.136 4.198-24 10.845-5.864-6.647-14.439-10.845-24-10.845-17.673 0-32 14.327-32 32s14.327 32 32 32c9.561 0 18.136-4.198 24-10.845 5.864 6.647 14.439 10.845 24 10.845 17.673 0 32-14.327 32-32s-14.327-32-32-32z" fill="#329682"/></g><g><path d="m337.594 80.869v64c0 8.837-7.163 16-16 16h-32c-8.837 0-16 7.163-16 16 0 8.837 7.163 16 16 16h32c26.51 0 48-21.49 48-48v-64z" fill="#fab991"/></g><g><path d="m321.594 32.869v16h-12c-2.209 0-4 1.791-4 4 0 6.627 5.373 12 12 12h4c0 8.836 7.164 16 16 16h32v-48z" fill="#f0915a"/></g><g><path d="m353.594 16.869h-32c-4.418 0-8 3.582-8 8s3.582 8 8 8h32v32c0 8.837 7.164 16 16 16v-48c0-8.837-7.164-16-16-16z" fill="#fab991"/></g><g><path d="m225.594 48.869h-48c-17.673 0-32 14.327-32 32v8c0 4.418 3.582 8 8 8h56c0 8.836 7.164 16 16 16v96c0 8.836 7.164 16 16 16h2.667c8.836 0 16-7.164 16-16v-34.667c0-7.364 5.969-13.333 13.333-13.333v-64c0-26.51-21.491-48-48-48z" fill="#f06423"/></g><g><path d="m233.594 144.869c-4.418 0-8-3.582-8-8v-24c0-4.418 3.582-8 8-8 8.837 0 16 7.163 16 16v8c0 8.836-7.164 16-16 16z" fill="#f0915a"/></g><g><path d="m185.594 376.869c13.255 0 24-10.745 24-24 0-26.51 21.49-48 48-48h48c0-8.837-7.163-16-16-16h-32c-35.346 0-64 28.654-64 64 0 4.418-3.582 8-8 8-4.418 0-8-3.582-8-8v-32c-8.837 0-16 7.163-16 16v16c0 13.254 10.745 24 24 24z" fill="#7dc8aa"/></g><path d="m457.594 352.869h-24c-26.51 0-48 21.49-48 48 0-26.51-21.49-48-48-48h-24c-4.418 0-8 3.582-8 8v8c0 26.51 21.49 48 48 48h64c26.51 0 48-21.49 48-48v-8c0-4.419-3.582-8-8-8z" fill="#7dc8aa"/><g><path d="m124.907 196.182c-7.244-7.244-17.069-11.314-27.314-11.314-10.245 0-20.07 4.07-27.314 11.314l-12.686 12.686 12.686 12.686c7.244 7.244 17.069 11.314 27.314 11.314 10.245 0 20.07-4.07 27.314-11.314 3.001-3.001 4.686-7.07 4.686-11.314v-2.745c.001-4.242-1.685-8.312-4.686-11.313z" fill="#d76e28"/></g><g><path d="m124.907 196.182c-5.328-5.328-12.054-8.93-19.314-10.468v46.309c7.26-1.538 13.986-5.14 19.314-10.468 3-3.001 4.686-7.07 4.686-11.314v-2.745c.001-4.244-1.685-8.313-4.686-11.314z" fill="#faa51e"/></g><g><path d="m89.594 216.869h8c4.418 0 8-3.582 8-8 0-4.418-3.582-8-8-8h-8z" fill="#faa51e"/></g><g><circle cx="353.594" cy="256.869" fill="#6ea5d7" r="32"/></g><g><circle cx="137.594" cy="448.869" fill="#6ea5d7" r="24"/></g><g><path d="m129.594 456.869c-4.418 0-8-3.582-8-8 0-8.822 7.178-16 16-16 4.418 0 8 3.582 8 8s-3.582 8-8 8c0 4.418-3.582 8-8 8z" fill="#d7e6f0"/></g><g><circle cx="425.594" cy="128.869" fill="#6ea5d7" r="24"/></g><g><path d="m417.594 136.869c-4.418 0-8-3.582-8-8 0-8.822 7.178-16 16-16 4.418 0 8 3.582 8 8s-3.582 8-8 8c0 4.418-3.582 8-8 8z" fill="#d7e6f0"/></g><g><path d="m337.594 264.869c-4.418 0-8-3.582-8-8 0-13.234 10.767-24 24-24 4.418 0 8 3.582 8 8s-3.582 8-8 8c-4.411 0-8 3.589-8 8 0 4.418-3.582 8-8 8z" fill="#d7e6f0"/></g><g><path d="m121.594 264.869h-16c-4.418 0-8 3.582-8 8h-12.687l-13.657-13.657c-3.124-3.125-8.189-3.125-11.313 0-3.125 3.124-3.125 8.189 0 11.313l16 16c1.5 1.5 3.535 2.343 5.657 2.343h48v-16c0-4.418-3.582-7.999-8-7.999z" fill="#fab991"/></g></g></svg>