<svg id="Layer_1" enable-background="new 0 0 512 512" height="512" viewBox="0 0 512 512" width="512" xmlns="http://www.w3.org/2000/svg"><g><g><path d="m211.708 484c-22.091 0-40-17.909-40-40v-64c0-10.609 4.214-20.783 11.716-28.284l64-64c15.621-15.621 40.947-15.621 56.568 0s15.621 40.947 0 56.568l-52.284 52.284v47.432c0 22.091-17.909 40-40 40z" fill="#aac3d7"/></g><g><path d="m371.708 484c-10.237 0-20.474-3.905-28.284-11.716l-64-64c-7.501-7.501-11.716-17.675-11.716-28.284v-80c0-22.091 17.909-40 40-40s40 17.909 40 40v63.432l52.284 52.284c15.621 15.621 15.621 40.947 0 56.568-7.81 7.811-18.047 11.716-28.284 11.716z" fill="#d7e6f0"/></g><g><path d="m163.708 492h72c8.837 0 16-7.163 16-16v-32h-72c-17.673 0-32 14.327-32 32 0 8.837 7.164 16 16 16z" fill="#647dbe"/></g><g><path d="m411.708 444v32c0 8.837-7.163 16-16 16h-88c-8.837 0-16-7.163-16-16 0-17.673 14.327-32 32-32z" fill="#6ea5d7"/></g><g><g><path d="m155.708 28h-48v32c0 8.837 7.163 16 16 16h32z" fill="#647dbe"/></g><g><path d="m107.708 12h32c8.837 0 16 7.163 16 16h-48c-4.418 0-8-3.582-8-8 0-4.418 3.582-8 8-8z" fill="#6ea5d7"/></g><g><path d="m147.708 44h-20c-2.209 0-4 1.791-4 4 0 6.627 5.373 12 12 12h4c0 8.837 7.164 16 16 16v-24c0-4.418-3.582-8-8-8z" fill="#6ea5d7"/></g><g><path d="m363.708 172c0-17.673-14.327-32-32-32h-48v32h-112v-88c0-4.418-3.582-8-8-8h-48c-4.418 0-8 3.582-8 8v120c0 17.673 14.327 32 32 32h80v96h128v-48l2.564-3.846c8.761-13.142 13.436-28.582 13.436-44.376z" fill="#aac3d7"/></g><g><path d="m347.708 28v16h-12c-2.209 0-4 1.791-4 4 0 6.627 5.373 12 12 12h4c0 8.836 7.163 16 16 16h32v-48z" fill="#647dbe"/></g><g><path d="m379.708 12h-32c-4.418 0-8 3.582-8 8s3.582 8 8 8h32v32c0 8.837 7.164 16 16 16v-48c0-8.837-7.163-16-16-16z" fill="#6ea5d7"/></g><g><path d="m403.708 76h-48c-4.418 0-8 3.582-8 8v88c-17.673 0-32 14.327-32 32s14.327 32 32 32h32c17.673 0 32-14.327 32-32v-120c0-4.418-3.582-8-8-8z" fill="#d7e6f0"/></g><g><path d="m203.708 212v40c0 8.837 7.163 16 16 16h8c8.837 0 16-7.163 16-16v-40c0-4.418-3.582-8-8-8h-24c-4.418 0-8 3.582-8 8z" fill="#d7e6f0"/></g><g><path d="m259.708 212v40c0 8.837 7.163 16 16 16h8c8.837 0 16-7.163 16-16v-40c0-4.418-3.582-8-8-8h-24c-4.418 0-8 3.582-8 8z" fill="#d7e6f0"/></g><g><path d="m211.708 188h72c8.837 0 16-7.163 16-16v-64c0-17.673-14.327-32-32-32h-40c-17.673 0-32 14.327-32 32v64c0 8.837 7.164 16 16 16z" fill="#aac3d7"/></g><g><path d="m251.708 188h-40c-8.837 0-16-7.163-16-16v-64c0-17.673 14.327-32 32-32h40c17.673 0 32 14.327 32 32h-24c-4.418 0-8 3.582-8 8v56c0 8.837-7.163 16-16 16z" fill="#d7e6f0"/></g><g><path d="m203.708 118.667v10.667c0 5.891 4.776 10.667 10.667 10.667v21.333c0 5.891 4.776 10.667 10.667 10.667h13.333c5.891 0 10.667-4.776 10.667-10.667v-21.334c5.891 0 10.667-4.776 10.667-10.667v-10.667c0-5.891-4.776-10.667-10.667-10.667h-34.667c-5.891.001-10.667 4.777-10.667 10.668z" fill="#6ea5d7"/></g><g><path d="m235.708 161.333h-8c-2.946 0-5.333-2.388-5.333-5.333 0-2.946 2.388-5.333 5.333-5.333h8c2.946 0 5.333 2.388 5.333 5.333 0 2.946-2.387 5.333-5.333 5.333z" fill="#464646"/></g><g><path d="m295.708 150.667h-4c-4.418 0-8-3.582-8-8v-8c0-4.418 3.582-8 8-8h4c6.627 0 12 5.373 12 12 0 6.627-5.372 12-12 12z" fill="#647dbe"/></g></g></g></svg>