<svg id="Layer_1" enable-background="new 0 0 512 512" height="512" viewBox="0 0 512 512" width="512" xmlns="http://www.w3.org/2000/svg"><g><g><path d="m171.179 160v-72c0-4.418-3.582-8-8-8h-48c-4.418 0-8 3.582-8 8v104c0 17.673 14.327 32 32 32h112v-64z" fill="#96461e"/></g><g><path d="m155.179 32h-48v32c0 8.837 7.163 16 16 16h32z" fill="#dc7846"/></g><g><path d="m107.179 16h32c8.837 0 16 7.163 16 16h-48c-4.418 0-8-3.582-8-8 0-4.418 3.582-8 8-8z" fill="#fab991"/></g><g><path d="m147.179 48h-20c-2.209 0-4 1.791-4 4 0 6.627 5.373 12 12 12h4c0 8.837 7.164 16 16 16v-24c0-4.418-3.581-8-8-8z" fill="#fab991"/></g><g><path d="m203.179 480c-17.673 0-32-14.327-32-32v-64c0-8.487 3.371-16.626 9.373-22.627l64-64c12.496-12.497 32.758-12.497 45.254 0 12.497 12.497 12.497 32.758 0 45.255l-54.627 54.627v50.745c0 17.673-14.327 32-32 32z" fill="#aa5a28"/></g><g><path d="m155.179 496h64c8.837 0 16-7.163 16-16v-32h-64c-17.673 0-32 14.327-32 32 0 8.837 7.164 16 16 16z" fill="#f0915a"/></g><g><path d="m379.179 480c-8.189 0-16.379-3.124-22.627-9.373l-64-64c-6.002-6.001-9.373-14.141-9.373-22.627v-80c0-17.673 14.327-32 32-32s32 14.327 32 32v66.745l54.627 54.627c12.497 12.497 12.497 32.758 0 45.255-6.248 6.249-14.437 9.373-22.627 9.373z" fill="#d76e28"/></g><g><path d="m411.179 448v32c0 8.837-7.163 16-16 16h-80c-8.837 0-16-7.163-16-16 0-17.673 14.327-32 32-32z" fill="#fab991"/></g><g><path d="m251.179 160c-17.673 0-32 14.327-32 32v144h128v-64l2.564-3.846c8.761-13.141 13.436-28.582 13.436-44.376v-63.778z" fill="#aa5a28"/></g><g><path d="m347.179 32v16h-12c-2.209 0-4 1.791-4 4 0 6.627 5.373 12 12 12h4c0 8.836 7.163 16 16 16h32v-48z" fill="#f0915a"/></g><g><path d="m379.179 16h-32c-4.418 0-8 3.582-8 8s3.582 8 8 8h32v32c0 8.837 7.164 16 16 16v-48c0-8.837-7.163-16-16-16z" fill="#fab991"/></g><g><path d="m403.179 80h-48c-4.418 0-8 3.582-8 8v72c-17.673 0-32 14.327-32 32s14.327 32 32 32h32c17.673 0 32-14.327 32-32v-104c0-4.418-3.581-8-8-8z" fill="#d76e28"/></g><g><path d="m203.179 200v40c0 8.837 7.163 16 16 16h8c8.837 0 16-7.163 16-16v-40c0-4.418-3.582-8-8-8h-24c-4.418 0-8 3.582-8 8z" fill="#d76e28"/></g><g><path d="m259.179 200v40c0 8.837 7.163 16 16 16h8c8.837 0 16-7.163 16-16v-40c0-4.418-3.582-8-8-8h-24c-4.418 0-8 3.582-8 8z" fill="#d76e28"/></g><g><path d="m211.179 176h72c8.837 0 16-7.163 16-16v-64c0-17.673-14.327-32-32-32h-40c-17.673 0-32 14.327-32 32v64c0 8.837 7.164 16 16 16z" fill="#aa5a28"/></g><g><path d="m251.179 176h-40c-8.837 0-16-7.163-16-16v-64c0-17.673 14.327-32 32-32h8c17.673 0 32 14.327 32 32v64c0 8.837-7.163 16-16 16z" fill="#d76e28"/></g><g><path d="m203.179 106.667v10.667c0 5.891 4.776 10.667 10.667 10.667v21.333c0 5.891 4.776 10.667 10.667 10.667h13.333c5.891 0 10.667-4.776 10.667-10.667v-21.334c5.891 0 10.667-4.776 10.667-10.667v-10.667c0-5.891-4.776-10.667-10.667-10.667h-34.667c-5.891.001-10.667 4.777-10.667 10.668z" fill="#fab991"/></g><g><path d="m235.179 149.333h-8c-2.946 0-5.333-2.388-5.333-5.333 0-2.946 2.388-5.333 5.333-5.333h8c2.946 0 5.333 2.388 5.333 5.333.001 2.946-2.387 5.333-5.333 5.333z" fill="#f04b37"/></g><g><path d="m295.18 138.667h-4c-4.418 0-8-3.582-8-8v-8c0-4.418 3.582-8 8-8h4c6.627 0 12 5.373 12 12-.001 6.627-5.373 12-12 12z" fill="#fab991"/></g></g></svg>