<svg id="Layer_1" enable-background="new 0 0 512 512" height="512" viewBox="0 0 512 512" width="512" xmlns="http://www.w3.org/2000/svg"><g><g><path d="m289.448 299.506c-12.496-12.497-32.758-12.497-45.254 0l-64 64c-6.002 6.001-9.373 14.141-9.373 22.627v64c-17.673 0-32 14.327-32 32 0 8.836 7.164 16 16 16h64c8.836 0 16-7.164 16-16v-82.745l54.627-54.627c12.497-12.497 12.497-32.758 0-45.255z" fill="#82aa41"/></g><g><path d="m410.821 450.133c0-8.189-3.124-16.379-9.373-22.627l-54.627-54.627v-66.745c0-17.673-14.327-32-32-32s-32 14.327-32 32v80c0 8.487 3.371 16.626 9.373 22.627l41.373 41.373h-2.746c-17.673 0-32 14.327-32 32 0 8.836 7.164 16 16 16h80c8.836 0 16-7.164 16-16z" fill="#a5cd3c"/></g><g><path d="m194.821 234.133c-4.418 0-8 3.582-8 8v8h-16c0-8.836-7.164-16-16-16v48h32v8c0 4.418 3.582 8 8 8h24v-64z" fill="#4b8c41"/></g><g><path d="m346.821 306.133c0 8.837-7.163 16-16 16h-96c-8.837 0-16-7.163-16-16v18.745l-6.627 6.627c-12.497 12.497-12.497 32.758 0 45.255 12.497 12.497 32.758 12.497 45.255 0l32-32c2.026-2.026 3.718-4.259 5.087-6.627h52.285z" fill="#aa5a28"/></g><g><path d="m346.821 354.133v-47.334c0-17.436-13.67-32.175-31.1-32.653-18.084-.496-32.9 14.016-32.9 31.988v48c0 17.673 14.327 32 32 32 17.673-.001 32-14.328 32-32.001z" fill="#d76e28"/></g><g><path d="m330.821 322.133h-96c-8.837 0-16-7.163-16-16v-112c0-17.673 14.327-32 32-32h96v144c0 8.837-7.163 16-16 16z" fill="#82aa41"/></g><g><path d="m346.821 34.133v16h-12c-2.209 0-4 1.791-4 4 0 6.627 5.373 12 12 12h4c0 8.836 7.164 16 16 16v16h32v-64z" fill="#82aa41"/></g><g><path d="m378.821 18.133h-32c-4.418 0-8 3.582-8 8s3.582 8 8 8h32v32c0 8.837 7.164 16 16 16v-48c0-8.836-7.164-16-16-16z" fill="#a5cd3c"/></g><g><path d="m402.821 98.133h-48c-4.418 0-8 3.582-8 8v56c-17.673 0-32 14.327-32 32s14.327 32 32 32h32c17.673 0 32-14.327 32-32v-88c0-4.418-3.582-8-8-8z" fill="#a5cd3c"/></g><g><path d="m210.821 186.133h56c8.837 0 16-7.163 16-16v-72c0-13.255-10.745-24-24-24h-40c-13.255 0-24 10.745-24 24v72c0 8.837 7.163 16 16 16z" fill="#82aa41"/></g><g><path d="m242.821 186.133h-32c-8.837 0-16-7.163-16-16v-72c0-13.255 10.745-24 24-24h16c13.255 0 24 10.745 24 24v72c0 8.837-7.163 16-16 16z" fill="#a5cd3c"/></g><g><path d="m274.821 154.133h-16v-24c0-8.837 7.163-16 16-16h16v24c0 8.837-7.163 16-16 16z" fill="#a5cd3c"/></g><g><path d="m202.821 154.133h32v8h-32z" fill="#f0697d"/></g><g><path d="m202.821 170.133v-16h8v8c0 4.419-3.582 8-8 8z" fill="#d7e6f0"/></g><g><path d="m234.821 170.133v-16h-8v8c0 4.419 3.582 8 8 8z" fill="#d7e6f0"/></g><g><path d="m122.821 298.133h32v16h-32z" fill="#f04b37"/></g><g><path d="m106.821 154.133v32c0 8.836 7.164 16 16 16v96h32v-144z" fill="#f0915a"/></g><g><path d="m106.821 138.133h32c8.837 0 16 7.163 16 16h-48c-4.418 0-8-3.582-8-8 0-4.418 3.582-8 8-8z" fill="#fab991"/></g><g><path d="m146.821 170.133h-20c-2.209 0-4 1.791-4 4 0 6.627 5.373 12 12 12h4c0 8.837 7.164 16 16 16v-24c0-4.418-3.582-8-8-8z" fill="#fab991"/></g><g><path d="m120.154 234.133c13.255 0 24 10.745 24 24 0 13.255-10.745 24-24 24-4.418 0-8-3.582-8-8v-32c0-4.418 3.582-8 8-8z" fill="#a5cd3c"/></g><g><circle cx="146.821" cy="338.133" fill="#f04b37" r="8"/></g><g><circle cx="130.821" cy="410.133" fill="#f04b37" r="8"/></g></g></svg>