<svg id="Layer_1" enable-background="new 0 0 512 512" height="512" viewBox="0 0 512 512" width="512" xmlns="http://www.w3.org/2000/svg"><g><g><path d="m179.708 263.192h8v37.333h-8z" fill="#aac3d7"/></g><g><path d="m255.708 36.525c-4.418 4.418-4.418 11.582 0 16l72 72 16-16-72-72c-4.418-4.418-11.582-4.418-16 0z" fill="#aa5a28"/></g><g><path d="m223.708 116.525c4.418 4.418 11.582 4.418 16 0l48-48c4.418-4.418 4.418-11.582 0-16-4.418-4.418-11.582-4.418-16 0l-48 48c-4.418 4.419-4.418 11.582 0 16z" fill="#d76e28"/></g><g><path d="m255.708 148.525c4.418 4.418 11.582 4.418 16 0l48-48c4.418-4.418 4.418-11.582 0-16-4.418-4.418-11.582-4.418-16 0l-48 48c-4.418 4.419-4.418 11.582 0 16z" fill="#d76e28"/></g><g><path d="m423.708 92.525-16 16 56 56c4.418 4.418 11.582 4.418 16 0 4.418-4.418 4.418-11.582 0-16z" fill="#96461e"/></g><g><path d="m207.708 84.525c-4.418 4.418-4.418 11.582 0 16l160 160c4.418 4.418 11.582 4.418 16 0 4.418-4.418 4.418-11.582 0-16l-160-160c-4.418-4.418-11.582-4.418-16 0z" fill="#d76e28"/></g><g><path d="m391.708 188.525c4.418 4.418 11.582 4.418 16 0l48-48c4.418-4.418 4.418-11.582 0-16-4.418-4.418-11.582-4.418-16 0l-48 48c-4.418 4.419-4.418 11.582 0 16z" fill="#aa5a28"/></g><g><path d="m327.708 188.525 96-96c4.418-4.418 4.418-11.582 0-16-4.418-4.418-11.582-4.418-16 0l-96 96z" fill="#96461e"/></g><g><path d="m311.708 172.525 96-96c4.418-4.418 4.418-11.582 0-16-4.418-4.418-11.582-4.418-16 0l-96 96z" fill="#d76e28"/></g><g><path d="m327.708 188.525 45.333-45.333c4.418-4.418 4.418-11.582 0-16-4.418-4.418-11.582-4.418-16 0l-45.333 45.333z" fill="#aa5a28"/></g><g><path d="m311.708 172.525 45.333-45.333c4.418-4.418 4.418-11.582 0-16-4.418-4.418-11.582-4.418-16 0l-45.333 45.333z" fill="#faa51e"/></g><g><path d="m375.708 140.525-16 16 56 56c4.418 4.418 11.582 4.418 16 0 4.418-4.418 4.418-11.582 0-16z" fill="#d76e28"/></g><g><path d="m199.708 156.525 48 48-48 80-80-80z" fill="#fab991"/></g><g><path d="m53.483 277.212h124.451v22.627h-124.451z" fill="#d76e28" transform="matrix(.707 -.707 .707 .707 -170.128 166.325)"/></g><g><path d="m150.051 237.212h11.314v22.627h-11.314z" fill="#aa5a28" transform="matrix(.707 -.707 .707 .707 -130.128 182.894)"/></g><g><path d="m247.708 204.525-24-24-64 64 40 40z" fill="#f0915a"/></g><g><path d="m47.708 308.525 48 48c4.418 4.418 4.418 11.582 0 16-4.418 4.418-11.582 4.418-16 0l-48-48c-4.418-4.418-4.418-11.582 0-16 4.418-4.418 11.582-4.418 16 0z" fill="#aa5a28"/></g><g><path d="m183.708 292.525c-4.418 0-8 3.582-8 8v8c0 4.418 3.582 8 8 8 4.418 0 8-3.582 8-8v-8c0-4.418-3.582-8-8-8z" fill="#d76e28"/></g><g><path d="m314.051 266.182-84.686 84.686c-3.124 3.124-3.124 8.19 0 11.314l108.686 108.686c3.124 3.124 8.19 3.124 11.314 0l84.686-84.686c3.124-3.124 3.124-8.19 0-11.314l-108.686-108.686c-3.124-3.124-8.189-3.124-11.314 0z" fill="#faa51e"/></g><g><path d="m286.453 306.3h90.51v124.451h-90.51z" fill="#464646" transform="matrix(.707 -.707 .707 .707 -163.432 342.492)"/></g><g><path d="m325.365 266.182c-3.124-3.124-8.19-3.124-11.314 0l-84.686 84.687c-1.562 1.562-2.343 3.609-2.343 5.657h28.686l64-64 88 88h28.686c0-2.047-.781-4.095-2.343-5.657z" fill="#d76e28"/></g><g><path d="m371.022 359.839c-6.248-6.248-16.379-6.248-22.627 0l-4.686 4.686-4.825-4.825c2.01-7.545.077-15.923-5.842-21.842l-10.02-10.02c-6.248-6.248-16.379-6.248-22.627 0l-9.373 9.373c-6.248 6.248-6.248 16.379 0 22.627l10.02 10.02c5.919 5.919 14.297 7.852 21.842 5.842l4.825 4.825-4.686 4.686c-6.248 6.248-6.248 16.379 0 22.627l28.686 28.686 48-48z" fill="#aac3d7"/></g><g><circle cx="301.041" cy="353.859" fill="#f04b37" r="5.333"/></g><g><circle cx="317.041" cy="337.859" fill="#f04b37" r="5.333"/></g><g><path d="m327.708 348.525-16 16c2.946 2.946 7.721 2.946 10.667 0l5.333-5.333c2.946-2.945 2.946-7.721 0-10.667z" fill="#d7e6f0"/></g><g><path d="m463.708 184.525c-1.024 0-2.047-.391-2.829-1.171l-16-16c-1.562-1.563-1.562-4.095 0-5.657 1.563-1.562 4.095-1.562 5.657 0l16 16c1.562 1.563 1.562 4.095 0 5.657-.78.781-1.804 1.171-2.828 1.171z" fill="#aac3d7"/></g><g><path d="m375.708 279.14c-6.819 0-13.637-2.595-18.829-7.786l-16-16c-1.562-1.563-1.562-4.095 0-5.657 1.563-1.562 4.095-1.562 5.657 0l16 16c7.263 7.264 19.08 7.264 26.343 0 1.563-1.562 4.095-1.562 5.657 0 1.562 1.563 1.562 4.095 0 5.657-5.191 5.191-12.009 7.786-18.828 7.786z" fill="#aac3d7"/></g><g><path d="m279.708 192.525c-1.024 0-2.047-.391-2.829-1.171l-32-32c-1.562-1.563-1.562-4.095 0-5.657 1.563-1.562 4.095-1.562 5.657 0l32 32c1.562 1.563 1.562 4.095 0 5.657-.78.781-1.804 1.171-2.828 1.171z" fill="#aac3d7"/></g><g><path d="m407.708 224.525c-1.024 0-2.047-.391-2.829-1.171l-16-16c-1.562-1.563-1.562-4.095 0-5.657 1.563-1.562 4.095-1.562 5.657 0l16 16c1.562 1.563 1.562 4.095 0 5.657-.78.781-1.804 1.171-2.828 1.171z" fill="#aac3d7"/></g><g><path d="m319.708 480.525c-1.024 0-2.047-.391-2.829-1.171l-32-32c-1.562-1.563-1.562-4.095 0-5.657 1.563-1.562 4.095-1.562 5.657 0l32 32c1.562 1.563 1.562 4.095 0 5.657-.78.781-1.804 1.171-2.828 1.171z" fill="#aac3d7"/></g><g><path d="m103.708 336.525c-1.024 0-2.047-.391-2.829-1.171-1.562-1.563-1.562-4.095 0-5.657l32-32c1.563-1.562 4.095-1.562 5.657 0 1.562 1.563 1.562 4.095 0 5.657l-32 32c-.78.781-1.804 1.171-2.828 1.171z" fill="#aac3d7"/></g><g><path d="m87.708 391.14c-6.819 0-13.637-2.595-18.829-7.786-1.562-1.563-1.562-4.095 0-5.657 1.563-1.562 4.095-1.562 5.657 0 7.263 7.264 19.08 7.264 26.343 0 1.563-1.562 4.095-1.562 5.657 0 1.562 1.563 1.562 4.095 0 5.657-5.191 5.191-12.009 7.786-18.828 7.786z" fill="#aac3d7"/></g><g><path d="m423.708 416.525c-1.024 0-2.047-.391-2.829-1.171-1.562-1.563-1.562-4.095 0-5.657l16-16c1.563-1.562 4.095-1.562 5.657 0 1.562 1.563 1.562 4.095 0 5.657l-16 16c-.78.781-1.804 1.171-2.828 1.171z" fill="#aac3d7"/></g><g><path d="m127.708 232.525c-1.024 0-2.047-.391-2.829-1.171l-16-16c-1.562-1.563-1.562-4.095 0-5.657 1.563-1.562 4.095-1.562 5.657 0l16 16c1.562 1.563 1.562 4.095 0 5.657-.78.781-1.804 1.171-2.828 1.171z" fill="#aac3d7"/></g></g></svg>