<svg id="Layer_1" enable-background="new 0 0 512 512" height="512" viewBox="0 0 512 512" width="512" xmlns="http://www.w3.org/2000/svg"><g><g><path d="m428.241 448c0-8.189-3.124-16.379-9.373-22.627l-54.627-54.627v-50.746h-112c-8.837 0-16-7.163-16-16v18.746l-38.627 38.627c-6.002 6.001-9.373 14.141-9.373 22.627v64c-17.673 0-32 14.327-32 32 0 8.837 7.163 16 16 16h240c8.837 0 16-7.163 16-16z" fill="#8caac8"/></g><g><path d="m188.241 160v-56c0-4.418-3.582-8-8-8h-48c-4.418 0-8 3.582-8 8v88c0 17.673 14.327 32 32 32h112v-64z" fill="#8caac8"/></g><g><path d="m124.241 16h32c8.837 0 16 7.163 16 16h-48c-4.418 0-8-3.582-8-8 0-4.418 3.582-8 8-8z" fill="#fab991"/></g><g><path d="m124.241 32v32c0 8.837 7.163 16 16 16v16h32v-64z" fill="#f0915a"/></g><g><path d="m164.241 48h-20c-2.209 0-4 1.791-4 4 0 6.627 5.373 12 12 12h4c0 8.837 7.164 16 16 16v-24c0-4.418-3.582-8-8-8z" fill="#fab991"/></g><g><path d="m260.241 224h-61.333c-8.837 0-16-7.163-16-16v-112h77.333z" fill="#464646"/></g><g><path d="m364.241 320h-112c-8.837 0-16-7.163-16-16v-112c0-17.673 14.327-32 32-32h96z" fill="#aac3d7"/></g><g><path d="m436.241 96h-64c-4.418 0-8 3.582-8 8v56c-17.673 0-32 14.327-32 32s14.327 32 32 32h48c17.673 0 32-14.327 32-32v-88c0-4.418-3.582-8-8-8z" fill="#d7e6f0"/></g><g><path d="m428.241 448c0-8.189-3.124-16.379-9.373-22.627l-54.627-54.627v-66.746c0-17.673-14.327-32-32-32s-32 14.327-32 32v80c0 8.487 3.371 16.626 9.373 22.627l41.373 41.373h-2.746c-17.673 0-32 14.327-32 32 0 8.837 7.163 16 16 16h80c8.837 0 16-7.163 16-16z" fill="#aac3d7"/></g><g><path d="m364.241 32v16h-12c-2.209 0-4 1.791-4 4 0 6.627 5.373 12 12 12h4c0 8.837 7.163 16 16 16v16h32v-64z" fill="#f0915a"/></g><g><path d="m396.241 16h-32c-4.418 0-8 3.582-8 8s3.582 8 8 8h32v32c0 8.837 7.164 16 16 16v-48c0-8.837-7.163-16-16-16z" fill="#fab991"/></g><g><path d="m260.241 176h-32c-17.673 0-32-14.327-32-32v-56c0-13.255 10.745-24 24-24h16c13.255 0 24 10.745 24 24z" fill="#fab991"/></g><g><path d="m196.241 112h64v24h-64z" fill="#f0915a"/></g><path d="m324.241 120c-8.822 0-16-7.177-16-16v-8c0-20.332-12.648-37.699-30.5-44.695 4.076-5.37 6.5-12.059 6.5-19.305 0-4.418-3.582-8-8-8s-8 3.582-8 8c0 8.823-7.178 16-16 16h-37.333c-17.673 0-32 14.327-32 32v24c0 4.418 3.582 8 8 8h69.333v96c0 8.837 7.163 16 16 16h16c8.837 0 16-7.163 16-16v-76.305c4.711 2.732 10.173 4.305 16 4.305 4.418 0 8-3.582 8-8s-3.581-8-8-8z" fill="#464646"/><g><path d="m236.241 144h-48c-17.673 0-32 14.327-32 32 0 17.673-14.327 32-32 32h-8c-30.928 0-56 25.072-56 56v16c0 30.928 25.072 56 56 56 30.928 0 56-25.072 56-56v-104c0-8.837 7.163-16 16-16h48c4.418 0 8-3.582 8-8 0-4.418-3.581-8-8-8z" fill="#f04b37"/></g><g><g><path d="m153.575 264c0-20.619-16.715-37.333-37.333-37.333s-37.334 16.714-37.334 37.333c0 11.478 5.184 21.741 13.333 28.589v11.411c0 2.946 2.388 5.333 5.333 5.333h37.333c2.945 0 5.333-2.388 5.333-5.333v-11.411c8.151-6.848 13.335-17.111 13.335-28.589z" fill="#d7e6f0"/></g><g><circle cx="129.575" cy="266.667" fill="#f04b37" r="10.667"/></g><g><circle cx="102.908" cy="266.667" fill="#f04b37" r="10.667"/></g></g></g></svg>