<svg id="Layer_1" enable-background="new 0 0 512 512" height="512" viewBox="0 0 512 512" width="512" xmlns="http://www.w3.org/2000/svg"><g><g><path d="m159.708 161.6v-56c0-4.418-3.582-8-8-8h-48c-4.418 0-8 3.582-8 8v88c0 17.673 14.327 32 32 32h112v-64z" fill="#be281e"/></g><g><path d="m335.708 321.6h-112c-8.837 0-16-7.163-16-16v18.746l-38.627 38.627c-6.002 6.001-9.373 14.141-9.373 22.627v63.334c0 17.436 13.67 32.175 31.1 32.653 18.084.496 32.9-14.016 32.9-31.988v-50.745l54.627-54.627c2.026-2.026 3.719-4.259 5.088-6.627h52.285z" fill="#5064a0"/></g><g><path d="m367.708 481.6c-8.189 0-16.379-3.124-22.627-9.373l-64-64c-6.002-6.001-9.373-14.141-9.373-22.627v-80c0-17.673 14.327-32 32-32s32 14.327 32 32v66.745l54.627 54.627c12.497 12.497 12.497 32.758 0 45.255-6.248 6.249-14.437 9.373-22.627 9.373z" fill="#647dbe"/></g><g><path d="m319.708 321.6h-96c-8.837 0-16-7.163-16-16v-112c0-17.673 14.327-32 32-32h96v144c0 8.837-7.163 16-16 16z" fill="#647dbe"/></g><g><path d="m319.708 257.6c-8.837 0-16-7.163-16-16v-48c0-17.673 14.327-32 32-32v80c0 8.837-7.163 16-16 16z" fill="#d73228"/></g><path d="m239.708 444.267c-6.525 0-12.597 1.967-17.662 5.333h-62.338c-17.673 0-32 14.327-32 32 0 8.836 7.163 16 16 16h64c5.774 0 10.818-3.068 13.631-7.653 1.462-1.45 2.369-3.458 2.369-5.68v-8c0-8.822 7.178-16 16-16 4.418 0 8-3.582 8-8s-3.581-8-8-8z" fill="#d76e28"/><path d="m415.708 473.6c-8.822 0-16-7.178-16-16v-8h-80c-17.673 0-32 14.327-32 32 0 8.836 7.163 16 16 16h80c7.643 0 14.024-5.363 15.611-12.529 4.797 2.873 10.402 4.529 16.389 4.529 4.418 0 8-3.582 8-8s-3.581-8-8-8z" fill="#faa51e"/><g><path d="m95.708 17.6h32c8.837 0 16 7.163 16 16h-48c-4.418 0-8-3.582-8-8 0-4.418 3.582-8 8-8z" fill="#faa51e"/></g><g><path d="m143.708 81.6v-48h-48v32c0 8.836 7.163 16 16 16h-16c0 8.836 7.163 16 16 16h32c8.837 0 16-7.164 16-16z" fill="#d76e28"/></g><g><path d="m135.708 49.6h-20c-2.209 0-4 1.791-4 4 0 6.627 5.373 12 12 12h4c0 8.837 7.164 16 16 16v-24c0-4.418-3.582-8-8-8z" fill="#faa51e"/></g><g><path d="m383.708 81.6v-48h-48v16h-12c-2.209 0-4 1.791-4 4 0 6.627 5.373 12 12 12h4c0 8.836 7.163 16 16 16h-16c0 8.836 7.163 16 16 16h32c8.837 0 16-7.164 16-16z" fill="#d76e28"/></g><g><path d="m367.708 17.6h-32c-4.418 0-8 3.582-8 8s3.582 8 8 8h32v32c0 8.837 7.164 16 16 16v-48c0-8.837-7.163-16-16-16z" fill="#faa51e"/></g><g><path d="m391.708 97.6h-48c-4.418 0-8 3.582-8 8v56c-17.673 0-32 14.327-32 32s14.327 32 32 32h32c17.673 0 32-14.327 32-32v-88c0-4.418-3.582-8-8-8z" fill="#f04b37"/></g><g><path d="m231.708 153.6c-22.091 0-40 17.909-40 40v48c2.945 0 5.333-2.388 5.333-5.333 0-5.891 4.776-10.667 10.667-10.667s10.667 4.775 10.667 10.667c0 2.946 2.388 5.333 5.333 5.333s5.333-2.388 5.333-5.333c0-5.891 4.776-10.667 10.667-10.667s10.667 4.775 10.667 10.667c0 2.946 2.388 5.333 5.333 5.333s5.333-2.388 5.333-5.333c0-5.891 4.776-10.667 10.667-10.667s10.667 4.775 10.667 10.667c0 2.946 2.388 5.333 5.333 5.333v-32-16c0-17.673 14.327-32 32-32h16v-8z" fill="#aa5a28"/></g><g><path d="m199.708 177.6h72c8.837 0 16-7.163 16-16v-72c0-13.255-10.745-24-24-24h-56c-13.255 0-24 10.745-24 24v72c0 8.837 7.164 16 16 16z" fill="#d76e28"/></g><g><path d="m231.708 177.6h-32c-8.837 0-16-7.163-16-16v-72c0-13.255 10.745-24 24-24h16c13.255 0 24 10.745 24 24v72c0 8.837-7.163 16-16 16z" fill="#faa51e"/></g><g><path d="m319.708 97.6h-168c-4.418 0-8-3.582-8-8s3.582-8 8-8h168c4.418 0 8 3.582 8 8s-3.581 8-8 8z" fill="#aa5a28"/></g><g><path d="m183.708 81.6v-16c0-26.51 21.49-48 48-48h80c4.418 0 8 3.582 8 8 0 4.418-3.582 8-8 8-13.255 0-24 10.745-24 24v24z" fill="#aa5a28"/></g><g><path d="m287.708 65.6h-104c-4.418 0-8 3.582-8 8 0 4.418 3.582 8 8 8h104c4.418 0 8-3.582 8-8 0-4.418-3.582-8-8-8z" fill="#aac3d7"/></g><g><path d="m183.708 97.6h64v16h-64z" fill="#d76e28"/></g><g><path d="m175.708 217.6v8h-48v-8c0-4.418 3.582-8 8-8h32c4.418 0 8 3.582 8 8z" fill="#d76e28"/></g><g fill="#faa51e"><path d="m415.708 129.6c-5.827 0-11.289 1.573-16 4.305v-4.305h-8c-4.418 0-8 3.582-8 8v32c0 4.418 3.582 8 8 8h8v-16c0-8.822 7.178-16 16-16 4.418 0 8-3.582 8-8s-3.581-8-8-8z"/><path d="m351.708 353.6c-8.822 0-16-7.178-16-16v-16h-8c-4.418 0-8 3.582-8 8v32c0 4.418 3.582 8 8 8h8v-4.305c4.711 2.732 10.173 4.305 16 4.305 4.418 0 8-3.582 8-8s-3.581-8-8-8z"/></g></g></svg>