<svg id="Layer_1" enable-background="new 0 0 512 512" height="512" viewBox="0 0 512 512" width="512" xmlns="http://www.w3.org/2000/svg"><g><g><path d="m197.594 319.601h56v-80h-56c-4.418 0-8 3.582-8 8v64c0 4.418 3.581 8 8 8z" fill="#5064a0"/></g><g><path d="m248.26 47.601c-27.982 0-50.667 22.684-50.667 50.667v61.333c0 17.673 14.327 32 32 32h136v-96c0-26.51-21.49-48-48-48z" fill="#5064a0"/></g><g><path d="m229.594 147.601c-11.028 0-20-8.972-20-20s8.972-20 20-20 20 8.972 20 20-8.972 20-20 20zm0-32c-6.617 0-12 5.383-12 12s5.383 12 12 12 12-5.383 12-12-5.383-12-12-12z" fill="#f58723"/></g><g><path d="m445.593 447.601c0-8.19-3.124-16.379-9.373-22.627l-54.627-54.627v-34.745-16h-128v2.746l-38.627 38.627c-6.002 6.001-9.373 14.141-9.373 22.627v64c-17.673 0-32 14.327-32 32 0 8.836 7.164 16 16 16h48 16 96 48 32c8.836 0 16-7.163 16-16z" fill="#5064a0"/></g><g><path d="m381.594 319.601h-112c-8.837 0-16-7.163-16-16v-112c0-17.673 14.327-32 32-32h96z" fill="#647dbe"/></g><g><path d="m445.593 447.601c0-8.19-3.124-16.379-9.373-22.627l-54.627-54.627v-66.745c0-17.673-14.327-32-32-32s-32 14.327-32 32v80c0 8.487 3.371 16.626 9.373 22.627l41.373 41.373h-2.746c-17.673 0-32 14.327-32 32 0 8.836 7.164 16 16 16h80c8.836 0 16-7.163 16-16z" fill="#647dbe"/></g><g><path d="m381.594 31.601v16h-12c-2.209 0-4 1.791-4 4 0 6.627 5.373 12 12 12h4c0 8.837 7.164 16 16 16v16h32v-16-48z" fill="#f0915a"/></g><g><path d="m413.594 15.601h-32c-4.418 0-8 3.582-8 8s3.582 8 8 8h32v32c0 8.837 7.164 16 16 16v-48c0-8.837-7.164-16-16-16z" fill="#fab991"/></g><g><path d="m453.594 95.601h-64c-4.418 0-8 3.582-8 8v56c-17.673 0-32 14.327-32 32s14.327 32 32 32h48c17.673 0 32-14.327 32-32v-88c0-4.419-3.582-8-8-8z" fill="#6ea5d7"/></g><g><path d="m245.594 175.601h56c8.837 0 16-7.163 16-16v-72c0-13.255-10.745-24-24-24h-40c-13.255 0-24 10.745-24 24v72c0 8.836 7.163 16 16 16z" fill="#f0915a"/></g><g><path d="m229.594 127.601v32c0 8.837 7.164 16 16 16h32c8.836 0 16-7.163 16-16v-32z" fill="#fab991"/></g><g><path d="m229.594 95.601h64v32h-64z" fill="#f0915a"/></g><g><path d="m224.26 95.601h69.333v-2.667c0-25.037-20.296-45.333-45.333-45.333-17.673 0-32 14.327-32 32v8c0 4.418 3.582 8 8 8z" fill="#e65a78"/></g><g><path d="m293.594 147.601c-11.028 0-20-8.972-20-20s8.972-20 20-20 20 8.972 20 20-8.972 20-20 20zm0-32c-6.617 0-12 5.383-12 12s5.383 12 12 12 12-5.383 12-12-5.383-12-12-12z" fill="#f58723"/></g><g><path d="m248.26 47.601c25.037 0 45.333 20.296 45.333 45.333v66.667c0 17.673 14.327 32 32 32 0-17.673 14.327-32 32-32h8v-64c0-26.51-21.49-48-48-48z" fill="#6ea5d7"/></g><g><path d="m381.594 303.601h-128c-4.418 0-8 3.582-8 8 0 4.418 3.582 8 8 8h128c4.418 0 8-3.582 8-8 0-4.419-3.582-8-8-8z" fill="#f58723"/></g><g><path d="m149.594 279.601h40v-32h-32c-4.418 0-8 3.582-8 8z" fill="#f0915a"/></g><g><circle cx="141.594" cy="223.601" fill="#f0697d" r="48"/></g><g><path d="m117.594 231.601c-4.418 0-8-3.582-8-8 0-17.645 14.355-32 32-32 4.418 0 8 3.582 8 8s-3.582 8-8 8c-8.822 0-16 7.178-16 16 0 4.418-3.582 8-8 8z" fill="#d7e6f0"/></g><path d="m170.927 255.601h-13.333c-4.418 0-8 3.582-8 8h-12.687l-13.656-13.657c-3.125-3.124-8.189-3.124-11.314 0-3.124 3.124-3.124 8.19 0 11.314l16 16c1.501 1.5 3.535 2.343 5.657 2.343h45.333v-16c0-4.419-3.582-8-8-8z" fill="#fab991"/><g><g><path d="m173.594 119.601h-16v-16c0-4.418 3.582-8 8-8 4.418 0 8 3.582 8 8z" fill="#f58caa"/></g><g><path d="m165.594 159.601c-4.418 0-8-3.582-8-8v-16h16v16c0 4.418-3.582 8-8 8z" fill="#f58caa"/></g><g><path d="m157.594 119.601v16h-16c-4.418 0-8-3.582-8-8 0-4.418 3.582-8 8-8z" fill="#f58caa"/></g><g><path d="m197.594 127.601c0 4.418-3.582 8-8 8h-16v-16h16c4.418 0 8 3.581 8 8z" fill="#f58caa"/></g></g><g><g><path d="m85.594 151.601h-16v-16c0-4.418 3.582-8 8-8 4.418 0 8 3.582 8 8z" fill="#f58caa"/></g><g><path d="m77.594 191.601c-4.418 0-8-3.582-8-8v-16h16v16c0 4.418-3.582 8-8 8z" fill="#f58caa"/></g><g><path d="m69.594 151.601v16h-16c-4.418 0-8-3.582-8-8 0-4.418 3.582-8 8-8z" fill="#f58caa"/></g><g><path d="m109.594 159.601c0 4.418-3.582 8-8 8h-16v-16h16c4.418 0 8 3.581 8 8z" fill="#f58caa"/></g></g><g><g><path d="m245.594 239.601h-16v-16c0-4.418 3.582-8 8-8 4.418 0 8 3.582 8 8z" fill="#f58caa"/></g><g><path d="m237.594 279.601c-4.418 0-8-3.582-8-8v-16h16v16c0 4.418-3.582 8-8 8z" fill="#f58caa"/></g><g><path d="m229.594 239.601v16h-16c-4.418 0-8-3.582-8-8 0-4.418 3.582-8 8-8z" fill="#f58caa"/></g><g><path d="m269.594 247.601c0 4.418-3.582 8-8 8h-16v-16h16c4.418 0 8 3.581 8 8z" fill="#f58caa"/></g></g></g></svg>