<svg id="Layer_1" enable-background="new 0 0 512 512" height="512" viewBox="0 0 512 512" width="512" xmlns="http://www.w3.org/2000/svg"><g><g><g><path d="m397.32 415.467h-31.726c-4.418 0-8-3.582-8-8 0-4.488 3.689-7.905 8.176-8.002 4.528-.098 8.129-3.957 7.803-8.578-.299-4.237-4.029-7.42-8.276-7.42h-34.449l-13.255-13.255v-66.079c0-17.436-13.67-32.175-31.1-32.653-18.084-.496-32.9 14.016-32.9 31.988v80c0 8.487 3.371 16.626 9.373 22.627l41.373 41.373h-2.746c-17.673 0-32 14.327-32 32 0 8.836 7.164 16 16 16h80c8.837 0 16-7.163 16-16v-32c0-5.534-1.432-11.065-4.285-16h20.285c4.594 0 8.284-3.873 7.983-8.532-.275-4.254-3.995-7.469-8.256-7.469z" fill="#aac3d7"/></g><g><path d="m405.594 383.467h-8c-4.418 0-8 3.582-8 8s3.582 8 8 8h8c4.418 0 8-3.582 8-8s-3.582-8-8-8z" fill="#aac3d7"/></g></g><g><path d="m317.594 303.467h-128v18.746l-38.627 38.627c-6.002 6.001-9.373 14.141-9.373 22.627v64c-17.673 0-32 14.327-32 32 0 8.836 7.164 16 16 16h64c8.836 0 16-7.164 16-16v-82.745l54.627-54.627c2.026-2.026 3.719-4.259 5.088-6.627h52.285z" fill="#323232"/></g><g><path d="m301.594 431.467c-8.189 0-16.379-3.124-22.627-9.373l-16-16c-6.001-6.001-9.373-14.141-9.373-22.627v-80c0-17.673 14.327-32 32-32s32 14.327 32 32v66.745l6.627 6.627c12.497 12.497 12.497 32.758 0 45.255-6.248 6.248-14.438 9.373-22.627 9.373z" fill="#464646"/></g><g><g><path d="m221.594 159.467c-17.673 0-32 14.327-32 32v64h-40c-4.418 0-8 3.582-8 8s3.582 8 8 8h32c4.418 0 8 3.582 8 8s-3.582 8-8 8-8 3.582-8 8 3.582 8 8 8h8c0 8.836 7.164 16 16 16h96c8.836 0 16-7.164 16-16v-144z" fill="#323232"/></g><g><path d="m149.594 287.467h-8c-4.418 0-8 3.582-8 8s3.582 8 8 8h8c4.418 0 8-3.582 8-8s-3.582-8-8-8z" fill="#323232"/></g></g><g><path d="m253.594 95.467v64h-112v-56c0-4.418-3.582-8-8-8h-8v-64h-48v32c0 8.836 7.164 16 16 16v16h-8c-4.418 0-8 3.582-8 8v88c0 17.673 14.327 32 32 32h80v32h48c13.255 0 24-10.745 24-24v-40c0-17.673 14.327-32 32-32h8v-16c0-26.51-21.491-48-48-48z" fill="#788c9b"/></g><g><path d="m317.594 31.467v16h-12c-2.209 0-4 1.791-4 4 0 6.627 5.373 12 12 12h4c0 8.836 7.164 16 16 16v16h32v-64z" fill="#f0915a"/></g><g><path d="m349.594 15.467h-32c-4.418 0-8 3.582-8 8s3.582 8 8 8h32v32c0 8.837 7.164 16 16 16v-48c0-8.837-7.164-16-16-16z" fill="#fab991"/></g><g><g><path d="m421.594 127.467h-32c-4.418 0-8-3.582-8-8s3.582-8 8-8 8-3.582 8-8-3.582-8-8-8h-64c-4.418 0-8 3.582-8 8v56c-17.673 0-32 14.327-32 32s14.327 32 32 32h32c17.673 0 32-14.327 32-32v-48h40c4.418 0 8-3.582 8-8s-3.582-8-8-8z" fill="#464646"/></g><g><path d="m429.594 95.467h-8c-4.418 0-8 3.582-8 8s3.582 8 8 8h8c4.418 0 8-3.582 8-8s-3.582-8-8-8z" fill="#464646"/></g></g><g><path d="m173.594 199.467v40c0 8.837 7.163 16 16 16h8c8.837 0 16-7.163 16-16v-40c0-4.418-3.582-8-8-8h-24c-4.419 0-8 3.581-8 8z" fill="#aac3d7"/></g><g><path d="m237.594 191.467c-4.418 0-8 3.582-8 8v40c0 7.606 5.313 13.96 12.427 15.585 11.139-2.079 19.573-11.844 19.573-23.585v-40z" fill="#aac3d7"/></g><g><path d="m77.594 15.467h32c8.837 0 16 7.163 16 16h-48c-4.418 0-8-3.582-8-8 0-4.419 3.581-8 8-8z" fill="#aac3d7"/></g><g><path d="m117.594 47.467h-20c-2.209 0-4 1.791-4 4 0 6.627 5.373 12 12 12h4c0 8.837 7.164 16 16 16v-24c0-4.419-3.582-8-8-8z" fill="#aac3d7"/></g><g><g><path d="m209.594 151.467h-52v-8h52c2.209 0 4 1.791 4 4 0 2.209-1.791 4-4 4z" fill="#323232"/></g><g><path d="m253.594 119.467v-24h-56c-8.836 0-16 7.164-16 16v8h-24c-4.418 0-8 3.582-8 8v8c0 4.418 3.582 8 8 8h52c2.209 0 4 1.791 4 4s-1.791 4-4 4h-52c-4.418 0-8 3.582-8 8s3.582 8 8 8h96c13.255 0 24-10.745 24-24 0-13.255-10.745-24-24-24z" fill="#aac3d7"/></g><g><path d="m205.594 79.467c-4.418 0-8 3.582-8 8v8h24c0-8.837-7.164-16-16-16z" fill="#788c9b"/></g><g><path d="m237.594 79.467c-4.418 0-8 3.582-8 8v8h24c0-8.837-7.164-16-16-16z" fill="#788c9b"/></g><g><circle cx="165.594" cy="119.467" fill="#323232" r="8"/></g></g><g><path d="m109.594 223.467h29.333c4.418 0 8-3.582 8-8 0-4.418-3.582-8-8-8h-32c-4.418 0-8-3.582-8-8 0-4.418 3.582-8 8-8 4.418 0 8-3.582 8-8 0-4.418-3.582-8-8-8h-29.333v16c0 17.673 14.327 32 32 32z" fill="#323232"/></g><g><path d="m138.927 175.467h8c4.418 0 8 3.582 8 8 0 4.418-3.582 8-8 8h-8c-4.418 0-8-3.582-8-8 0-4.419 3.582-8 8-8z" fill="#323232"/></g></g></svg>