<svg height="512" viewBox="0 0 60 60" width="512" xmlns="http://www.w3.org/2000/svg"><g id="Page-1" fill="none" fill-rule="evenodd"><g id="013---Jelly-Beast" fill="rgb(0,0,0)" fill-rule="nonzero" transform="translate(0 -1)"><path id="Shape" d="m58.015 51.27c.7858439-1.0689544 1.0925956-2.4161991.847-3.72-.4-1.863-2.028-3.522-4.477-4.553-.7634561-.3024064-1.544558-.5582098-2.339-.766-1.756-.5-3.274-.926-4.2-2.433-.4874588-.7979437-.7711278-1.7035551-.826-2.637.26-1.675.675-3.339 1.119-5.067.325-1.264.661-2.572.923-3.88.866647-3.8934428 1.1210346-7.8981919.754-11.87-.2354429-2.5849855-1.0352512-5.0868188-2.343-7.329-2.835-4.622-8.5-6.58-11.632-7.336-5.3507347-1.28940913-10.9735937-.83388992-16.047 1.3-6.5505018 2.83458814-10.64789252 9.4432958-10.274 16.571.22247545 2.1992248.7048403 4.3643281 1.437 6.45.4520233 1.3689362.8256295 2.7625309 1.119 4.174.6508919 4.0513245.1440994 8.2041114-1.462 11.98-.081.21-.175.421-.262.63-2.12593391 1.1764941-4.18386447 2.4718819-6.164 3.88-1.424 1.045-4.388 3.22-3.281 6.729.37216814 1.2072812 1.18695729 2.2292504 2.281 2.861-.4102692 1.2427053-.22586605 2.6050758.5 3.694.66582664.737493 1.63515574 1.1258152 2.626 1.052 1.15683878-.0426488 2.29964001-.2681039 3.386-.668.47-.158.938-.324 1.4-.489 2.0664204-.9072219 4.2982022-1.3770707 6.555-1.38 1.6657641.1860542 3.3009734.583935 4.866 1.184.7.232 1.39.463 2.087.663 2.5908806.7738938 5.3329176.895159 7.982.353 1.7195151-.3917087 3.4122867-.8927263 5.068-1.5 1.5445868-.5655904 3.1213543-1.0390882 4.722-1.418 1.991-.427 4.086.138 6.3.826 1.4643704.5135908 2.9808423.8643713 4.522 1.046 2.0526383.1720581 4.0825546-.530242 5.59-1.934.9031364-.9087676 1.330945-2.186647 1.157-3.456-.1591977-1.2293184-.8715374-2.3184541-1.934-2.957zm-6.515-7.115c.7163976.1867398 1.4209883.4161492 2.11.687 1.807.761 3.039 1.929 3.295 3.126.1272185.8603797-.1285651 1.7333325-.7 2.389-.342-.136-.681-.263-1-.377l-1.234-.455c-2.371-.874-4.609-1.7-5.928-3.844-.6931456-1.2050256-1.1095366-2.549159-1.219-3.935 1.293738 1.2371316 2.917634 2.0737367 4.676 2.409zm-48.687 8.634c-.563-1.789.511-3.01 2.556-4.511 1.13-.824 2.311-1.585 3.469-2.289-.312.587-.638 1.18-.995 1.786-.451.765-.964 1.5-1.506 2.268-.6593693.9055668-1.269583 1.8459235-1.828 2.817-.2478879.4548197-.47218503.9221053-.672 1.4-.48027743-.3773502-.83686002-.8895895-1.024-1.471zm54.543 3.511c-1.0917821.9644272-2.5289708 1.4431291-3.981 1.326-1.4178602-.1777893-2.8125247-.5073459-4.16-.983-2.317-.72-4.784-1.378-7.248-.852-1.6790153.3950156-3.3329562.8898955-4.953 1.482-1.5750602.5775794-3.1853224 1.0542116-4.821 1.427-2.3326161.4841328-4.7494323.3751371-7.029-.317-.67-.192-1.338-.414-2.007-.637-1.7260871-.6565258-3.5296233-1.0877478-5.366-1.283-.238-.016-.474-.023-.708-.023-2.2861693.116885-4.5347818.6291329-6.646 1.514-.456.162-.913.323-1.373.478-2.921.981-3.677.424-3.838.231-.641-.766.19-3.3 1.034-4.841.52382115-.908018 1.0959766-1.7872814 1.714-2.634.541-.771 1.1-1.568 1.591-2.4 1.1290504-1.8880779 2.1032387-3.8645466 2.913-5.91 1.7430927-4.1238538 2.2852609-8.6563661 1.564-13.075-.3070185-1.4878752-.6989936-2.956947-1.174-4.4-.6856852-1.9359109-1.139517-3.946265-1.352-5.989-.3282703-6.2807697 3.2833865-12.10344966 9.056-14.6 4.6792951-1.96738191 9.8648765-2.38783445 14.8-1.2 2.827.683 7.937 2.428 10.4 6.438 1.1541226 1.9931092 1.8576118 4.2148516 2.061 6.509.3414669 3.7686294.0941727 7.5674463-.733 11.26-.251 1.256-.58 2.536-.9 3.775-.4852907 1.7800174-.8791395 3.5837111-1.18 5.404h-.02c0 .019 0 .06.005.088-.1176886.7698456-.1961233 1.5451816-.235 2.323-.2191559 2.5421033.3298718 5.0914594 1.576 7.318 1.681 2.733 4.354 3.719 6.938 4.672l1.25.461c1.907.686 3.271 1.276 3.438 2.611.0998309.6725726-.1293093 1.3521818-.616 1.827z"/><path id="Shape" d="m21 16c2.209139 0 4-1.790861 4-4s-1.790861-4-4-4-4 1.790861-4 4 1.790861 4 4 4zm0-6c1.1045695 0 2 .8954305 2 2s-.8954305 2-2 2-2-.8954305-2-2 .8954305-2 2-2z"/><path id="Shape" d="m40 16c1.6568542 0 3-1.3431458 3-3s-1.3431458-3-3-3-3 1.3431458-3 3 1.3431458 3 3 3zm0-4c.5522847 0 1 .4477153 1 1s-.4477153 1-1 1-1-.4477153-1-1 .4477153-1 1-1z"/><path id="Shape" d="m45 26c.073307-1.3360843-.550215-2.6149096-1.648-3.38-1.5723015-.9288831-3.4953692-1.0449816-5.168-.312-.7130575.2905595-1.4088663.6217698-2.084.992-.5994382.3309259-1.2170884.6277319-1.85.889-1.833.715-3.791-.091-5.633-1.068l-.388-.207c-1.2688749-.7639914-2.6496188-1.3244546-4.092-1.661-.8979025-.1699227-1.8233348-.1239938-2.7.134-2.2950953.65382-4.1162401 2.4037824-4.861 4.671-.8914988 2.9518854-.352927 6.1507654 1.456 8.648 1.6894194 2.1687263 4.3132788 3.3998332 7.061 3.313h.129c2.5797214-.0655445 5.0450865-1.0782451 6.926-2.845l.655-.594c1.3218622-1.4202142 2.9612608-2.5072068 4.784-3.172.4-.121.855-.23 1.329-.346 2.421-.588 6.084-1.48 6.084-5.062zm-7.99 3.494c-2.1146727.7410118-4.0204498 1.9790639-5.557 3.61l-.643.584c-1.5152674 1.4474145-3.5151947 2.2787569-5.61 2.332-2.1419595.1238722-4.2101976-.8024329-5.544-2.483-1.4409684-1.9688713-1.8799987-4.4976418-1.187-6.837.5340023-1.6585404 1.8673551-2.9366344 3.547-3.4.329075-.099605.6711842-.1494889 1.015-.148.2539074.0008906.5072347.0243159.757.07 1.2336806.3042808 2.4138619.7945619 3.5 1.454l.393.21c2.156 1.143 4.711 2.176 7.3 1.165.7023611-.288228 1.3877968-.6160886 2.053-.982.6074618-.3352465 1.2334694-.6357301 1.875-.9 1.0620095-.4760712 2.2836177-.4392202 3.315.1.5439489.4012953.8383113 1.0579208.776 1.731 0 1.866-1.89 2.47-4.56 3.12-.509.124-.996.243-1.43.374z"/><path id="Shape" d="m20 20c.5522847 0 1-.4477153 1-1s-.4477153-1-1-1c-3.83 0-3.994-2.694-4-3.008-.0022092-.5522847-.4517153-.9982091-1.004-.996-.5522847.0022092-.9982091.4517153-.996 1.004 0 1.729 1.254 5 6 5z"/><path id="Shape" d="m39.9 17.947c-.3589471-.0621687-.723304.0757763-.9510783.3600769s-.2829261.6699729-.1439622 1.0067176c.1389639.3367446.4500556.5712799.8120405.6122055.3354449.0490213.6739922.0737523 1.013.074 1.6204153.0625919 3.1749501-.6449588 4.192-1.908.3145262-.4539781.2014781-1.0769738-.2525-1.3915s-1.0769738-.2014781-1.3915.2525c-.8364985.8933558-2.0862126 1.2723112-3.278.994z"/><path id="Shape" d="m21 42c-1.6568542 0-3 1.3431458-3 3s1.3431458 3 3 3 3-1.3431458 3-3-1.3431458-3-3-3zm0 4c-.5522847 0-1-.4477153-1-1s.4477153-1 1-1 1 .4477153 1 1-.4477153 1-1 1z"/><path id="Shape" d="m33 39c-1.6568542 0-3 1.3431458-3 3s1.3431458 3 3 3 3-1.3431458 3-3-1.3431458-3-3-3zm0 4c-.5522847 0-1-.4477153-1-1s.4477153-1 1-1 1 .4477153 1 1-.4477153 1-1 1z"/><path id="Shape" d="m41.5 44c-1.9329966 0-3.5 1.5670034-3.5 3.5s1.5670034 3.5 3.5 3.5 3.5-1.5670034 3.5-3.5-1.5670034-3.5-3.5-3.5zm0 5c-.8284271 0-1.5-.6715729-1.5-1.5s.6715729-1.5 1.5-1.5 1.5.6715729 1.5 1.5-.6715729 1.5-1.5 1.5z"/><path id="Shape" d="m30 49c-2.209139 0-4 1.790861-4 4s1.790861 4 4 4 4-1.790861 4-4-1.790861-4-4-4zm0 6c-1.1045695 0-2-.8954305-2-2s.8954305-2 2-2 2 .8954305 2 2-.8954305 2-2 2z"/><circle id="Oval" cx="15" cy="51" r="1"/></g></g></svg>