<svg id="Layer_1" enable-background="new 0 0 512 512" height="512" viewBox="0 0 512 512" width="512" xmlns="http://www.w3.org/2000/svg"><g><g><path d="m351.179 192.869v144h4.153c2.091 0 3.806-1.562 4.119-3.63 1.75-11.532 11.706-20.37 23.727-20.37s21.978 8.838 23.727 20.37c.314 2.068 2.028 3.63 4.119 3.63 2.294 0 4.153-1.859 4.153-4.153v-139.847z" fill="#f0697d"/></g><g><path d="m335.179 128.869h-48v32h40c8.837 0 16-7.163 16-16v-8c0-4.419-3.581-8-8-8z" fill="#f0697d"/></g><g><path d="m293.806 298.241c-12.496-12.497-32.758-12.497-45.254 0l-64 64c-6.002 6.001-9.373 14.141-9.373 22.627v64c-17.673 0-32 14.327-32 32 0 8.836 7.163 16 16 16h64c8.837 0 16-7.164 16-16v-82.745l54.627-54.627c12.497-12.497 12.497-32.758 0-45.255z" fill="#323232"/></g><g><path d="m415.179 448.869c0-8.189-3.124-16.379-9.373-22.627l-54.627-54.627v-66.745c0-17.673-14.327-32-32-32s-32 14.327-32 32v80c0 8.487 3.371 16.626 9.373 22.627l41.373 41.373h-2.746c-17.673 0-32 14.327-32 32 0 8.836 7.163 16 16 16h80c8.837 0 16-7.164 16-16z" fill="#464646"/></g><g><path d="m335.179 320.869h-96c-8.837 0-16-7.163-16-16v-112c0-17.673 14.327-32 32-32h96v144c0 8.836-7.163 16-16 16z" fill="#323232"/></g><g><path d="m271.179 208.869c8.837 0 16-7.163 16-16 0-17.673 14.327-32 32-32h-32c-17.673 0-32 14.327-32 32 0 8.836 7.164 16 16 16z" fill="#d7e6f0"/></g><g><path d="m407.179 112.869h-48c-4.418 0-8 3.582-8 8v40c-17.673 0-32 14.327-32 32s14.327 32 32 32h32c17.673 0 32-14.327 32-32v-72c0-4.419-3.581-8-8-8z" fill="#464646"/></g><g><path d="m215.179 176.869h56c8.837 0 16-7.163 16-16v-72c0-13.255-10.745-24-24-24h-40c-13.255 0-24 10.745-24 24v72c0 8.836 7.164 16 16 16z" fill="#aac3d7"/></g><g><path d="m247.179 176.869h-32c-8.837 0-16-7.163-16-16v-72c0-13.255 10.745-24 24-24h16c13.255 0 24 10.745 24 24v72c0 8.836-7.163 16-16 16z" fill="#d7e6f0"/></g><g><path d="m199.179 96.869h36.496c7.292 0 14.286-2.897 19.442-8.054l.004-.004c-5.158 5.159-8.054 12.157-8.05 19.453l.003 4.605.106 8c0 4.418 3.582 8 8 8v16c0 8.837 7.163 16 16 16h16c8.837 0 16-7.163 16-16v-48c0-26.51-21.49-48-48-48h-32c-17.673 0-32 14.327-32 32v8c-.001 4.418 3.581 8 7.999 8z" fill="#464646"/></g><g><path d="m263.179 144.869h-8v-16c0-8.837 7.163-16 16-16h8v16c0 8.836-7.163 16-16 16z" fill="#aac3d7"/></g><g><path d="m207.179 144.869h32v8h-32z" fill="#f0697d"/></g><g><path d="m207.179 160.869v-16h8v8c0 4.418-3.581 8-8 8z" fill="#f58caa"/></g><g><path d="m239.179 160.869v-16h-8v8c0 4.418 3.582 8 8 8z" fill="#f58caa"/></g><g><path d="m271.179 240.869v-48c0-17.673-14.327-32-32-32h-64c-17.673 0-32 14.327-32 32v171.847c0 2.294 1.859 4.153 4.153 4.153 2.091 0 3.806-1.562 4.119-3.63 1.75-11.533 11.706-20.37 23.727-20.37s21.978 8.838 23.727 20.37c.314 2.068 2.028 3.63 4.119 3.63h8.307c2.091 0 3.806-1.562 4.119-3.63 1.75-11.533 11.706-20.37 23.727-20.37s21.978 8.838 23.727 20.37c.314 2.068 2.028 3.63 4.119 3.63 2.294 0 4.153-1.859 4.153-4.153v-123.847z" fill="#464646"/></g><g fill="#464646"><path d="m447.179 256.869h-8c0-4.418-3.582-8-8-8s-8 3.582-8 8h-8c-13.233 0-24 10.767-24 24v16c0 4.418 3.582 8 8 8s8-3.582 8-8v-8c0 4.418 3.582 8 8 8s8-3.582 8-8v-16h16v16c0 4.418 3.582 8 8 8s8-3.582 8-8v8c0 4.418 3.582 8 8 8s8-3.582 8-8v-16c0-13.234-10.766-24-24-24z"/><path d="m111.179 408.869h-8c0-4.418-3.582-8-8-8s-8 3.582-8 8h-8c-13.233 0-24 10.767-24 24v16c0 4.418 3.582 8 8 8s8-3.582 8-8v-8c0 4.418 3.582 8 8 8s8-3.582 8-8v-16h16v16c0 4.418 3.582 8 8 8s8-3.582 8-8v8c0 4.418 3.582 8 8 8s8-3.582 8-8v-16c0-13.234-10.766-24-24-24z"/><path d="m143.179 120.869h-16c-13.071 0-24.696 6.303-32 16.028-7.304-9.725-18.929-16.028-32-16.028h-16c-4.418 0-8 3.582-8 8s3.582 8 8 8h16c-4.418 0-8 3.582-8 8s3.582 8 8 8h16c4.411 0 8 3.589 8 8 0 4.418 3.582 8 8 8s8-3.582 8-8c0-4.411 3.589-8 8-8h16c4.418 0 8-3.582 8-8s-3.582-8-8-8h16c4.418 0 8-3.582 8-8 0-4.419-3.581-8-8-8z"/></g><g><path d="m351.179 32.869v16h-12c-2.209 0-4 1.791-4 4 0 6.627 5.373 12 12 12h4c0 8.836 7.163 16 16 16v32h32v-80z" fill="#aac3d7"/></g><g><path d="m383.179 16.869h-32c-4.418 0-8 3.582-8 8s3.582 8 8 8h32v32c0 8.837 7.164 16 16 16v-48c0-8.837-7.163-16-16-16z" fill="#d7e6f0"/></g><g><path d="m367.179 96.869h32v16h-32z" fill="#d7e6f0"/></g></g></svg>