<svg id="Layer_1" enable-background="new 0 0 512 512" height="512" viewBox="0 0 512 512" width="512" xmlns="http://www.w3.org/2000/svg"><g><g><path d="m167.179 290.133v80c0 26.51 21.49 48 48 48 8.837 0 16 7.163 16 16 0 8.837-7.163 16-16 16-17.673 0-32 14.327-32 32v16h96c8.836 0 16-7.163 16-16 0-8.837 7.164-16 16-16l48.952.005c17.147.001 31.048-13.899 31.048-31.046v-1.61c0-17.457-13.897-31.353-31.039-31.351-.32 0-.64 0-.96 0-17.673.001-32.001-14.326-32.001-31.999v-80h-160z" fill="#aac3d7"/></g><g><path d="m391.179 98.133c-17.673 0-32 14.327-32 32v48c0 8.836-7.163 16-16 16s-16-7.164-16-16v-80c0-44.183-35.817-80-80-80s-80 35.817-80 80v192c0 44.183 35.817 80 80 80s80-35.817 80-80v56.996c2.163-.641 4.449-.996 6.82-.996 12.021 0 21.978 8.838 23.727 20.37.314 2.068 2.028 3.63 4.119 3.63h1.487c2.091 0 3.806-1.562 4.119-3.63 1.75-11.532 11.706-20.37 23.727-20.37s21.978 8.838 23.727 20.37c.314 2.068 2.028 3.63 4.119 3.63 2.294 0 4.153-1.859 4.153-4.153v-235.847c.002-17.673-14.324-32-31.998-32z" fill="#d7e6f0"/></g><g><circle cx="203.179" cy="98.133" fill="#464646" r="20"/></g><g><circle cx="259.179" cy="98.133" fill="#464646" r="20"/></g><g><path d="m231.18 186.133c-8.837 0-16-7.163-16-16v-32c0-8.837 7.163-16 16-16 8.837 0 16 7.163 16 16v32c-.001 8.837-7.164 16-16 16z" fill="#464646"/></g><g><circle cx="231.179" cy="170.133" fill="#f0697d" r="16"/></g><g><path d="m151.179 178.133v-48c0-17.673-14.327-32-32-32-17.673 0-32 14.327-32 32v235.847c0 2.294 1.859 4.153 4.153 4.153 2.091 0 3.806-1.562 4.119-3.63 1.75-11.532 11.706-20.37 23.727-20.37s21.978 8.838 23.727 20.37c.314 2.068 2.028 3.63 4.119 3.63h1.487c2.091 0 3.806-1.562 4.119-3.63 1.276-8.409 6.926-15.367 14.547-18.529v-153.841c-8.834 0-15.998-7.163-15.998-16z" fill="#aac3d7"/></g></g></svg>