<svg id="Layer_1" enable-background="new 0 0 512 512" height="512" viewBox="0 0 512 512" width="512" xmlns="http://www.w3.org/2000/svg"><g><g><path d="m126.821 159.601v171.847c0 2.294 1.859 4.153 4.153 4.153 2.091 0 3.806-1.562 4.119-3.63 1.75-11.532 11.706-20.37 23.727-20.37s21.978 8.838 23.727 20.37c.314 2.068 2.028 3.63 4.119 3.63h8.306c2.091 0 3.806-1.562 4.119-3.63 1.75-11.532 11.706-20.37 23.727-20.37s21.978 8.838 23.727 20.37c.314 2.068 2.028 3.63 4.119 3.63h8.306c2.091 0 3.806-1.562 4.119-3.63 1.75-11.532 11.706-20.37 23.727-20.37s21.978 8.838 23.727 20.37c.314 2.068 2.028 3.63 4.119 3.63h8.306c2.091 0 3.806-1.562 4.119-3.63 1.75-11.532 11.706-20.37 23.727-20.37s21.978 8.838 23.727 20.37c.314 2.068 2.028 3.63 4.119 3.63 2.294 0 4.153-1.859 4.153-4.153v-171.847z" fill="#f0697d"/></g><g><path d="m302.821 127.601h-48v32h40c8.837 0 16-7.163 16-16v-8c0-4.419-3.582-8-8-8z" fill="#f0697d"/></g><g><path d="m142.821 159.601v-40c0-4.418-3.582-8-8-8h-48c-4.418 0-8 3.582-8 8v72c0 17.673 14.327 32 32 32h112v-64z" fill="#464646"/></g><g><path d="m318.821 159.601h-96c-17.673 0-32 14.327-32 32v144h128z" fill="#323232"/></g><g><path d="m261.448 296.973c-12.496-12.497-32.758-12.497-45.254 0l-64 64c-6.002 6.001-9.373 14.141-9.373 22.627v64c-17.673 0-32 14.327-32 32 0 8.836 7.164 16 16 16h64c8.836 0 16-7.163 16-16v-32-50.745l54.627-54.627c12.497-12.497 12.497-32.758 0-45.255z" fill="#323232"/></g><g><path d="m382.821 447.601c0-8.19-3.124-16.379-9.373-22.627l-54.627-54.627v-66.745c0-17.673-14.327-32-32-32s-32 14.327-32 32v80c0 8.487 3.371 16.626 9.373 22.627l41.373 41.373h-2.746c-17.673 0-32 14.327-32 32 0 8.836 7.164 16 16 16h80c8.836 0 16-7.163 16-16z" fill="#464646"/></g><g><path d="m302.821 319.601h-96c-8.837 0-16-7.163-16-16v-112c0-17.673 14.327-32 32-32h96v144c0 8.836-7.163 16-16 16z" fill="#323232"/></g><g><path d="m238.821 207.601c8.837 0 16-7.163 16-16 0-17.673 14.327-32 32-32h-32c-17.673 0-32 14.327-32 32 0 8.836 7.163 16 16 16z" fill="#d7e6f0"/></g><g><path d="m78.821 15.601h32c8.837 0 16 7.163 16 16h-48c-4.418 0-8-3.582-8-8 0-4.419 3.582-8 8-8z" fill="#d7e6f0"/></g><g><path d="m78.821 31.601v32c0 8.837 7.164 16 16 16v32h32v-32-48z" fill="#aac3d7"/></g><g><path d="m118.821 47.601h-20c-2.209 0-4 1.791-4 4 0 6.627 5.373 12 12 12h4c0 8.837 7.164 16 16 16v-24c0-4.419-3.582-8-8-8z" fill="#d7e6f0"/></g><g><path d="m318.821 31.601v16h-12c-2.209 0-4 1.791-4 4 0 6.627 5.373 12 12 12h4c0 8.837 7.164 16 16 16v32h32v-32-48z" fill="#aac3d7"/></g><g><path d="m350.821 15.601h-32c-4.418 0-8 3.582-8 8s3.582 8 8 8h32v32c0 8.837 7.164 16 16 16v-48c0-8.837-7.164-16-16-16z" fill="#d7e6f0"/></g><g><path d="m94.821 95.601h32v16h-32z" fill="#d7e6f0"/></g><g><path d="m334.821 95.601h32v16h-32z" fill="#d7e6f0"/></g><g><path d="m374.821 111.601h-48c-4.418 0-8 3.582-8 8v40c-17.673 0-32 14.327-32 32s14.327 32 32 32h32c17.673 0 32-14.327 32-32v-72c0-4.419-3.582-8-8-8z" fill="#464646"/></g><g><path d="m182.821 175.601h56c8.837 0 16-7.163 16-16v-72c0-13.255-10.745-24-24-24h-40c-13.255 0-24 10.745-24 24v72c0 8.836 7.163 16 16 16z" fill="#aac3d7"/></g><g><path d="m214.821 175.601h-32c-8.837 0-16-7.163-16-16v-72c0-13.255 10.745-24 24-24h16c13.255 0 24 10.745 24 24v72c0 8.836-7.163 16-16 16z" fill="#d7e6f0"/></g><g><path d="m166.821 87.601v-.05c0-4.393 3.557-7.957 7.95-7.966 8.859-.019 16.05 7.158 16.05 16.017 0-8.859 7.192-16.036 16.051-16.017l7.832.017c4.456.006 8.068 3.615 8.077 8.072l.022 15.823c.009 4.474-3.615 8.106-8.089 8.106l.106 8c0 4.418 3.582 8 8 8v16c0 8.837 7.163 16 16 16h16c8.837 0 16-7.163 16-16v-48c0-26.51-21.49-48-48-48h-24c-17.673 0-32 14.327-32 32v7.998z" fill="#464646"/></g><g><path d="m230.821 143.601h-8v-16c0-8.837 7.163-16 16-16h8v16c0 8.836-7.163 16-16 16z" fill="#aac3d7"/></g><g><path d="m174.821 143.601h32v8h-32z" fill="#f0697d"/></g><g><path d="m174.821 159.601v-16h8v8c0 4.418-3.582 8-8 8z" fill="#f58caa"/></g><g><path d="m206.821 159.601v-16h-8v8c0 4.418 3.582 8 8 8z" fill="#f58caa"/></g><g><circle cx="238.821" cy="247.601" fill="#d7e6f0" r="8"/></g><g><circle cx="238.821" cy="287.601" fill="#d7e6f0" r="8"/></g><g fill="#464646"><path d="m446.821 319.601h-8c0-4.418-3.582-8-8-8s-8 3.582-8 8h-8c-13.233 0-24 10.766-24 24v16c0 4.418 3.582 8 8 8s8-3.582 8-8v-8c0 4.418 3.582 8 8 8s8-3.582 8-8v-16h16v16c0 4.418 3.582 8 8 8s8-3.582 8-8v8c0 4.418 3.582 8 8 8s8-3.582 8-8v-16c0-13.234-10.767-24-24-24z"/><path d="m126.821 391.601h-8c0-4.418-3.582-8-8-8s-8 3.582-8 8h-8c-13.233 0-24 10.766-24 24v16c0 4.418 3.582 8 8 8s8-3.582 8-8v-8c0 4.418 3.582 8 8 8s8-3.582 8-8v-16h16v16c0 4.418 3.582 8 8 8s8-3.582 8-8v8c0 4.418 3.582 8 8 8s8-3.582 8-8v-16c0-13.234-10.767-24-24-24z"/><path d="m142.821 247.601h-16c-13.071 0-24.696 6.303-32 16.028-7.304-9.725-18.929-16.028-32-16.028h-16c-4.418 0-8 3.582-8 8s3.582 8 8 8h16c-4.418 0-8 3.582-8 8s3.582 8 8 8h16c4.411 0 8 3.589 8 8 0 4.418 3.582 8 8 8s8-3.582 8-8c0-4.411 3.589-8 8-8h16c4.418 0 8-3.582 8-8s-3.582-8-8-8h16c4.418 0 8-3.582 8-8s-3.582-8-8-8z"/></g></g></svg>