<svg id="Layer_1" enable-background="new 0 0 512 512" height="512" viewBox="0 0 512 512" width="512" xmlns="http://www.w3.org/2000/svg"><g><g><path d="m215.708 367.6v-40h-64c-8.837 0-16 7.164-16 16v56c0 15.464 12.536 28 28 28 15.464 0 28-12.536 28-28h-16v-32z" fill="#d7e6f0"/></g><g><g><path d="m439.704 367.602h-56c0 8.83 7.17 16 16 16v61.66c0 18.97-15.37 34.34-34.33 34.34h-29.67c0-6.63 2.69-12.63 7.03-16.97 4.35-4.34 10.35-7.03 16.97-7.03v-40c-22.09 0-40-17.91-40-40v-8h-104c-26.51 0-48-21.49-48-48v-112c0-17.68-14.32-32-32-32h-32v-96h32c70.7 0 128 57.31 128 128h112c35.35 0 64 28.65 64 64z" fill="#aac3d7"/></g></g><g><path d="m407.708 271.6v-32c0-26.51 21.49-48 48-48 26.51 0 48 21.49 48 48v112c-26.51 0-48-21.49-48-48v-64c0-8.837-7.163-16-16-16-8.837 0-16 7.163-16 16v32z" fill="#f0697d"/></g><g><path d="m119.686 31.6h16.022c97.202 0 176 78.798 176 176h-48c0-70.692-57.308-128-128-128h-64v-.022c0-26.498 21.481-47.978 47.978-47.978z" fill="#f58caa"/></g><g><path d="m135.708 79.6h-32c0-17.673-14.327-32-32-32v144c0 17.673 14.327 32 32 32 17.673 0 32-14.327 32-32v-16c26.51 0 48-21.49 48-48 0-26.51-21.49-48-48-48z" fill="#d7e6f0"/></g><g><path d="m71.708 79.6-61.389 12.789c-1.521.317-2.611 1.657-2.611 3.211 0 1.553 1.09 2.894 2.611 3.211l61.389 12.789z" fill="#faa51e"/></g><g><circle cx="111.708" cy="119.6" fill="#555" r="8"/></g><g><circle cx="111.708" cy="199.6" fill="#aac3d7" r="8"/></g><g><path d="m263.708 207.6h48c0-48.601-19.699-92.601-51.549-124.451l-33.941 33.941c23.163 23.163 37.49 55.163 37.49 90.51z" fill="#f0697d"/></g><g><path d="m39.708 104.933 32 6.667v-32l-32 6.666z" fill="#f58723"/></g><g><path d="m255.708 287.6c-22.091 0-40 17.909-40 40v128c-13.255 0-24 10.745-24 24h24c22.091 0 40-17.909 40-40v-72c22.091 0 40-17.909 40-40s-17.908-40-40-40z" fill="#d7e6f0"/></g><g><g><path d="m455.704 383.602v61.66c0 18.97-15.37 34.34-34.33 34.34h-29.67c0-13.26 10.75-24 24-24v-40c-22.09 0-40-17.91-40-40v-168c35.35 0 64 28.65 64 64v96c0 8.83 7.17 16 16 16z" fill="#d7e6f0"/></g></g></g></svg>