<svg id="Layer_1" enable-background="new 0 0 512 512" height="512" viewBox="0 0 512 512" width="512" xmlns="http://www.w3.org/2000/svg"><g><g><path d="m206.821 200v139.847c0 2.294 1.859 4.153 4.153 4.153 2.091 0 3.806-1.562 4.119-3.63 1.75-11.532 11.706-20.37 23.727-20.37s21.978 8.838 23.727 20.37c.314 2.068 2.028 3.63 4.119 3.63h8.306c2.091 0 3.806-1.562 4.119-3.63 1.75-11.532 11.706-20.37 23.727-20.37s21.978 8.838 23.727 20.37c.314 2.068 2.028 3.63 4.119 3.63h8.306c2.091 0 3.806-1.562 4.119-3.63 1.75-11.532 11.706-20.37 23.727-20.37s21.978 8.838 23.727 20.37c.314 2.068 2.028 3.63 4.119 3.63h8.306c2.091 0 3.806-1.562 4.119-3.63 1.75-11.532 11.706-20.37 23.727-20.37s21.978 8.838 23.727 20.37c.314 2.068 2.028 3.63 4.119 3.63 2.294 0 4.153-1.859 4.153-4.153v-139.847z" fill="#646464"/></g><g><path d="m150.821 232h120v-64h-120c-4.418 0-8 3.582-8 8v48c0 4.418 3.582 8 8 8z" fill="#323232"/></g><g><path d="m398.821 312h-128v18.746l-38.627 38.627c-6.002 6.001-9.373 14.141-9.373 22.627v64c-17.673 0-32 14.327-32 32 0 8.836 7.164 16 16 16h64c8.836 0 16-7.164 16-16v-82.745l54.627-54.627c2.026-2.026 3.719-4.259 5.088-6.627h52.285z" fill="#323232"/></g><g><path d="m462.821 456c0-8.189-3.124-16.379-9.373-22.627l-54.627-54.627v-66.746c0-17.673-14.327-32-32-32s-32 14.327-32 32v80c0 8.487 3.371 16.626 9.373 22.627l41.373 41.373h-2.746c-17.673 0-32 14.327-32 32 0 8.836 7.164 16 16 16h80c8.836 0 16-7.164 16-16z" fill="#464646"/></g><g><path d="m382.821 328h-96c-8.837 0-16-7.163-16-16v-112c0-17.673 14.327-32 32-32h96v144c0 8.837-7.163 16-16 16z" fill="#323232"/></g><g><path d="m398.821 168h-16c-17.673 0-32 14.327-32 32 0 4.418-3.582 8-8 8h-72c-4.418 0-8-3.582-8-8 0-22.091 17.909-40 40-40h96z" fill="#646464"/></g><g><path d="m454.821 120h-48c-4.418 0-8 3.582-8 8v40c-17.673 0-32 14.327-32 32s14.327 32 32 32h32c17.673 0 32-14.327 32-32v-72c0-4.418-3.582-8-8-8z" fill="#464646"/></g><g><path d="m262.821 184h56c8.837 0 16-7.163 16-16v-64h-88v64c0 8.837 7.163 16 16 16z" fill="#f0915a"/></g><g><path d="m294.821 184h-32c-8.837 0-16-7.163-16-16v-64h64v64c0 8.837-7.163 16-16 16z" fill="#fab991"/></g><g><path d="m414.821 104h32v16h-32z" fill="#d7e6f0"/></g><g><path d="m118.821 192h32v16h-32z" fill="#d7e6f0" transform="matrix(0 -1 1 0 -65.179 334.821)"/></g><g><path d="m294.715 104 .084 24c.012 4.422 3.599 8 8.021 8v16c0 8.837 7.163 16 16 16h16c8.837 0 16-7.163 16-16v-48z" fill="#323232"/></g><g><path d="m310.821 152c-4.418 0-8-3.582-8-8v-16c0-4.418 3.582-8 8-8 8.837 0 16 7.163 16 16 0 8.837-7.163 16-16 16z" fill="#f0915a"/></g><g><path d="m390.821 96h-176c-4.418 0-8 3.582-8 8h192c0-4.418-3.582-8-8-8z" fill="#464646"/></g><g><path d="m334.821 48h-72l-16 48h104z" fill="#323232"/></g><g><circle cx="318.821" cy="256" fill="#646464" r="8"/></g><g><circle cx="318.821" cy="296" fill="#646464" r="8"/></g><g><path d="m446.821 48h-48v32c0 4.418 3.582 8 8 8h40z" fill="#f0915a"/></g><g><path d="m414.821 88h32v16h-32z" fill="#f0915a"/></g><g><path d="m450.821 72h-216c-6.627 0-12-5.373-12-12 0-6.627 5.373-12 12-12h216c6.627 0 12 5.373 12 12 0 6.627-5.373 12-12 12z" fill="#aa5a28"/></g><g><path d="m398.821 80v-20c0-2.209 1.791-4 4-4 6.627 0 12 5.373 12 12v4c8.837 0 16 7.164 16 16h-24c-4.418 0-8-3.582-8-8z" fill="#fab991"/></g><g><path d="m438.821 40h-32c-4.418 0-8 3.582-8 8 0 4.418 3.582 8 8 8h32c4.418 0 8-3.582 8-8 0-4.418-3.582-8-8-8z" fill="#fab991"/></g><g><path d="m301.132 15.155c-9.411-4.705-19.789-7.155-30.311-7.155s-20.9 2.45-30.311 7.155l-17.689 8.845 10.343 10.343c3.622 3.622 5.657 8.535 5.657 13.657v24c8.836 0 16 7.164 16 16h32c0-8.836 7.164-16 16-16v-24c0-5.122 2.035-10.035 5.657-13.657l10.343-10.343z" fill="#8caac8"/></g><g><path d="m240.51 28.489c9.411-4.706 19.789-7.156 30.311-7.156s20.9 2.45 30.311 7.156l8.8 4.4 8.889-8.889-17.689-8.845c-9.411-4.705-19.789-7.155-30.311-7.155s-20.9 2.45-30.311 7.155l-17.689 8.845 8.889 8.889z" fill="#d7e6f0"/></g><g><path d="m274.821 168h-16c-2.209 0-4-1.791-4-4 0-2.209 1.791-4 4-4h16c2.209 0 4 1.791 4 4 0 2.209-1.791 4-4 4z" fill="#d7e6f0"/></g><g><path d="m110.821 164v52h16v-60c0-2.209-1.791-4-4-4-6.627 0-12 5.373-12 12z" fill="#f0915a"/></g><g><path d="m94.821 176c0-4.418-3.582-8-8-8h-13.333v8c0 7.364 5.97 13.333 13.333 13.333h8v26.667h16v-40z" fill="#323232"/></g><g><circle cx="86.821" cy="176" fill="#f0915a" r="8"/></g><g><path d="m46.821 152v12c0 2.209 1.791 4 4 4h36c4.418 0 8 3.582 8 8h16v-8c0-8.837-7.163-16-16-16z" fill="#464646"/></g><g><path d="m50.821 144c-2.209 0-4 1.791-4 4v4h8v-4c0-2.209-1.791-4-4-4z" fill="#323232"/></g><g><path d="m94.821 181.333h16c4.418 0 8 3.582 8 8v18.667c0 4.418-3.582 8-8 8h-16c-4.418 0-8-3.582-8-8v-18.667c0-4.418 3.582-8 8-8z" fill="#fab991"/></g></g></svg>