<svg id="Layer_1" enable-background="new 0 0 512 512" height="512" viewBox="0 0 512 512" width="512" xmlns="http://www.w3.org/2000/svg"><g><g><path d="m278.821 224h-64c-8.837 0-16-7.163-16-16v-112h80z" fill="#8caac8"/></g><g><path d="m158.821 320h72v-80h-72c-4.418 0-8 3.582-8 8v64c0 4.418 3.582 8 8 8z" fill="#323232"/></g><g><path d="m422.821 448c0-8.189-3.124-16.379-9.373-22.627l-54.627-54.627v-66.746h-128v18.746l-38.627 38.627c-6.002 6.001-9.373 14.141-9.373 22.627v64c-17.673 0-32 14.327-32 32 0 8.836 7.164 16 16 16h240c8.836 0 16-7.164 16-16z" fill="#323232"/></g><path d="m430.821 96h-64c-4.418 0-8 3.582-8 8v56h-96c-17.673 0-32 14.327-32 32v112c0 8.836 7.164 16 16 16h48v64c0 8.487 3.371 16.626 9.373 22.627l41.373 41.373h-2.746c-17.673 0-32 14.327-32 32 0 8.836 7.164 16 16 16h80c8.836 0 16-7.164 16-16v-32c0-8.189-3.124-16.379-9.373-22.627l-54.627-54.627v-146.746h48c17.673 0 32-14.327 32-32v-88c0-4.418-3.582-8-8-8z" fill="#464646"/><g><path d="m278.821 176h-32c-17.673 0-32-14.327-32-32v-48h64z" fill="#a5cd3c"/></g><g><path d="m214.821 112h64v16h-64z" fill="#82aa41"/></g><path d="m342.821 120c-8.822 0-16-7.178-16-16v-8h-128v8c0 4.418 3.582 8 8 8h72v96c0 8.836 7.164 16 16 16h16c8.836 0 16-7.164 16-16v-76.305c4.711 2.732 10.174 4.305 16 4.305 4.418 0 8-3.582 8-8s-3.582-8-8-8z" fill="#d7e6f0"/><g><path d="m342.821 96h-168c-4.418 0-8-3.582-8-8s3.582-8 8-8h168c4.418 0 8 3.582 8 8s-3.582 8-8 8z" fill="#464646"/></g><g><path d="m198.821 80c0-35.346 28.654-64 64-64h88c4.418 0 8 3.582 8 8 0 4.418-3.582 8-8 8-13.255 0-24 10.745-24 24v24z" fill="#323232"/></g><g><path d="m134.821 248c0-8.836-7.164-16-16-16h-8v48h40v-32z" fill="#82aa41"/></g><g><path d="m118.821 336h-16v-240c0-4.418 3.582-8 8-8 4.418 0 8 3.582 8 8z" fill="#aa5a28"/></g><g><path d="m100.154 232c13.255 0 24 10.745 24 24 0 13.255-10.745 24-24 24-4.418 0-8-3.582-8-8v-32c0-4.418 3.582-8 8-8z" fill="#a5cd3c"/></g><g><path d="m358.821 32v16h-12c-2.209 0-4 1.791-4 4 0 6.627 5.373 12 12 12h4c0 8.836 7.164 16 16 16v16h32v-64z" fill="#82aa41"/></g><g><path d="m390.821 16h-32c-4.418 0-8 3.582-8 8s3.582 8 8 8h32v32c0 8.837 7.164 16 16 16v-48c0-8.837-7.164-16-16-16z" fill="#a5cd3c"/></g><g><path d="m198.821 144h16v-16c-8.837 0-16 7.163-16 16z" fill="#a5cd3c"/></g><g><path d="m126.821 360h-32c-4.418 0-8-3.582-8-8v-16h48v16c0 4.418-3.582 8-8 8z" fill="#fad241"/></g><g><path d="m126.821 376h-32c-13.255 0-24 10.745-24 24v41.088c0 9.548 3.793 18.705 10.544 25.456l29.456 29.456 29.456-29.456c6.751-6.751 10.544-15.908 10.544-25.456v-41.088c0-13.255-10.745-24-24-24z" fill="#fad241"/></g><g><path d="m94.821 360h32v16h-32z" fill="#d73228"/></g><g><path d="m110.821 336v24h16c4.418 0 8-3.582 8-8v-16z" fill="#faa037"/></g><g><path d="m150.821 400h-32c-4.418 0-8 3.582-8 8v88l29.456-29.456c6.751-6.751 10.544-15.908 10.544-25.456z" fill="#faa037"/></g></g></svg>