<svg id="Layer_1" enable-background="new 0 0 512 512" height="512" viewBox="0 0 512 512" width="512" xmlns="http://www.w3.org/2000/svg"><g><g><path d="m179.179 263.2h-32c-2.122 0-4.157-.843-5.657-2.343l-8-8c-3.125-3.124-3.125-8.189 0-11.313 3.124-3.125 8.189-3.125 11.313 0l5.657 5.657h28.687c4.418 0 8 3.582 8 8 0 4.417-3.581 7.999-8 7.999z" fill="#f0915a"/></g><g><path d="m237.846 47.2c-27.982 0-50.667 22.684-50.667 50.667v61.333c0 17.673 14.327 32 32 32h136v-96c0-26.51-21.49-48-48-48z" fill="#32283c"/></g><g><path d="m187.179 319.2h56v-80h-56c-4.418 0-8 3.582-8 8v64c0 4.418 3.582 8 8 8z" fill="#32283c"/></g><g><path d="m371.179 319.2h-112c-8.837 0-16-7.163-16-16v-112c0-17.673 14.327-32 32-32h96z" fill="#463c4b"/></g><g><path d="m443.179 95.2h-64c-4.418 0-8 3.582-8 8v56c-17.673 0-32 14.327-32 32s14.327 32 32 32h48c17.673 0 32-14.327 32-32v-88c0-4.418-3.581-8-8-8z" fill="#5a5a6e"/></g><g><path d="m435.179 447.2c0-8.189-3.124-16.379-9.373-22.627l-54.627-54.627v-50.746h-112c-8.837 0-16-7.163-16-16v18.746l-38.627 38.627c-6.002 6.001-9.373 14.141-9.373 22.627v64c-17.748 0-32.122 14.449-31.999 32.225.06 8.747 7.252 15.775 15.999 15.775h240c8.837 0 16-7.163 16-16z" fill="#32283c"/></g><g><path d="m435.179 447.2c0-8.189-3.124-16.379-9.373-22.627l-54.627-54.627v-66.746c0-17.673-14.327-32-32-32s-32 14.327-32 32v80c0 8.487 3.371 16.626 9.373 22.627l41.373 41.373h-2.746c-17.673 0-32 14.327-32 32 0 8.837 7.163 16 16 16h80c8.837 0 16-7.163 16-16z" fill="#463c4b"/></g><g><path d="m267.179 175.2h-32c-8.837 0-16-7.163-16-16v-72c0-13.255 10.745-24 24-24h40v96c0 8.837-7.163 16-16 16z" fill="#fab991"/></g><g><path d="m303.179 268.533c-2.209 0-4 1.791-4 4v2.667c0 2.209-1.791 4-4 4s-4-1.791-4-4v-20-128h-71.567c-4.657 0-8.433 3.775-8.433 8.433v119.567c0 26.51 21.49 48 48 48h32c8.837 0 16-7.163 16-16v-14.667c0-2.209-1.79-4-4-4z" fill="#d7e6f0"/></g><g><path d="m237.846 47.2c25.037 0 45.333 20.296 45.333 45.333v66.667c0 17.673 14.327 32 32 32 0-17.673 14.327-32 32-32h8v-64c0-26.51-21.49-48-48-48z" fill="#5a5a6e"/></g><g><path d="m247.179 151.2h-16c-2.209 0-4-1.791-4-4 0-2.209 1.791-4 4-4h16c2.209 0 4 1.791 4 4 0 2.209-1.79 4-4 4z" fill="#aac3d7"/></g><g><path d="m371.179 31.2v16h-12c-2.209 0-4 1.791-4 4 0 6.627 5.373 12 12 12h4c0 8.837 7.163 16 16 16v16h32v-16-48z" fill="#f0915a"/></g><g><path d="m403.179 15.2h-32c-4.418 0-8 3.582-8 8s3.582 8 8 8h32v32c0 8.837 7.164 16 16 16v-48c0-8.837-7.163-16-16-16z" fill="#fab991"/></g><path d="m171.179 255.2h-24c-4.418 0-8 3.582-8 8h-12.687l-13.657-13.657c-3.124-3.125-8.189-3.125-11.313 0-3.125 3.124-3.125 8.189 0 11.313l16 16c1.5 1.5 3.535 2.343 5.657 2.343h56v-16c0-4.417-3.581-7.999-8-7.999z" fill="#fab991"/><g><path d="m123.179 479.2h-48c-8.837 0-16 7.163-16 16h80c0-8.837-7.163-16-16-16z" fill="#aa5a28"/></g><g><circle cx="147.179" cy="415.2" fill="#aa5a28" r="8"/></g><g><circle cx="67.179" cy="447.2" fill="#aa5a28" r="8"/></g><g><circle cx="139.179" cy="463.2" fill="#aa5a28" r="8"/></g><path d="m67.179 383.2v32c0 8.837 7.163 16 16 16v48h32v-96z" fill="#463c4b"/><g><path d="m67.179 367.2h32c8.837 0 16 7.163 16 16h-48c-4.418 0-8-3.582-8-8 0-4.418 3.582-8 8-8z" fill="#5a5a6e"/></g><g><path d="m107.179 399.2h-20c-2.209 0-4 1.791-4 4 0 6.627 5.373 12 12 12h4c0 8.837 7.164 16 16 16v-24c0-4.418-3.581-8-8-8z" fill="#5a5a6e"/></g></g></svg>