<svg id="Layer_1" enable-background="new 0 0 512 512" height="512" viewBox="0 0 512 512" width="512" xmlns="http://www.w3.org/2000/svg"><g><g><g><path d="m208.241 191.2h-16v-16c0-4.418 3.582-8 8-8 4.418 0 8 3.582 8 8z" fill="#6ea5d7"/></g><g><path d="m200.241 231.2c-4.418 0-8-3.582-8-8v-16h16v16c0 4.418-3.581 8-8 8z" fill="#6ea5d7"/></g><g><path d="m192.241 191.2v16h-16c-4.418 0-8-3.582-8-8 0-4.418 3.582-8 8-8z" fill="#6ea5d7"/></g><g><path d="m232.241 199.2c0 4.418-3.582 8-8 8h-16v-16h16c4.419 0 8 3.582 8 8z" fill="#6ea5d7"/></g></g><g><g><path d="m80.241 167.2h-16v-16c0-4.418 3.582-8 8-8 4.418 0 8 3.582 8 8z" fill="#6ea5d7"/></g><g><path d="m72.241 207.2c-4.418 0-8-3.582-8-8v-16h16v16c0 4.418-3.581 8-8 8z" fill="#6ea5d7"/></g><g><path d="m64.241 167.2v16h-16c-4.418 0-8-3.582-8-8 0-4.418 3.582-8 8-8z" fill="#6ea5d7"/></g><g><path d="m104.241 175.2c0 4.418-3.582 8-8 8h-16v-16h16c4.419 0 8 3.582 8 8z" fill="#6ea5d7"/></g></g><g><path d="m184.241 319.2h72v-80h-72c-4.418 0-8 3.582-8 8v64c0 4.418 3.582 8 8 8z" fill="#643773"/></g><g><path d="m384.241 319.2h-112c-8.837 0-16-7.163-16-16v-112c0-17.673 14.327-32 32-32h96z" fill="#784687"/></g><g><path d="m384.241 31.2v16h-12c-2.209 0-4 1.791-4 4 0 6.627 5.373 12 12 12h4c0 8.837 7.163 16 16 16v16h32v-16-48z" fill="#f0915a"/></g><g><path d="m416.241 15.2h-32c-4.418 0-8 3.582-8 8s3.582 8 8 8h32v32c0 8.837 7.164 16 16 16v-48c0-8.837-7.163-16-16-16z" fill="#fab991"/></g><g><path d="m456.241 95.2h-64c-4.418 0-8 3.582-8 8v56c-17.673 0-32 14.327-32 32s14.327 32 32 32h48c17.673 0 32-14.327 32-32v-88c0-4.418-3.582-8-8-8z" fill="#9b64aa"/></g><g><path d="m248.241 175.2h56c8.837 0 16-7.163 16-16v-72c0-13.255-10.745-24-24-24h-40c-13.255 0-24 10.745-24 24v72c0 8.837 7.164 16 16 16z" fill="#f0915a"/></g><g><path d="m280.241 175.2h-32c-8.837 0-16-7.163-16-16v-72c0-13.255 10.745-24 24-24h16c13.255 0 24 10.745 24 24v72c0 8.837-7.163 16-16 16z" fill="#fab991"/></g><g><path d="m448.241 447.2c0-8.189-3.124-16.379-9.373-22.627l-54.627-54.627v-50.746h-112c-8.837 0-16-7.163-16-16v18.746l-38.627 38.627c-6.002 6.001-9.373 14.141-9.373 22.627v64c-17.748 0-32.122 14.449-31.999 32.225.06 8.747 7.252 15.775 15.999 15.775h240c8.837 0 16-7.163 16-16z" fill="#643773"/></g><g><path d="m448.241 447.2c0-8.189-3.124-16.379-9.373-22.627l-54.627-54.627v-66.746c0-17.673-14.327-32-32-32s-32 14.327-32 32v80c0 8.487 3.371 16.626 9.373 22.627l41.373 41.373h-2.746c-17.673 0-32 14.327-32 32 0 8.837 7.163 16 16 16h80c8.837 0 16-7.163 16-16z" fill="#784687"/></g><g><path d="m280.176 95.2.066 32h-48c-4.418 0-8 3.582-8 8v120c0 26.51 21.49 48 48 48h24c8.837 0 16-7.163 16-16v-14.667c0-2.209-1.791-4-4-4s-4 1.791-4 4v2.667c0 2.209-1.791 4-4 4s-4-1.791-4-4v-116h24c8.837 0 16-7.163 16-16v-48z" fill="#d7e6f0"/></g><g><path d="m296.241 143.2c-4.418 0-8-3.582-8-8v-16c0-4.418 3.582-8 8-8 8.837 0 16 7.163 16 16 0 8.837-7.163 16-16 16z" fill="#f0915a"/></g><g><path d="m368.241 95.2h-168c-4.418 0-8-3.582-8-8s3.582-8 8-8h168c4.418 0 8 3.582 8 8s-3.581 8-8 8z" fill="#9b64aa"/></g><g><path d="m232.241 79.2c0-35.346 28.654-64 64-64h64c4.418 0 8 3.582 8 8 0 4.418-3.582 8-8 8-13.255 0-24 10.745-24 24v24z" fill="#643773"/></g><g><path d="m260.241 151.2h-16c-2.209 0-4-1.791-4-4 0-2.209 1.791-4 4-4h16c2.209 0 4 1.791 4 4 0 2.209-1.791 4-4 4z" fill="#aac3d7"/></g><path d="m160.241 247.2c0-8.837-7.163-16-16-16h-8v48h40v-32z" fill="#f0915a"/><g><path d="m128.241 127.2h16v368h-16z" fill="#aa5a28"/></g><g><path d="m125.575 231.2c13.255 0 24 10.745 24 24 0 13.255-10.745 24-24 24-4.418 0-8-3.582-8-8v-32c0-4.418 3.581-8 8-8z" fill="#fab991"/></g><g><circle cx="136.241" cy="127.2" fill="#647dbe" r="32"/></g><g><path d="m120.241 130.628c-1.894 0-3.429-1.535-3.429-3.428 0-10.713 8.716-19.428 19.429-19.428 1.894 0 3.429 1.535 3.429 3.428s-1.535 3.428-3.429 3.428c-6.932 0-12.571 5.64-12.571 12.572 0 1.894-1.535 3.428-3.429 3.428z" fill="#d7e6f0"/></g><g><g><path d="m176.241 47.2h-16v-16c0-4.418 3.582-8 8-8 4.418 0 8 3.582 8 8z" fill="#6ea5d7"/></g><g><path d="m168.241 87.2c-4.418 0-8-3.582-8-8v-16h16v16c0 4.418-3.581 8-8 8z" fill="#6ea5d7"/></g><g><path d="m160.241 47.2v16h-16c-4.418 0-8-3.582-8-8 0-4.418 3.582-8 8-8z" fill="#6ea5d7"/></g><g><path d="m200.241 55.2c0 4.418-3.582 8-8 8h-16v-16h16c4.419 0 8 3.582 8 8z" fill="#6ea5d7"/></g></g></g></svg>