<svg id="Layer_1" enable-background="new 0 0 512 512" height="512" viewBox="0 0 512 512" width="512" xmlns="http://www.w3.org/2000/svg"><g><g><g><path d="m217.594 192h-16v-16c0-4.418 3.582-8 8-8 4.418 0 8 3.582 8 8z" fill="#e6aafa"/></g><g><path d="m209.594 232c-4.418 0-8-3.582-8-8v-16h16v16c0 4.418-3.582 8-8 8z" fill="#e6aafa"/></g><g><path d="m201.594 192v16h-16c-4.418 0-8-3.582-8-8 0-4.418 3.582-8 8-8z" fill="#e6aafa"/></g><g><path d="m241.594 200c0 4.418-3.582 8-8 8h-16v-16h16c4.418 0 8 3.582 8 8z" fill="#e6aafa"/></g></g><g><g><path d="m89.594 168h-16v-16c0-4.418 3.582-8 8-8 4.418 0 8 3.582 8 8z" fill="#e6aafa"/></g><g><path d="m81.594 208c-4.418 0-8-3.582-8-8v-16h16v16c0 4.418-3.582 8-8 8z" fill="#e6aafa"/></g><g><path d="m73.594 168v16h-16c-4.418 0-8-3.582-8-8 0-4.418 3.582-8 8-8z" fill="#e6aafa"/></g><g><path d="m113.594 176c0 4.418-3.582 8-8 8h-16v-16h16c4.418 0 8 3.582 8 8z" fill="#e6aafa"/></g></g><g><path d="m169.594 248c0-8.836-7.164-16-16-16h-8v48h40v-32z" fill="#f0915a"/></g><g><path d="m137.594 128h16v368h-16z" fill="#aa5a28"/></g><g><path d="m134.927 232c13.255 0 24 10.745 24 24 0 13.255-10.745 24-24 24-4.418 0-8-3.582-8-8v-32c0-4.418 3.582-8 8-8z" fill="#fab991"/></g><g><circle cx="145.594" cy="128" fill="#9b5faa" r="32"/></g><g><path d="m129.594 131.429c-1.894 0-3.429-1.535-3.429-3.429 0-10.713 8.716-19.429 19.429-19.429 1.894 0 3.429 1.535 3.429 3.429s-1.535 3.429-3.429 3.429c-6.932 0-12.571 5.639-12.571 12.571-.001 1.894-1.536 3.429-3.429 3.429z" fill="#d7e6f0"/></g><g><g><path d="m185.594 48h-16v-16c0-4.418 3.582-8 8-8 4.418 0 8 3.582 8 8z" fill="#e6aafa"/></g><g><path d="m177.594 88c-4.418 0-8-3.582-8-8v-16h16v16c0 4.418-3.582 8-8 8z" fill="#e6aafa"/></g><g><path d="m169.594 48v16h-16c-4.418 0-8-3.582-8-8 0-4.418 3.582-8 8-8z" fill="#e6aafa"/></g><g><path d="m209.594 56c0 4.418-3.582 8-8 8h-16v-16h16c4.418 0 8 3.582 8 8z" fill="#e6aafa"/></g></g><g><path d="m257.594 208h-24c-4.418 0-8-3.582-8-8v-56h32z" fill="#96461e"/></g><g><path d="m193.594 320h56v-80h-56c-4.418 0-8 3.582-8 8v64c0 4.418 3.581 8 8 8z" fill="#323232"/></g><g><path d="m441.593 448c0-8.189-3.124-16.379-9.373-22.627l-54.627-54.627v-66.746h-128v18.746l-38.627 38.627c-6.002 6.001-9.373 14.141-9.373 22.627v64c-17.673 0-32 14.327-32 32 0 8.836 7.164 16 16 16h240c8.836 0 16-7.164 16-16z" fill="#323232"/></g><g><path d="m441.593 448c0-8.189-3.124-16.379-9.373-22.627l-54.627-54.627v-66.746c0-17.673-14.327-32-32-32s-32 14.327-32 32v80c0 8.487 3.371 16.626 9.373 22.627l41.373 41.373h-2.746c-17.673 0-32 14.327-32 32 0 8.836 7.164 16 16 16h80c8.836 0 16-7.164 16-16z" fill="#464646"/></g><g><path d="m377.594 320h-112c-8.837 0-16-7.163-16-16v-112c0-17.673 14.327-32 32-32h96z" fill="#323232"/></g><g><path d="m449.594 96h-64c-4.418 0-8 3.582-8 8v56c-17.673 0-32 14.327-32 32s14.327 32 32 32h48c17.673 0 32-14.327 32-32v-88c0-4.418-3.582-8-8-8z" fill="#464646"/></g><g><path d="m377.594 32v16h-12c-2.209 0-4 1.791-4 4 0 6.627 5.373 12 12 12h4c0 8.836 7.164 16 16 16v16h32v-64z" fill="#f0915a"/></g><g><path d="m409.594 16h-32c-4.418 0-8 3.582-8 8s3.582 8 8 8h32v32c0 8.837 7.164 16 16 16v-48c0-8.837-7.164-16-16-16z" fill="#fab991"/></g><g><path d="m281.594 176h-48c-8.837 0-16-7.163-16-16v-72c0-13.255 10.745-24 24-24h16c13.255 0 24 10.745 24 24z" fill="#fab991"/></g><g><path d="m321.594 96c0-26.51-21.49-48-48-48h-24c-17.673 0-32 14.327-32 32v7.95c0-4.393 3.557-7.957 7.95-7.966l39.933.016c4.456.006 8.068 3.615 8.077 8.072l.022 15.823c.01 4.474-3.615 8.105-8.088 8.105l.105 16h8v72c0 4.418 3.582 8 8 8h16c4.418 0 8-3.582 8-8v-40h16v-64z" fill="#aa5a28"/></g><g><path d="m281.594 144c-4.418 0-8-3.582-8-8v-16c0-4.418 3.582-8 8-8 8.837 0 16 7.163 16 16 0 8.837-7.164 16-16 16z" fill="#f0915a"/></g><g><path d="m265.594 128c0 4.418-3.582 8-8 8h-40v24c0 8.837 7.163 16 16 16h40v-48z" fill="#d76e28"/></g><g><path d="m245.594 152h-16c-2.209 0-4-1.791-4-4 0-2.209 1.791-4 4-4h16c2.209 0 4 1.791 4 4 0 2.209-1.791 4-4 4z" fill="#fab991"/></g><g><circle cx="297.594" cy="248" fill="#646464" r="8"/></g><g><circle cx="297.594" cy="288" fill="#646464" r="8"/></g></g></svg>