<?xml version="1.0" encoding="iso-8859-1"?>
<!-- Generator: Adobe Illustrator 19.0.0, SVG Export Plug-In . SVG Version: 6.00 Build 0)  -->
<svg version="1.1" id="Capa_1" xmlns="http://www.w3.org/2000/svg" xmlns:xlink="http://www.w3.org/1999/xlink" x="0px" y="0px"
	 viewBox="0 0 511.998 511.998" style="enable-background:new 0 0 511.998 511.998;" xml:space="preserve">
<g>
	<g>
		<path d="M486.481,98.961c15.013-6.659,25.517-21.697,25.517-39.151c0-23.608-19.207-42.814-42.814-42.814H42.814
			C19.207,16.997,0,36.202,0,59.81c0,17.454,10.503,32.492,25.517,39.151C8.773,133.559,0,171.706,0,210.484
			c0,60.778,21.053,118.311,59.682,164.306L12.54,421.931c-16.693,16.693-16.693,43.855,0,60.549
			c8.347,8.347,19.311,12.521,30.274,12.521c10.963,0,21.928-4.174,30.274-12.521l51.929-51.929
			c39.2,23.425,84.129,35.931,130.981,35.931c46.852,0,91.781-12.506,130.981-35.931l51.929,51.929
			c8.347,8.347,19.311,12.521,30.274,12.521c10.963,0,21.928-4.174,30.275-12.521c16.692-16.693,16.692-43.855,0-60.549
			l-47.142-47.142c38.629-45.995,59.682-103.529,59.682-164.306C511.998,171.705,503.225,133.559,486.481,98.961z M42.814,46.997
			h426.369c7.066,0,12.814,5.749,12.814,12.814s-5.749,12.814-12.814,12.814H42.814C35.749,72.624,30,66.875,30,59.81
			S35.749,46.997,42.814,46.997z M51.876,461.267c-4.997,4.996-13.126,4.996-18.123,0c-4.996-4.997-4.996-13.126,0-18.123
			l46.515-46.515c6.269,5.927,12.789,11.5,19.532,16.714L51.876,461.267z M478.243,443.145c4.998,4.996,4.998,13.126,0.001,18.123
			c-2.42,2.42-5.638,3.753-9.061,3.753c-3.423,0-6.641-1.333-9.062-3.753l-47.923-47.924c6.743-5.214,13.262-10.787,19.531-16.714
			L478.243,443.145z M255.999,436.482C131.383,436.482,30,335.099,30,210.484c0-37.798,9.438-74.905,27.355-107.858h397.288
			c17.917,32.954,27.355,70.06,27.355,107.858C481.998,335.099,380.615,436.482,255.999,436.482z"/>
	</g>
</g>
<g>
</g>
<g>
</g>
<g>
</g>
<g>
</g>
<g>
</g>
<g>
</g>
<g>
</g>
<g>
</g>
<g>
</g>
<g>
</g>
<g>
</g>
<g>
</g>
<g>
</g>
<g>
</g>
<g>
</g>
</svg>
