<?xml version="1.0" encoding="iso-8859-1"?>
<!-- Generator: Adobe Illustrator 19.0.0, SVG Export Plug-In . SVG Version: 6.00 Build 0)  -->
<svg version="1.1" id="Capa_1" xmlns="http://www.w3.org/2000/svg" xmlns:xlink="http://www.w3.org/1999/xlink" x="0px" y="0px"
	 viewBox="0 0 476 476" style="enable-background:new 0 0 476 476;" xml:space="preserve">
<g>
	<g>
		<path d="M349.181,229.723c14.508-26.909,22.339-76.096,22.339-108.713C371.52,53.154,340.988,0,302.01,0h-128
			c-38.989,0-69.53,53.145-69.53,120.99c0,32.561,7.806,81.658,22.272,108.518c1.529,2.831,1.614,6.222,0.229,9.127
			c-8.308,17.53-12.644,36.677-12.7,56.075c0,24.181,6.553,63.712,14.919,90c1.296,4.073,2.063,8.295,2.283,12.563l3.571,69.244
			c0.275,5.315,4.664,9.483,9.986,9.483h57c5.323,0,9.713-4.169,9.987-9.485l3.527-68.4c0.253-4.696,1.158-9.334,2.688-13.781
			c8.444-24.726,15.058-64.039,15.058-89.5c0.013-18.41-3.794-36.623-11.178-53.487c-2.231-5.042-2.652-10.699-1.192-16.015
			c3.221-11.394,6.11-28.394,8.659-43.392c1.666-9.8,3.24-19.064,4.6-24.918c0.49-2.101,2.59-3.408,4.692-2.918
			c1.449,0.338,2.58,1.469,2.918,2.918c1.356,5.847,2.926,15.1,4.587,24.89c2.537,14.953,5.413,31.9,8.619,43.286
			c1.464,5.39,1.011,11.122-1.283,16.215c-7.503,16.77-11.401,34.928-11.441,53.3c0,24.181,6.553,63.712,14.919,90
			c1.296,4.073,2.063,8.295,2.283,12.563l3.571,69.244c0.277,5.313,4.665,9.48,9.986,9.48h57c5.323,0,9.713-4.169,9.987-9.485
			l3.527-68.373c0.253-4.697,1.158-9.335,2.688-13.783c8.444-24.722,15.058-64.021,15.058-89.469
			c0.009-19.415-4.23-38.597-12.419-56.2C347.571,235.819,347.682,232.5,349.181,229.723z M331.573,220.233L331.573,220.233
			c-4.47,8.323-4.784,18.26-0.847,26.849c2.884,6.235,5.206,12.715,6.938,19.363l-31.692,67.294
			c-2.388,4.98-0.287,10.953,4.693,13.341c4.98,2.388,10.953,0.287,13.341-4.693c0.02-0.042,0.04-0.084,0.059-0.126l16.8-35.672
			c-1.546,22.692-7.034,52.231-13.55,71.307c-2.129,6.201-3.385,12.669-3.734,19.216L320.542,456h-38l-3.082-59.758
			c-0.309-5.979-1.384-11.895-3.2-17.6c-7.707-24.215-13.977-61.867-13.977-83.932c-0.002-15.593,3.317-31.008,9.736-45.219
			c4.169-9.346,4.961-19.851,2.239-29.717c-2.917-10.36-5.7-26.75-8.151-41.211c-1.713-10.1-3.332-19.632-4.822-26.062
			c-2.987-12.862-15.835-20.867-28.696-17.88c-8.88,2.062-15.814,8.994-17.879,17.873c-1.5,6.438-3.117,15.984-4.835,26.09
			c-2.465,14.5-5.259,30.941-8.188,41.3c-2.713,9.764-1.972,20.165,2.1,29.445c6.283,14.346,9.523,29.839,9.513,45.5
			c0,23.206-6.274,60.457-13.985,83.037c-2.129,6.201-3.386,12.668-3.734,19.215L192.542,456h-38l-3.082-59.758
			c-0.309-5.979-1.384-11.895-3.2-17.6c-6.546-20.567-12.052-50.821-13.564-72.991l17.242,36.61
			c2.319,5.012,8.262,7.196,13.275,4.877c5.012-2.319,7.196-8.262,4.877-13.275c-0.019-0.041-0.039-0.083-0.058-0.124l-31.9-67.746
			c1.787-6.487,4.123-12.81,6.982-18.9c4.021-8.639,3.745-18.666-0.745-27.07c-11.148-20.7-19.88-64.2-19.88-99.033
			c0-27.939,5.773-54.1,16.257-73.674C150.037,29.956,162.165,20,174.01,20h128c11.842,0,23.965,9.96,33.261,27.327
			C345.75,66.9,351.52,93.07,351.52,121.01C351.52,155.908,342.758,199.491,331.573,220.233z"/>
	</g>
</g>
<g>
</g>
<g>
</g>
<g>
</g>
<g>
</g>
<g>
</g>
<g>
</g>
<g>
</g>
<g>
</g>
<g>
</g>
<g>
</g>
<g>
</g>
<g>
</g>
<g>
</g>
<g>
</g>
<g>
</g>
</svg>
