<svg id="Icons" height="512" viewBox="0 0 74 74" width="512" xmlns="http://www.w3.org/2000/svg"><path d="m37 72a1 1 0 0 1 -.422-.093c-17.393-8.096-27.778-22.054-27.778-37.337v-21.11a1 1 0 0 1 .327-.74.992.992 0 0 1 .769-.256c10.991 1.054 19.612-2.255 26.344-10.114a1 1 0 0 1 .76-.35 1 1 0 0 1 .76.352c6.586 7.733 15.213 11.048 26.357 10.111a1 1 0 0 1 1.083 1v21.107a29.339 29.339 0 0 1 -.144 3 33.031 33.031 0 0 1 -1.475 7.2 31.017 31.017 0 0 1 -1.132 3.056 38.379 38.379 0 0 1 -4.011 7.183c-.2.3-.434.62-.669.939a53.361 53.361 0 0 1 -20.347 15.959 1 1 0 0 1 -.422.093zm-26.2-57.453v20.023c0 14.362 9.785 27.539 26.2 35.33a51.137 51.137 0 0 0 19.149-15.119c.226-.3.44-.592.635-.889a36.4 36.4 0 0 0 3.824-6.841 29.481 29.481 0 0 0 1.067-2.877 31.048 31.048 0 0 0 1.389-6.793 26.935 26.935 0 0 0 .136-2.811v-20.035c-10.9.665-19.493-2.625-26.2-10.022-6.842 7.516-15.433 10.806-26.2 10.034z"/><path d="m58.031 38.47a.884.884 0 0 1 -.125-.008 1 1 0 0 1 -.868-1.116 22.223 22.223 0 0 0 .162-2.776 1 1 0 0 1 2-.01v.01a24.073 24.073 0 0 1 -.178 3.024 1 1 0 0 1 -.991.876z"/><path d="m54.929 48.44a1 1 0 0 1 -.884-1.466 27.324 27.324 0 0 0 1.312-2.864 1 1 0 1 1 1.866.72 29.149 29.149 0 0 1 -1.409 3.076 1 1 0 0 1 -.885.534z"/><path d="m37 65.31a1.01 1.01 0 0 1 -.466-.115c-13.609-7.167-21.734-18.616-21.734-30.625v-14.96a1 1 0 0 1 .952-1 33.729 33.729 0 0 0 20.6-7.936 1 1 0 0 1 1.288 0 34.181 34.181 0 0 0 20.611 7.878 1 1 0 0 1 .946 1v8.01a1 1 0 1 1 -2 0v-7.075a36.02 36.02 0 0 1 -20.197-7.753 35.561 35.561 0 0 1 -20.2 7.818v14.018c0 11.285 7.354 21.688 20.2 28.607a45.135 45.135 0 0 0 12.247-9.406 1 1 0 1 1 1.486 1.338 47.372 47.372 0 0 1 -13.267 10.086 1.01 1.01 0 0 1 -.466.115z"/></svg>