<svg height="512" viewBox="0 0 64 64" width="512" xmlns="http://www.w3.org/2000/svg"><path d="m5 9v48a5.006 5.006 0 0 0 5 5h48a1 1 0 0 0 1-1v-58a1 1 0 0 0 -1-1h-46a7.008 7.008 0 0 0 -7 7zm2 38a1.883 1.883 0 0 1 2-2v-2a4.08 4.08 0 0 0 -2 .487v-1.487a1.883 1.883 0 0 1 2-2v-2a4.08 4.08 0 0 0 -2 .487v-22.487a1.883 1.883 0 0 1 2-2v-2a4.08 4.08 0 0 0 -2 .487v-3.487a5.009 5.009 0 0 1 4-4.9v47.9h-1a4.948 4.948 0 0 0 -3 1.026zm50 13h-47a3 3 0 0 1 0-6h4v2h-5v2h5v1a1 1 0 0 0 1.447.9l3.553-1.782 3.553 1.782a1 1 0 0 0 1.447-.9v-1h33zm-41-2.618v-3.382h6v3.382l-2.553-1.277a1 1 0 0 0 -.894 0zm41-1.382h-33v-2h33zm-44-52h44v48h-44z"/><path d="m17 8h4v-2h-6v6h2z"/><path d="m21 48h-4v-4h-2v6h6z"/><path d="m53 12h2v-6h-6v2h4z"/><path d="m53 48h-4v2h6v-6h-2z"/><path d="m50 44a3 3 0 0 1 3-3 1 1 0 0 0 0-2 3 3 0 0 1 -3-3 1 1 0 0 0 -2 0 3 3 0 0 1 -3 3 1 1 0 0 0 0 2 3 3 0 0 1 3 3 1 1 0 0 0 2 0zm-2.031-4a4.988 4.988 0 0 0 1.031-1.031 4.988 4.988 0 0 0 1.031 1.031 4.988 4.988 0 0 0 -1.031 1.031 4.988 4.988 0 0 0 -1.031-1.031z"/><path d="m16 40a3 3 0 0 1 3 3 1 1 0 0 0 2 0 3 3 0 0 1 3-3 1 1 0 0 0 0-2 3 3 0 0 1 -3-3 1 1 0 0 0 -2 0 3 3 0 0 1 -3 3 1 1 0 0 0 0 2zm4-2.031a4.988 4.988 0 0 0 1.031 1.031 4.988 4.988 0 0 0 -1.031 1.031 4.988 4.988 0 0 0 -1.031-1.031 4.988 4.988 0 0 0 1.031-1.031z"/><path d="m40 12a3 3 0 0 1 3 3 1 1 0 0 0 2 0 3 3 0 0 1 3-3 1 1 0 0 0 0-2 3 3 0 0 1 -3-3 1 1 0 0 0 -2 0 3 3 0 0 1 -3 3 1 1 0 0 0 0 2zm4-2.031a4.988 4.988 0 0 0 1.031 1.031 4.988 4.988 0 0 0 -1.031 1.031 4.988 4.988 0 0 0 -1.031-1.031 4.988 4.988 0 0 0 1.031-1.031z"/><path d="m19 16a3 3 0 1 0 3-3 3 3 0 0 0 -3 3zm3-1a1 1 0 1 1 -1 1 1 1 0 0 1 1-1z"/><path d="m34 44a3 3 0 1 0 3 3 3 3 0 0 0 -3-3zm0 4a1 1 0 1 1 1-1 1 1 0 0 1 -1 1z"/><path d="m52 21a3 3 0 1 0 3 3 3 3 0 0 0 -3-3zm0 4a1 1 0 1 1 1-1 1 1 0 0 1 -1 1z"/><path d="m30 11h2v2h-2z"/><path d="m47 17h2v2h-2z"/><path d="m52 33h2v2h-2z"/><path d="m22 45h2v2h-2z"/><path d="m40 48h2v2h-2z"/><path d="m18 24h2v2h-2z"/><path d="m24.93 24.589-1.614-.538-.632 1.9 1.617.539a10.632 10.632 0 0 0 0 5.024l-1.617.539.632 1.9 1.614-.538a11.061 11.061 0 0 0 4.539 5.082l-1.3 1.952 1.664 1.11 1.467-2.212a10.786 10.786 0 0 0 7.392 0l1.472 2.208 1.664-1.11-1.3-1.952a11.04 11.04 0 0 0 4.879-5.969l1.274.425.632-1.9-1.441-.48a10.57 10.57 0 0 0 -.429-5l1.87-.623-.632-1.9-2.033.678a11.078 11.078 0 0 0 -4.12-4.222l1.3-1.952-1.664-1.11-1.464 2.213a10.786 10.786 0 0 0 -7.392 0l-1.472-2.208-1.664 1.11 1.3 1.952a11.061 11.061 0 0 0 -4.542 5.082zm3.852 7.611a8.242 8.242 0 0 1 -2.639-3.067 16.58 16.58 0 0 1 2.214-2.329 6.936 6.936 0 0 0 .425 5.4zm6.218 5.8a8.993 8.993 0 0 1 -7.739-4.43 12.151 12.151 0 0 0 7.739 2.43 12.151 12.151 0 0 0 7.739-2.43 8.993 8.993 0 0 1 -7.739 4.43zm-3-11a3 3 0 1 0 3.6-2.939 5 5 0 1 1 -1.208 0 3.005 3.005 0 0 0 -2.392 2.939zm3-1a1 1 0 1 1 -1 1 1 1 0 0 1 1-1zm6.229 6.178a6.929 6.929 0 0 0 .414-5.372 16.5 16.5 0 0 1 2.212 2.327 8.388 8.388 0 0 1 -2.626 3.045zm-6.229-12.178a9.01 9.01 0 0 1 8.337 5.623 12.891 12.891 0 0 0 -7.561-3.577 6.568 6.568 0 0 0 -1.552 0 12.891 12.891 0 0 0 -7.561 3.577 9.01 9.01 0 0 1 8.337-5.623z"/></svg>