<svg id="Layer_1" enable-background="new 0 0 511.993 511.993" height="512" viewBox="0 0 511.993 511.993" width="512" xmlns="http://www.w3.org/2000/svg"><g><path d="m509.787 2.396c-5.267-5.265-20.893-.361-27.102.653-20.929 3.416-40.202 12.096-55.332 27.219l-15.109 15.101c-8.813 8.809 4.604 13.95 11.816 9.398 5.127-3.236 9.581-9.575 13.897-13.889 16.136-16.13 35.965-21.523 57.79-24.442-2.924 21.838-8.273 41.588-24.45 57.758l-282.641 282.482c-11.108-11.111-22.216-22.221-33.324-33.332l239.924-239.79c6.638-6.635-3.664-17.547-10.604-10.609l-239.926 239.792-4.075-4.076c.262-9.843-3.471-19.273-10.535-26.334-14.038-14.033-36.879-14.031-50.918 0-6.801 6.798-10.547 15.838-10.547 25.453-.001 19.888 16.994 36.476 36.889 35.981l13.802 13.795-68.309 68.28c-15.057.929-32.455 8.375-42.491 18.406-10.411 10.406-9.417 20.624-6.751 27.363 3.102 7.839 9.958 15.09 16.716 21.845 7.512 7.508 18.55 18.543 31.058 18.542 5.434 0 11.147-2.084 16.967-7.445 6.903-6.359-2.946-17.682-10.163-11.033-6.473 5.962-11.32 5.257-27.258-10.674-5.397-5.395-11.327-11.583-13.373-16.754-1.074-2.715-1.785-6.046 3.407-11.236 7.291-7.289 20.866-13.096 32.115-13.982l19.849 19.84c-.172 2.195-.519 4.501-1.068 6.905-2.089 9.15 12.439 12.904 14.624 3.339.787-3.447 1.282-6.803 1.477-10.018l68.311-68.282 13.805 13.799c-.261 9.843 3.471 19.272 10.535 26.333 14.038 14.031 36.88 14.031 50.918-.001 6.801-6.798 10.547-15.838 10.547-25.452 0-19.872-17.003-36.526-36.911-35.96l-4.087-4.088 282.64-282.482c21.253-21.243 26.219-47.751 30.016-76.107.311-2.316-.477-4.644-2.129-6.298zm-380.588 394.294-13.895-13.889 14.621-14.614 13.895 13.889c-.001 0-12.242 12.236-14.621 14.614zm-25.23 25.219-13.894-13.889 14.62-14.614 13.895 13.889zm-17.985 17.977-7.244 7.241-13.895-13.888 14.62-14.614 13.895 13.889zm115.479-53.337c12.385-1.632 23.796 8.197 23.796 20.783 0 5.607-2.185 10.879-6.152 14.844-8.19 8.187-21.519 8.188-29.709 0-4.653-4.651-6.826-11.069-5.963-17.609.305-2.313-.483-4.636-2.133-6.286l-67.594-67.565c-1.649-1.648-3.967-2.438-6.283-2.131-12.374 1.627-23.774-8.249-23.774-20.806 0-5.607 2.185-10.879 6.151-14.844 8.192-8.188 21.519-8.187 29.709 0 4.653 4.651 6.827 11.069 5.963 17.609-.305 2.312.482 4.635 2.132 6.284l11.812 11.814.002.002 43.93 43.94.003.003 11.826 11.828c1.649 1.651 3.974 2.44 6.284 2.134z"/><path d="m203.047 308.985c3.535 2.93 7.071 2.93 10.607.002l230.975-230.877c6.638-6.635-3.664-17.546-10.604-10.608l-230.976 230.876c-2.929 2.929-2.93 7.677-.002 10.607z"/><path d="m203.798 414.91c9.652 0 9.668-15 0-15-9.652 0-9.668 15 0 15z"/><path d="m104.372 300.527c-9.652 0-9.668 15 0 15 9.651 0 9.667-15 0-15z"/></g></svg>