<svg height="512pt" viewBox="0 0 512 512" width="512pt" xmlns="http://www.w3.org/2000/svg"><path d="m436 480c6.640625 0 12 5.359375 12 12s-5.359375 12-12 12h-360c-6.640625 0-12-5.359375-12-12s5.359375-12 12-12zm0 0" fill="#ffce54"/><path d="m400 452c0 6.628906-5.371094 12-12 12s-12-5.371094-12-12 5.371094-12 12-12 12 5.371094 12 12zm0 0" fill="#5d9cec"/><path d="m344 452c0 6.628906-5.371094 12-12 12s-12-5.371094-12-12 5.371094-12 12-12 12 5.371094 12 12zm0 0" fill="#5d9cec"/><path d="m136 452c0 6.628906-5.371094 12-12 12s-12-5.371094-12-12 5.371094-12 12-12 12 5.371094 12 12zm0 0" fill="#5d9cec"/><path d="m192 452c0 6.628906-5.371094 12-12 12s-12-5.371094-12-12 5.371094-12 12-12 12 5.371094 12 12zm0 0" fill="#5d9cec"/><path d="m280 446.40625v11.195312l-16 22.398438h-16l-16-22.398438v-11.195312l16-22.40625h16zm0 0" fill="#ed5565"/><path d="m248 424-16 22.40625v11.195312l16 22.398438h-168v-56zm-56 28c0-6.640625-5.359375-12-12-12s-12 5.359375-12 12 5.359375 12 12 12 12-5.359375 12-12zm-56 0c0-6.640625-5.359375-12-12-12s-12 5.359375-12 12 5.359375 12 12 12 12-5.359375 12-12zm0 0" fill="#f6bb42"/><path d="m432 424v56h-168l16-22.398438v-11.195312l-16-22.40625zm-32 28c0-6.640625-5.359375-12-12-12s-12 5.359375-12 12 5.359375 12 12 12 12-5.359375 12-12zm-56 0c0-6.640625-5.359375-12-12-12s-12 5.359375-12 12 5.359375 12 12 12 12-5.359375 12-12zm0 0" fill="#f6bb42"/><path d="m400 424h32v56h-32zm0 0" fill="#edab37"/><path d="m436 400c6.640625 0 12 5.359375 12 12s-5.359375 12-12 12h-360c-6.640625 0-12-5.359375-12-12s5.359375-12 12-12zm0 0" fill="#ffce54"/><g fill="#f6bb42"><path d="m436 400h-32c6.640625 0 12 5.359375 12 12s-5.359375 12-12 12h32c6.640625 0 12-5.359375 12-12s-5.359375-12-12-12zm0 0"/><path d="m436 480h-32c6.640625 0 12 5.359375 12 12s-5.359375 12-12 12h32c6.640625 0 12-5.359375 12-12s-5.359375-12-12-12zm0 0"/><path d="m400 400h-96l-.078125-.078125.078125-.082031 48-47.839844zm0 0"/><path d="m232 375.921875 24-23.921875 48 48h-96l-.078125-.078125.078125-.082031zm0 0"/><path d="m208 400h-96s0 0-.078125-.078125l.078125-.082031 48-47.839844zm0 0"/></g><path d="m472 216c0 40-72 184-72 184l-48-48-48 47.839844-.078125.082031-23.921875-23.921875v-231.359375c8.960938.398437 19.921875 1.039063 32 2.078125h.078125c64 5.359375 159.921875 21.359375 159.921875 69.28125zm0 0" fill="#ed5565"/><path d="m312.078125 146.71875h-.078125c-12.078125-1.039062-23.039062-1.679688-32-2.078125v2.078125h.078125c64 5.359375 159.921875 21.359375 159.921875 69.28125 0 30.398438-41.550781 120.800781-61.519531 162.488281l21.519531 21.511719s72-144 72-184c0-47.921875-95.921875-63.921875-159.921875-69.28125zm0 0" fill="#da4453"/><path d="m256 40c17.679688 0 32 14.320312 32 32 0 11.839844-6.398438 22.160156-16 27.679688-4.71875 2.71875-10.160156 4.320312-16 4.320312s-11.28125-1.601562-16-4.320312c-9.601562-5.519532-16-15.839844-16-27.679688 0-17.679688 14.320312-32 32-32zm0 0" fill="#ffce54"/><path d="m280 144.640625v231.359375l-24-24-24 23.921875v-247.921875h48zm0 0" fill="#ffce54"/><path d="m272 99.761719v28.238281h-32v-28.320312c4.71875 2.71875 10.160156 4.320312 16 4.320312s11.28125-1.601562 16-4.320312zm0 0" fill="#f6bb42"/><path d="m232 144.640625v231.28125l-24 23.917969-.078125.082031-47.921875-47.921875-48 47.839844-.078125.082031c-2.160156-4.402344-71.921875-144.5625-71.921875-183.921875 0-47.921875 95.921875-63.921875 159.921875-69.28125h.078125c12.078125-1.039062 23.039062-1.679688 32-2.078125zm0 0" fill="#ed5565"/><path d="m264 488h-16c-2.585938 0-5.007812-1.246094-6.503906-3.351562l-16-22.410157c-.976563-1.359375-1.496094-2.980469-1.496094-4.644531v-11.1875c0-1.664062.519531-3.285156 1.496094-4.644531l16-22.410157c1.496094-2.105468 3.917968-3.351562 6.503906-3.351562h16c2.585938 0 5.007812 1.246094 6.503906 3.351562l16 22.410157c.976563 1.359375 1.496094 2.980469 1.496094 4.644531v11.1875c0 1.664062-.519531 3.285156-1.496094 4.644531l-16 22.410157c-1.496094 2.105468-3.917968 3.351562-6.503906 3.351562zm-11.878906-16h7.765625l12.113281-16.96875v-6.0625l-12.121094-16.96875h-7.765625l-12.113281 16.96875v6.0625zm0 0"/><path d="m472 224c-4.425781 0-8-3.585938-8-8 0-40.792969-95.230469-59.480469-184.359375-63.367188-4.417969-.191406-7.832031-3.929687-7.640625-8.335937.191406-4.410156 3.785156-7.695313 8.34375-7.648437 74.558594 3.246093 199.65625 17.878906 199.65625 79.351562 0 4.414062-3.574219 8-8 8zm0 0"/><path d="m399.992188 408c-1.199219 0-2.425782-.273438-3.566407-.839844-3.953125-1.976562-5.554687-6.785156-3.578125-10.734375 19.785156-39.59375 71.152344-149.167969 71.152344-180.425781 0-4.414062 3.574219-8 8-8s8 3.585938 8 8c0 41.414062-69.863281 181.632812-72.839844 187.574219-1.40625 2.808593-4.230468 4.425781-7.167968 4.425781zm0 0"/><path d="m40 224c-4.425781 0-8-3.585938-8-8 0-61.472656 125.089844-76.105469 199.648438-79.351562 4.75-.0625 8.152343 3.230468 8.34375 7.648437.191406 4.414063-3.222657 8.152344-7.640626 8.335937-89.128906 3.878907-184.351562 22.566407-184.351562 63.367188 0 4.414062-3.574219 8-8 8zm0 0"/><path d="m112.007812 408c-2.9375 0-5.761718-1.617188-7.167968-4.425781-2.976563-5.941407-72.839844-146.160157-72.839844-187.574219 0-4.414062 3.574219-8 8-8s8 3.585938 8 8c0 31.265625 51.367188 140.832031 71.160156 180.425781 1.976563 3.949219.375 8.757813-3.574218 10.734375-1.152344.566406-2.378907.839844-3.578126.839844zm0 0"/><path d="m80.007812 408c-2.960937 0-5.816406-1.648438-7.191406-4.496094l-4.183594-8.542968c-33.207031-67.792969-68.632812-143.113282-68.632812-178.960938 0-33.273438 14.367188-59.664062 41.535156-76.304688 46.183594-28.289062 118.679688-22.296874 162.097656-.152343 3.933594 2 5.503907 6.824219 3.496094 10.761719-2.007812 3.925781-6.824218 5.496093-10.761718 3.496093-38.640626-19.695312-105.625-25.488281-146.472657-.464843-22.488281 13.785156-33.894531 34.863281-33.894531 62.664062 0 35.144531 45.246094 127.527344 67 171.929688l4.183594 8.558593c1.9375 3.96875.289062 8.757813-3.679688 10.695313-1.121094.558594-2.320312.816406-3.496094.816406zm0 0"/><path d="m431.992188 408c-1.175782 0-2.375-.257812-3.503907-.816406-3.976562-1.9375-5.617187-6.726563-3.679687-10.695313l4.136718-8.449219c21.765626-44.421874 67.054688-136.863281 67.054688-172.039062 0-27.808594-11.40625-48.886719-33.902344-62.664062-40.839844-25.015626-107.824218-19.246094-146.464844.464843-3.953124 2-8.761718.429688-10.761718-3.488281-2.007813-3.9375-.445313-8.753906 3.496094-10.761719 43.410156-22.160156 115.914062-28.144531 162.089843.144531 27.175781 16.640626 41.542969 43.023438 41.542969 76.304688 0 35.878906-35.457031 111.257812-68.6875 179.089844l-4.128906 8.421875c-1.375 2.839843-4.230469 4.488281-7.191406 4.488281zm0 0"/><path d="m76 432c-11.03125 0-20-8.96875-20-20s8.96875-20 20-20c4.425781 0 8 3.574219 8 8s-3.574219 8-8 8c-2.199219 0-4 1.800781-4 4s1.800781 4 4 4c4.425781 0 8 3.574219 8 8s-3.574219 8-8 8zm0 0"/><path d="m436 432c-4.425781 0-8-3.574219-8-8s3.574219-8 8-8c2.199219 0 4-1.800781 4-4s-1.800781-4-4-4c-4.425781 0-8-3.574219-8-8s3.574219-8 8-8c11.03125 0 20 8.96875 20 20s-8.96875 20-20 20zm0 0"/><path d="m436 408h-360c-4.425781 0-8-3.574219-8-8s3.574219-8 8-8h360c4.425781 0 8 3.574219 8 8s-3.574219 8-8 8zm0 0"/><path d="m436 432h-360c-4.425781 0-8-3.574219-8-8s3.574219-8 8-8h360c4.425781 0 8 3.574219 8 8s-3.574219 8-8 8zm0 0"/><path d="m76 512c-11.03125 0-20-8.96875-20-20s8.96875-20 20-20c4.425781 0 8 3.574219 8 8s-3.574219 8-8 8c-2.199219 0-4 1.800781-4 4s1.800781 4 4 4c4.425781 0 8 3.574219 8 8s-3.574219 8-8 8zm0 0"/><path d="m436 512c-4.425781 0-8-3.574219-8-8s3.574219-8 8-8c2.199219 0 4-1.800781 4-4s-1.800781-4-4-4c-4.425781 0-8-3.574219-8-8s3.574219-8 8-8c11.03125 0 20 8.96875 20 20s-8.96875 20-20 20zm0 0"/><path d="m436 488h-360c-4.425781 0-8-3.574219-8-8s3.574219-8 8-8h360c4.425781 0 8 3.574219 8 8s-3.574219 8-8 8zm0 0"/><path d="m436 512h-360c-4.425781 0-8-3.574219-8-8s3.574219-8 8-8h360c4.425781 0 8 3.574219 8 8s-3.574219 8-8 8zm0 0"/><path d="m80 488c-4.425781 0-8-3.574219-8-8v-56c0-4.425781 3.574219-8 8-8s8 3.574219 8 8v56c0 4.425781-3.574219 8-8 8zm0 0"/><path d="m432 488c-4.425781 0-8-3.574219-8-8v-56c0-4.425781 3.574219-8 8-8s8 3.574219 8 8v56c0 4.425781-3.574219 8-8 8zm0 0"/><path d="m256 112c-22.054688 0-40-17.945312-40-40s17.945312-40 40-40 40 17.945312 40 40-17.945312 40-40 40zm0-64c-13.230469 0-24 10.769531-24 24s10.769531 24 24 24 24-10.769531 24-24-10.769531-24-24-24zm0 0"/><path d="m280 384c-4.425781 0-8-3.574219-8-8v-240h-32v240c0 4.425781-3.574219 8-8 8s-8-3.574219-8-8v-248c0-4.414062 3.574219-8 8-8h48c4.425781 0 8 3.585938 8 8v248c0 4.425781-3.574219 8-8 8zm0 0"/><path d="m272 136c-4.425781 0-8-3.585938-8-8v-28.28125c0-4.414062 3.574219-8 8-8s8 3.585938 8 8v28.28125c0 4.414062-3.574219 8-8 8zm0 0"/><path d="m240 136c-4.425781 0-8-3.585938-8-8v-28.28125c0-4.414062 3.574219-8 8-8s8 3.585938 8 8v28.28125c0 4.414062-3.574219 8-8 8zm0 0"/><path d="m256 48c-4.425781 0-8-3.585938-8-8v-32c0-4.414062 3.574219-8 8-8s8 3.585938 8 8v32c0 4.414062-3.574219 8-8 8zm0 0"/><path d="m264 24h-16c-4.425781 0-8-3.585938-8-8s3.574219-8 8-8h16c4.425781 0 8 3.585938 8 8s-3.574219 8-8 8zm0 0"/><path d="m124 472c-11.03125 0-20-8.96875-20-20s8.96875-20 20-20 20 8.96875 20 20-8.96875 20-20 20zm0-24c-2.199219 0-4 1.800781-4 4s1.800781 4 4 4 4-1.800781 4-4-1.800781-4-4-4zm0 0"/><path d="m180 472c-11.03125 0-20-8.96875-20-20s8.96875-20 20-20 20 8.96875 20 20-8.96875 20-20 20zm0-24c-2.199219 0-4 1.800781-4 4s1.800781 4 4 4 4-1.800781 4-4-1.800781-4-4-4zm0 0"/><path d="m332 472c-11.03125 0-20-8.96875-20-20s8.96875-20 20-20 20 8.96875 20 20-8.96875 20-20 20zm0-24c-2.199219 0-4 1.800781-4 4s1.800781 4 4 4 4-1.800781 4-4-1.800781-4-4-4zm0 0"/><path d="m388 472c-11.03125 0-20-8.96875-20-20s8.96875-20 20-20 20 8.96875 20 20-8.96875 20-20 20zm0-24c-2.199219 0-4 1.800781-4 4s1.800781 4 4 4 4-1.800781 4-4-1.800781-4-4-4zm0 0"/><path d="m208 407.832031c-2.054688 0-4.105469-.785156-5.664062-2.351562-3.128907-3.136719-3.113282-8.191407.015624-11.3125l48-47.832031c3.136719-3.128907 8.191407-3.128907 11.3125.015624 3.128907 3.136719 3.113282 8.191407-.015624 11.3125l-48 47.832032c-1.558594 1.558594-3.609376 2.335937-5.648438 2.335937zm0 0"/><path d="m304 408c-2.046875 0-4.097656-.785156-5.65625-2.34375l-48-48c-3.128906-3.128906-3.128906-8.183594 0-11.3125s8.183594-3.128906 11.3125 0l48 48c3.128906 3.128906 3.128906 8.183594 0 11.3125-1.558594 1.558594-3.609375 2.34375-5.65625 2.34375zm0 0"/><path d="m112 407.832031c-2.054688 0-4.105469-.785156-5.664062-2.351562-3.128907-3.136719-3.113282-8.191407.015624-11.3125l48-47.832031c3.136719-3.128907 8.191407-3.128907 11.3125.015624 3.128907 3.136719 3.113282 8.191407-.015624 11.3125l-48 47.832032c-1.558594 1.558594-3.609376 2.335937-5.648438 2.335937zm0 0"/><path d="m208 408c-2.046875 0-4.097656-.785156-5.65625-2.34375l-48-48c-3.128906-3.128906-3.128906-8.183594 0-11.3125s8.183594-3.128906 11.3125 0l48 48c3.128906 3.128906 3.128906 8.183594 0 11.3125-1.558594 1.558594-3.609375 2.34375-5.65625 2.34375zm0 0"/><path d="m304 407.832031c-2.054688 0-4.105469-.785156-5.664062-2.351562-3.128907-3.136719-3.113282-8.191407.015624-11.3125l48-47.832031c3.136719-3.128907 8.191407-3.128907 11.3125.015624 3.128907 3.136719 3.113282 8.191407-.015624 11.3125l-48 47.832032c-1.558594 1.558594-3.609376 2.335937-5.648438 2.335937zm0 0"/><path d="m400 408c-2.046875 0-4.097656-.785156-5.65625-2.34375l-48-48c-3.128906-3.128906-3.128906-8.183594 0-11.3125s8.183594-3.128906 11.3125 0l48 48c3.128906 3.128906 3.128906 8.183594 0 11.3125-1.558594 1.558594-3.609375 2.34375-5.65625 2.34375zm0 0"/><path d="m256.238281 176c-4.421875 0-8.039062-3.585938-8.039062-8s3.535156-8 7.953125-8h.085937c4.417969 0 8 3.585938 8 8s-3.582031 8-8 8zm0 0"/><path d="m256.238281 224c-4.421875 0-8.039062-3.585938-8.039062-8s3.535156-8 7.953125-8h.085937c4.417969 0 8 3.585938 8 8s-3.582031 8-8 8zm0 0"/><path d="m256.238281 272c-4.421875 0-8.039062-3.574219-8.039062-8 0-4.414062 3.535156-8 7.953125-8h.085937c4.417969 0 8 3.585938 8 8 0 4.425781-3.582031 8-8 8zm0 0"/><path d="m256.238281 320c-4.421875 0-8.039062-3.574219-8.039062-8s3.535156-8 7.953125-8h.085937c4.417969 0 8 3.574219 8 8s-3.582031 8-8 8zm0 0"/></svg>