<svg height="512pt" viewBox="-42 0 512 512" width="512pt" xmlns="http://www.w3.org/2000/svg"><path d="m71.929688 38c.550781 8.800781-2.5625 17.921875-9.28125 24.640625-6.808594 6.71875-15.832032 9.839844-24.640626 9.28125-7.519531-.480469-14.878906-3.523437-20.640624-9.28125-12.480469-12.488281-12.480469-32.808594 0-45.28125 12.480468-12.472656 32.730468-12.480469 45.28125 0 5.757812 5.761719 8.808593 13.121094 9.28125 20.640625zm0 0" fill="#ffce54"/><path d="m153.929688 120-82-82c.550781 8.800781-2.5625 17.921875-9.28125 24.640625-6.808594 6.71875-15.832032 9.839844-24.640626 9.28125l16 16.078125h.089844l32 32 45.75 45.832031 34-33.910156zm0 0" fill="#656d78"/><path d="m194.097656 148.878906-45.210937 45.28125-58 57.917969-11.277344-34 52.230469-52.246094 34-33.910156 52.257812-52.320313 33.910156 11.359376zm0 0" fill="#ffce54"/><path d="m211.046875 165.832031v45.207031h-45.207031v.082032l-16.953125-16.960938 45.210937-45.28125zm0 0" fill="#ccd1d9"/><path d="m420.007812 374.71875v45.28125h-45.28125c12.5625-12.488281 12.5625-32.71875 0-45.28125l-163.679687-163.679688v-45.199218zm0 0" fill="#e6e9ed"/><path d="m374.726562 374.71875c12.5625 12.5625 12.5625 32.800781 0 45.28125l-208.886718-208.886719v-.082031h45.199218zm0 0" fill="#ed5565"/><path d="m40.238281 48c-4.414062 0-8.039062-3.574219-8.039062-8s3.535156-8 7.953125-8h.085937c4.417969 0 8 3.574219 8 8s-3.582031 8-8 8zm0 0"/><path d="m420.007812 382.753906c-2.046874 0-4.097656-.785156-5.65625-2.347656l-225.886718-225.894531c-3.128906-3.128907-3.128906-8.183594 0-11.3125 3.128906-3.128907 8.183594-3.128907 11.3125 0l225.886718 225.890625c3.128907 3.125 3.128907 8.183594 0 11.308594-1.558593 1.570312-3.609374 2.355468-5.65625 2.355468zm0 0"/><path d="m374.761719 428c-2.050781 0-4.097657-.785156-5.65625-2.34375l-225.914063-225.886719c-3.128906-3.128906-3.128906-8.183593 0-11.3125 3.128906-3.128906 8.183594-3.128906 11.3125 0l225.902344 225.886719c3.128906 3.128906 3.128906 8.183594 0 11.3125-1.558594 1.558594-3.597656 2.34375-5.644531 2.34375zm0 0"/><path d="m420.007812 428h-45.246093c-4.425781 0-8-3.574219-8-8s3.574219-8 8-8h45.246093c4.425782 0 8 3.574219 8 8s-3.574218 8-8 8zm0 0"/><path d="m420.007812 428c-4.421874 0-8-3.574219-8-8v-45.246094c0-4.425781 3.578126-8 8-8 4.425782 0 8 3.574219 8 8v45.246094c0 4.425781-3.574218 8-8 8zm0 0"/><path d="m211.078125 219.078125h-45.253906c-4.425781 0-8-3.574219-8-8 0-4.421875 3.574219-8 8-8h45.253906c4.425781 0 8 3.578125 8 8 0 4.425781-3.574219 8-8 8zm0 0"/><path d="m211.078125 219.078125c-4.421875 0-8-3.574219-8-8v-45.261719c0-4.425781 3.578125-8 8-8 4.425781 0 8 3.574219 8 8v45.261719c0 4.425781-3.574219 8-8 8zm0 0"/><path d="m374.753906 382.753906c-2.050781 0-4.097656-.785156-5.65625-2.347656l-163.671875-163.671875c-3.128906-3.125-3.128906-8.183594 0-11.308594 3.125-3.128906 8.183594-3.128906 11.308594 0l163.671875 163.671875c3.128906 3.125 3.128906 8.183594 0 11.308594-1.566406 1.5625-3.605469 2.347656-5.652344 2.347656zm0 0"/><path d="m90.910156 260.046875c-2.046875 0-4.09375-.78125-5.652344-2.34375-3.128906-3.128906-3.128906-8.183594 0-11.3125l161.132813-161.125c3.128906-3.128906 8.183594-3.128906 11.3125 0 3.128906 3.125 3.128906 8.183594 0 11.308594l-161.136719 161.128906c-1.558594 1.5625-3.605468 2.34375-5.65625 2.34375zm0 0"/><path d="m90.910156 260.046875c-3.351562 0-6.46875-2.117187-7.582031-5.472656l-11.3125-33.933594c-1.398437-4.191406.863281-8.730469 5.054687-10.121094 4.234376-1.40625 8.730469.863281 10.121094 5.054688l11.3125 33.9375c1.398438 4.191406-.863281 8.726562-5.054687 10.121093-.847657.277344-1.695313.414063-2.539063.414063zm0 0"/><path d="m252.046875 98.921875c-.832031 0-1.6875-.136719-2.527344-.417969l-33.933593-11.3125c-4.1875-1.390625-6.457032-5.917968-5.058594-10.121094 1.394531-4.183593 5.898437-6.46875 10.121094-5.054687l33.9375 11.3125c4.183593 1.390625 6.453124 5.917969 5.054687 10.121094-1.128906 3.359375-4.242187 5.472656-7.59375 5.472656zm0 0"/><path d="m79.601562 226.113281c-2.050781 0-4.097656-.785156-5.65625-2.34375-3.128906-3.128906-3.128906-8.183593 0-11.3125l138.511719-138.503906c3.128907-3.128906 8.183594-3.128906 11.3125 0 3.125 3.125 3.125 8.183594 0 11.3125l-138.511719 138.503906c-1.5625 1.558594-3.609374 2.34375-5.65625 2.34375zm0 0"/><path d="m131.886719 173.832031c-2.046875 0-4.09375-.785156-5.65625-2.34375l-93.894531-93.894531c-3.128907-3.121094-3.128907-8.1875 0-11.3125 3.128906-3.128906 8.183593-3.128906 11.3125 0l93.894531 93.886719c3.128906 3.128906 3.128906 8.183593 0 11.3125-1.558594 1.566406-3.605469 2.351562-5.65625 2.351562zm0 0"/><path d="m165.832031 139.886719c-2.046875 0-4.097656-.78125-5.65625-2.34375l-93.902343-93.886719c-3.128907-3.128906-3.128907-8.183594 0-11.3125 3.125-3.128906 8.183593-3.128906 11.3125 0l93.894531 93.886719c3.128906 3.128906 3.128906 8.183593 0 11.3125-1.558594 1.570312-3.609375 2.34375-5.648438 2.34375zm0 0"/><path d="m40 80c-10.6875 0-20.734375-4.167969-28.28125-11.71875-7.550781-7.546875-11.71875-17.585938-11.71875-28.273438s4.167969-20.734374 11.71875-28.289062c7.546875-7.550781 17.59375-11.71875 28.28125-11.71875s20.734375 4.167969 28.28125 11.71875c7.558594 7.546875 11.71875 17.59375 11.71875 28.28125s-4.167969 20.734375-11.71875 28.289062c-7.546875 7.542969-17.59375 11.710938-28.28125 11.710938zm0-64c-6.414062 0-12.441406 2.503906-16.96875 7.03125-4.527344 4.535156-7.03125 10.5625-7.03125 16.976562 0 6.40625 2.496094 12.433594 7.03125 16.953126 9.066406 9.078124 24.871094 9.070312 33.9375.007812 4.542969-4.527344 7.03125-10.554688 7.03125-16.96875s-2.496094-12.441406-7.03125-16.960938c-4.527344-4.535156-10.554688-7.039062-16.96875-7.039062zm0 0"/><path d="m374.761719 428c-2.050781 0-4.097657-.785156-5.65625-2.34375-3.128907-3.121094-3.128907-8.183594 0-11.3125 4.535156-4.535156 7.03125-10.566406 7.03125-16.976562 0-6.398438-2.503907-12.421876-7.039063-16.960938-3.128906-3.117188-3.128906-8.183594 0-11.308594 3.125-3.128906 8.183594-3.128906 11.308594 0 7.5625 7.550782 11.730469 17.589844 11.730469 28.269532.007812 10.679687-4.160157 20.730468-11.722657 28.289062-1.566406 1.558594-3.605468 2.34375-5.652343 2.34375zm0 0"/><path d="m304 408c-4.425781 0-8-3.574219-8-8v-50.753906c0-4.421875 3.574219-8 8-8s8 3.578125 8 8v50.753906c0 4.425781-3.574219 8-8 8zm0 0"/><path d="m304 440c-4.425781 0-8-3.574219-8-8v-8c0-4.425781 3.574219-8 8-8s8 3.574219 8 8v8c0 4.425781-3.574219 8-8 8zm0 0"/><path d="m256 336c-4.425781 0-8-3.574219-8-8v-26.753906c0-4.421875 3.574219-8 8-8s8 3.578125 8 8v26.753906c0 4.425781-3.574219 8-8 8zm0 0"/><path d="m256 448c-4.425781 0-8-3.574219-8-8v-88c0-4.425781 3.574219-8 8-8s8 3.574219 8 8v88c0 4.425781-3.574219 8-8 8zm0 0"/><path d="m208 296c-4.425781 0-8-3.574219-8-8v-34.753906c0-4.421875 3.574219-8 8-8s8 3.578125 8 8v34.753906c0 4.425781-3.574219 8-8 8zm0 0"/><path d="m208 328c-4.425781 0-8-3.574219-8-8v-8c0-4.425781 3.574219-8 8-8s8 3.574219 8 8v8c0 4.425781-3.574219 8-8 8zm0 0"/><path d="m352 424c-4.425781 0-8-3.574219-8-8v-18.761719c0-4.421875 3.574219-8 8-8s8 3.578125 8 8v18.761719c0 4.425781-3.574219 8-8 8zm0 0"/><path d="m352 512c-4.425781 0-8-3.574219-8-8v-64c0-4.425781 3.574219-8 8-8s8 3.574219 8 8v64c0 4.425781-3.574219 8-8 8zm0 0"/><path d="m121.9375 96h-67.882812c-4.421876 0-8-3.574219-8-8s3.578124-8 8-8h67.882812c4.421875 0 8 3.574219 8 8s-3.578125 8-8 8zm0 0"/><path d="m153.945312 128h-67.882812c-4.421875 0-8-3.574219-8-8s3.578125-8 8-8h67.882812c4.421876 0 8 3.574219 8 8s-3.578124 8-8 8zm0 0"/></svg>