<?xml version="1.0" encoding="iso-8859-1"?>
<!-- Generator: Adobe Illustrator 19.0.0, SVG Export Plug-In . SVG Version: 6.00 Build 0)  -->
<svg version="1.1" id="Capa_1" xmlns="http://www.w3.org/2000/svg" xmlns:xlink="http://www.w3.org/1999/xlink" x="0px" y="0px"
	 viewBox="0 0 511.233 511.233" style="enable-background:new 0 0 511.233 511.233;" xml:space="preserve">
<polygon style="fill:#ED5565;" points="51.081,477.066 34.135,460.125 126.783,367.471 143.726,384.422 "/>
<g style="opacity:0.3;">
	
		<rect x="79.07" y="351.589" transform="matrix(-0.707 -0.7072 0.7072 -0.707 -152.9792 770.238)" style="fill:#FFFFFF;" width="7.987" height="130.439"/>
</g>
<g style="opacity:0.2;">
	<polygon points="143.312,384.836 137.665,379.179 45.433,471.42 51.081,477.066 	"/>
</g>
<polygon style="fill:#AAB2BD;" points="146.55,387.246 123.96,364.648 157.907,330.701 180.497,353.299 "/>
<g style="opacity:0.5;">
	<polygon style="fill:#FFFFFF;" points="135.278,375.912 123.987,364.625 157.907,330.701 169.198,341.996 	"/>
</g>
<path style="fill:#656D78;" d="M146.55,364.648c6.217,6.217,6.271,16.326,0,22.598c-6.213,6.209-16.318,6.154-22.531-0.062
	c-6.271-6.264-6.271-16.318-0.059-22.535C130.227,358.385,140.341,358.322,146.55,364.648z"/>
<g style="opacity:0.2;">
	<path style="fill:#FFFFFF;" d="M129.607,370.296c5.273-5.273,13.241-6.093,19.341-2.473c-0.667-1.124-1.431-2.208-2.398-3.175
		c-6.209-6.326-16.322-6.264-22.59,0c-6.213,6.217-6.213,16.271,0.059,22.535c0.975,0.975,2.071,1.747,3.21,2.418
		C123.605,383.478,124.369,375.537,129.607,370.296z"/>
</g>
<g style="opacity:0.2;">
	<path d="M140.953,381.528c-5.273,5.272-13.241,6.092-19.341,2.473c0.667,1.123,1.431,2.207,2.398,3.175
		c6.209,6.326,16.322,6.271,22.59,0c6.213-6.209,6.213-16.264-0.059-22.535c-0.975-0.976-2.071-1.748-3.21-2.418
		C146.955,368.353,146.191,376.294,140.953,381.528z"/>
</g>
<path style="fill:#3A3847;" d="M135.516,379.906c-2.204,0-4.033-1.787-4.033-3.994c0-2.208,1.747-3.994,3.955-3.994h0.078
	c2.208,0,3.994,1.786,3.994,3.994C139.51,378.119,137.723,379.906,135.516,379.906z"/>
<path style="fill:#656D78;" d="M33.647,477.551c3.104,3.104,3.104,8.19-0.059,11.357c-3.104,3.104-8.132,3.05-11.295,0
	c-3.104-3.105-3.104-8.19,0.059-11.357C25.457,474.446,30.543,474.446,33.647,477.551z"/>
<path style="fill:#FFCE54;" d="M22.294,488.908c3.163,3.05,8.19,3.104,11.295,0c3.163-3.167,3.163-8.253,0.059-11.357
	s-8.19-3.104-11.295,0C19.189,480.718,19.189,485.803,22.294,488.908z M11.057,466.256c9.317-9.314,24.45-9.314,33.889,0
	c9.317,9.438,9.317,24.57-0.059,33.947c-9.321,9.321-24.513,9.376-33.889,0C1.623,490.826,1.678,475.632,11.057,466.256z"/>
<g style="opacity:0.5;">
	<path style="fill:#FFFFFF;" d="M16.705,471.903c8.354-8.354,21.357-9.15,30.765-2.527c-0.765-1.077-1.564-2.146-2.523-3.12
		c-9.438-9.314-24.571-9.314-33.889,0c-9.38,9.376-9.435,24.57-0.059,33.947c0.967,0.967,2.032,1.771,3.108,2.535
		C7.442,493.369,8.296,480.311,16.705,471.903z"/>
</g>
<g style="opacity:0.2;">
	<path d="M39.236,494.554c-8.354,8.354-21.354,9.158-30.765,2.527c0.769,1.077,1.564,2.146,2.527,3.121
		c9.435,9.321,24.567,9.321,33.889,0c9.376-9.377,9.435-24.571,0.059-33.947c-0.971-0.968-2.036-1.771-3.112-2.535
		C48.499,473.096,47.645,486.146,39.236,494.554z"/>
</g>
<polygon style="fill:#CCD1D9;" points="157.907,330.701 456.348,32.263 507.176,4.022 507.238,4.08 478.938,54.857 180.497,353.299 
	174.849,347.651 163.554,347.651 163.554,336.348 "/>
<polygon style="fill:#FFCE54;" points="106.066,324.164 100.664,329.57 78.776,296.871 56.241,319.406 88.936,341.294 
	83.531,346.699 120.052,371.115 130.473,360.693 "/>
<g style="opacity:0.5;">
	<polygon style="fill:#FFFFFF;" points="106.066,324.164 100.664,329.57 78.776,296.871 73.125,302.518 95.016,335.218 
		100.418,329.811 124.825,366.341 130.473,360.693 	"/>
</g>
<polygon style="fill:#FFCE54;" points="214.327,432.426 181.636,410.537 187.037,405.132 150.516,380.717 140.095,391.138 
	164.502,427.667 169.904,422.269 191.796,454.961 "/>
<g style="opacity:0.5;">
	<polygon style="fill:#FFFFFF;" points="187.677,405.771 182.275,411.178 214.967,433.065 209.319,438.713 176.624,416.824 
		182.029,411.427 145.496,387.019 151.148,381.372 	"/>
</g>
<g style="opacity:0.2;">
	<polygon points="83.324,346.91 88.729,341.504 56.034,319.617 61.681,313.969 94.377,335.857 88.971,341.255 125.504,365.662 
		119.857,371.309 	"/>
</g>
<g style="opacity:0.2;">
	<polygon points="164.935,428.517 170.337,423.111 192.228,455.81 197.876,450.164 175.984,417.465 170.582,422.87 146.175,386.341 
		140.528,391.988 	"/>
</g>
<g style="opacity:0.7;">
	<polygon style="fill:#FFFFFF;" points="505.046,5.208 456.348,32.263 157.907,330.701 163.554,336.348 163.554,346.699 	"/>
</g>
<g>
	<path style="fill:#3A3847;" d="M456.348,36.257c-1.404,0-2.762-0.741-3.494-2.055c-1.069-1.926-0.375-4.356,1.552-5.429
		l50.835-28.241c1.927-1.08,4.353-0.378,5.43,1.553c1.068,1.927,0.374,4.356-1.553,5.429l-50.835,28.241
		C457.675,36.097,457.004,36.257,456.348,36.257z"/>
	<path style="fill:#3A3847;" d="M478.938,58.85c-0.663,0-1.326-0.164-1.942-0.507c-1.927-1.072-2.621-3.502-1.544-5.429
		l28.299-50.776c1.069-1.938,3.511-2.617,5.43-1.545c1.927,1.073,2.621,3.502,1.544,5.429l-28.3,50.776
		C481.7,58.114,480.335,58.85,478.938,58.85z"/>
	<path style="fill:#3A3847;" d="M157.907,379.883c-1.022,0-2.044-0.391-2.824-1.171c-1.56-1.56-1.56-4.087,0-5.647L476.114,52.033
		c1.561-1.56,4.088-1.56,5.648,0c1.56,1.561,1.56,4.087,0,5.647L160.73,378.712C159.95,379.492,158.928,379.883,157.907,379.883z"/>
	<path style="fill:#3A3847;" d="M135.313,357.293c-1.022,0-2.044-0.391-2.824-1.171c-1.56-1.56-1.56-4.087,0-5.647L453.524,29.439
		c1.561-1.56,4.088-1.56,5.648,0c1.56,1.561,1.56,4.088,0,5.647L138.137,356.122C137.357,356.902,136.335,357.293,135.313,357.293z"
		/>
	<path style="fill:#3A3847;" d="M163.554,351.644c-1.022,0-2.044-0.39-2.824-1.17c-1.56-1.56-1.56-4.087,0-5.647L447.878,57.68
		c1.56-1.56,4.087-1.56,5.646,0c1.561,1.561,1.561,4.087,0,5.647L166.378,350.474C165.598,351.255,164.576,351.644,163.554,351.644z
		"/>
	<path style="fill:#3A3847;" d="M163.554,351.644c-2.208,0-3.994-1.786-3.994-3.993v-11.303c0-2.208,1.786-3.994,3.994-3.994
		c2.207,0,3.994,1.786,3.994,3.994v11.303C167.548,349.858,165.762,351.644,163.554,351.644z"/>
	<path style="fill:#3A3847;" d="M174.849,351.644h-11.295c-2.208,0-3.994-1.786-3.994-3.993c0-2.208,1.786-3.994,3.994-3.994h11.295
		c2.207,0,3.994,1.786,3.994,3.994C178.843,349.858,177.056,351.644,174.849,351.644z"/>
	<path style="fill:#3A3847;" d="M135.341,395.865c-5.344,0-10.367-2.075-14.146-5.858c-3.783-3.775-5.869-8.791-5.881-14.103
		c-0.008-5.312,2.059-10.312,5.823-14.08c7.597-7.605,20.768-7.605,28.265,0.031c3.736,3.736,5.815,8.736,5.827,14.064
		c0.008,5.343-2.071,10.366-5.854,14.149C145.633,393.805,140.648,395.865,135.341,395.865z M135.305,363.923
		c-3.206,0-6.229,1.264-8.522,3.549c-2.25,2.255-3.487,5.242-3.483,8.417c0.008,3.19,1.264,6.193,3.541,8.471
		c4.517,4.517,12.395,4.548,16.884,0.062c2.27-2.27,3.518-5.289,3.514-8.486c-0.008-3.198-1.252-6.201-3.514-8.464
		C141.468,365.171,138.488,363.923,135.305,363.923z"/>
	<path style="fill:#3A3847;" d="M27.933,511.209c-7.465,0-14.485-2.901-19.758-8.183C2.886,497.738-0.015,490.71,0,483.221
		c0.02-7.474,2.941-14.501,8.233-19.79c10.519-10.515,28.877-10.522,39.517-0.016c10.858,10.991,10.827,28.744-0.039,39.61
		C42.434,508.307,35.41,511.209,27.933,511.209z M27.957,463.26c-5.324,0-10.324,2.067-14.076,5.819
		c-3.787,3.791-5.881,8.814-5.893,14.158c-0.012,5.351,2.059,10.366,5.834,14.142c7.547,7.543,20.714,7.527,28.241,0
		c7.769-7.77,7.789-20.468,0.039-28.315C38.327,465.335,33.292,463.26,27.957,463.26z"/>
	<path style="fill:#3A3847;" d="M27.992,495.211c-3.171,0-6.178-1.217-8.471-3.433c-4.723-4.72-4.696-12.348,0.008-17.052
		c4.508-4.508,12.434-4.508,16.942,0c4.672,4.673,4.645,12.301-0.059,17.005C34.174,493.97,31.182,495.211,27.992,495.211z
		 M28,479.22c-1.072,0-2.075,0.405-2.824,1.154c-1.587,1.592-1.615,4.149-0.059,5.71c1.462,1.404,4.158,1.498,5.644,0
		c1.591-1.591,1.619-4.149,0.062-5.71C30.075,479.625,29.072,479.22,28,479.22z"/>
	<path style="fill:#3A3847;" d="M112.657,368.641c-0.698,0-1.408-0.179-2.052-0.569L82.368,351.13
		c-1.892-1.131-2.504-3.588-1.369-5.476c1.131-1.896,3.584-2.504,5.48-1.373l28.237,16.942c1.892,1.139,2.504,3.589,1.369,5.483
		C115.337,367.955,114.014,368.641,112.657,368.641z"/>
	<path style="fill:#3A3847;" d="M123.964,357.346c-1.361,0-2.688-0.694-3.432-1.942l-16.888-28.299
		c-1.131-1.896-0.511-4.354,1.381-5.477c1.907-1.139,4.353-0.515,5.476,1.381l16.888,28.3c1.131,1.896,0.511,4.345-1.38,5.476
		C125.364,357.168,124.658,357.346,123.964,357.346z"/>
	<path style="fill:#3A3847;" d="M56.241,323.4c-1.022,0-2.044-0.391-2.824-1.171c-1.56-1.56-1.56-4.087,0-5.647l22.535-22.535
		c1.56-1.56,4.087-1.56,5.647,0c1.56,1.561,1.56,4.088,0,5.647l-22.535,22.535C58.285,323.01,57.262,323.4,56.241,323.4z"/>
	<path style="fill:#3A3847;" d="M90.067,346.052c-0.765,0-1.537-0.218-2.219-0.679l-33.83-22.645
		c-1.833-1.232-2.325-3.713-1.096-5.545c1.232-1.834,3.709-2.325,5.542-1.093l33.83,22.645c1.833,1.232,2.325,3.713,1.096,5.546
		C92.618,345.428,91.354,346.052,90.067,346.052z"/>
	<path style="fill:#3A3847;" d="M101.428,334.695c-1.287,0-2.551-0.617-3.323-1.771l-22.648-33.83
		c-1.229-1.833-0.737-4.313,1.096-5.538c1.826-1.232,4.31-0.749,5.542,1.092l22.648,33.831c1.229,1.832,0.737,4.312-1.096,5.545
		C102.965,334.476,102.193,334.695,101.428,334.695z"/>
	<path style="fill:#3A3847;" d="M186.14,408.119c-0.694,0-1.4-0.179-2.044-0.562L155.8,390.669c-1.892-1.123-2.512-3.58-1.38-5.476
		c1.123-1.888,3.573-2.512,5.476-1.381l28.295,16.888c1.892,1.123,2.512,3.58,1.38,5.477
		C188.827,407.426,187.502,408.119,186.14,408.119z"/>
	<path style="fill:#3A3847;" d="M163.5,430.771c-1.361,0-2.688-0.693-3.432-1.941l-16.888-28.301
		c-1.131-1.895-0.511-4.352,1.381-5.476c1.911-1.131,4.349-0.507,5.476,1.381l16.888,28.3c1.131,1.896,0.511,4.345-1.38,5.476
		C164.9,430.592,164.194,430.771,163.5,430.771z"/>
	<path style="fill:#3A3847;" d="M191.796,458.954c-1.022,0-2.044-0.39-2.824-1.17c-1.56-1.56-1.56-4.087,0-5.647l22.59-22.59
		c1.561-1.56,4.088-1.56,5.647,0c1.561,1.561,1.561,4.088,0,5.647l-22.59,22.59C193.839,458.564,192.817,458.954,191.796,458.954z"
		/>
	<path style="fill:#3A3847;" d="M214.382,436.365c-0.761,0-1.529-0.219-2.212-0.672l-33.889-22.598
		c-1.837-1.225-2.332-3.697-1.107-5.538c1.217-1.833,3.697-2.324,5.538-1.107l33.889,22.598c1.837,1.225,2.333,3.697,1.108,5.538
		C216.94,435.74,215.673,436.365,214.382,436.365z"/>
	<path style="fill:#3A3847;" d="M191.8,458.954c-1.287,0-2.551-0.616-3.323-1.771l-22.652-33.83
		c-1.229-1.833-0.737-4.313,1.096-5.538c1.829-1.232,4.306-0.749,5.542,1.092l22.652,33.83c1.229,1.833,0.737,4.313-1.096,5.546
		C193.336,458.736,192.564,458.954,191.8,458.954z"/>
	<path style="fill:#3A3847;" d="M42.118,456.131c-1.022,0-2.043-0.391-2.824-1.17c-1.56-1.561-1.56-4.088,0-5.647l16.888-16.888
		c1.56-1.561,4.087-1.561,5.647,0c1.56,1.56,1.56,4.087,0,5.647l-16.888,16.888C44.162,455.74,43.14,456.131,42.118,456.131z"/>
	<path style="fill:#3A3847;" d="M59.065,473.073c-1.022,0-2.043-0.39-2.824-1.17c-1.56-1.561-1.56-4.088,0-5.647l11.295-11.295
		c1.56-1.561,4.087-1.561,5.647,0c1.56,1.56,1.56,4.087,0,5.647l-11.295,11.295C61.108,472.683,60.087,473.073,59.065,473.073z"/>
	<path style="fill:#3A3847;" d="M70.364,461.778c-1.462,0-2.867-0.804-3.569-2.192l-11.354-22.535
		c-0.994-1.973-0.203-4.376,1.767-5.366c1.965-0.999,4.368-0.203,5.363,1.771l11.354,22.535c0.994,1.966,0.203,4.368-1.767,5.367
		C71.58,461.645,70.968,461.778,70.364,461.778z"/>
	<path style="fill:#3A3847;" d="M64.712,433.541c-1.022,0-2.043-0.391-2.824-1.17c-1.56-1.561-1.56-4.088,0-5.647l11.24-11.24
		c1.56-1.561,4.087-1.561,5.647,0c1.56,1.56,1.56,4.087,0,5.647l-11.24,11.24C66.756,433.15,65.734,433.541,64.712,433.541z"/>
	<path style="fill:#3A3847;" d="M76.007,456.131c-1.022,0-2.043-0.391-2.824-1.17c-1.56-1.561-1.56-4.088,0-5.647l11.299-11.295
		c1.56-1.561,4.087-1.561,5.647,0c1.56,1.56,1.56,4.087,0,5.647L78.83,454.961C78.051,455.74,77.029,456.131,76.007,456.131z"/>
	<path style="fill:#3A3847;" d="M87.31,444.836c-1.462,0-2.867-0.804-3.569-2.199l-11.354-22.528
		c-0.994-1.974-0.203-4.376,1.767-5.366c1.97-1.006,4.365-0.203,5.363,1.771l11.354,22.527c0.994,1.974,0.203,4.376-1.767,5.366
		C88.527,444.695,87.914,444.836,87.31,444.836z"/>
	<path style="fill:#3A3847;" d="M81.6,416.653c-1.022,0-2.043-0.39-2.824-1.17c-1.56-1.561-1.56-4.088,0-5.647l11.295-11.295
		c1.56-1.561,4.087-1.561,5.647,0c1.56,1.56,1.56,4.087,0,5.647l-11.295,11.295C83.643,416.263,82.622,416.653,81.6,416.653z"/>
	<path style="fill:#3A3847;" d="M92.895,439.243c-1.022,0-2.043-0.39-2.824-1.17c-1.56-1.561-1.56-4.088,0-5.647l11.295-11.295
		c1.56-1.561,4.087-1.561,5.647,0c1.56,1.56,1.56,4.087,0,5.647l-11.295,11.295C94.938,438.853,93.917,439.243,92.895,439.243z"/>
	<path style="fill:#3A3847;" d="M104.194,427.948c-1.466,0-2.878-0.804-3.577-2.208l-11.295-22.59
		c-0.986-1.973-0.187-4.376,1.786-5.358c1.97-0.983,4.372-0.195,5.359,1.786l11.295,22.59c0.986,1.974,0.187,4.376-1.786,5.359
		C105.403,427.815,104.794,427.948,104.194,427.948z"/>
	<path style="fill:#3A3847;" d="M98.601,399.648c-1.022,0-2.043-0.391-2.824-1.17c-1.56-1.561-1.56-4.088,0-5.647l11.295-11.295
		c1.56-1.561,4.087-1.561,5.647,0c1.56,1.56,1.56,4.087,0,5.647l-11.295,11.295C100.644,399.258,99.623,399.648,98.601,399.648z"/>
	<path style="fill:#3A3847;" d="M109.837,422.301c-1.022,0-2.043-0.391-2.824-1.17c-1.56-1.561-1.56-4.088,0-5.647l16.946-16.942
		c1.56-1.561,4.087-1.561,5.647,0c1.56,1.56,1.56,4.087,0,5.647l-16.946,16.942C111.881,421.91,110.859,422.301,109.837,422.301z"/>
</g>
<g>
</g>
<g>
</g>
<g>
</g>
<g>
</g>
<g>
</g>
<g>
</g>
<g>
</g>
<g>
</g>
<g>
</g>
<g>
</g>
<g>
</g>
<g>
</g>
<g>
</g>
<g>
</g>
<g>
</g>
</svg>
