<?xml version="1.0" encoding="iso-8859-1"?>
<!-- Generator: Adobe Illustrator 19.0.0, SVG Export Plug-In . SVG Version: 6.00 Build 0)  -->
<svg version="1.1" id="Capa_1" xmlns="http://www.w3.org/2000/svg" xmlns:xlink="http://www.w3.org/1999/xlink" x="0px" y="0px"
	 viewBox="0 0 511.219 511.219" style="enable-background:new 0 0 511.219 511.219;" xml:space="preserve">
<polygon style="fill:#FFCE54;" points="369.121,153.389 350.618,171.896 339.323,160.597 357.826,142.094 403.013,108.206 "/>
<g style="opacity:0.2;">
	<path d="M367.546,154.965c-0.687-2.645-2.005-5.16-4.072-7.223c-2.074-2.075-4.578-3.389-7.207-4.083l-16.943,16.938l11.295,11.299
		L367.546,154.965z"/>
</g>
<path style="fill:#656D78;" d="M36.912,451.718L8.671,479.964c-6.24,6.232-6.24,16.35,0,22.59c6.236,6.24,16.354,6.24,22.59,0
	l28.241-28.237L36.912,451.718z"/>
<g style="opacity:0.2;">
	<path style="fill:#FFFFFF;" d="M14.318,485.611l28.241-28.245l-5.647-5.647L8.671,479.964c-6.24,6.232-6.24,16.35,0,22.59
		c0.982,0.982,2.083,1.755,3.221,2.426C8.288,498.856,9.06,490.868,14.318,485.611z"/>
</g>
<g style="opacity:0.2;">
	<path d="M25.613,496.906l28.241-28.237l5.647,5.647L31.26,502.553c-6.236,6.24-16.354,6.24-22.59,0
		c-0.983-0.982-1.751-2.083-2.426-3.222C12.372,502.935,20.359,502.163,25.613,496.906z"/>
</g>
<polygon style="fill:#965353;" points="262.837,270.984 195.052,338.761 59.502,474.316 36.912,451.718 178.11,310.516 
	240.239,248.39 245.887,242.738 268.481,265.337 "/>
<polygon style="fill:#ED5565;" points="87.743,446.071 70.8,417.834 172.462,316.164 189.404,344.409 "/>
<path style="fill:#3A3847;" d="M37.149,478.294c-2.203,0-4.032-1.786-4.032-3.993c0-2.208,1.747-3.994,3.955-3.994h0.078
	c2.208,0,3.994,1.786,3.994,3.994C41.143,476.507,39.357,478.294,37.149,478.294z"/>
<path style="fill:#E6E9ED;" d="M507.218,189.821c-4.399,50.492-25.921,99.915-64.665,138.659
	c-38.689,38.69-88.113,60.212-138.722,64.618c0,0,16.326-19.711,6.381-44.906c37.052-5.305,72.746-22.254,101.272-50.772
	c28.525-28.526,45.405-64.279,50.771-101.273c25.195,9.938,44.907-6.38,44.907-6.38L507.218,189.821z"/>
<g style="opacity:0.2;">
	<path d="M507.218,189.821l-0.055-0.055c0,0-5.188,4.267-13.611,7.11c-7.527,43.998-28.261,86.269-62.294,120.31
		c-33.979,33.97-76.232,54.695-120.297,62.23c-2.84,8.464-7.13,13.682-7.13,13.682c50.608-4.406,100.032-25.928,138.722-64.618
		C481.298,289.736,502.819,240.313,507.218,189.821z"/>
</g>
<path style="fill:#AAB2BD;" d="M411.485,297.42c-28.526,28.519-64.221,45.468-101.272,50.772l-0.172-0.172
	c0,0,28.245-50.827-8.471-104.49l-5.647-5.647l56.256-56.252l5.647,5.647c53.659,36.712,104.493,8.471,104.493,8.471
	c0,0.113-0.062,0.281-0.062,0.397C456.89,233.14,440.01,268.893,411.485,297.42z"/>
<g style="opacity:0.2;">
	<path d="M462.256,196.147c0-0.117,0.062-0.284,0.062-0.397c0,0-5.499,3.011-14.672,5.788c-7.52,30.952-23.253,60.379-47.457,84.587
		c-24.158,24.157-53.495,39.922-84.416,47.426c-2.762,9.064-5.733,14.47-5.733,14.47l0.172,0.172
		c37.052-5.305,72.746-22.254,101.272-50.772C440.01,268.893,456.89,233.14,462.256,196.147z"/>
</g>
<path style="fill:#656D78;" d="M295.922,237.883l-27.441,27.454l-22.594-22.598l27.219-27.219l56.256-56.256l5.874-5.874
	c6.209-6.213,16.318-6.268,22.59,0c6.217,6.213,6.217,16.377,0,22.594l-5.647,5.647L295.922,237.883z"/>
<g style="opacity:0.2;">
	<path style="fill:#FFFFFF;" d="M335.01,164.91l5.873-5.874c5.242-5.238,13.214-6.042,19.36-2.434
		c-0.671-1.139-1.435-2.239-2.418-3.214c-6.271-6.268-16.381-6.213-22.59,0l-5.874,5.874l-56.256,56.256l-27.219,27.219l5.655,5.651
		l27.211-27.223L335.01,164.91z"/>
</g>
<g style="opacity:0.2;">
	<path d="M346.313,176.205l5.865-5.874c5.242-5.238,6.045-13.218,2.434-19.36c1.146,0.67,2.247,1.439,3.214,2.414
		c6.271,6.271,6.217,16.381,0,22.594l-5.866,5.874l-56.256,56.252l-27.223,27.224l-5.645-5.647l27.22-27.224L346.313,176.205z"/>
</g>
<path style="fill:#AAB2BD;" d="M329.362,159.263l-56.256,56.256l-5.647-5.651c-53.654-36.712-104.485-8.471-104.485-8.471
	c0.004-0.113,0.059-0.285,0.059-0.394c5.308-37.051,22.254-72.75,50.772-101.272c28.471-28.463,64.216-45.464,101.268-50.772
	l0.164,0.168c0,0-28.237,50.831,8.479,104.489L329.362,159.263z"/>
<g style="opacity:0.3;">
	<path style="fill:#FFFFFF;" d="M225.099,111.029c24.118-24.115,53.476-39.906,84.411-47.426c2.762-9.064,5.726-14.478,5.726-14.478
		l-0.164-0.168c-37.052,5.308-72.797,22.309-101.268,50.772c-28.519,28.522-45.465,64.221-50.772,101.272
		c0,0.109-0.055,0.281-0.059,0.394c0,0,5.487-2.999,14.653-5.776C185.114,164.63,200.894,135.238,225.099,111.029z"/>
</g>
<path style="fill:#E6E9ED;" d="M321.398,4.001c0,0-16.264,19.766-6.326,44.957c-37.052,5.308-72.797,22.309-101.268,50.772
	c-28.519,28.522-45.465,64.221-50.772,101.272c-25.191-9.938-44.958,6.326-44.958,6.326c4.407-50.605,25.925-99.915,64.669-138.659
	C221.433,29.98,270.852,8.35,321.398,4.001z"/>
<path style="fill:#FFFFFF;" d="M194.038,79.964c33.979-33.982,76.245-54.797,120.277-62.305c2.824-8.448,7.083-13.658,7.083-13.658
	C270.852,8.35,221.433,29.98,182.743,68.67c-38.744,38.745-60.262,88.054-64.669,138.659c0,0,5.219-4.263,13.674-7.086
	C139.276,156.182,160.005,113.997,194.038,79.964z"/>
<g style="opacity:0.2;">
	
		<rect x="294.525" y="144.86" transform="matrix(-0.7069 -0.7074 0.7074 -0.7069 379.0348 526.0449)" width="7.99" height="79.245"/>
</g>
<g style="opacity:0.2;">
	<polygon points="301.57,243.53 295.922,237.883 351.952,181.857 357.608,187.504 	"/>
</g>
<g style="opacity:0.2;">
	
		<rect x="238.358" y="252.862" transform="matrix(-0.707 -0.7072 0.7072 -0.707 252.5025 618.3241)" width="31.956" height="7.989"/>
</g>
<g style="opacity:0.2;">
	<rect x="35.842" y="455.441" transform="matrix(-0.7072 -0.707 0.707 -0.7072 -236.3618 820.9849)" width="31.95" height="7.987"/>
</g>
<g style="opacity:0.3;">
	
		<rect x="140.625" y="210.406" transform="matrix(-0.7071 -0.7071 0.7071 -0.7071 -0.4147 699.1171)" style="fill:#FFFFFF;" width="7.92" height="278.477"/>
</g>
<g style="opacity:0.2;">
	<polygon points="65.917,467.896 60.32,462.303 257.237,265.383 262.837,270.984 	"/>
</g>
<g>
	<path style="fill:#3A3847;" d="M118.078,211.322c-0.117,0-0.233-0.004-0.351-0.016c-2.196-0.191-3.822-2.125-3.631-4.325
		c4.633-53.198,28.011-103.323,65.823-141.136C217.793,27.97,267.918,4.593,321.055,0.022c2.137-0.234,4.134,1.436,4.321,3.635
		c0.187,2.2-1.436,4.135-3.636,4.321c-51.271,4.411-99.625,26.97-136.174,63.515c-36.486,36.486-59.045,84.853-63.515,136.183
		C121.873,209.755,120.13,211.322,118.078,211.322z"/>
	<path style="fill:#3A3847;" d="M162.989,205.406c-0.047,0-0.098,0-0.145,0c-2.204-0.078-3.939-1.942-3.861-4.146
		c0.008-0.218,0.059-0.624,0.102-0.838c5.64-39.404,23.588-75.203,51.896-103.515c28.315-28.307,64.115-46.256,103.522-51.904
		c2.138-0.335,4.205,1.194,4.524,3.39c0.312,2.184-1.201,4.204-3.386,4.521c-37.691,5.397-71.931,22.566-99.014,49.641
		c-27.075,27.079-44.243,61.319-49.642,99.014C166.912,203.725,165.13,205.406,162.989,205.406z"/>
	<path style="fill:#3A3847;" d="M315.072,52.952c-1.591,0-3.097-0.956-3.713-2.527c-10.679-27.067,6.232-48.082,6.958-48.963
		c1.404-1.701,3.9-1.931,5.608-0.546c1.7,1.393,1.95,3.904,0.562,5.613c-0.601,0.741-14.617,18.362-5.702,40.963
		c0.812,2.052-0.194,4.373-2.246,5.184C316.055,52.862,315.563,52.952,315.072,52.952z"/>
	<path style="fill:#3A3847;" d="M118.078,211.322c-1.154,0-2.297-0.495-3.089-1.455c-1.4-1.705-1.154-4.22,0.546-5.624
		c0.885-0.722,21.899-17.621,48.962-6.958c2.052,0.811,3.058,3.132,2.251,5.183c-0.812,2.048-3.12,3.042-5.184,2.251
		c-22.734-8.998-40.772,5.546-40.952,5.694C119.868,211.027,118.971,211.322,118.078,211.322z"/>
	<path style="fill:#3A3847;" d="M198.328,178.619c-0.472,0-0.956-0.082-1.423-0.261c-2.06-0.784-3.093-3.093-2.31-5.156
		c0.632-1.658,1.264-3.315,1.95-5.031c0.999-2.414,2.036-4.84,3.14-7.204c3.947-8.374,8.53-16.271,13.635-23.495
		c5.136-7.371,11.006-14.376,17.426-20.796c6.404-6.4,13.408-12.27,20.815-17.449c7.375-5.203,15.296-9.774,23.549-13.569
		c1.981-0.999,4.22-1.942,6.451-2.878c2.013-0.842,4.376,0.109,5.226,2.134c0.858,2.036-0.102,4.376-2.137,5.229
		c-2.06,0.866-4.127,1.732-6.076,2.711c-7.934,3.654-15.43,7.976-22.423,12.91c-7.04,4.922-13.686,10.492-19.758,16.56
		c-6.088,6.088-11.654,12.73-16.537,19.739c-4.852,6.865-9.2,14.357-12.94,22.293c-1.042,2.243-2.032,4.56-2.972,6.825
		c-0.651,1.63-1.268,3.249-1.884,4.868C201.452,177.641,199.935,178.619,198.328,178.619z"/>
	<path style="fill:#3A3847;" d="M267.459,213.861c-0.78,0-1.567-0.226-2.254-0.698c-51.03-34.922-99.802-8.549-100.293-8.276
		c-1.931,1.077-4.357,0.378-5.43-1.552c-1.072-1.927-0.378-4.356,1.553-5.429c0.534-0.296,53.639-28.998,108.679,8.667
		c1.817,1.244,2.285,3.729,1.045,5.55C269.978,213.253,268.73,213.861,267.459,213.861z"/>
	<path style="fill:#3A3847;" d="M323.715,157.61c-1.271,0-2.52-0.608-3.3-1.74c-37.668-55.059-8.963-108.152-8.675-108.682
		c1.069-1.931,3.487-2.621,5.43-1.553c1.927,1.065,2.621,3.495,1.561,5.426c-1.101,1.993-26.537,49.411,8.283,100.301
		c1.24,1.817,0.772,4.306-1.045,5.55C325.283,157.383,324.495,157.61,323.715,157.61z"/>
	<path style="fill:#3A3847;" d="M233.57,123.494c-1.021,0-2.043-0.39-2.823-1.17l-5.647-5.647c-1.561-1.56-1.561-4.087,0-5.647
		c1.56-1.56,4.087-1.56,5.647,0l5.647,5.647c1.56,1.56,1.56,4.087,0,5.647C235.614,123.105,234.592,123.494,233.57,123.494z"/>
	<path style="fill:#3A3847;" d="M216.577,143.772c-0.795,0-1.603-0.238-2.301-0.733l-6.552-4.633
		c-1.802-1.271-2.231-3.764-0.956-5.566c1.271-1.798,3.768-2.23,5.565-0.955l6.552,4.633c1.802,1.271,2.231,3.764,0.956,5.565
		C219.065,143.183,217.829,143.772,216.577,143.772z"/>
	<path style="fill:#3A3847;" d="M203.301,166.646c-0.566,0-1.143-0.121-1.693-0.378l-7.23-3.389
		c-1.997-0.936-2.855-3.315-1.919-5.312c0.936-1.993,3.307-2.859,5.312-1.919l7.231,3.389c1.997,0.936,2.854,3.315,1.919,5.312
		C206.242,165.796,204.802,166.646,203.301,166.646z"/>
	<path style="fill:#3A3847;" d="M276.78,93.279c-1.497,0-2.94-0.85-3.619-2.301l-3.385-7.231c-0.937-1.997-0.07-4.376,1.926-5.308
		c1.981-0.94,4.377-0.078,5.312,1.923l3.385,7.231c0.937,1.997,0.07,4.376-1.926,5.308C277.926,93.159,277.35,93.279,276.78,93.279z
		"/>
	<path style="fill:#3A3847;" d="M253.855,106.493c-1.252,0-2.488-0.589-3.265-1.688l-4.633-6.552
		c-1.275-1.802-0.846-4.294,0.956-5.566c1.794-1.271,4.298-0.842,5.565,0.956l4.634,6.552c1.275,1.802,0.846,4.294-0.956,5.566
		C255.458,106.256,254.651,106.493,253.855,106.493z"/>
	<path style="fill:#3A3847;" d="M303.824,397.092c-2.044,0-3.791-1.568-3.97-3.65c-0.195-2.2,1.435-4.135,3.635-4.321
		c51.404-4.478,99.789-27.013,136.24-63.464c36.482-36.482,59.041-84.849,63.511-136.183c0.195-2.2,2.153-3.865,4.321-3.631
		c2.2,0.191,3.83,2.125,3.635,4.325c-4.633,53.198-28.011,103.328-65.818,141.136c-37.777,37.777-87.918,61.132-141.202,65.772
		C304.058,397.085,303.941,397.092,303.824,397.092z"/>
	<path style="fill:#3A3847;" d="M310.205,352.186c-1.95,0-3.658-1.436-3.947-3.425c-0.312-2.185,1.202-4.204,3.386-4.524
		c37.699-5.397,71.935-22.566,99.018-49.641c26.997-26.998,44.166-61.242,49.642-99.023c0-2.207,1.802-3.908,4.009-3.908
		c2.2,0,4.002,1.876,4.002,4.083c0,0.289-0.062,0.772-0.125,1.057c-5.709,39.412-23.658,75.216-51.88,103.437
		c-28.315,28.308-64.111,46.257-103.526,51.904C310.587,352.178,310.4,352.186,310.205,352.186z"/>
	<path style="fill:#3A3847;" d="M303.839,397.085c-0.897,0-1.794-0.297-2.543-0.912c-1.7-1.396-1.942-3.908-0.546-5.617
		c0.601-0.732,14.665-18.299,5.749-40.896c-0.812-2.052,0.194-4.369,2.246-5.18c2.052-0.812,4.376,0.195,5.18,2.246
		c10.694,27.075-6.287,48.043-7.021,48.916C306.118,396.593,304.978,397.085,303.839,397.085z"/>
	<path style="fill:#3A3847;" d="M478.903,203.382c-5.562,0-11.661-0.975-18.112-3.518c-2.052-0.811-3.058-3.132-2.247-5.183
		c0.804-2.052,3.137-3.039,5.18-2.251c22.613,8.932,40.164-5.144,40.905-5.749c1.7-1.384,4.22-1.143,5.616,0.55
		c1.396,1.701,1.162,4.208-0.538,5.612C509.044,193.398,496.712,203.382,478.903,203.382z"/>
	<path style="fill:#3A3847;" d="M342.178,314.681c-1.561,0-3.042-0.92-3.682-2.449c-0.851-2.036,0.109-4.376,2.137-5.226
		c2.114-0.882,4.275-1.826,6.318-2.77c7.934-3.736,15.406-8.065,22.192-12.848c7.013-4.906,13.658-10.476,19.751-16.567
		c6.115-6.115,11.685-12.758,16.552-19.735c5.102-7.231,9.446-14.715,12.917-22.258c1.062-2.293,2.06-4.626,3.059-6.962l1.802-4.75
		c0.772-2.059,3.058-3.116,5.147-2.329c2.06,0.776,3.105,3.081,2.325,5.145l-1.872,4.926c-1.084,2.559-2.114,4.961-3.214,7.321
		c-3.666,7.976-8.253,15.881-13.627,23.495c-5.125,7.348-10.999,14.353-17.442,20.796c-6.427,6.42-13.424,12.293-20.811,17.457
		c-7.146,5.039-15.023,9.603-23.409,13.549c-2.169,0.999-4.407,1.981-6.599,2.902C343.215,314.589,342.693,314.681,342.178,314.681z
		"/>
	<path style="fill:#3A3847;" d="M416.828,209.985c-18.026,0-39.485-4.516-61.256-19.411c-1.817-1.244-2.286-3.729-1.046-5.55
		c1.264-1.821,3.752-2.277,5.555-1.041c51.029,34.922,99.82,8.549,100.297,8.276c1.91-1.061,4.353-0.386,5.437,1.552
		c1.068,1.927,0.374,4.356-1.552,5.429C463.942,199.419,444.394,209.985,416.828,209.985z"/>
	<path style="fill:#3A3847;" d="M310.041,352.014c-0.655,0-1.317-0.164-1.935-0.499c-1.926-1.069-2.621-3.495-1.56-5.43
		c1.1-1.989,26.544-49.415-8.276-100.301c-1.24-1.817-0.772-4.306,1.045-5.55c1.811-1.236,4.299-0.78,5.555,1.042
		c37.668,55.059,8.954,108.156,8.666,108.687C312.802,351.273,311.445,352.014,310.041,352.014z"/>
	<path style="fill:#3A3847;" d="M397.366,287.287c-1.021,0-2.044-0.39-2.824-1.17l-5.646-5.647c-1.561-1.561-1.561-4.088,0-5.647
		c1.56-1.56,4.087-1.56,5.646,0l5.648,5.647c1.56,1.561,1.56,4.088,0,5.647C399.41,286.897,398.387,287.287,397.366,287.287z"/>
	<path style="fill:#3A3847;" d="M415.221,265.945c-0.796,0-1.6-0.241-2.302-0.733l-6.497-4.574c-1.803-1.268-2.231-3.76-0.968-5.566
		c1.271-1.802,3.76-2.231,5.569-0.963l6.498,4.576c1.802,1.268,2.23,3.76,0.967,5.569
		C417.71,265.352,416.477,265.945,415.221,265.945z"/>
	<path style="fill:#3A3847;" d="M429.168,241.818c-0.562,0-1.139-0.117-1.677-0.371l-7.176-3.327
		c-0.391-0.179-0.741-0.417-1.054-0.71c-1.606-1.509-1.724-4.064-0.218-5.675c1.325-1.4,3.385-1.677,4.977-0.702l6.825,3.167
		c2.005,0.928,2.87,3.303,1.95,5.304C432.117,240.96,430.673,241.818,429.168,241.818z"/>
	<path style="fill:#3A3847;" d="M351.897,319.089c-1.513,0-2.972-0.873-3.635-2.348l-3.229-7.105
		c-0.765-1.553-0.484-3.487,0.834-4.72c1.623-1.506,4.111-1.443,5.616,0.164c0.297,0.319,0.593,0.741,0.772,1.139l3.276,7.223
		c0.912,2.013,0.023,4.376-1.989,5.289C353.013,318.971,352.452,319.089,351.897,319.089z"/>
	<path style="fill:#3A3847;" d="M376.016,305.141c-1.256,0-2.488-0.592-3.269-1.7l-4.517-6.419
		c-1.131-1.521-1.068-3.697,0.266-5.133c1.514-1.6,4.002-1.709,5.616-0.211c0.203,0.188,0.444,0.452,0.601,0.679l4.571,6.489
		c1.264,1.803,0.835,4.299-0.968,5.562C377.616,304.9,376.812,305.141,376.016,305.141z"/>
	<path style="fill:#3A3847;" d="M245.887,246.733c-1.022,0-2.043-0.391-2.824-1.17c-1.56-1.56-1.56-4.087,0-5.647l89.35-89.349
		c1.56-1.56,4.087-1.56,5.646,0c1.561,1.56,1.561,4.087,0,5.647l-89.349,89.349C247.93,246.342,246.909,246.733,245.887,246.733z"/>
	<path style="fill:#3A3847;" d="M268.481,269.331c-1.022,0-2.044-0.391-2.824-1.17c-1.561-1.561-1.561-4.088,0-5.652l89.346-89.349
		c1.56-1.56,4.087-1.56,5.646,0c1.561,1.56,1.561,4.087,0,5.647l-89.345,89.354C270.524,268.94,269.503,269.331,268.481,269.331z"/>
	<path style="fill:#3A3847;" d="M36.912,455.712c-1.022,0-2.044-0.39-2.824-1.17c-1.56-1.56-1.56-4.087,0-5.646l33.888-33.886
		c1.561-1.561,4.088-1.561,5.647,0c1.561,1.56,1.561,4.087,0,5.646l-33.889,33.885C38.955,455.322,37.933,455.712,36.912,455.712z"
		/>
	<path style="fill:#3A3847;" d="M59.502,478.309c-1.022,0-2.044-0.39-2.824-1.17c-1.56-1.56-1.56-4.087,0-5.647l28.241-28.245
		c1.561-1.56,4.088-1.56,5.647,0c1.561,1.561,1.561,4.088,0,5.648l-28.241,28.244C61.545,477.92,60.523,478.309,59.502,478.309z"/>
	<path style="fill:#3A3847;" d="M357.826,179.977c-1.021,0-2.044-0.39-2.823-1.17c-1.561-1.56-1.561-4.087,0-5.647
		c2.254-2.254,3.494-5.261,3.494-8.475c0-3.209-1.24-6.221-3.494-8.471c-2.263-2.262-5.273-3.51-8.472-3.51c0,0-0.008,0-0.016,0
		c-3.198,0.004-6.201,1.252-8.456,3.51c-1.56,1.56-4.087,1.56-5.646,0c-1.561-1.556-1.561-4.087,0-5.647
		c3.76-3.764,8.768-5.843,14.087-5.851c0.016,0,0.023,0,0.039,0c5.327,0,10.335,2.075,14.11,5.851
		c3.76,3.76,5.835,8.771,5.835,14.119s-2.075,10.363-5.835,14.123C359.87,179.587,358.848,179.977,357.826,179.977z"/>
	<path style="fill:#3A3847;" d="M357.826,146.088c-1.209,0-2.41-0.55-3.198-1.599c-1.318-1.763-0.959-4.267,0.804-5.589
		l45.188-33.889c1.763-1.322,4.259-0.976,5.593,0.799c1.318,1.763,0.959,4.267-0.804,5.589l-45.188,33.889
		C359.503,145.827,358.661,146.088,357.826,146.088z"/>
	<path style="fill:#3A3847;" d="M369.121,157.383c-0.835,0-1.677-0.261-2.395-0.799c-1.763-1.322-2.122-3.826-0.804-5.589
		l33.893-45.183c1.334-1.775,3.838-2.118,5.593-0.799c1.763,1.322,2.122,3.826,0.804,5.589l-33.893,45.184
		C371.531,156.833,370.33,157.383,369.121,157.383z"/>
	<path style="fill:#3A3847;" d="M268.481,269.331c-1.022,0-2.044-0.391-2.824-1.17l-22.594-22.599c-1.56-1.56-1.56-4.087,0-5.647
		s4.087-1.56,5.647,0l22.594,22.594c1.56,1.564,1.56,4.092,0,5.652C270.524,268.94,269.503,269.331,268.481,269.331z"/>
	<path style="fill:#3A3847;" d="M62.325,481.133c-1.021,0-2.043-0.391-2.823-1.17l-28.237-28.245c-1.561-1.56-1.561-4.087,0-5.647
		c1.56-1.561,4.087-1.561,5.647,0l28.237,28.245c1.56,1.56,1.56,4.087,0,5.647C64.369,480.743,63.347,481.133,62.325,481.133z"/>
	<path style="fill:#3A3847;" d="M39.735,503.723c-1.021,0-2.043-0.391-2.823-1.17L8.671,474.316c-1.561-1.561-1.561-4.087,0-5.647
		c1.56-1.561,4.087-1.561,5.647,0l28.241,28.237c1.56,1.56,1.56,4.087,0,5.647C41.779,503.333,40.757,503.723,39.735,503.723z"/>
	<path style="fill:#3A3847;" d="M19.965,472.663c-1.022,0-2.044-0.391-2.824-1.171c-1.56-1.56-1.56-4.087,0-5.647l11.295-11.303
		c1.561-1.56,4.088-1.56,5.647,0c1.561,1.561,1.561,4.088,0,5.648l-11.295,11.302C22.009,472.272,20.987,472.663,19.965,472.663z"/>
	<path style="fill:#3A3847;" d="M42.559,495.253c-1.022,0-2.044-0.391-2.824-1.171c-1.56-1.56-1.56-4.087,0-5.647L51.03,477.14
		c1.561-1.56,4.088-1.56,5.647,0c1.561,1.561,1.561,4.088,0,5.647l-11.295,11.295C44.603,494.862,43.581,495.253,42.559,495.253z"/>
	<path style="fill:#3A3847;" d="M19.965,511.219c-5.113,0-10.227-1.95-14.119-5.843c-7.784-7.784-7.784-20.452,0-28.237
		c1.561-1.56,4.088-1.56,5.647,0c1.561,1.561,1.561,4.088,0,5.647c-4.668,4.673-4.668,12.271,0,16.942
		c4.501,4.501,12.442,4.501,16.942,0c1.561-1.56,4.088-1.56,5.647,0c1.561,1.561,1.561,4.088,0,5.647
		C30.192,509.269,25.078,511.219,19.965,511.219z"/>
	<path style="fill:#3A3847;" d="M87.747,450.065c-1.357,0-2.68-0.688-3.429-1.936l-16.942-28.244
		c-1.135-1.888-0.522-4.346,1.369-5.477c1.896-1.146,4.349-0.522,5.479,1.365l16.942,28.245c1.135,1.888,0.523,4.345-1.369,5.476
		C89.154,449.885,88.444,450.065,87.747,450.065z"/>
	<path style="fill:#3A3847;" d="M195.052,342.755c-1.022,0-2.043-0.39-2.824-1.17c-1.56-1.56-1.56-4.087,0-5.646l67.785-67.777
		c1.56-1.561,4.083-1.561,5.644,0c1.561,1.56,1.561,4.087,0,5.646l-67.781,67.777C197.095,342.365,196.074,342.755,195.052,342.755z
		"/>
	<path style="fill:#3A3847;" d="M178.11,314.51c-1.022,0-2.043-0.391-2.824-1.17c-1.56-1.561-1.56-4.088,0-5.648l62.13-62.126
		c1.56-1.56,4.087-1.56,5.647,0s1.56,4.087,0,5.647l-62.13,62.127C180.153,314.12,179.131,314.51,178.11,314.51z"/>
	<path style="fill:#3A3847;" d="M189.408,348.403c-1.357,0-2.683-0.694-3.428-1.942l-16.942-28.237
		c-1.135-1.896-0.522-4.345,1.369-5.484c1.899-1.131,4.345-0.522,5.479,1.373l16.942,28.245c1.135,1.888,0.519,4.345-1.373,5.476
		C190.812,348.215,190.107,348.403,189.408,348.403z"/>
	<path style="fill:#3A3847;" d="M76.448,416.18c-1.022,0-2.044-0.391-2.824-1.17c-1.56-1.561-1.56-4.088,0-5.648l11.295-11.295
		c1.561-1.56,4.088-1.56,5.647,0c1.561,1.561,1.561,4.088,0,5.648L79.271,415.01C78.491,415.79,77.469,416.18,76.448,416.18z"/>
	<path style="fill:#3A3847;" d="M104.689,433.122c-1.357,0-2.68-0.686-3.429-1.934l-16.942-28.245
		c-1.135-1.888-0.522-4.345,1.369-5.476c1.888-1.14,4.349-0.523,5.479,1.364l16.942,28.245c1.135,1.888,0.523,4.345-1.369,5.477
		C106.097,432.943,105.387,433.122,104.689,433.122z"/>
	<path style="fill:#3A3847;" d="M93.39,444.417c-1.022,0-2.044-0.39-2.824-1.17c-1.56-1.56-1.56-4.087,0-5.646l11.295-11.295
		c1.561-1.561,4.088-1.561,5.647,0c1.561,1.56,1.561,4.087,0,5.646l-11.295,11.295C95.434,444.027,94.412,444.417,93.39,444.417z"/>
	<path style="fill:#3A3847;" d="M93.39,399.237c-1.022,0-2.044-0.39-2.824-1.17c-1.56-1.56-1.56-4.087,0-5.646l11.295-11.303
		c1.561-1.561,4.088-1.561,5.647,0c1.561,1.56,1.561,4.087,0,5.646l-11.295,11.303C95.434,398.847,94.412,399.237,93.39,399.237z"/>
	<path style="fill:#3A3847;" d="M121.635,416.18c-1.357,0-2.68-0.694-3.429-1.942l-16.946-28.237
		c-1.135-1.896-0.522-4.346,1.369-5.484c1.896-1.139,4.349-0.522,5.479,1.373l16.946,28.237c1.135,1.896,0.522,4.345-1.369,5.483
		C123.043,415.993,122.333,416.18,121.635,416.18z"/>
	<path style="fill:#3A3847;" d="M110.337,427.475c-1.022,0-2.044-0.391-2.824-1.17c-1.56-1.561-1.56-4.088,0-5.648l11.295-11.295
		c1.561-1.56,4.088-1.56,5.647,0c1.561,1.561,1.561,4.088,0,5.648l-11.295,11.295C112.38,427.085,111.358,427.475,110.337,427.475z"
		/>
	<path style="fill:#3A3847;" d="M110.337,382.288c-1.022,0-2.044-0.391-2.824-1.17c-1.56-1.561-1.56-4.088,0-5.648l11.295-11.295
		c1.561-1.56,4.088-1.56,5.647,0c1.561,1.561,1.561,4.088,0,5.648l-11.295,11.295C112.38,381.897,111.358,382.288,110.337,382.288z"
		/>
	<path style="fill:#3A3847;" d="M138.578,399.237c-1.357,0-2.68-0.693-3.429-1.941l-16.942-28.237
		c-1.135-1.896-0.522-4.345,1.369-5.483c1.896-1.132,4.345-0.523,5.479,1.372l16.942,28.237c1.135,1.896,0.522,4.345-1.369,5.484
		C139.985,399.05,139.276,399.237,138.578,399.237z"/>
	<path style="fill:#3A3847;" d="M127.279,410.532c-1.022,0-2.044-0.39-2.824-1.17c-1.56-1.56-1.56-4.087,0-5.646l11.295-11.295
		c1.561-1.561,4.088-1.561,5.647,0c1.561,1.56,1.561,4.087,0,5.646l-11.295,11.295C129.322,410.142,128.3,410.532,127.279,410.532z"
		/>
	<path style="fill:#3A3847;" d="M127.279,365.344c-1.022,0-2.044-0.39-2.824-1.17c-1.56-1.56-1.56-4.087,0-5.646l11.299-11.295
		c1.561-1.561,4.088-1.561,5.647,0c1.561,1.56,1.561,4.087,0,5.646l-11.299,11.295C129.322,364.955,128.3,365.344,127.279,365.344z"
		/>
	<path style="fill:#3A3847;" d="M155.524,382.288c-1.357,0-2.68-0.687-3.429-1.935l-16.942-28.245
		c-1.135-1.888-0.522-4.345,1.369-5.477c1.899-1.139,4.345-0.522,5.479,1.365l16.942,28.245c1.135,1.888,0.522,4.345-1.369,5.476
		C156.932,382.108,156.222,382.288,155.524,382.288z"/>
	<path style="fill:#3A3847;" d="M144.225,393.583c-1.022,0-2.044-0.391-2.824-1.17c-1.56-1.561-1.56-4.088,0-5.648l11.295-11.295
		c1.561-1.56,4.087-1.56,5.647,0c1.561,1.561,1.561,4.088,0,5.648l-11.295,11.295C146.269,393.192,145.247,393.583,144.225,393.583z
		"/>
	<path style="fill:#3A3847;" d="M144.225,348.403c-1.022,0-2.044-0.391-2.824-1.17c-1.56-1.561-1.56-4.088,0-5.648l11.295-11.295
		c1.561-1.56,4.087-1.56,5.647,0c1.561,1.561,1.561,4.088,0,5.648l-11.295,11.295C146.269,348.012,145.247,348.403,144.225,348.403z
		"/>
	<path style="fill:#3A3847;" d="M172.466,365.344c-1.357,0-2.679-0.686-3.428-1.934l-16.942-28.245
		c-1.135-1.888-0.522-4.345,1.369-5.476c1.896-1.14,4.341-0.523,5.479,1.364l16.942,28.245c1.135,1.888,0.522,4.345-1.369,5.477
		C173.874,365.166,173.164,365.344,172.466,365.344z"/>
	<path style="fill:#3A3847;" d="M161.168,376.639c-1.022,0-2.044-0.39-2.824-1.17c-1.56-1.56-1.56-4.087,0-5.646l11.295-11.295
		c1.561-1.561,4.087-1.561,5.647,0c1.561,1.56,1.561,4.087,0,5.646l-11.295,11.295C163.211,376.25,162.189,376.639,161.168,376.639z
		"/>
	<path style="fill:#3A3847;" d="M161.168,331.46c-1.022,0-2.044-0.39-2.824-1.17c-1.56-1.56-1.56-4.087,0-5.646l11.295-11.303
		c1.561-1.561,4.087-1.561,5.647,0c1.561,1.56,1.561,4.087,0,5.646l-11.295,11.303C163.211,331.07,162.189,331.46,161.168,331.46z"
		/>
	<path style="fill:#3A3847;" d="M178.11,359.698c-1.022,0-2.043-0.391-2.824-1.17c-1.56-1.561-1.56-4.088,0-5.648l11.295-11.295
		c1.56-1.56,4.087-1.56,5.647,0c1.56,1.561,1.56,4.088,0,5.648l-11.295,11.295C180.153,359.307,179.131,359.698,178.11,359.698z"/>
</g>
<g>
</g>
<g>
</g>
<g>
</g>
<g>
</g>
<g>
</g>
<g>
</g>
<g>
</g>
<g>
</g>
<g>
</g>
<g>
</g>
<g>
</g>
<g>
</g>
<g>
</g>
<g>
</g>
<g>
</g>
</svg>
