<?xml version="1.0" encoding="iso-8859-1"?>
<!-- Generator: Adobe Illustrator 19.0.0, SVG Export Plug-In . SVG Version: 6.00 Build 0)  -->
<svg version="1.1" id="Capa_1" xmlns="http://www.w3.org/2000/svg" xmlns:xlink="http://www.w3.org/1999/xlink" x="0px" y="0px"
	 viewBox="0 0 511.298 511.298" style="enable-background:new 0 0 511.298 511.298;" xml:space="preserve">
<path style="fill:#AAB2BD;" d="M290.704,254.596l9.415-9.415l-33.775-33.771l-9.411,9.411c3.104,3.104,3.163,8.132,0,11.295
	l-5.651,5.647l-1.864,1.868l22.59,22.594l1.864-1.868l5.647-5.647c3.167-3.163,8.19-3.108,11.303,0L290.704,254.596z"/>
<g style="opacity:0.2;">
	<path d="M266.343,211.41l-8.327,8.323c8.912,13.381,20.426,24.855,33.842,33.705l8.261-8.257L266.343,211.41z"/>
</g>
<g>
	<path style="fill:#CCD1D9;" d="M250.095,164.397l6.154,3.331c4.407,0,7.964-8.979,8.019-19.993
		c-0.055-11.014-3.611-19.996-8.019-19.996l-6.268,3.448l-4.009-7.398c9.543-46.935,46.541-83.928,93.467-93.476l7.403,4.009
		l-3.44,6.268c0,4.407,8.979,7.964,19.984,8.023c11.076,0,20-3.616,20-8.019l-3.447-6.271l7.402-4.009
		c46.935,9.543,83.814,46.428,93.417,93.308l-4.063,7.453l-6.162-3.331c-4.4-0.004-7.957,8.978-8.02,19.996
		c0,11.069,3.619,19.989,8.027,19.989l6.264-3.444l4.071,7.457c-9.548,46.935-46.537,83.933-93.534,93.417l-7.402-4.009l3.447-6.268
		c0-4.407-8.978-7.964-19.992-8.023c-11.014,0.059-19.992,3.616-19.992,8.023l3.44,6.268l-7.403,4.009
		c-46.872-9.488-83.869-46.369-93.413-93.308L250.095,164.397z M392.826,205.458l38.347,10.113l-10.109-38.351
		c-2.207-2.204-10.343,2.317-18.128,10.109C395.135,195.123,390.619,203.254,392.826,205.458z M421.118,118.309l10.055-38.292
		l-38.3,10.051c-2.254,2.262,2.263,10.394,10.062,18.19C410.72,116.05,418.856,120.571,421.118,118.309z M295.618,215.571
		l38.347-10.113c2.208-2.204-2.309-10.335-10.109-18.128c-7.792-7.796-15.928-12.313-18.128-10.109L295.618,215.571z
		 M374.745,162.085c7.801-7.797,7.793-20.445,0-28.241c-7.801-7.797-20.444-7.797-28.237,0c-7.8,7.792-7.8,20.444,0,28.241
		C354.3,169.877,366.952,169.877,374.745,162.085z M323.855,108.258c7.801-7.796,12.31-15.932,10.055-18.19l-38.292-10.051
		l10.047,38.292C307.927,120.567,316.118,115.996,323.855,108.258z"/>
	<path style="fill:#CCD1D9;" d="M448.13,232.51c-46.786,46.798-122.668,46.798-169.455,0c-46.802-46.798-46.798-122.668,0-169.462
		c46.787-46.795,122.661-46.799,169.455,0C494.932,109.841,494.932,185.715,448.13,232.51z"/>
</g>
<g style="opacity:0.5;">
	<path style="fill:#FFFFFF;" d="M295.633,79.974c43.932-43.936,113.495-46.611,160.562-8.042c-2.512-3.066-5.18-6.042-8.05-8.9
		c-46.794-46.799-122.668-46.795-169.455,0c-46.798,46.794-46.802,122.664,0,169.462c2.855,2.859,5.835,5.535,8.893,8.046
		C249.023,193.469,251.698,123.909,295.633,79.974z"/>
</g>
<g style="opacity:0.2;">
	<path d="M431.204,215.552c-43.932,43.936-113.495,46.607-160.562,8.042c2.512,3.065,5.188,6.041,8.05,8.9
		c46.795,46.798,122.669,46.791,169.455,0c46.802-46.794,46.802-122.665,0-169.462c-2.854-2.859-5.835-5.535-8.893-8.046
		C477.819,102.057,475.143,171.616,431.204,215.552z"/>
</g>
<g style="opacity:0.5;">
	<path style="fill:#FFFFFF;" d="M262.58,226.468l0.245-0.246c-1.638-2.133-3.314-4.244-4.809-6.49l-1.084,1.088
		c3.104,3.104,3.163,8.132,0,11.295l-5.651,5.647l-1.864,1.868l5.647,5.647l1.868-1.864l5.647-5.651
		C265.743,234.6,265.68,229.573,262.58,226.468z"/>
</g>
<g style="opacity:0.2;">
	<path d="M285.056,248.949l0.25-0.245c2.137,1.638,4.243,3.311,6.489,4.805l-1.092,1.088c-3.104-3.104-8.128-3.163-11.295,0
		l-5.647,5.647l-1.872,1.868l-5.647-5.647l1.872-1.868l5.647-5.647C276.928,245.786,281.952,245.844,285.056,248.949z"/>
</g>
<path style="fill:#656D78;" d="M266.242,267.755l5.647-5.644l-22.586-22.594l-5.647,5.647c-3.108-3.108-8.19-3.108-11.299,0
	l-22.59,22.59c-3.108,3.104-3.108,8.19,0,11.295l-5.651,5.647l22.594,22.598l5.647-5.647c3.104,3.104,8.19,3.104,11.299,0
	l22.586-22.598C269.354,275.946,269.346,270.86,266.242,267.755z"/>
<g style="opacity:0.3;">
	<path style="fill:#FFFFFF;" d="M215.415,273.403l22.59-22.59c3.108-3.104,8.19-3.104,11.299,0l-5.647-5.647
		c-3.108-3.108-8.19-3.108-11.299,0l-22.59,22.59c-3.108,3.104-3.108,8.19,0,11.295l5.647,5.647
		C212.306,281.593,212.31,276.507,215.415,273.403z"/>
</g>
<g style="opacity:0.2;">
	<path d="M238.004,296.001l22.594-22.598c3.108-3.104,3.108-8.183,0-11.291l5.644,5.644c3.112,3.112,3.112,8.19,0,11.295
		l-22.586,22.598c-3.108,3.104-8.19,3.104-11.299,0l-5.647-5.647C229.818,299.105,234.9,299.105,238.004,296.001z"/>
</g>
<polygon style="fill:#ED5564;" points="175.878,358.123 158.932,329.885 57.266,431.547 74.212,459.793 "/>
<polygon style="fill:#E6E9ED;" points="470.705,40.481 429.721,48.675 462.514,81.46 "/>
<g style="opacity:0.2;">
	<path d="M440.954,46.432l-11.232,2.243l32.793,32.785l2.247-11.225c-3.354-4.446-6.927-8.783-10.983-12.835
		C449.729,53.347,445.401,49.783,440.954,46.432z"/>
</g>
<polygon style="fill:#E6E9ED;" points="467.881,257.931 459.691,216.948 426.898,249.733 "/>
<g style="opacity:0.2;">
	<path d="M462.086,228.949l-2.395-12.001l-32.793,32.785l10.405,2.079c5.772-4.018,11.326-8.503,16.475-13.651
		C456.743,235.205,459.503,232.124,462.086,228.949z"/>
</g>
<polygon style="fill:#E6E9ED;" points="253.258,43.304 261.453,84.284 294.237,51.499 "/>
<g style="opacity:0.2;">
	<path d="M259.37,73.881l2.083,10.402l32.784-32.785l-12.004-2.402c-3.183,2.586-6.256,5.347-9.205,8.304
		C267.872,62.548,263.391,68.102,259.37,73.881z"/>
</g>
<path style="fill:#E6E9ED;" d="M374.745,133.843c7.793,7.796,7.801,20.444,0,28.241c-7.793,7.792-20.444,7.792-28.237,0
	c-7.8-7.797-7.8-20.449,0-28.241C354.3,126.046,366.944,126.046,374.745,133.843z"/>
<path style="fill:#3A3847;" d="M360.844,151.932c-2.199,0-4.024-1.786-4.024-3.994c0-2.207,1.747-3.993,3.946-3.993h0.078
	c2.216,0,3.994,1.786,3.994,3.993C364.838,150.146,363.06,151.932,360.844,151.932z"/>
<g>
	<path style="fill:#E6E9ED;" d="M379.94,34.322l3.447,6.271c0,4.403-8.924,8.019-20,8.019c-11.006-0.059-19.984-3.616-19.984-8.023
		l3.44-6.268l16.552-30.328L379.94,34.322z"/>
	<path style="fill:#E6E9ED;" d="M476.805,164.284l-6.264,3.444c-4.408,0-8.027-8.92-8.027-19.989c0.062-11.018,3.619-20,8.02-19.996
		l6.162,3.331l30.499,16.72L476.805,164.284z"/>
	<path style="fill:#E6E9ED;" d="M383.387,254.881l-3.447,6.268l-16.49,30.39l-16.606-30.39l-3.44-6.268
		c0-4.407,8.979-7.964,19.992-8.023C374.41,246.917,383.387,250.474,383.387,254.881z"/>
	<path style="fill:#E6E9ED;" d="M264.268,147.735c-0.055,11.014-3.611,19.993-8.019,19.993l-6.154-3.331l-30.5-16.603l30.386-16.607
		l6.268-3.448C260.657,127.739,264.213,136.721,264.268,147.735z"/>
	<path style="fill:#E6E9ED;" d="M295.618,215.571l10.109-38.351c2.2-2.204,10.336,2.313,18.128,10.109
		c7.801,7.792,12.317,15.924,10.109,18.128L295.618,215.571z"/>
	<path style="fill:#E6E9ED;" d="M323.855,108.258c-7.737,7.738-15.928,12.309-18.19,10.051l-10.047-38.292l38.292,10.051
		C336.165,92.326,331.656,100.461,323.855,108.258z"/>
	<path style="fill:#E6E9ED;" d="M402.935,187.33c7.785-7.792,15.921-12.313,18.128-10.109l10.109,38.351l-38.347-10.113
		C390.619,203.254,395.135,195.123,402.935,187.33z"/>
	<path style="fill:#E6E9ED;" d="M402.935,108.258c-7.8-7.796-12.316-15.928-10.062-18.19l38.3-10.051l-10.055,38.292
		C418.856,120.571,410.72,116.05,402.935,108.258z"/>
</g>
<g>
	<path style="fill:#965353;" d="M74.212,459.793l-45.184,45.18c-3.104,3.112-8.19,3.112-11.298,0L6.436,493.677
		c-3.109-3.104-3.105-8.19,0-11.295l50.831-50.835L74.212,459.793z"/>
	<polygon style="fill:#965353;" points="175.878,358.123 158.932,329.885 204.116,284.698 226.71,307.295 	"/>
</g>
<g style="opacity:0.3;">
	<path style="fill:#FFFFFF;" d="M12.083,488.03l50.834-50.827l101.662-101.67l45.188-45.18l-5.651-5.655l-45.184,45.188
		L57.266,431.547l-50.83,50.835c-3.105,3.104-3.109,8.19,0,11.295l5.647,5.647C8.974,496.22,8.978,491.134,12.083,488.03z"/>
</g>
<g style="opacity:0.2;">
	<path d="M23.381,499.325l50.831-50.827l101.666-101.67l45.184-45.18l5.647,5.647l-45.184,45.18L79.86,454.145l-50.831,50.827
		c-3.104,3.112-8.19,3.112-11.298,0l-5.647-5.647C15.191,502.437,20.273,502.429,23.381,499.325z"/>
</g>
<g>
	<path style="fill:#3A3847;" d="M360.627,171.924c-6.404,0-12.419-2.492-16.942-7.017c-9.346-9.345-9.346-24.544,0-33.889
		c9.048-9.044,24.836-9.052,33.885,0c9.345,9.345,9.345,24.548,0,33.889C373.045,169.432,367.03,171.924,360.627,171.924z
		 M360.627,131.991c-4.274,0-8.284,1.661-11.295,4.676c-6.232,6.229-6.232,16.365,0,22.594c6.021,6.03,16.56,6.03,22.59,0
		c6.225-6.229,6.225-16.365,0-22.594C368.911,133.652,364.893,131.991,360.627,131.991z"/>
	<path style="fill:#3A3847;" d="M256.246,171.721c-0.644,0-1.291-0.156-1.896-0.479l-36.666-19.941
		c-1.934-1.053-2.652-3.479-1.595-5.417c1.053-1.934,3.475-2.66,5.417-1.595l36.642,19.926c1.942,1.054,2.664,3.476,1.615,5.414
		C259.039,170.965,257.666,171.721,256.246,171.721z"/>
	<path style="fill:#3A3847;" d="M219.6,151.788c-1.412,0-2.785-0.753-3.51-2.079c-1.057-1.935-0.343-4.36,1.591-5.421l36.642-20.047
		c1.935-1.057,4.364-0.366,5.426,1.572c1.064,1.935,0.358,4.364-1.572,5.425L221.511,151.3
		C220.902,151.632,220.247,151.788,219.6,151.788z"/>
	<path style="fill:#3A3847;" d="M256.25,171.721c-2.208,0-3.994-1.786-3.994-3.993c0-2.208,1.786-3.994,3.994-3.994
		c0.968-0.503,3.975-6.076,4.025-16.018c-0.051-9.907-3.062-15.48-4.251-16.022c-2.204,0-3.88-1.767-3.88-3.974
		c0-2.204,1.899-3.974,4.106-3.974c8.167,0,11.958,12.426,12.013,23.971C268.208,159.299,264.417,171.721,256.25,171.721z"/>
	<path style="fill:#3A3847;" d="M507.195,151.788c-0.655,0-1.311-0.156-1.919-0.491l-36.639-20.039
		c-1.941-1.053-2.659-3.475-1.614-5.414c1.061-1.946,3.472-2.656,5.413-1.615l36.678,20.062c1.935,1.061,2.645,3.487,1.584,5.421
		C509.971,151.039,508.599,151.788,507.195,151.788z"/>
	<path style="fill:#3A3847;" d="M470.549,171.721c-1.42,0-2.777-0.749-3.511-2.07c-1.061-1.935-0.358-4.361,1.575-5.422
		l36.678-19.945c1.935-1.053,4.353-0.335,5.414,1.607c1.053,1.938,0.327,4.36-1.607,5.414l-36.631,19.922
		C471.859,171.562,471.196,171.721,470.549,171.721z"/>
	<path style="fill:#3A3847;" d="M470.542,171.721c-8.262,0-12.021-12.43-12.021-23.982c0.062-11.568,3.846-23.99,12.014-23.99
		c0,0,0,0,0.008,0c2.207,0,3.993,1.79,3.985,3.998c0,2.204-1.786,3.99-3.993,3.99l0,0c-0.968,0.507-3.971,6.081-4.025,16.022
		c0,9.922,3.042,15.476,4.243,16.01c2.208,0,3.885,1.771,3.885,3.975C474.636,169.951,472.749,171.721,470.542,171.721z"/>
	<path style="fill:#3A3847;" d="M343.395,44.584c-0.647,0-1.311-0.16-1.919-0.495c-1.935-1.061-2.644-3.487-1.575-5.421
		l19.992-36.587c1.053-1.931,3.479-2.648,5.413-1.592c1.935,1.058,2.652,3.483,1.592,5.422l-20.001,36.603
		C346.172,43.835,344.807,44.584,343.395,44.584z"/>
	<path style="fill:#3A3847;" d="M383.387,44.587c-1.403,0-2.776-0.749-3.494-2.071l-20-36.61c-1.061-1.935-0.344-4.36,1.591-5.418
		c1.935-1.057,4.368-0.339,5.414,1.596l19.984,36.587c1.068,1.931,0.358,4.36-1.576,5.421
		C384.698,44.427,384.043,44.587,383.387,44.587z"/>
	<path style="fill:#3A3847;" d="M363.387,52.606c-11.56-0.062-23.979-3.849-23.979-12.016c0-2.208,1.779-3.994,3.994-3.994
		c2.2,0,3.994,1.786,3.994,3.994c0.499,0.963,6.068,3.974,16.014,4.029c9.922,0,15.484-3.03,16.015-4.239
		c0-2.204,1.778-3.885,3.978-3.885c2.208,0,3.979,1.892,3.979,4.099C387.381,48.846,374.948,52.606,363.387,52.606z"/>
	<path style="fill:#3A3847;" d="M363.45,295.533c-0.647,0-1.295-0.156-1.903-0.483c-1.942-1.054-2.659-3.479-1.606-5.414
		l19.953-36.677c1.053-1.935,3.486-2.641,5.413-1.576c1.935,1.062,2.645,3.487,1.576,5.422l-19.923,36.638
		C366.235,294.776,364.862,295.533,363.45,295.533z"/>
	<path style="fill:#3A3847;" d="M363.45,295.533c-1.404,0-2.777-0.757-3.51-2.083l-20.039-36.646
		c-1.068-1.935-0.359-4.36,1.575-5.422c1.927-1.064,4.36-0.358,5.421,1.576l20.062,36.662c1.054,1.934,0.344,4.359-1.591,5.421
		C364.76,295.377,364.105,295.533,363.45,295.533z"/>
	<path style="fill:#3A3847;" d="M343.379,258.988c-2.207,0-3.971-1.899-3.971-4.106c0-8.167,12.419-11.954,23.963-12.017
		c11.592,0.062,24.01,3.85,24.01,12.017c0,2.207-1.786,3.993-3.994,3.993c-2.207,0-3.993-1.786-3.993-3.993
		c-0.499-0.968-6.077-3.975-16.022-4.029c-9.906,0.055-15.476,3.065-16.021,4.251C347.35,257.311,345.587,258.988,343.379,258.988z"
		/>
	<path style="fill:#3A3847;" d="M295.618,219.565c-1.771,0-3.385-1.186-3.861-2.976c-0.561-2.134,0.71-4.317,2.848-4.879
		l38.347-10.113c2.106-0.558,4.313,0.706,4.883,2.843c0.562,2.134-0.718,4.317-2.847,4.879l-38.354,10.113
		C296.296,219.522,295.954,219.565,295.618,219.565z"/>
	<path style="fill:#3A3847;" d="M295.618,219.565c-0.335,0-0.678-0.043-1.014-0.133c-2.138-0.562-3.408-2.745-2.848-4.879
		l10.109-38.351c0.562-2.133,2.785-3.381,4.875-2.843c2.138,0.562,3.409,2.745,2.848,4.879l-10.109,38.351
		C299.003,218.379,297.389,219.565,295.618,219.565z"/>
	<path style="fill:#3A3847;" d="M333.964,209.452c-1.014,0-2.044-0.39-2.823-1.17c-1.295-1.299-1.514-3.272-0.647-4.797
		c-0.352-1.853-3.19-7.067-9.462-13.331c-6.264-6.268-11.475-9.107-13.331-9.458c-1.521,0.866-3.486,0.655-4.797-0.651
		c-1.561-1.56-1.561-4.087,0-5.647c6.481-6.505,20.951,7.278,23.775,10.109c2.831,2.828,16.614,17.27,10.109,23.775
		C336.008,209.062,334.995,209.452,333.964,209.452z"/>
	<path style="fill:#3A3847;" d="M392.873,94.061c-1.771,0-3.385-1.186-3.853-2.979c-0.562-2.134,0.709-4.317,2.839-4.875
		l38.3-10.051c2.137-0.554,4.321,0.713,4.875,2.847c0.562,2.134-0.71,4.317-2.848,4.875l-38.299,10.051
		C393.551,94.018,393.209,94.061,392.873,94.061z"/>
	<path style="fill:#3A3847;" d="M421.126,122.302c-0.343,0-0.687-0.043-1.021-0.133c-2.13-0.558-3.409-2.741-2.848-4.875
		l10.055-38.292c0.555-2.133,2.738-3.401,4.875-2.847c2.138,0.558,3.409,2.741,2.848,4.875l-10.055,38.292
		C424.511,121.117,422.889,122.302,421.126,122.302z"/>
	<path style="fill:#3A3847;" d="M419.519,122.883c-7.177,0-17.114-9.504-19.407-11.802c-2.832-2.828-16.615-17.274-10.062-23.834
		c1.56-1.568,4.095-1.56,5.647-0.008c1.318,1.314,1.528,3.319,0.624,4.852c0.327,1.841,3.151,7.056,9.438,13.343
		s11.497,9.103,13.339,9.431c1.521-0.901,3.525-0.687,4.844,0.62c1.56,1.56,1.56,4.087,0,5.647
		C422.702,122.369,421.188,122.883,419.519,122.883z"/>
	<path style="fill:#3A3847;" d="M431.172,219.565c-1.771,0-3.385-1.186-3.861-2.976l-10.117-38.351
		c-0.561-2.134,0.718-4.317,2.848-4.879c2.113-0.546,4.313,0.709,4.875,2.843l10.117,38.351c0.562,2.134-0.71,4.317-2.848,4.879
		C431.851,219.522,431.508,219.565,431.172,219.565z"/>
	<path style="fill:#3A3847;" d="M431.172,219.565c-0.335,0-0.679-0.043-1.014-0.133l-38.354-10.113
		c-2.13-0.562-3.409-2.746-2.847-4.879c0.561-2.133,2.769-3.393,4.883-2.843l38.346,10.113c2.138,0.562,3.409,2.746,2.848,4.879
		C434.558,218.379,432.944,219.565,431.172,219.565z"/>
	<path style="fill:#3A3847;" d="M392.826,209.452c-1.029,0-2.044-0.39-2.823-1.17c-6.506-6.505,7.277-20.948,10.109-23.775
		c2.823-2.832,17.277-16.595,23.775-10.109c1.56,1.56,1.56,4.087,0,5.647c-1.311,1.307-3.276,1.514-4.805,0.651
		c-1.85,0.351-7.067,3.194-13.323,9.458c-6.271,6.264-9.111,11.479-9.462,13.331c0.865,1.524,0.647,3.498-0.647,4.797
		C394.87,209.062,393.84,209.452,392.826,209.452z"/>
	<path style="fill:#3A3847;" d="M305.665,122.302c-1.771,0-3.385-1.186-3.854-2.979l-10.055-38.292
		c-0.561-2.134,0.71-4.317,2.848-4.875c2.121-0.554,4.321,0.713,4.875,2.847l10.055,38.292c0.562,2.134-0.718,4.317-2.854,4.875
		C306.343,122.259,306.001,122.302,305.665,122.302z"/>
	<path style="fill:#3A3847;" d="M333.918,94.061c-0.343,0-0.687-0.043-1.021-0.132l-38.292-10.051
		c-2.138-0.558-3.408-2.742-2.848-4.875c0.555-2.133,2.738-3.401,4.876-2.847l38.292,10.051c2.129,0.558,3.408,2.741,2.847,4.875
		C337.303,92.876,335.68,94.061,333.918,94.061z"/>
	<path style="fill:#3A3847;" d="M307.272,122.883c-1.67,0-3.19-0.515-4.431-1.751c-1.561-1.56-1.561-4.087,0-5.647
		c1.318-1.311,3.323-1.509,4.844-0.624c1.849-0.332,7.075-3.147,13.347-9.427c6.287-6.287,9.11-11.501,9.438-13.343
		c-0.905-1.532-0.702-3.533,0.616-4.848c1.56-1.56,4.087-1.56,5.647,0c6.56,6.556-7.216,21.006-10.055,23.838
		C324.385,113.379,314.448,122.883,307.272,122.883z"/>
	<path style="fill:#3A3847;" d="M164.58,328.232c-1.021,0-2.043-0.391-2.823-1.17c-1.561-1.561-1.561-4.088,0-5.647l39.536-39.54
		c1.56-1.561,4.087-1.561,5.647,0c1.56,1.56,1.56,4.087,0,5.647l-39.536,39.54C166.624,327.841,165.602,328.232,164.58,328.232z"/>
	<path style="fill:#3A3847;" d="M181.526,356.469c-1.021,0-2.043-0.39-2.823-1.17c-1.561-1.561-1.561-4.088,0-5.647l45.129-45.125
		c1.56-1.561,4.087-1.561,5.647,0c1.56,1.56,1.56,4.087,0,5.646l-45.129,45.126C183.57,356.08,182.548,356.469,181.526,356.469z"/>
	<path style="fill:#3A3847;" d="M6.436,497.671c-1.022,0-2.043-0.391-2.824-1.17c-4.673-4.673-4.673-12.271,0-16.943
		c1.56-1.56,4.087-1.56,5.647,0c1.56,1.561,1.56,4.088,0,5.648c-1.557,1.56-1.557,4.095,0,5.646c1.56,1.561,1.56,4.088,0,5.648
		C8.479,497.281,7.458,497.671,6.436,497.671z"/>
	<path style="fill:#3A3847;" d="M23.381,511.298c-3.206,0-6.217-1.24-8.475-3.502c-1.561-1.561-1.561-4.088,0-5.648
		c1.56-1.56,4.087-1.56,5.647,0c1.498,1.498,4.157,1.498,5.647,0c1.56-1.56,4.091-1.552,5.651,0c1.56,1.561,1.56,4.088,0.004,5.648
		C29.599,510.058,26.587,511.298,23.381,511.298z"/>
	<path style="fill:#3A3847;" d="M17.731,508.966c-1.022,0-2.043-0.391-2.824-1.17L3.612,496.502c-1.561-1.561-1.561-4.088,0-5.648
		c1.56-1.56,4.087-1.56,5.647,0l11.295,11.295c1.56,1.561,1.56,4.088,0,5.648C19.774,508.576,18.753,508.966,17.731,508.966z"/>
	<path style="fill:#3A3847;" d="M256.195,236.621c-1.021,0-2.043-0.39-2.823-1.17c-1.561-1.561-1.561-4.088,0-5.647
		c1.583-1.584,1.583-4.064,0-5.647c-1.561-1.561-1.561-4.088,0-5.647c1.56-1.561,4.087-1.561,5.647,0
		c4.672,4.672,4.672,12.27,0,16.942C258.239,236.231,257.217,236.621,256.195,236.621z"/>
	<path style="fill:#3A3847;" d="M290.08,259.214c-1.014,0-2.044-0.391-2.823-1.17c-1.576-1.58-4.064-1.588-5.647,0
		c-1.561,1.56-4.088,1.56-5.647,0c-1.561-1.561-1.561-4.088,0-5.647c4.672-4.677,12.277-4.669,16.942,0
		c1.56,1.56,1.56,4.087,0,5.647C292.124,258.824,291.11,259.214,290.08,259.214z"/>
	<path style="fill:#3A3847;" d="M480.752,127.615c-1.856,0-3.518-1.303-3.899-3.194c-9.33-45.531-44.774-80.937-90.306-90.196
		c-2.16-0.437-3.557-2.546-3.112-4.708c0.438-2.161,2.543-3.557,4.704-3.116c48.682,9.895,86.568,47.742,96.529,96.42
		c0.452,2.161-0.952,4.271-3.104,4.712C481.29,127.587,481.017,127.615,480.752,127.615z"/>
	<path style="fill:#3A3847;" d="M245.977,127.782c-0.265,0-0.531-0.027-0.799-0.082c-2.161-0.437-3.557-2.547-3.116-4.708
		c9.914-48.76,47.832-86.674,96.584-96.592c2.152-0.444,4.274,0.956,4.711,3.116c0.438,2.161-0.951,4.271-3.12,4.708
		c-45.608,9.283-81.077,44.747-90.352,90.359C249.503,126.476,247.837,127.782,245.977,127.782z"/>
	<path style="fill:#3A3847;" d="M339.448,269.152c-0.257,0-0.53-0.023-0.795-0.078c-48.744-9.867-86.635-47.719-96.537-96.428
		c-0.441-2.161,0.955-4.271,3.116-4.708c2.168-0.441,4.271,0.956,4.707,3.116c9.263,45.558,44.712,80.959,90.297,90.192
		c2.169,0.44,3.558,2.546,3.12,4.707C342.974,267.849,341.313,269.152,339.448,269.152z"/>
	<path style="fill:#3A3847;" d="M387.335,269.152c-1.856,0-3.525-1.311-3.908-3.206c-0.437-2.161,0.96-4.267,3.128-4.703
		c45.632-9.213,81.124-44.653,90.406-90.297c0.437-2.161,2.543-3.538,4.712-3.116c2.152,0.437,3.557,2.547,3.112,4.708
		c-9.923,48.795-47.855,86.689-96.654,96.537C387.865,269.128,387.6,269.152,387.335,269.152z"/>
	<path style="fill:#3A3847;" d="M442.467,50.122c-1.872,0-3.541-1.311-3.916-3.21c-0.437-2.164,0.968-4.267,3.137-4.699
		l28.236-5.647c2.2-0.441,4.275,0.971,4.696,3.132c0.437,2.165-0.968,4.267-3.128,4.699l-28.245,5.647
		C442.983,50.098,442.717,50.122,442.467,50.122z"/>
	<path style="fill:#3A3847;" d="M465.065,72.715c-0.258,0-0.522-0.023-0.787-0.078c-2.161-0.433-3.565-2.535-3.137-4.699
		l5.648-28.241c0.437-2.161,2.527-3.581,4.703-3.132c2.16,0.433,3.564,2.535,3.128,4.699l-5.647,28.241
		C468.598,71.405,466.929,72.715,465.065,72.715z"/>
	<path style="fill:#3A3847;" d="M467.881,261.925c-1.864,0-3.534-1.311-3.916-3.21l-5.647-28.241
		c-0.437-2.165,0.968-4.267,3.136-4.7c2.168-0.452,4.259,0.968,4.695,3.132l5.648,28.241c0.437,2.165-0.968,4.267-3.129,4.7
		C468.404,261.902,468.146,261.925,467.881,261.925z"/>
	<path style="fill:#3A3847;" d="M467.889,261.925c-0.258,0-0.523-0.023-0.788-0.078l-28.237-5.647
		c-2.168-0.434-3.572-2.535-3.136-4.7c0.429-2.165,2.535-3.596,4.696-3.132l28.244,5.647c2.161,0.433,3.565,2.535,3.129,4.7
		C471.422,260.615,469.753,261.925,467.889,261.925z"/>
	<path style="fill:#3A3847;" d="M258.902,75.54c-1.864,0-3.534-1.311-3.912-3.21l-5.647-28.241c-0.433-2.165,0.971-4.267,3.132-4.7
		c2.169-0.437,4.267,0.972,4.7,3.132l5.646,28.241c0.434,2.165-0.971,4.267-3.131,4.7C259.424,75.516,259.159,75.54,258.902,75.54z"
		/>
	<path style="fill:#3A3847;" d="M281.562,52.891c-0.266,0-0.522-0.023-0.78-0.074l-28.3-5.593c-2.161-0.429-3.568-2.531-3.144-4.696
		c0.433-2.16,2.527-3.549,4.696-3.144l28.292,5.593c2.168,0.429,3.572,2.531,3.15,4.696
		C285.095,51.573,283.426,52.891,281.562,52.891z"/>
	<path style="fill:#3A3847;" d="M274.831,269.043c-1.022,0-2.044-0.39-2.824-1.17l-28.237-28.241c-1.56-1.56-1.56-4.087,0-5.647
		s4.087-1.56,5.647,0l28.237,28.241c1.56,1.56,1.56,4.087,0,5.647C276.874,268.653,275.852,269.043,274.831,269.043z"/>
	<path style="fill:#3A3847;" d="M229.647,314.222c-1.022,0-2.043-0.39-2.824-1.17l-28.241-28.237c-1.56-1.56-1.56-4.087,0-5.647
		s4.087-1.561,5.647,0l28.241,28.237c1.56,1.56,1.56,4.087,0,5.647C231.69,313.833,230.669,314.222,229.647,314.222z"/>
	<path style="fill:#3A3847;" d="M249.869,242.947c-1.021,0-2.043-0.39-2.823-1.17c-1.561-1.561-1.561-4.088,0-5.647l6.326-6.326
		c1.56-1.561,4.087-1.561,5.647,0c1.56,1.56,1.56,4.087,0,5.647l-6.326,6.326C251.913,242.557,250.891,242.947,249.869,242.947z"/>
	<path style="fill:#3A3847;" d="M271.889,266.102c-1.014,0-2.043-0.39-2.823-1.17c-1.561-1.557-1.561-4.084,0-5.644l6.896-6.892
		c1.56-1.561,4.087-1.561,5.647,0c1.56,1.56,1.56,4.087,0,5.647l-6.896,6.888C273.933,265.712,272.919,266.102,271.889,266.102z"/>
	<path style="fill:#3A3847;" d="M243.656,249.16c-1.021,0-2.043-0.39-2.823-1.17c-1.553-1.553-4.084-1.561-5.651,0
		c-1.561,1.56-4.088,1.56-5.647,0c-1.561-1.561-1.561-4.088,0-5.647c4.676-4.677,12.277-4.669,16.946,0
		c1.56,1.56,1.56,4.087,0,5.647C245.7,248.77,244.678,249.16,243.656,249.16z"/>
	<path style="fill:#3A3847;" d="M209.767,283.045c-1.021,0-2.043-0.391-2.823-1.17c-2.259-2.255-3.503-5.266-3.503-8.472
		s1.244-6.217,3.503-8.471c1.56-1.553,4.091-1.557,5.651,0c1.556,1.567,1.556,4.095-0.004,5.655
		c-0.749,0.74-1.163,1.747-1.163,2.815c0,1.077,0.414,2.075,1.163,2.824c1.56,1.56,1.56,4.087,0,5.647
		C211.811,282.654,210.789,283.045,209.767,283.045z"/>
	<path style="fill:#3A3847;" d="M209.767,271.75c-1.021,0-2.043-0.391-2.823-1.17c-1.561-1.561-1.561-4.088,0-5.647l22.59-22.59
		c1.56-1.561,4.087-1.561,5.647,0c1.56,1.56,1.56,4.087,0,5.647l-22.59,22.59C211.811,271.359,210.789,271.75,209.767,271.75z"/>
	<path style="fill:#3A3847;" d="M238.004,307.974c-3.069,0-6.135-1.17-8.471-3.502c-1.561-1.561-1.561-4.088,0-5.647
		c1.56-1.561,4.087-1.561,5.647,0c1.563,1.552,4.095,1.552,5.651-0.008c1.56-1.553,4.091-1.553,5.651,0.008
		c1.556,1.56,1.556,4.087-0.004,5.647C244.144,306.804,241.074,307.974,238.004,307.974z"/>
	<path style="fill:#3A3847;" d="M266.242,283.045c-1.014,0-2.044-0.391-2.819-1.17c-1.561-1.561-1.561-4.088,0-5.647
		c1.556-1.553,1.556-4.088,0-5.647c-1.561-1.561-1.561-4.088,0-5.647c1.556-1.557,4.083-1.557,5.644,0
		c4.68,4.672,4.68,12.27,0,16.942C268.286,282.654,267.272,283.045,266.242,283.045z"/>
	<path style="fill:#3A3847;" d="M243.656,305.642c-1.021,0-2.043-0.391-2.823-1.17c-1.561-1.561-1.561-4.088,0-5.647l22.59-22.598
		c1.556-1.561,4.083-1.561,5.644,0c1.56,1.56,1.56,4.087,0,5.647l-22.586,22.598C245.7,305.252,244.678,305.642,243.656,305.642z"/>
	<path style="fill:#3A3847;" d="M226.823,288.809c-1.021,0-2.044-0.391-2.824-1.171c-1.56-1.56-1.56-4.087,0-5.646l22.594-22.59
		c1.56-1.561,4.087-1.561,5.647,0c1.56,1.56,1.56,4.087,0,5.646l-22.594,22.59C228.867,288.419,227.845,288.809,226.823,288.809z"/>
	<path style="fill:#3A3847;" d="M158.936,379.067c-1.357,0-2.679-0.694-3.428-1.942l-16.942-28.237
		c-1.135-1.896-0.523-4.345,1.369-5.483c1.892-1.131,4.349-0.523,5.48,1.373l16.942,28.236c1.135,1.896,0.522,4.346-1.369,5.484
		C160.344,378.879,159.634,379.067,158.936,379.067z"/>
	<path style="fill:#3A3847;" d="M130.691,362.117c-1.021,0-2.043-0.391-2.823-1.17c-1.561-1.561-1.561-4.088,0-5.647l11.299-11.295
		c1.56-1.561,4.087-1.561,5.647,0c1.56,1.56,1.56,4.087,0,5.647l-11.299,11.295C132.735,361.726,131.713,362.117,130.691,362.117z"
		/>
	<path style="fill:#3A3847;" d="M147.637,390.362c-1.021,0-2.043-0.39-2.823-1.17c-1.561-1.561-1.561-4.088,0-5.647l11.295-11.295
		c1.56-1.561,4.087-1.561,5.647,0c1.56,1.56,1.56,4.087,0,5.647l-11.295,11.295C149.681,389.972,148.66,390.362,147.637,390.362z"/>
	<path style="fill:#3A3847;" d="M175.882,362.117c-1.357,0-2.679-0.687-3.428-1.935l-16.946-28.237
		c-1.135-1.896-0.523-4.345,1.369-5.483c1.899-1.14,4.345-0.515,5.48,1.372l16.946,28.238c1.135,1.887,0.522,4.344-1.369,5.476
		C177.291,361.937,176.581,362.117,175.882,362.117z"/>
	<path style="fill:#3A3847;" d="M147.637,345.174c-1.021,0-2.043-0.39-2.823-1.17c-1.561-1.561-1.561-4.088,0-5.647l11.295-11.295
		c1.56-1.561,4.087-1.561,5.647,0c1.56,1.56,1.56,4.087,0,5.647l-11.295,11.295C149.681,344.785,148.66,345.174,147.637,345.174z"/>
	<path style="fill:#3A3847;" d="M164.58,373.42c-1.021,0-2.043-0.391-2.823-1.17c-1.561-1.561-1.561-4.088,0-5.647l11.299-11.303
		c1.56-1.561,4.087-1.561,5.647,0c1.56,1.56,1.56,4.087,0,5.647l-11.299,11.303C166.624,373.029,165.602,373.42,164.58,373.42z"/>
	<path style="fill:#3A3847;" d="M141.994,396.009c-1.357,0-2.679-0.694-3.428-1.942L121.62,365.83
		c-1.135-1.888-0.523-4.345,1.369-5.477c1.892-1.146,4.345-0.521,5.48,1.365l16.946,28.238c1.135,1.895,0.522,4.344-1.369,5.483
		C143.402,395.822,142.692,396.009,141.994,396.009z"/>
	<path style="fill:#3A3847;" d="M113.749,379.067c-1.021,0-2.043-0.39-2.823-1.17c-1.561-1.561-1.561-4.088,0-5.647l11.295-11.295
		c1.56-1.561,4.087-1.561,5.647,0c1.56,1.56,1.56,4.087,0,5.647l-11.295,11.295C115.793,378.677,114.771,379.067,113.749,379.067z"
		/>
	<path style="fill:#3A3847;" d="M130.691,407.304c-1.021,0-2.043-0.391-2.823-1.17c-1.561-1.561-1.561-4.088,0-5.647l11.299-11.295
		c1.56-1.561,4.087-1.561,5.647,0c1.56,1.56,1.56,4.087,0,5.647l-11.299,11.295C132.735,406.914,131.713,407.304,130.691,407.304z"
		/>
	<path style="fill:#3A3847;" d="M125.047,412.952c-1.357,0-2.679-0.687-3.428-1.935l-16.942-28.245
		c-1.135-1.888-0.523-4.345,1.369-5.476c1.896-1.139,4.345-0.523,5.48,1.365l16.942,28.244c1.135,1.889,0.522,4.346-1.369,5.477
		C126.456,412.772,125.746,412.952,125.047,412.952z"/>
	<path style="fill:#3A3847;" d="M96.806,396.009c-1.021,0-2.043-0.391-2.823-1.17c-1.561-1.561-1.561-4.088,0-5.647l11.295-11.295
		c1.56-1.561,4.087-1.561,5.647,0c1.56,1.56,1.56,4.087,0,5.647L99.63,394.839C98.85,395.619,97.829,396.009,96.806,396.009z"/>
	<path style="fill:#3A3847;" d="M113.749,424.247c-1.021,0-2.043-0.39-2.823-1.171c-1.561-1.56-1.561-4.087,0-5.646l11.295-11.295
		c1.56-1.561,4.087-1.561,5.647,0c1.56,1.56,1.56,4.087,0,5.647l-11.295,11.294C115.793,423.857,114.771,424.247,113.749,424.247z"
		/>
	<path style="fill:#3A3847;" d="M108.105,429.894c-1.357,0-2.679-0.687-3.428-1.935l-16.946-28.245
		c-1.135-1.888-0.523-4.345,1.369-5.477c1.896-1.139,4.349-0.521,5.48,1.365l16.946,28.246c1.135,1.887,0.522,4.344-1.369,5.476
		C109.513,429.714,108.803,429.894,108.105,429.894z"/>
	<path style="fill:#3A3847;" d="M79.86,412.952c-1.021,0-2.043-0.39-2.823-1.17c-1.561-1.561-1.561-4.088,0-5.647l11.295-11.295
		c1.56-1.561,4.087-1.561,5.647,0c1.56,1.56,1.56,4.087,0,5.647l-11.295,11.295C81.904,412.562,80.882,412.952,79.86,412.952z"/>
	<path style="fill:#3A3847;" d="M96.806,441.197c-1.021,0-2.043-0.391-2.823-1.17c-1.561-1.561-1.561-4.088,0-5.648l11.295-11.303
		c1.56-1.56,4.087-1.56,5.647,0c1.56,1.561,1.56,4.088,0,5.648L99.63,440.027C98.85,440.806,97.829,441.197,96.806,441.197z"/>
	<path style="fill:#3A3847;" d="M91.159,446.844c-1.357,0-2.679-0.694-3.428-1.942l-16.942-28.237
		c-1.135-1.896-0.523-4.345,1.369-5.483c1.899-1.139,4.345-0.516,5.48,1.373l16.942,28.236c1.135,1.896,0.522,4.346-1.369,5.484
		C92.567,446.657,91.857,446.844,91.159,446.844z"/>
	<path style="fill:#3A3847;" d="M62.918,429.894c-1.021,0-2.043-0.391-2.823-1.17c-1.561-1.561-1.561-4.088,0-5.648l11.295-11.294
		c1.56-1.561,4.087-1.561,5.647,0c1.56,1.56,1.56,4.087,0,5.647l-11.295,11.295C64.961,429.503,63.94,429.894,62.918,429.894z"/>
	<path style="fill:#3A3847;" d="M79.86,458.139c-1.021,0-2.043-0.391-2.823-1.171c-1.561-1.56-1.561-4.087,0-5.646l11.295-11.295
		c1.56-1.561,4.087-1.561,5.647,0c1.56,1.56,1.56,4.087,0,5.646l-11.295,11.295C81.904,457.749,80.882,458.139,79.86,458.139z"/>
	<path style="fill:#3A3847;" d="M74.216,463.787c-1.357,0-2.679-0.694-3.428-1.942l-16.946-28.237
		c-1.135-1.896-0.522-4.345,1.369-5.484c1.899-1.131,4.345-0.521,5.48,1.373l16.946,28.237c1.135,1.896,0.522,4.345-1.369,5.483
		C75.625,463.599,74.915,463.787,74.216,463.787z"/>
	<path style="fill:#3A3847;" d="M6.436,486.377c-1.022,0-2.043-0.391-2.824-1.17c-1.561-1.561-1.561-4.088,0-5.648l50.831-50.834
		c1.56-1.561,4.087-1.561,5.647,0c1.56,1.56,1.56,4.087,0,5.646L9.259,485.207C8.479,485.986,7.458,486.377,6.436,486.377z"/>
	<path style="fill:#3A3847;" d="M29.029,508.966c-1.021,0-2.043-0.391-2.823-1.17c-1.561-1.561-1.561-4.088,0-5.648l45.184-45.18
		c1.56-1.56,4.087-1.56,5.647,0c1.56,1.561,1.56,4.088,0,5.648l-45.184,45.18C31.073,508.576,30.051,508.966,29.029,508.966z"/>
</g>
<g style="opacity:0.2;">
	
		<rect x="241.805" y="249.644" transform="matrix(-0.707 -0.7072 0.7072 -0.707 260.6551 615.2631)" width="31.947" height="7.987"/>
</g>
<g style="opacity:0.2;">
	<rect x="202.273" y="289.18" transform="matrix(-0.707 -0.7072 0.7072 -0.707 165.2171 654.7985)" width="31.952" height="7.989"/>
</g>
<g>
</g>
<g>
</g>
<g>
</g>
<g>
</g>
<g>
</g>
<g>
</g>
<g>
</g>
<g>
</g>
<g>
</g>
<g>
</g>
<g>
</g>
<g>
</g>
<g>
</g>
<g>
</g>
<g>
</g>
</svg>
