<?xml version="1.0" encoding="iso-8859-1"?>
<!-- Generator: Adobe Illustrator 19.0.0, SVG Export Plug-In . SVG Version: 6.00 Build 0)  -->
<svg version="1.1" id="Capa_1" xmlns="http://www.w3.org/2000/svg" xmlns:xlink="http://www.w3.org/1999/xlink" x="0px" y="0px"
	 viewBox="0 0 511.204 511.204" style="enable-background:new 0 0 511.204 511.204;" xml:space="preserve">
<polygon style="fill:#ED5565;" points="175.726,123.328 167.738,131.315 151.763,131.315 143.775,123.328 143.775,67.414 
	175.726,67.414 "/>
<g style="opacity:0.3;">
	<polygon style="fill:#FFFFFF;" points="151.763,67.414 143.775,67.414 143.775,123.328 151.763,131.315 159.75,131.315 
		151.763,123.328 	"/>
</g>
<g style="opacity:0.2;">
	<polygon points="167.738,67.414 175.726,67.414 175.726,123.328 167.738,131.315 159.75,131.315 167.738,123.328 	"/>
</g>
<polygon style="fill:#ED5565;" points="223.651,99.365 215.663,107.352 199.688,107.352 191.701,99.365 191.701,43.452 
	223.651,43.452 "/>
<g style="opacity:0.3;">
	<polygon style="fill:#FFFFFF;" points="199.688,43.452 191.701,43.452 191.701,99.365 199.688,107.352 207.676,107.352 
		199.688,99.365 	"/>
</g>
<g style="opacity:0.2;">
	<polygon points="215.663,43.452 223.651,43.452 223.651,99.365 215.663,107.352 207.676,107.352 215.663,99.365 	"/>
</g>
<g>
	<rect x="295.541" y="491.232" style="fill:#656D78;" width="11.981" height="15.975"/>
	<rect x="295.541" y="3.994" style="fill:#656D78;" width="11.981" height="15.975"/>
</g>
<path style="fill:#965353;" d="M343.222,403.372c5.671-7.512,11.186-15.414,16.217-23.963c12.06-20.607,22.52-48.322,23.799-80.195
	l16.14-6.146c-0.804,110.625-91.857,142.498-91.857,198.168H295.54c0-11.98,3.276-22.848,8.542-33.229
	c6.63-13.34,16.536-25.883,26.763-38.738C334.915,414.153,339.073,408.887,343.222,403.372z"/>
<path style="fill:#ED5565;" d="M399.377,293.067l-16.14,6.146c-5.031-5.99-9.024-12.863-11.739-20.367
	c-2.636-7.27-4.071-15.102-4.071-23.244c0-8.147,1.436-15.975,4.149-23.245c2.637-7.348,6.475-14.056,11.342-19.969l0.319-0.398
	l16.14,6.15c-9.829,9.427-15.976,22.766-15.976,37.461C383.402,270.297,389.548,283.637,399.377,293.067z"/>
<path style="fill:#965353;" d="M383.238,211.99c-1.279-33.549-10.779-58.869-23.799-80.195
	c-8.791-14.778-18.931-27.637-28.596-39.86c-10.227-12.859-20.133-25.398-26.763-38.737c-5.266-10.386-8.542-21.248-8.542-33.229
	h11.981c0,55.675,91.054,87.544,91.857,198.172L383.238,211.99z"/>
<g style="opacity:0.3;">
	<path style="fill:#FFFFFF;" d="M312.068,458.006c6.631-13.34,16.537-25.883,26.763-38.738c4.072-5.115,8.229-10.381,12.38-15.896
		c5.67-7.512,11.186-15.414,16.217-23.963c12.059-20.607,22.52-48.322,23.799-80.195c-5.031-5.99-9.025-12.863-11.74-20.367
		c-2.636-7.27-4.071-15.102-4.071-23.244c0-8.147,1.436-15.975,4.149-23.245c2.637-7.348,6.475-14.056,11.342-19.969l0.32-0.398
		c-1.279-33.549-10.78-58.869-23.799-80.195c-8.791-14.778-18.932-27.637-28.597-39.86c-10.226-12.859-20.132-25.398-26.763-38.737
		c-5.266-10.386-8.541-21.248-8.541-33.229V3.994h-7.988v15.975c0,11.981,3.276,22.844,8.542,33.229
		c6.63,13.339,16.536,25.878,26.763,38.737c9.665,12.223,19.805,25.082,28.596,39.86c13.02,21.326,22.52,46.646,23.799,80.195
		l-0.319,0.398c-4.867,5.913-8.705,12.621-11.342,19.969c-2.714,7.27-4.149,15.098-4.149,23.245c0,8.143,1.436,15.975,4.071,23.244
		c2.715,7.504,6.708,14.377,11.739,20.367c-1.279,31.873-11.739,59.588-23.799,80.195c-5.031,8.549-10.546,16.451-16.217,23.963
		c-4.149,5.516-8.307,10.781-12.379,15.896c-10.227,12.855-20.133,25.398-26.763,38.738c-5.266,10.381-8.542,21.248-8.542,33.229
		v15.975h7.988v-15.975C303.527,479.254,306.802,468.387,312.068,458.006z"/>
</g>
<path style="fill:#965353;" d="M143.775,467.272V179.72v-7.988h79.876v255.602c0,15.975-79.876,63.9-79.876,47.926L143.775,467.272
	L143.775,467.272z"/>
<g style="opacity:0.2;">
	<path d="M207.676,171.732v255.602c0,11.389-24.614,38.775-47.925,47.926c12.48-2.66,63.9-32.029,63.9-47.926V171.732H207.676z"/>
</g>
<g style="opacity:0.2;">
	<path style="fill:#FFFFFF;" d="M159.75,475.26v-7.988V179.72v-7.988h-15.976v7.988v287.552v7.988c0,4.586,6.611,3.885,16.011,0.203
		C159.782,475.385,159.75,475.338,159.75,475.26z"/>
</g>
<g>
	<path style="fill:#3A3847;" d="M399.377,222.135c-2.192,0-3.979-1.771-3.994-3.967c-0.46-63.175-30.343-99.279-56.708-131.136
		c-18.861-22.784-35.148-42.461-35.148-67.063V3.994c0-2.208,1.786-3.994,3.993-3.994c2.208,0,3.994,1.786,3.994,3.994v15.975
		c0,21.728,15.437,40.375,33.308,61.97c25.873,31.256,58.073,70.152,58.549,136.174c0.016,2.204-1.763,4.006-3.97,4.021
		C399.393,222.135,399.385,222.135,399.377,222.135z"/>
	<path style="fill:#3A3847;" d="M307.52,511.204c-2.207,0-3.993-1.785-3.993-3.994v-15.975c0-24.602,16.287-44.275,35.148-67.059
		c26.365-31.857,56.248-67.965,56.708-131.141c0.016-2.191,1.802-3.963,3.994-3.963c0.008,0,0.016,0,0.023,0
		c2.207,0.016,3.985,1.818,3.97,4.025c-0.476,66.014-32.676,104.914-58.549,136.172c-17.871,21.59-33.308,40.24-33.308,61.965
		v15.975C311.514,509.418,309.728,511.204,307.52,511.204z"/>
	<path style="fill:#3A3847;" d="M295.539,511.204c-2.207,0-3.993-1.785-3.993-3.994v-15.975c0-11.67,2.933-23.135,8.978-35.039
		c6.912-13.908,17.224-26.873,27.192-39.416c4.056-5.084,8.19-10.326,12.317-15.811c6.442-8.533,11.513-16.021,15.959-23.588
		c1.123-1.896,3.572-2.535,5.468-1.412c1.903,1.115,2.535,3.564,1.42,5.469c-4.548,7.721-9.93,15.686-16.467,24.336
		c-4.173,5.547-8.347,10.836-12.449,15.984c-9.704,12.207-19.751,24.836-26.303,38.025c-5.476,10.789-8.128,21.061-8.128,31.451
		v15.975C299.533,509.418,297.747,511.204,295.539,511.204z"/>
	<path style="fill:#3A3847;" d="M359.439,135.789c-1.356,0-2.69-0.698-3.432-1.954c-8.721-14.665-18.674-27.251-28.3-39.423
		c-9.969-12.539-20.28-25.511-27.2-39.435c-6.029-11.88-8.962-23.338-8.962-35.008V3.994c0-2.208,1.786-3.994,3.993-3.994
		c2.208,0,3.994,1.786,3.994,3.994v15.975c0,10.383,2.652,20.663,8.112,31.424c6.56,13.194,16.606,25.835,26.326,38.058
		c9.329,11.806,19.906,25.179,28.9,40.304c1.123,1.896,0.499,4.345-1.396,5.472C360.835,135.609,360.134,135.789,359.439,135.789z"
		/>
	<path style="fill:#3A3847;" d="M359.431,383.403c-0.686,0-1.38-0.18-2.012-0.545c-1.903-1.117-2.543-3.566-1.428-5.469
		c9.852-16.834,21.88-44.088,23.261-78.34c0.086-2.199,1.935-3.939,4.149-3.83c2.2,0.094,3.916,1.951,3.83,4.158
		c-1.443,35.889-14.033,64.424-24.345,82.053C362.138,382.694,360.804,383.403,359.431,383.403z"/>
	<path style="fill:#3A3847;" d="M383.238,215.984c-2.137,0-3.907-1.689-3.985-3.842c-1.115-29.275-8.495-54.143-23.222-78.265
		c-1.154-1.883-0.554-4.341,1.326-5.491c1.888-1.147,4.337-0.558,5.491,1.326c15.46,25.336,23.214,51.432,24.384,82.126
		c0.086,2.204-1.638,4.061-3.838,4.143C383.339,215.984,383.285,215.984,383.238,215.984z"/>
	<path style="fill:#3A3847;" d="M399.377,222.135c-0.476,0-0.96-0.082-1.428-0.262l-16.131-6.15c-2.06-0.788-3.097-3.093-2.31-5.156
		c0.788-2.062,3.09-3.104,5.156-2.309l16.131,6.15c2.06,0.788,3.098,3.093,2.31,5.156
		C402.497,221.156,400.984,222.135,399.377,222.135z"/>
	<path style="fill:#3A3847;" d="M383.238,303.207c-1.606,0-3.119-0.975-3.729-2.574c-0.787-2.059,0.25-4.367,2.31-5.148
		l16.131-6.146c2.052-0.803,4.368,0.242,5.156,2.309c0.788,2.061-0.25,4.369-2.31,5.148l-16.131,6.146
		C384.198,303.122,383.714,303.207,383.238,303.207z"/>
	<path style="fill:#3A3847;" d="M307.52,7.987h-11.981c-2.207,0-3.993-1.786-3.993-3.993c0-2.208,1.786-3.994,3.993-3.994h11.981
		c2.208,0,3.994,1.786,3.994,3.994C311.514,6.201,309.728,7.987,307.52,7.987z"/>
	<path style="fill:#3A3847;" d="M307.52,511.204h-11.981c-2.207,0-3.993-1.785-3.993-3.994c0-2.207,1.786-3.992,3.993-3.992h11.981
		c2.208,0,3.994,1.785,3.994,3.992C311.514,509.418,309.728,511.204,307.52,511.204z"/>
	<path style="fill:#3A3847;" d="M307.52,23.963h-11.981c-2.207,0-3.993-1.786-3.993-3.994c0-2.207,1.786-3.994,3.993-3.994h11.981
		c2.208,0,3.994,1.787,3.994,3.994C311.514,22.177,309.728,23.963,307.52,23.963z"/>
	<path style="fill:#3A3847;" d="M307.52,495.229h-11.981c-2.207,0-3.993-1.787-3.993-3.994s1.786-3.994,3.993-3.994h11.981
		c2.208,0,3.994,1.787,3.994,3.994S309.728,495.229,307.52,495.229z"/>
	<path style="fill:#3A3847;" d="M295.539,455.291c-2.207,0-3.993-1.787-3.993-3.994V59.907c0-2.208,1.786-3.994,3.993-3.994
		c2.208,0,3.994,1.786,3.994,3.994v391.391C299.533,453.504,297.747,455.291,295.539,455.291z"/>
	<path style="fill:#3A3847;" d="M399.377,297.061c-0.999,0-1.997-0.367-2.77-1.115c-10.928-10.492-17.199-25.195-17.199-40.344
		c0-15.148,6.271-29.852,17.199-40.343c1.592-1.521,4.127-1.482,5.647,0.117c1.529,1.591,1.475,4.118-0.117,5.647
		c-9.368,8.989-14.742,21.595-14.742,34.579c0,12.98,5.374,25.586,14.742,34.586c1.592,1.521,1.646,4.057,0.117,5.648
		C401.476,296.647,400.422,297.061,399.377,297.061z"/>
	<path style="fill:#3A3847;" d="M383.246,303.207c-1.146,0-2.277-0.484-3.064-1.428c-5.398-6.42-9.579-13.682-12.442-21.576
		c-2.854-7.893-4.306-16.178-4.306-24.602c0-8.522,1.482-16.814,4.407-24.641c2.754-7.68,6.794-14.797,11.997-21.112
		c1.404-1.705,3.916-1.942,5.624-0.542c1.7,1.4,1.942,3.92,0.538,5.621c-4.609,5.604-8.198,11.923-10.663,18.779
		c-2.605,6.981-3.915,14.333-3.915,21.896c0,7.496,1.286,14.859,3.829,21.889c2.543,7.004,6.256,13.447,11.046,19.156
		c1.42,1.686,1.201,4.205-0.484,5.625C385.064,302.903,384.151,303.207,383.246,303.207z"/>
	<path style="fill:#3A3847;" d="M375.414,259.596h-7.987c-2.208,0-3.994-1.787-3.994-3.994c0-2.208,1.786-3.994,3.994-3.994h7.987
		c2.208,0,3.994,1.786,3.994,3.994C379.409,257.809,377.622,259.596,375.414,259.596z"/>
	<path style="fill:#3A3847;" d="M371.498,282.84c-1.638,0-3.167-1.014-3.76-2.637c-0.749-2.074,0.328-4.359,2.403-5.117l7.512-2.713
		c2.059-0.719,4.359,0.334,5.108,2.402c0.749,2.074-0.319,4.359-2.395,5.117l-7.512,2.713
		C372.404,282.762,371.951,282.84,371.498,282.84z"/>
	<path style="fill:#3A3847;" d="M379.01,239.069c-0.46,0-0.92-0.078-1.372-0.242l-7.302-2.671c-1.614-0.522-2.792-2.024-2.792-3.799
		c0-2.208,1.747-3.994,3.954-3.994h0.078c0.468,0,0.937,0.082,1.373,0.242l7.434,2.718c2.067,0.761,3.136,3.054,2.379,5.125
		C382.169,238.067,380.641,239.069,379.01,239.069z"/>
	<path style="fill:#3A3847;" d="M223.651,431.329c-2.208,0-3.994-1.787-3.994-3.994V171.732c0-2.207,1.787-3.993,3.994-3.993
		s3.994,1.786,3.994,3.993v255.602C227.645,429.541,225.858,431.329,223.651,431.329z"/>
	<path style="fill:#3A3847;" d="M143.775,479.254c-2.207,0-3.993-1.787-3.993-3.994V171.732c0-2.207,1.786-3.993,3.993-3.993
		c2.208,0,3.994,1.786,3.994,3.993V475.26C147.769,477.467,145.983,479.254,143.775,479.254z"/>
	<path style="fill:#3A3847;" d="M148.011,482.467c-2.223,0-4.064-0.514-5.468-1.529c-1.778-1.295-2.761-3.307-2.761-5.678
		c0-2.207,1.786-3.994,3.993-3.994c1.954,0,3.581,1.404,3.928,3.252c4.801,0.711,23.787-7.254,45.402-21.988
		c19.481-13.283,26.552-22.348,26.552-25.195c0-2.207,1.787-3.994,3.994-3.994s3.994,1.787,3.994,3.994
		C227.645,444.362,164.727,482.467,148.011,482.467z"/>
	<path style="fill:#3A3847;" d="M223.651,175.727h-79.876c-2.207,0-3.993-1.786-3.993-3.994c0-2.207,1.786-3.993,3.993-3.993h79.876
		c2.208,0,3.994,1.786,3.994,3.993C227.645,173.94,225.858,175.727,223.651,175.727z"/>
	<path style="fill:#3A3847;" d="M199.688,191.702h-31.95c-2.207,0-3.994-1.787-3.994-3.994c0-2.208,1.787-3.994,3.994-3.994h31.95
		c2.208,0,3.994,1.786,3.994,3.994C203.682,189.915,201.896,191.702,199.688,191.702z"/>
	<path style="fill:#3A3847;" d="M143.775,127.321c-2.207,0-3.993-1.786-3.993-3.994V67.414c0-2.208,1.786-3.994,3.993-3.994
		c2.208,0,3.994,1.786,3.994,3.994v55.913C147.769,125.535,145.983,127.321,143.775,127.321z"/>
	<path style="fill:#3A3847;" d="M159.75,167.739c-2.208,0-3.994-1.787-3.994-3.994V75.402c0-2.208,1.787-3.994,3.994-3.994
		s3.994,1.786,3.994,3.994v88.343C163.744,165.953,161.957,167.739,159.75,167.739z"/>
	<path style="fill:#3A3847;" d="M151.763,71.408h-7.988c-2.207,0-3.993-1.786-3.993-3.994s1.786-3.994,3.993-3.994h7.988
		c2.208,0,3.994,1.786,3.994,3.994S153.97,71.408,151.763,71.408z"/>
	<path style="fill:#3A3847;" d="M151.763,135.309c-1.022,0-2.043-0.39-2.824-1.17l-7.987-7.987c-1.561-1.56-1.561-4.087,0-5.647
		c1.56-1.56,4.087-1.56,5.647,0l7.987,7.987c1.56,1.561,1.56,4.088,0,5.647C153.806,134.919,152.785,135.309,151.763,135.309z"/>
	<path style="fill:#3A3847;" d="M175.726,71.408h-7.988c-2.207,0-3.994-1.786-3.994-3.994s1.787-3.994,3.994-3.994h7.988
		c2.208,0,3.994,1.786,3.994,3.994S177.933,71.408,175.726,71.408z"/>
	<path style="fill:#3A3847;" d="M175.726,127.321c-2.208,0-3.994-1.786-3.994-3.994V67.414c0-2.208,1.786-3.994,3.994-3.994
		s3.994,1.786,3.994,3.994v55.913C179.719,125.535,177.933,127.321,175.726,127.321z"/>
	<path style="fill:#3A3847;" d="M167.738,135.309c-1.021,0-2.043-0.39-2.823-1.17c-1.561-1.56-1.561-4.087,0-5.647l7.987-7.987
		c1.56-1.56,4.087-1.56,5.647,0s1.56,4.087,0,5.647l-7.987,7.987C169.782,134.919,168.76,135.309,167.738,135.309z"/>
	<path style="fill:#3A3847;" d="M191.701,103.358c-2.208,0-3.994-1.786-3.994-3.993V43.452c0-2.208,1.787-3.994,3.994-3.994
		s3.994,1.786,3.994,3.994v55.913C195.694,101.572,193.908,103.358,191.701,103.358z"/>
	<path style="fill:#3A3847;" d="M207.676,167.739c-2.208,0-3.994-1.787-3.994-3.994V51.439c0-2.208,1.786-3.994,3.994-3.994
		s3.994,1.786,3.994,3.994v112.306C211.669,165.953,209.883,167.739,207.676,167.739z"/>
	<path style="fill:#3A3847;" d="M199.688,47.446h-7.987c-2.208,0-3.994-1.787-3.994-3.994c0-2.208,1.787-3.994,3.994-3.994h7.987
		c2.208,0,3.994,1.786,3.994,3.994C203.682,45.659,201.896,47.446,199.688,47.446z"/>
	<path style="fill:#3A3847;" d="M199.688,111.346c-1.021,0-2.043-0.39-2.823-1.17l-7.988-7.988c-1.56-1.56-1.56-4.087,0-5.647
		c1.56-1.56,4.087-1.56,5.647,0l7.988,7.988c1.56,1.56,1.56,4.087,0,5.647C201.732,110.956,200.71,111.346,199.688,111.346z"/>
	<path style="fill:#3A3847;" d="M223.651,47.446h-7.987c-2.208,0-3.994-1.787-3.994-3.994c0-2.208,1.786-3.994,3.994-3.994h7.987
		c2.208,0,3.994,1.786,3.994,3.994C227.645,45.659,225.858,47.446,223.651,47.446z"/>
	<path style="fill:#3A3847;" d="M223.651,103.358c-2.208,0-3.994-1.786-3.994-3.993V43.452c0-2.208,1.787-3.994,3.994-3.994
		s3.994,1.786,3.994,3.994v55.913C227.645,101.572,225.858,103.358,223.651,103.358z"/>
	<path style="fill:#3A3847;" d="M215.663,111.346c-1.022,0-2.044-0.39-2.824-1.17c-1.56-1.56-1.56-4.087,0-5.647l7.988-7.988
		c1.56-1.56,4.087-1.56,5.647,0c1.56,1.561,1.56,4.088,0,5.647l-7.988,7.988C217.707,110.956,216.685,111.346,215.663,111.346z"/>
	<path style="fill:#3A3847;" d="M191.701,167.739c-2.208,0-3.994-1.787-3.994-3.994v-40.417c0-2.208,1.787-3.994,3.994-3.994
		s3.994,1.786,3.994,3.994v40.417C195.694,165.953,193.908,167.739,191.701,167.739z"/>
	<path style="fill:#3A3847;" d="M175.726,167.739c-2.208,0-3.994-1.787-3.994-3.994v-23.963c0-2.207,1.786-3.994,3.994-3.994
		s3.994,1.787,3.994,3.994v23.963C179.719,165.953,177.933,167.739,175.726,167.739z"/>
	<path style="fill:#3A3847;" d="M135.788,471.266c-1.357,0-2.676-0.693-3.424-1.941c-1.002-1.67-24.532-42.076-24.532-145.828
		s23.529-144.163,24.532-145.832c1.135-1.884,3.569-2.516,5.468-1.369c1.892,1.127,2.512,3.576,1.384,5.472
		c-0.234,0.395-23.397,40.585-23.397,141.729c0,101.139,23.163,141.334,23.397,141.732c1.127,1.887,0.507,4.336-1.384,5.467
		C137.188,471.079,136.482,471.266,135.788,471.266z"/>
</g>
<g>
</g>
<g>
</g>
<g>
</g>
<g>
</g>
<g>
</g>
<g>
</g>
<g>
</g>
<g>
</g>
<g>
</g>
<g>
</g>
<g>
</g>
<g>
</g>
<g>
</g>
<g>
</g>
<g>
</g>
</svg>
