<?xml version="1.0" encoding="iso-8859-1"?>
<!-- Generator: Adobe Illustrator 19.0.0, SVG Export Plug-In . SVG Version: 6.00 Build 0)  -->
<svg version="1.1" id="Layer_1" xmlns="http://www.w3.org/2000/svg" xmlns:xlink="http://www.w3.org/1999/xlink" x="0px" y="0px"
	 viewBox="0 0 511.998 511.998" style="enable-background:new 0 0 511.998 511.998;" xml:space="preserve">
<polygon style="fill:#656D78;" points="404.677,236.671 404.677,195.33 371.335,200.673 342.007,144.003 352.007,118.676 
	309.337,98.005 261.331,120.004 233.332,112.676 199.333,93.333 164.006,113.333 178.006,140.675 134.68,204.001 100.681,193.33 
	109.337,232 95.338,271.326 163.335,483.989 355.335,479.317 414.004,271.326 "/>
<path style="fill:#AAB2BC;" d="M214.676,84.677l-13.343-51.998L80.682,68.678l6.656,16l-40.654,27.999L17.34,146.004v15.999
	c0,0,10.672,3.328,10.672,5.328s-15.999,79.998-15.999,79.998v16.67l61.997-40.67c0,0,16-33.999,18-33.327
	s45.326,7.328,45.326,7.328l39.342-60.654l-14.671-21.343l29.999-15.999L214.676,84.677z"/>
<path style="fill:#F6BB42;" d="M302.338,274.669c-3-1-3.672-16.999-3.672-16.999l55.341-71.34l-18.999-31.655l-56.326,75.997
	L247.331,236l-30.655-39.67l-44.67-41.655l-17.327,33.327l56.326,65.326l1.672,22.67l-92.997,49.327l12.656,40.999l106.34-68.654
	l37.662,4l102.995,55.998l15-32.343C394.333,325.324,305.338,275.669,302.338,274.669z"/>
<path style="fill:#AAB2BC;" d="M298.666,84.677l13.343-51.998L432.66,68.678l-6.656,16l40.655,27.999l29.343,33.327v15.999
	c0,0-10.672,3.328-10.672,5.328s16,79.998,16,79.998v16.67l-61.999-40.67c0,0-15.999-33.999-17.999-33.327
	s-45.327,7.328-45.327,7.328l-39.341-60.654l14.671-21.343l-29.999-15.999L298.666,84.677z"/>
<path style="fill:#ED5564;" d="M287.713,267.311c0,17.062-13.828,30.89-30.897,30.89c-17.046,0-30.874-13.828-30.874-30.89
	s13.828-30.889,30.874-30.889C273.885,236.421,287.713,250.249,287.713,267.311z"/>
<path d="M509.829,227.656c-2.688-22.577-7.53-40.811-14.468-54.436l9.312-3.094c5.405-1.797,8.437-7.515,6.905-12.999
	c-6.344-22.625-23.952-43.311-52.311-61.498c-6.578-4.219-12.953-7.781-18.594-10.703l1.406-0.703
	c3.609-1.812,5.891-5.5,5.891-9.546s-2.281-7.734-5.906-9.547c-3.172-1.562-78.137-38.717-132.041-43.732
	c-5.343-0.484-10.202,3.047-11.39,8.266L285.93,85.865c-1.062,4.719,1.172,9.562,5.453,11.796l1.812,0.953
	c-11.891,4.734-24.897,8.078-37.991,8.078c-12.78,0-25.39-3.218-36.905-7.812l2.312-1.219c4.281-2.234,6.531-7.078,5.453-11.796
	l-12.702-56.201c-1.188-5.219-6.047-8.75-11.391-8.266C148.082,26.414,73.085,63.568,69.929,65.13
	c-3.625,1.812-5.906,5.5-5.906,9.547s2.281,7.734,5.891,9.546l1.406,0.703c-5.641,2.922-12.015,6.484-18.593,10.703
	c-28.356,18.188-45.964,38.874-52.308,61.499c-1.531,5.484,1.5,11.202,6.906,12.999l9.312,3.094
	C9.7,186.846,4.857,205.079,2.169,227.657c-2.531,21.28-2.156,38.529-2.141,39.264c0.094,3.859,2.266,7.358,5.672,9.171
	c1.562,0.828,3.281,1.25,5,1.25c2.016,0,4.015-0.578,5.765-1.719l63.139-40.654c1.172-0.75,2.172-1.719,2.969-2.844l15.405-22.03
	c3.359,8.249,3.656,17.28,0.922,27.295c-3.546,12.984-11.046,22.514-11.108,22.577c-2.266,2.812-2.953,6.594-1.828,10.031
	c42.045,128.276,63.481,211.788,63.7,212.616c1.203,4.719,5.453,8.031,10.328,8.031h191.984c4.875,0,9.141-3.312,10.344-8.031
	c0.203-0.828,21.654-84.34,63.685-212.616c1.125-3.438,0.438-7.219-1.828-10.031c-0.062-0.094-7.328-9.327-10.938-21.999
	c-2.859-10.062-2.578-19.375,0.812-27.811l15.375,21.967c0.797,1.125,1.797,2.094,2.969,2.844l63.139,40.654
	c1.75,1.141,3.75,1.719,5.766,1.719c1.719,0,3.438-0.422,4.999-1.25c3.406-1.812,5.578-5.312,5.672-9.171
	C511.985,266.186,512.36,248.937,509.829,227.656z M447.753,113.567c22.672,14.562,33.999,28.655,39.593,39.858L377.661,189.97
	l-33.279-49.92l13.984-13.937l57.997-29.014C422.52,99.677,434.754,105.224,447.753,113.567z M352.538,437.319H159.429
	c-4.844-17.233-11.297-39.623-19.343-66.355l106.73-62.64c2.952,0.641,6.015,1,9.171,1c3.141,0,6.219-0.359,9.172-1l106.738,62.64
	C363.835,397.696,357.382,420.086,352.538,437.319z M107.899,268.436c3.344-5.125,8.296-13.89,11.343-24.624
	c3.641-12.781,3.734-24.968,0.406-36.249l15.656,5.218c1.125,0.375,2.25,0.562,3.375,0.562c3.5,0,6.859-1.718,8.874-4.75
	l2.953-4.438l56.295,59.81l-85.2,47.092C117.305,297.497,112.743,283.278,107.899,268.436z M172.584,171.033l56.123,62.873
	c-3.953,3.281-7.281,7.281-9.844,11.766l-56.216-59.732L172.584,171.033z M349.335,185.939l-56.231,59.732
	c-2.547-4.5-5.891-8.484-9.828-11.766l56.122-62.873L349.335,185.939z M277.322,266.654c0,11.78-9.569,21.343-21.335,21.343
	c-11.765,0-21.327-9.562-21.327-21.343c0-11.749,9.562-21.311,21.327-21.311C267.753,245.343,277.322,254.905,277.322,266.654z
	 M128.117,331.824l88.449-48.874c2.047,4.969,5.031,9.469,8.703,13.281l-91.559,53.732
	C131.914,344.089,130.039,338.043,128.117,331.824z M286.697,296.231c3.688-3.812,6.656-8.312,8.719-13.281l88.448,48.874
	c-1.938,6.219-3.797,12.265-5.594,18.14L286.697,296.231z M392.724,243.812c3.062,10.734,8.016,19.499,11.359,24.624
	c-4.859,14.843-9.422,29.062-13.703,42.623l-85.214-47.092l56.31-59.81l2.969,4.438c2.016,3.031,5.375,4.75,8.873,4.75
	c1.125,0,2.266-0.188,3.359-0.562l15.641-5.203C388.989,218.844,389.099,231.046,392.724,243.812z M317.306,43.82
	c32.576,5.125,72.137,20.967,95.417,31.249l-60.56,30.296L308.54,82.569L317.306,43.82z M245.316,127.52v32.483
	c0,5.906,4.78,10.671,10.671,10.671c5.891,0,10.656-4.766,10.656-10.671v-32.655c18.366-2.031,35.788-8.688,50.459-16.25
	l17.124,8.968l-11.109,11.062c-3.594,3.594-4.171,9.219-1.344,13.469l5.406,8.093l-64.192,71.903c-2.281-0.375-4.625-0.594-7-0.594
	c-2.391,0-4.719,0.219-7,0.594l-64.169-71.888l5.406-8.109c2.828-4.25,2.266-9.875-1.344-13.469l-11.109-11.062l16.656-8.718
	C209.13,119.035,226.691,125.691,245.316,127.52z M194.693,43.82l8.765,38.748l-43.623,22.796L99.274,75.053
	C122.539,64.787,162.085,48.944,194.693,43.82z M95.65,97.099l57.981,29.014l13.983,13.937l-4.78,7.172
	c-0.25,0.328-0.469,0.656-0.672,1l-21.687,32.53c-0.188,0.25-0.359,0.531-0.516,0.781l-5.625,8.438L24.621,153.409
	C39.809,122.613,82.197,102.755,95.65,97.099z M66.291,218.172l-44.436,28.609c1.297-20.781,5.281-49.264,15.312-66.701
	l45.232,15.078L66.291,218.172z M168.209,469.303c-0.75-2.828-1.703-6.406-2.875-10.656h181.298
	c-1.156,4.25-2.125,7.828-2.875,10.656H168.209z M445.706,218.172l-16.108-23.014l45.233-15.078
	c10.03,17.437,14.015,45.92,15.312,66.701L445.706,218.172z"/>
<path d="M245.316,266.654c0,5.906,4.78,10.687,10.671,10.687c5.891,0,10.656-4.78,10.656-10.687c0-5.875-4.766-10.655-10.656-10.655
	C250.097,255.999,245.316,260.779,245.316,266.654z"/>
<g>
</g>
<g>
</g>
<g>
</g>
<g>
</g>
<g>
</g>
<g>
</g>
<g>
</g>
<g>
</g>
<g>
</g>
<g>
</g>
<g>
</g>
<g>
</g>
<g>
</g>
<g>
</g>
<g>
</g>
</svg>
