<?xml version="1.0" encoding="iso-8859-1"?>
<!-- Generator: Adobe Illustrator 19.0.0, SVG Export Plug-In . SVG Version: 6.00 Build 0)  -->
<svg version="1.1" id="Layer_1" xmlns="http://www.w3.org/2000/svg" xmlns:xlink="http://www.w3.org/1999/xlink" x="0px" y="0px"
	 viewBox="0 0 511.976 511.976" style="enable-background:new 0 0 511.976 511.976;" xml:space="preserve">
<path style="fill:#E6E9ED;" d="M371.986,152.663l-18.672-46.67l-6-59.998L310.66,69.337l-37.342,33.999l-42.647,67.997v35.999
	l39.999-16l37.318,14c0,0,41.998,32.655,45.998,35.999s13.328-1.344,13.328-1.344l60.669,21.999v-17.999L371.986,152.663z"/>
<g>
	<polygon style="fill:#F5F7FA;" points="409.311,153.991 393.984,148.663 318.66,218.66 349.986,244.659 400.656,205.333 
		417.311,178.662 	"/>
	<polygon style="fill:#F5F7FA;" points="348.33,13.668 286.333,42.667 239.014,91.337 196.344,151.335 173.345,269.002 
		211.672,252.331 227.015,184.661 236.342,139.007 294.661,77.994 357.002,42.667 	"/>
</g>
<path style="fill:#965353;" d="M316.644,224.316c0,0-236.655,232.334-237.983,233.334s-8.328,23.999-8.328,23.999l9.656,19.328
	l25.343-3l243.654-241.99L316.644,224.316z"/>
<path d="M451.951,273.017l-40.968-68.294l9.188-9.203c6.062-6.031,9.375-14.062,9.375-22.625c0-8.546-3.312-16.577-9.375-22.624
	c-6.031-6.046-14.062-9.375-22.624-9.375c-6.594,0-12.875,2-18.188,5.688c-4.344-6.688-8.029-13.406-11.014-20.125
	c-6.172-13.937-9.438-27.968-9.672-41.702c-0.391-22.952,7.906-37.67,8.312-38.389c1.859-2.984,2.062-6.578,0.656-9.812
	c-2.75-6.25-2.156-18.093-1.125-24.062c0.594-3.547-0.609-7.156-3.234-9.625c-2.625-2.453-6.328-3.421-9.812-2.562
	c-1.812,0.438-44.889,11.281-90.176,51.186c-26.483,23.312-48.295,51.842-64.794,84.715
	c-20.499,40.858-32.812,88.575-36.624,141.837c-0.312,4.375,2.078,8.484,6.031,10.375c1.469,0.703,3.047,1.031,4.594,1.031
	c2.656,0,5.266-0.969,7.281-2.844c0.188-0.188,19.405-17.999,37.654-27.249c2.5-1.281,4.406-3.499,5.297-6.14
	c0.141-0.453,15.937-46.264,50.755-46.264c10.25,0,21.469,3.781,33.499,11.249l-53.38,53.404c-0.016,0-0.016,0-0.016,0
	l-42.654,42.654l0,0L67.849,457.353c-12.468,12.469-12.468,32.78,0,45.249c6.047,6.046,14.093,9.374,22.625,9.374
	c8.562,0,16.593-3.328,22.624-9.374l27.593-27.562c0-0.016,0-0.016,0-0.016l42.654-42.671c0,0,0,0,0.016,0l42.655-42.654
	c0,0,0.016,0,0.016-0.016l42.655-42.654v-0.016l91.145-91.152l0,0c0,0,0,0,0.016,0l9.188-9.187l68.294,40.966
	c1.687,1.031,3.593,1.531,5.468,1.531c2.781,0,5.5-1.078,7.562-3.125C453.81,282.579,454.482,277.204,451.951,273.017z
	 M397.547,162.24c2.844,0,5.531,1.094,7.547,3.125c2.016,2,3.125,4.688,3.125,7.531s-1.109,5.531-3.125,7.546l-52.795,52.795
	l-15.093-15.093l52.81-52.779C392.015,163.334,394.703,162.24,397.547,162.24z M186.469,368.889l21.343-21.328v30.17l-21.343,21.344
	V368.889z M165.142,420.402l-21.327,21.326v-30.17l21.327-21.327V420.402z M229.155,326.234l21.312-21.343v30.187l-21.312,21.311
	V326.234z M271.81,283.563l50.317-50.326l15.078,15.094l-65.396,65.403v-30.171H271.81z M217.218,146.476
	c15.156-30.375,35.124-56.701,59.333-78.232c26.469-23.53,52.404-36.217,67.794-42.342c0.078,2.938,0.344,6.031,0.859,9.125
	c-12.546,6.375-37.123,20.53-62.591,44.717c-21.022,19.921-38.318,42.592-51.427,67.341c-15.531,29.327-25.155,61.623-28.671,96.105
	c-5.906,3.391-11.671,7.265-16.828,11.046C190.876,214.27,201.469,178.099,217.218,146.476z M232.108,201.614
	c4.422-15.375,10.328-30.093,17.671-44.076c11.937-22.656,27.709-43.42,46.897-61.763c15.437-14.719,30.654-25.5,42.498-32.843
	c-1.125,6.062-1.875,12.984-1.844,20.655c0.062,16.765,3.78,33.764,11.077,50.529c4.016,9.219,9.109,18.375,15.266,27.405
	l-41.28,41.28c-17.061-11.406-33.436-17.187-48.904-17.187C258.388,185.614,244.342,191.099,232.108,201.614z M98.02,487.524
	c-2.015,2.016-4.703,3.125-7.546,3.125s-5.531-1.109-7.531-3.125c-4.156-4.172-4.156-10.922,0-15.077l39.53-39.562v30.187
	L98.02,487.524z M384.578,231.113l10.859-10.843l16.265,27.125L384.578,231.113z"/>
<g>
</g>
<g>
</g>
<g>
</g>
<g>
</g>
<g>
</g>
<g>
</g>
<g>
</g>
<g>
</g>
<g>
</g>
<g>
</g>
<g>
</g>
<g>
</g>
<g>
</g>
<g>
</g>
<g>
</g>
</svg>
