<?xml version="1.0" encoding="iso-8859-1"?>
<!-- Generator: Adobe Illustrator 19.0.0, SVG Export Plug-In . SVG Version: 6.00 Build 0)  -->
<svg version="1.1" id="Layer_1" xmlns="http://www.w3.org/2000/svg" xmlns:xlink="http://www.w3.org/1999/xlink" x="0px" y="0px"
	 viewBox="0 0 511.98 511.98" style="enable-background:new 0 0 511.98 511.98;" xml:space="preserve">
<polygon style="fill:#ED5564;" points="93.986,55.217 93.986,475.981 99.986,493.981 120.985,498.981 133.984,476.981 
	133.984,55.217 "/>
<g>
	<path style="fill:#CCD1D9;" d="M408.012,307.176c0,32.516-26.344,58.874-58.842,58.874c-32.529,0-58.871-26.358-58.871-58.874
		c0-32.499,26.342-58.856,58.871-58.856C381.669,248.319,408.012,274.677,408.012,307.176z"/>
	<polygon style="fill:#CCD1D9;" points="127.328,11.344 99.736,13.5 93.986,50.67 113.828,50.67 133.984,45.593 133.984,36.014 	"/>
</g>
<path style="fill:#AAB2BC;" d="M292.987,240.491l-13,2.5c0,0-5.25,7-6.25,7.75s2,13.25,1.75,14.75s8,11.608,8,11.608
	s19.5-16.108,21.75-17.858c2.248-1.75,3.248-12.749,3.248-12.749S294.487,240.741,292.987,240.491z"/>
<path d="M430.169,298.661h-11.438c-1.812-12.641-6.812-24.266-14.125-34.03l8.094-8.109c4.156-4.156,4.156-10.906,0-15.078
	s-10.906-4.172-15.094,0l-8.094,8.109c-9.781-7.328-21.404-12.312-34.029-14.125v-11.437c0-5.891-4.781-10.656-10.656-10.656
	c-5.904,0-10.654,4.765-10.654,10.656v11.437c-5.719,0.812-11.188,2.281-16.406,4.312c-8.75-9.75-19.873-14.312-30.998-12.468
	c-5.125,0.875-9.812,3.062-13.625,6.25c-1-0.312-2.148-0.656-3.383-1.062c-5.594-1.859-11.625,1.156-13.484,6.75
	s1.156,11.625,6.75,13.5c0,0,0,0,0.016,0c-0.984,10.14,3.438,20.468,12.383,29.092c-2.125,5.344-3.664,11-4.508,16.859H259.48
	c-5.875,0-10.656,4.766-10.656,10.671c0,5.875,4.781,10.656,10.656,10.656h11.438c1.82,12.625,6.82,24.249,14.133,34.03
	l-8.094,8.094c-4.188,4.172-4.188,10.937,0,15.092c2.062,2.078,4.812,3.125,7.531,3.125s5.469-1.047,7.531-3.125l8.125-8.107
	c9.748,7.326,21.373,12.311,34.029,14.123v11.438c0,5.891,4.75,10.671,10.654,10.671c5.875,0,10.656-4.78,10.656-10.671V383.22
	c12.625-1.812,24.248-6.797,34.029-14.123l8.094,8.107c2.094,2.078,4.812,3.125,7.562,3.125c2.719,0,5.438-1.047,7.531-3.125
	c4.156-4.155,4.156-10.92,0-15.092l-8.094-8.094c7.312-9.781,12.312-21.405,14.125-34.03h11.438c5.875,0,10.654-4.781,10.654-10.656
	C440.823,303.427,436.044,298.661,430.169,298.661z M344.827,362.659c-29.404,0-53.34-23.921-53.34-53.327
	c0-29.405,23.936-53.341,53.34-53.341l0,0l0,0c29.404,0,53.342,23.936,53.342,53.341
	C398.169,338.738,374.231,362.659,344.827,362.659z M284.425,253.787c0.656-2.828,2.938-4.984,5.875-5.468
	c2.625-0.438,5.438,0.468,8.188,2.5c-4.312,3.438-8.281,7.343-11.75,11.64C284.675,259.428,283.831,256.428,284.425,253.787z"/>
<path d="M344.827,298.661c-5.904,0-10.654,4.766-10.654,10.671c0,5.875,4.75,10.656,10.654,10.656
	c5.875,0,10.656-4.781,10.656-10.656C355.483,303.427,350.702,298.661,344.827,298.661z"/>
<path d="M344.827,266.662c-5.904,0-10.654,4.766-10.654,10.671c0,5.875,4.75,10.656,10.654,10.656
	c5.875,0,10.656-4.781,10.656-10.656C355.483,271.428,350.702,266.662,344.827,266.662z"/>
<path d="M376.825,298.661c-5.904,0-10.654,4.766-10.654,10.671c0,5.875,4.75,10.656,10.654,10.656
	c5.875,0,10.656-4.781,10.656-10.656C387.481,303.427,382.7,298.661,376.825,298.661z"/>
<path d="M344.827,330.66c-5.904,0-10.654,4.766-10.654,10.671c0,5.875,4.75,10.656,10.654,10.656
	c5.875,0,10.656-4.781,10.656-10.656C355.483,335.426,350.702,330.66,344.827,330.66z"/>
<path d="M312.829,298.661c-5.906,0-10.654,4.766-10.654,10.671c0,5.875,4.748,10.656,10.654,10.656
	c5.875,0,10.656-4.781,10.656-10.656C323.485,303.427,318.704,298.661,312.829,298.661z"/>
<path d="M226.918,125.902c-5.812-0.906-11.281,3.094-12.172,8.906c-0.984,6.344-2.312,13-4.062,20.343
	c-1.359,5.75,2.171,11.499,7.89,12.874c0.844,0.188,1.672,0.281,2.5,0.281c4.812,0,9.188-3.297,10.359-8.187
	c1.89-7.921,3.328-15.124,4.39-22.046C236.73,132.245,232.73,126.808,226.918,125.902z"/>
<path d="M223.762,82.934c-5.781,1.094-9.594,6.656-8.516,12.453c0.953,5.046,1.422,10.609,1.422,16.562c0,0.906,0,1.828-0.031,2.734
	c-0.125,5.906,4.531,10.781,10.406,10.922c0.094,0,0.188,0,0.266,0c5.765,0,10.515-4.609,10.671-10.422
	c0.016-1.078,0.031-2.156,0.031-3.234c0-7.265-0.609-14.14-1.797-20.483C235.137,85.669,229.559,81.856,223.762,82.934z"/>
<path d="M218.731,83.747c1.719,0,3.438-0.406,5.062-1.281c5.172-2.796,7.109-9.265,4.312-14.437
	c-4-7.421-9.281-14.062-15.687-19.749c-4.406-3.906-11.156-3.5-15.062,0.906c-3.906,4.421-3.5,11.156,0.906,15.062
	c4.609,4.078,8.219,8.625,11.062,13.906C211.263,81.716,214.934,83.747,218.731,83.747z"/>
<path d="M223.528,210.492c5.625-1.75,8.796-7.719,7.047-13.343c-1.469-4.781-2.219-10.047-2.219-15.609c0-0.734,0-1.468,0.031-2.218
	c0.203-5.891-4.406-10.828-10.281-11.031c-5.89-0.188-10.843,4.422-11.03,10.297c-0.031,0.984-0.062,1.968-0.062,2.953
	c0,7.703,1.078,15.062,3.188,21.89c1.406,4.594,5.624,7.531,10.187,7.531C221.418,210.961,222.481,210.805,223.528,210.492z"/>
<path d="M255.761,239.085c3.156-4.984,1.687-11.578-3.297-14.718c-5.453-3.453-10.046-7.453-13.671-11.905
	c-3.719-4.562-10.437-5.234-15-1.516c-4.562,3.734-5.25,10.452-1.531,15.015c5.094,6.218,11.406,11.75,18.781,16.421
	c1.781,1.109,3.75,1.656,5.703,1.656C250.277,244.038,253.73,242.272,255.761,239.085z"/>
<path d="M191.857,34.905c-6.625-3.156-14.093-5.828-22.171-7.953c-5.703-1.484-11.53,1.922-13.03,7.609
	c-1.484,5.688,1.922,11.531,7.608,13.031c6.812,1.781,13,4,18.437,6.578c1.484,0.703,3.031,1.047,4.578,1.047
	c3.984,0,7.812-2.25,9.641-6.093C199.45,43.811,197.185,37.436,191.857,34.905z"/>
<path d="M145.828,85.341V43.843c5.234-0.031,9.781-3.906,10.5-9.25c0.781-5.843-3.312-11.218-9.156-12
	c-0.937-0.125-1.906-0.25-2.875-0.359C140.14,9.344,128.063,0,113.828,0C96.173,0,81.829,14.359,81.829,31.999v53.342
	c-5.906,0-10.671,4.766-10.671,10.656s4.766,10.671,10.671,10.671v373.313c0,17.656,14.344,31.999,31.999,31.999
	c17.64,0,32-14.343,32-31.999V106.668c5.875,0,10.656-4.781,10.656-10.671C156.484,90.106,151.702,85.341,145.828,85.341z
	 M124.485,390.235l-21.327,21.343v-33.843l21.327-21.326V390.235z M103.158,63.998h21.327V262.24l-21.327,21.343
	C103.158,283.583,103.158,63.998,103.158,63.998z M124.485,326.238l-21.327,21.343v-33.843l21.327-21.327V326.238z M113.828,21.343
	c5.875,0,10.656,4.781,10.656,10.656v10.672h-21.327V31.999C103.158,26.124,107.938,21.343,113.828,21.343z M113.828,490.653
	c-5.89,0-10.671-4.797-10.671-10.672v-38.249l21.327-21.326v59.575C124.485,485.856,119.703,490.653,113.828,490.653z"/>
<g>
</g>
<g>
</g>
<g>
</g>
<g>
</g>
<g>
</g>
<g>
</g>
<g>
</g>
<g>
</g>
<g>
</g>
<g>
</g>
<g>
</g>
<g>
</g>
<g>
</g>
<g>
</g>
<g>
</g>
</svg>
