<?xml version="1.0" encoding="iso-8859-1"?>
<!-- Generator: Adobe Illustrator 19.0.0, SVG Export Plug-In . SVG Version: 6.00 Build 0)  -->
<svg version="1.1" id="Layer_1" xmlns="http://www.w3.org/2000/svg" xmlns:xlink="http://www.w3.org/1999/xlink" x="0px" y="0px"
	 viewBox="0 0 511.972 511.972" style="enable-background:new 0 0 511.972 511.972;" xml:space="preserve">
<g>
	<polygon style="fill:#ED5564;" points="331.986,11.492 243.99,100.488 272.989,126.987 343.985,62.99 362.985,39.991 	"/>
	<polygon style="fill:#ED5564;" points="470.981,148.486 380.483,236.483 413.482,263.982 499.48,177.985 	"/>
</g>
<polygon style="fill:#DA4453;" points="442.981,148.486 376.983,77.489 347.985,69.239 296.488,113.488 306.487,135.487 
	375.983,206.234 404.296,213.328 445.481,164.985 "/>
<polygon style="fill:#E6E9ED;" points="314.987,148.486 255.989,228.483 285.988,255.982 362.985,200.984 "/>
<polygon style="fill:#DA4453;" points="255.989,232.655 99.339,377.977 131.994,405.304 285.988,260.654 "/>
<path style="fill:#E6E9ED;" d="M99.339,381.477l-45.342,42.499l31.999,31.998c0,0,40.999-38.998,42.999-42.498
	C130.995,409.976,99.339,381.477,99.339,381.477z"/>
<polygon style="fill:#F5F7FA;" points="40.998,416.476 7.999,441.474 19.498,489.473 75.996,498.973 99.339,473.974 "/>
<path d="M508.854,169.016l-30.155-30.17c-4.155-4.172-10.905-4.172-15.093,0L453.2,149.267l-2.094-6.249
	c-0.531-1.562-1.406-3-2.562-4.172L373.14,63.443c-1.186-1.172-2.623-2.047-4.186-2.578l-6.25-2.078l10.436-10.422
	c2-1.999,3.125-4.718,3.125-7.546s-1.125-5.547-3.125-7.547L342.954,3.117c-4.155-4.156-10.905-4.156-15.062,0l-90.496,90.497
	c-2,2-3.125,4.702-3.125,7.53s1.125,5.547,3.125,7.531l30.155,30.171c2,2,4.719,3.125,7.562,3.125c2.812,0,5.531-1.125,7.531-3.125
	l10.406-10.422l2.094,6.25c0.531,1.578,1.406,3,2.594,4.172l8.249,8.266l-14.28,17.437l0,0l-27.124,33.155
	c0,0.016-0.031,0.031-0.031,0.031l-12.906,15.78c-4.188-3.406-10.343-3.156-14.25,0.75c-4.156,4.155-4.156,10.905,0,15.062
	l-40.373,40.39l0,0l-42.655,42.654l0,0l-42.655,42.655c0,0.016,0,0.016,0,0.016l-10.562,10.531c-4.156-4.156-10.906-4.156-15.093,0
	c-4.156,4.172-4.156,10.936,0,15.092L55.903,410.82l-7.531-7.53c-4.156-4.172-10.906-4.172-15.093,0L3.124,433.444
	c-2.844,2.844-3.843,7.062-2.594,10.89l14.906,45.077c0.562,1.625,1.469,3.078,2.688,4.25c0.031,0.031,0.062,0.078,0.094,0.109
	c1.594,1.594,3.562,2.578,5.625,2.953l43.748,14.687c1.125,0.375,2.25,0.562,3.406,0.562c2.781,0,5.5-1.094,7.531-3.125
	l30.155-30.155c4.188-4.155,4.188-10.921,0-15.093l-7.531-7.531l30.155-30.155c2.093,2.078,4.812,3.125,7.562,3.125
	c2.719,0,5.438-1.047,7.531-3.125c4.156-4.171,4.156-10.921,0-15.093l81.903-81.902c1.344-0.844,2.469-1.969,3.281-3.281
	l40.842-40.843l0,0l10.218-10.219c2.094,2.094,4.812,3.125,7.531,3.125c2.75,0,5.469-1.031,7.562-3.125
	c3.875-3.89,4.125-10.062,0.719-14.249l15.78-12.905c0.031,0,0.031,0,0.031-0.016l33.154-27.125c0-0.016,0.031-0.016,0.031-0.031
	L364.858,206l8.279,8.266c1.156,1.155,2.594,2.046,4.156,2.562l6.25,2.094l-10.406,10.406c-1.998,2-3.123,4.719-3.123,7.547
	s1.125,5.547,3.123,7.547l30.156,30.154c2.062,2.094,4.812,3.125,7.53,3.125c2.719,0,5.469-1.031,7.531-3.125l90.497-90.48
	C513.011,179.923,513.011,173.173,508.854,169.016z M335.424,25.741l15.093,15.078l-19.843,19.858L320.33,70.989l-15.061-15.093
	L335.424,25.741z M275.113,116.237l-15.093-15.093l30.155-30.155l15.094,15.078l-15.094,15.077v0.016L275.113,116.237z
	 M308.237,224.764l-10.499-10.499c4.156,4.155,10.905,4.155,15.062,0c4.156-4.172,4.156-10.938,0-15.094
	c-4.156-4.155-10.905-4.155-15.062,0c-4.188,4.156-4.188,10.906-0.031,15.078l-10.5-10.516l13.562-16.593l24.061,24.062
	L308.237,224.764z M283.363,245.139l-1.812-1.797l-14.718-14.734l6.812-8.281l18,18.031L283.363,245.139z M252.489,244.421
	l15.062,15.077l-7.094,7.094h-30.155L252.489,244.421z M217.803,309.261h-30.155l21.312-21.343h30.186L217.803,309.261z
	 M175.149,351.917h-30.155l21.311-21.343h30.187L175.149,351.917z M123.651,373.228h30.187l-22.53,22.515l-15.062-15.078
	L123.651,373.228z M40.841,425.913l15.062,15.077l-25.561,25.547l-7.5-22.656L40.841,425.913z M68.121,489.098l-22.561-7.594
	l25.436-25.437l15.062,15.094L68.121,489.098z M78.528,433.46c0-0.016,0-0.016,0-0.016l0,0l-7.531-7.531l30.155-30.17l15.093,15.077
	l-30.186,30.17L78.528,433.46z M341.423,197.626l-27.061-27.078l6.78-8.28l28.562,28.577L341.423,197.626z M373.139,184.11
	c0-0.016,0-0.016,0-0.016l-45.247-45.248l0,0l-13.312-13.297l-4.656-13.983l31.217-31.202l4.719-4.719l13.969,4.656l71.841,71.841
	l4.656,13.999l-35.905,35.905l-14-4.655L373.139,184.11z M410.826,251.951l-15.062-15.077l30.155-30.155l15.062,15.077
	L410.826,251.951z M456.075,206.703l-15.094-15.062l30.188-30.171l15.062,15.077L456.075,206.703z"/>
<path d="M395.764,172.141c2.719,0,5.438-1.047,7.531-3.125c4.156-4.172,4.156-10.921,0-15.093l-45.248-45.248
	c-4.156-4.156-10.906-4.156-15.094,0c-4.155,4.188-4.155,10.937,0,15.093l45.248,45.248
	C390.296,171.094,393.014,172.141,395.764,172.141z"/>
<g>
</g>
<g>
</g>
<g>
</g>
<g>
</g>
<g>
</g>
<g>
</g>
<g>
</g>
<g>
</g>
<g>
</g>
<g>
</g>
<g>
</g>
<g>
</g>
<g>
</g>
<g>
</g>
<g>
</g>
</svg>
