<?xml version="1.0" encoding="iso-8859-1"?>
<!-- Generator: Adobe Illustrator 19.0.0, SVG Export Plug-In . SVG Version: 6.00 Build 0)  -->
<svg version="1.1" id="Layer_1" xmlns="http://www.w3.org/2000/svg" xmlns:xlink="http://www.w3.org/1999/xlink" x="0px" y="0px"
	 viewBox="0 0 511.98 511.98" style="enable-background:new 0 0 511.98 511.98;" xml:space="preserve">
<polygon style="fill:#E6E9ED;" points="419.983,31.998 153.338,295.316 211.336,361.986 488.637,85.324 503.325,14.671 "/>
<polygon style="fill:#CCD1D9;" points="108.995,265.989 87.996,287.988 224.647,420.311 237.334,398.312 "/>
<polygon style="fill:#ED5564;" points="133.494,343.142 46.998,430.982 78.497,458.637 167.993,374.485 "/>
<path style="fill:#CCD1D9;" d="M72.997,472.231c0,15.608-12.656,28.249-28.249,28.249s-28.25-12.641-28.25-28.249
	c0-15.609,12.656-28.25,28.25-28.25C60.341,443.981,72.997,456.622,72.997,472.231z"/>
<path d="M508.854,3.124c-2.594-2.594-6.357-3.687-9.936-2.844l-78.404,18.062c-1.953,0.438-3.734,1.438-5.156,2.844L148.244,288.301
	l-30.155-30.171c-2-1.999-4.718-3.124-7.546-3.124s-5.546,1.125-7.546,3.124l-22.624,22.624c-4.156,4.172-4.156,10.922,0,15.078
	l45.248,45.264l-85.637,85.637c-10.39,0.656-20.062,4.984-27.483,12.405c-8.062,8.062-12.5,18.781-12.5,30.172
	c0,11.39,4.438,22.108,12.5,30.171c8.062,8.062,18.765,12.499,30.155,12.499c11.405,0,22.124-4.438,30.186-12.499
	c7.625-7.625,11.75-17.453,12.375-27.468l47.951-47.951c0,0,0,0,0.016-0.016l30.155-30.155l0,0l7.531-7.531l45.264,45.248
	c2,2,4.703,3.125,7.547,3.125c2.828,0,5.531-1.125,7.531-3.125l22.624-22.624c4.187-4.172,4.187-10.937,0-15.093l-30.155-30.17
	l267.113-267.1c1.406-1.422,2.406-3.219,2.844-5.156l18.061-78.403C512.542,9.468,511.448,5.718,508.854,3.124z M121.214,405.858
	h-30.17l8.828-8.843h30.171L121.214,405.858z M72.841,439.137c-2.594-2.577-5.438-4.78-8.5-6.593l5.375-5.359h30.155l-20.452,20.452
	C77.622,444.606,75.434,441.747,72.841,439.137z M57.747,484.386c-4.031,4.031-9.375,6.25-15.093,6.25
	c-5.688,0-11.047-2.219-15.078-6.25c-4.016-4.016-6.25-9.374-6.25-15.077s2.234-11.047,6.25-15.078
	c4.031-4.031,9.39-6.25,15.078-6.25c5.718,0,11.062,2.219,15.093,6.25C66.059,462.544,66.059,476.074,57.747,484.386z
	 M151.369,375.672h-30.155l19.5-19.498l15.093,15.093L151.369,375.672z M223.678,408.983L178.43,363.72l0,0l0,0l-75.435-75.42
	l7.546-7.547l30.171,30.171l60.341,60.342l0,0l30.155,30.171L223.678,408.983z M473.544,83.684L208.586,348.642l-15.078-15.093
	l185.694-185.68c4.156-4.156,4.156-10.922,0-15.094c-4.188-4.156-10.936-4.156-15.092,0L178.43,318.471l-15.093-15.077
	L428.296,38.436l58.795-13.546L473.544,83.684z"/>
<path d="M42.655,458.637c-5.875,0-10.656,4.781-10.656,10.672s4.781,10.671,10.656,10.671c5.906,0,10.687-4.78,10.687-10.671
	S48.56,458.637,42.655,458.637z"/>
<g>
</g>
<g>
</g>
<g>
</g>
<g>
</g>
<g>
</g>
<g>
</g>
<g>
</g>
<g>
</g>
<g>
</g>
<g>
</g>
<g>
</g>
<g>
</g>
<g>
</g>
<g>
</g>
<g>
</g>
</svg>
