<?xml version="1.0" encoding="iso-8859-1"?>
<!-- Generator: Adobe Illustrator 19.0.0, SVG Export Plug-In . SVG Version: 6.00 Build 0)  -->
<svg version="1.1" id="Layer_1" xmlns="http://www.w3.org/2000/svg" xmlns:xlink="http://www.w3.org/1999/xlink" x="0px" y="0px"
	 viewBox="0 0 511.983 511.983" style="enable-background:new 0 0 511.983 511.983;" xml:space="preserve">
<path style="fill:#CCD1D9;" d="M492.64,451.982l-18.671-26l-32.672-7.326l-7.327-59.342l-83.997-55.998l-32.67-5.328l-5.328-29.326
	l15.999-12.672l21.999,2.672l73.997-39.999l20.671-23.999l-9.343-23.343l-17.328-13.327l-47.325-15.328l-34.671-4l-51.326,16
	l-35.991,25.999c0,0-18.671,53.998-18.671,56.654s31.999,90.669,31.999,90.669l4,31.998l-35.999,85.324l91.316,3.344l68.669,20.656
	l61.326,19.342l44.671-15.998L492.64,451.982z"/>
<path style="fill:#E6E9ED;" d="M347.973,273.66c0,9.766-9.187,17.672-20.515,17.672c-11.327,0-20.499-7.906-20.499-17.672
	c0-9.764,9.172-17.67,20.499-17.67C338.787,255.99,347.973,263.896,347.973,273.66z"/>
<path style="fill:#ED5564;" d="M285.976,92.496l-14.491-44.499l-27.999-23.499l-46.998-3.5l-37.499,9.5L136.99,66.997v68.498v56.998
	l-14.5,24.999l-29.498,3h-25c0,0-17.499-0.5-16.499,0s27.999,21.998,31.999,23.498s48.998,3.5,48.998,3.5l36.998-12.5l13.5-28.499
	l7.5-40.499l6.999-34.999l9.5-19.999l22.999-6l22.999,6.5l21.491,17l11.5,10.171l11-3.172L285.976,92.496z"/>
<path style="fill:#656D78;" d="M485.64,247.49l-36.999-44.499l-95.293,53.842l-0.046,15.157l-5.328,15.998l5,14.672l43.451,31.625
	l47.217,24.029c0,0,43.999-48.998,45.655-49.326s13-35.328,13-35.328L485.64,247.49z"/>
<path d="M447.985,399.297v-32.029c5.625-5.391,17.391-16.906,29.296-30.342c14.906-16.797,34.702-41.25,34.702-59.609
	c0-13.764-9.608-31.357-29.327-53.794c-10.14-11.53-20.155-21.108-24.858-25.467c-4.344-18.531-22.343-37.53-49.186-51.529
	c-18.359-9.594-38.482-15.688-58.201-17.578c-15.905-1.531-30.983-0.188-44.451,3.875c-0.577-23.062-5.546-64.701-31.515-93.074
	c-17.679-19.296-41.834-29.093-71.786-29.093c-26.921,0-47.295,7.281-60.591,21.608c-23.609,25.452-20.438,67.513-17.625,104.637
	c2.438,32.436,4.766,63.091-11.343,70.06c-5.25,2.281-10.656,3.438-16.093,3.438c-20.656,0-40.202-16.531-52.92-30.39
	c-14.703-16-24.031-32.342-24.125-32.499c-2.703-4.766-8.53-6.703-13.546-4.547c-5,2.188-7.562,7.781-5.922,13
	c0.328,1.062,8.422,26.452,26.187,52.123c24.374,35.233,55.279,53.857,89.355,53.857c8.203,0,16.688-1.078,25.203-3.203
	c22.92-5.75,38.686-18.25,48.154-38.218c7.827-16.468,10.077-35.717,12.062-52.686c4.281-36.655,8.141-50.498,32.062-50.498
	c16.312,0,34.405,16.14,45.256,28.328c-17.929,10.828-31.881,22.967-41.553,36.186c-10.5,14.359-16.344,30.484-17.344,47.889
	c-1.797,31.03,11.984,61.56,23.047,86.06c7.843,17.328,15.921,35.232,13.468,43.967c-10.999,39.248-40.812,81.621-41.108,82.059
	c-2.405,3.391-2.608,7.891-0.516,11.5c2.094,3.625,6.094,5.672,10.234,5.281c90.896-8.703,134.878,12.641,167.001,28.217
	c16,7.781,29.827,14.5,44.78,14.5c13.577,0,27.858-2.031,39.17-5.578c17-5.328,27.203-13.812,30.343-25.232
	c3-10.844-1-22.656-11.874-35.062C484.687,424.328,469.454,412.469,447.985,399.297z M461.438,322.644
	c-9.516,10.75-19.141,20.404-25.171,26.264l-13.953-9.764l41.421-51.156h23.327C483.39,295.113,476.062,306.144,461.438,322.644z
	 M380.94,251.709l12.375,14.953h-32.513c-0.406-1.156-0.859-2.281-1.406-3.359L380.94,251.709z M412.971,234.475l24.281,32.187
	h-16.25l-20.89-25.265L412.971,234.475z M330.646,266.662c5.891,0,10.671,4.781,10.671,10.654c0,5.891-4.78,10.672-10.671,10.672
	c-5.875,0-10.656-4.781-10.656-10.672C319.99,271.443,324.771,266.662,330.646,266.662z M360.802,287.988h33.826L378.987,308.8
	l-21.076-14.75C359.083,292.144,360.052,290.113,360.802,287.988z M421.314,287.988h14.969L404.8,326.879l-8.328-5.828
	L421.314,287.988z M487.406,266.662h-23.452l-31.983-42.421l14.327-7.703c5,4.766,12.781,12.469,20.469,21.218
	C476.422,248.756,483.562,258.818,487.406,266.662z M233.517,95.996c-20.14,0-34.53,8.031-42.779,23.858
	c-6.656,12.765-8.516,28.671-10.469,45.514c-1.875,16.093-3.828,32.718-10.125,45.999c-6.671,14.062-17.499,22.53-34.061,26.655
	c-6.844,1.719-13.578,2.594-20.047,2.594c-14.421,0-28.014-4.25-40.639-12.687c6.891,2.406,14.125,3.796,21.609,3.796
	c8.374,0,16.639-1.734,24.561-5.187c14.125-6.125,22.266-18.765,24.906-38.67c2.046-15.406,0.687-33.467-0.766-52.561
	c-2.594-34.374-5.266-69.904,12.015-88.527c9.218-9.938,23.905-14.781,44.936-14.781c23.687,0,42.53,7.438,56.014,22.108
	c17.179,18.734,23.163,45.967,25.116,66.248c-0.188-0.172-0.359-0.328-0.547-0.5C266.032,104.027,249.313,95.996,233.517,95.996z
	 M485.734,464.857c-2.219,8.062-25.093,15.123-48.951,15.123c-10.047,0-21.266-5.436-35.468-12.342
	c-29.951-14.531-73.997-35.906-156.72-31.844c10.405-17.123,24.937-43.904,32.334-70.262c4.531-16.203-4.312-35.811-14.554-58.514
	c-10.641-23.562-22.702-50.248-21.218-76.06c1.688-28.967,20.905-52.779,58.803-72.778c31.17-16.453,72.683-6.375,98.792,7.249
	c18.155,9.484,31.687,21.718,36.671,32.75l-56.796,30.561c-0.016,0-0.047,0.016-0.062,0.031l-35.467,19.062
	c-3.828-1.625-8.03-2.516-12.452-2.516c-17.64,0-31.998,14.359-31.998,31.998c0,17.641,14.358,32,31.998,32
	c3.391,0,6.656-0.531,9.718-1.5l86.278,60.389v58.434c0,5.906,4.781,10.688,10.656,10.688c5.905,0,10.687-4.781,10.687-10.688
	v-2.029c13.672,9.092,23.844,17.436,30.374,24.889C483.984,455.888,486.656,461.498,485.734,464.857z"/>
<g>
</g>
<g>
</g>
<g>
</g>
<g>
</g>
<g>
</g>
<g>
</g>
<g>
</g>
<g>
</g>
<g>
</g>
<g>
</g>
<g>
</g>
<g>
</g>
<g>
</g>
<g>
</g>
<g>
</g>
</svg>
