<?xml version="1.0" encoding="iso-8859-1"?>
<!-- Generator: Adobe Illustrator 19.0.0, SVG Export Plug-In . SVG Version: 6.00 Build 0)  -->
<svg version="1.1" id="Layer_1" xmlns="http://www.w3.org/2000/svg" xmlns:xlink="http://www.w3.org/1999/xlink" x="0px" y="0px"
	 viewBox="0 0 511.984 511.984" style="enable-background:new 0 0 511.984 511.984;" xml:space="preserve">
<polygon style="fill:#F6BB42;" points="425.988,203.004 375.989,188.004 326.992,141.35 311.993,126.007 304.994,39.01 
	239.996,76.009 200.997,124.007 176.998,196.676 207.997,178.005 255.995,186.004 290.119,206.769 313.993,244.674 327.992,289.993 
	313.993,332.992 357.991,323.992 426.988,281.993 463.987,224.331 477.986,191.004 "/>
<polygon style="fill:#965353;" points="270.995,210.004 12.005,478.985 27.004,500.985 55.003,491.985 304.994,236.002 "/>
<g>
	<polygon style="fill:#FFCE54;" points="368.663,152.678 356.663,142.678 341.335,146.006 318.009,168.677 280.666,199.332 
		283.478,219.55 304.994,230.378 310.009,223.331 336.664,201.332 374.661,170.005 	"/>
	<path style="fill:#FFCE54;" d="M268.995,35.76l-43.749,19.999l-66.747,96.997l-14.25,80.247l27.749-9.25l11.25-29.249
		c0,0,14.25-65.248,14.25-66.248s32.999-39.749,32.999-39.749l53.248-36.749l31.749-14V14.511L268.995,35.76z"/>
	<path style="fill:#FFCE54;" d="M476.736,189.254l-14.249,43.748l-38.749,55.491l-77.747,44.499l-57.247,10.999l-1.25,24.75
		c0,0,51.248-12,56.247-13.25c5-1.25,72.997-31.999,72.997-31.999l38.749-37.749l31.499-41.991l13.25-51.998L476.736,189.254z"/>
</g>
<path d="M508.235,183.504c-2.656-2.234-6.171-3.062-9.53-2.156c-0.328,0.078-3.125,0.688-6.859,0.688
	c-3.984,0-7.516-0.656-10.516-1.968c-3.797-1.672-8.062-1.125-11.171,1.625c-0.156,0.125-16.516,13.547-42.515,13.547
	c-16.672,0-33.624-5.297-50.671-15.796c3.562-5.25,5.484-11.438,5.484-17.921c0-8.546-3.328-16.577-9.375-22.64
	c-6.029-6.031-14.076-9.359-22.623-9.359c-6.453,0-12.624,1.89-17.858,5.453c-3.844-6.25-7.016-12.468-9.469-18.687
	c-5.218-13.218-7.249-26.389-6.046-39.092c2.062-21.796,13.108-35.249,13.171-35.311c2.734-3.125,3.344-7.438,1.672-11.219
	c-3.391-7.75-1.422-16.78-1.281-17.374c0.891-3.375,0.078-6.875-2.156-9.531c-2.25-2.688-5.672-4.031-9.141-3.719
	c-1.796,0.172-44.514,4.344-89.417,37.843c-26.249,19.593-47.858,45.186-64.217,76.091C145.5,152.18,133.328,198.6,129.516,251.926
	c-0.375,5.141,2.984,9.828,7.984,11.109c0.891,0.219,1.781,0.344,2.656,0.344c4.078,0,7.906-2.344,9.671-6.203
	c0.078-0.172,8.453-17.734,24.562-25.921c2.453-1.234,4.344-3.39,5.25-6c0.109-0.344,11.984-33.53,41.342-33.53
	c8.172,0,17.25,2.5,26.983,7.437c3.984,2.031,8.094,4.469,12.312,7.297L9.364,457.361c-12.484,12.469-12.484,32.78,0,45.249
	c6.046,6.046,14.078,9.374,22.624,9.374c8.547,0,16.578-3.328,22.64-9.374l27.562-27.577c0.016,0,0.016-0.016,0.016-0.016
	l42.655-42.655c0,0,0,0,0.016,0l42.654-42.654c0,0,0,0,0-0.016l137.98-137.972c12.202,18.188,16.951,34.444,13.779,47.866
	c-5.405,22.858-32.326,32.687-32.561,32.749c-2.594,0.906-4.75,2.797-6,5.25c-8.124,15.999-25.499,24.374-25.905,24.562
	c-4.672,2.156-7.125,7.344-5.844,12.343c1.203,4.733,5.484,7.999,10.312,7.999c0.266,0,0.516,0,0.766-0.031
	c53.342-3.797,99.746-15.982,137.947-36.201c30.905-16.358,56.514-37.952,76.092-64.201c33.514-44.913,37.67-87.614,37.842-89.411
	C512.251,189.16,510.907,185.754,508.235,183.504z M350.46,150.849c2.859,0,5.531,1.109,7.547,3.125s3.125,4.688,3.125,7.546
	c0,2.844-1.109,5.515-3.125,7.546l-52.794,52.779l-15.094-15.077l52.794-52.795C344.929,151.959,347.616,150.849,350.46,150.849z
	 M127.985,368.897l21.343-21.328v30.17l-21.343,21.328V368.897z M106.657,420.394L85.33,441.736v-30.17l21.327-21.327
	C106.657,390.239,106.657,420.394,106.657,420.394z M170.655,326.242l104.386-104.396l15.078,15.093L170.655,356.397V326.242z
	 M184.201,124.694c14.718-28.061,34.092-51.279,57.576-69.013c26.358-19.921,52.201-28.483,66.95-32.03
	c0.078,1.156,0.188,2.359,0.359,3.578c-13.249,3.937-36.545,12.75-61.138,30.967c-21.624,16.031-39.857,36.062-54.169,59.56
	c-16.953,27.812-28.375,60.529-34.015,97.309c-1.765,1.094-3.468,2.281-5.078,3.5C160.186,183.067,170.076,151.599,184.201,124.694z
	 M220.981,170.395c-11.358,0-21.952,3.141-31.42,9.203c5.562-18.25,12.937-35.03,22.078-50.154
	c12.749-21.078,28.952-39.061,48.185-53.482c14.952-11.203,29.468-18.515,40.905-23.155c-2.094,6.031-3.859,13.046-4.734,20.921
	c-1.781,16.234,0.547,32.874,6.938,49.436c3.437,8.953,8.077,17.89,13.874,26.749l-41.218,41.217
	C256.136,177.348,237.84,170.395,220.981,170.395z M39.535,487.516c-2.016,2.031-4.688,3.125-7.547,3.125
	c-2.843,0-5.515-1.094-7.546-3.125c-4.156-4.156-4.156-10.922,0-15.077l39.545-39.546v30.171L39.535,487.516z M362.038,195.192
	c21.654,14.203,43.623,21.374,65.606,21.374c12.327,0,22.968-2.312,31.577-5.327c-4.531,11.202-11.656,25.358-22.577,40.107
	c-14.375,19.406-32.39,35.772-53.515,48.632c-15.279,9.312-32.248,16.796-50.747,22.437c3.312-5.141,6-11.016,7.608-17.718
	c4.938-20.547-1.515-43.429-19.14-68.303L362.038,195.192z M456.3,270.22c-17.734,23.476-40.952,42.834-68.998,57.568
	c-26.904,14.124-58.372,23.999-93.87,29.499c1.219-1.609,2.391-3.297,3.5-5.078c36.764-5.641,69.481-17.062,97.308-34.015
	c23.483-14.312,43.515-32.53,59.545-54.162c18.234-24.593,27.046-47.905,30.983-61.154c1.172,0.156,2.359,0.297,3.578,0.375
	C484.799,218.003,476.221,243.862,456.3,270.22z"/>
<g>
</g>
<g>
</g>
<g>
</g>
<g>
</g>
<g>
</g>
<g>
</g>
<g>
</g>
<g>
</g>
<g>
</g>
<g>
</g>
<g>
</g>
<g>
</g>
<g>
</g>
<g>
</g>
<g>
</g>
</svg>
