<?xml version="1.0" encoding="iso-8859-1"?>
<!-- Generator: Adobe Illustrator 19.0.0, SVG Export Plug-In . SVG Version: 6.00 Build 0)  -->
<svg version="1.1" id="Layer_1" xmlns="http://www.w3.org/2000/svg" xmlns:xlink="http://www.w3.org/1999/xlink" x="0px" y="0px"
	 viewBox="0 0 512 512" style="enable-background:new 0 0 512 512;" xml:space="preserve">
<path style="fill:#362928;" d="M443.054,469.784H68.739c0-248.569,187.164-278.915,187.164-278.915S443.054,221.217,443.054,469.784
	z"/>
<path style="fill:#2E2322;" d="M68.739,469.785h60.804c5.287-110.804,17.85-183.815,29.636-230.023
	C113.46,278.926,68.739,348.282,68.739,469.785z"/>
<rect x="68.735" y="438.856" style="fill:#FFE666;" width="373.938" height="30.929"/>
<rect x="68.735" y="438.856" style="fill:#EDBF31;" width="60.813" height="30.929"/>
<path style="fill:#F75534;" d="M148.785,187.161c-10.418,29.268-19.498,86.8-26.603,144.906
	c-3.866,31.556-7.147,63.279-9.749,90.739c-1.484,15.694-2.748,29.999-3.783,42.089c-2.027,24.012-3.135,39.267-3.135,39.267
	l-5.632-1.672l-67.135-19.895l-22.298-6.604c0.46-12.006,1.442-23.667,2.873-34.983c2.069-16.363,5.099-32.005,8.861-46.895
	c7.544-29.926,18.056-56.832,29.853-80.562c31.389-63.269,71.764-104.009,88.701-119.432
	C145.817,189.512,148.785,187.161,148.785,187.161z"/>
<path style="fill:#BD391E;" d="M140.739,194.12c-1.996,6.499-3.929,14.012-5.81,22.309c-18.411,21.18-40.751,51.263-59.789,89.621
	c-11.797,23.73-22.319,50.636-29.863,80.562c-3.762,14.89-6.781,30.532-8.85,46.895c-0.502,3.992-1.118,8.61-1.766,13.834
	c-1.181,9.603-2.445,21.253-3.25,34.858l-20.961-6.207c0.23-5.987,0.585-11.88,1.076-17.701c0.272-3.323,0.575-6.614,0.93-9.885
	c0.272-2.487,0.554-4.953,0.867-7.398c2.069-16.363,5.099-32.005,8.861-46.895c7.544-29.926,18.056-56.832,29.853-80.562
	C83.426,250.283,123.801,209.543,140.739,194.12z"/>
<path style="fill:#FFE666;" d="M108.462,467.1c-0.606,7.189-1.118,13.396-1.536,18.568c-0.961,12.089-1.411,18.495-1.411,18.495
	l-66.581-19.728l-28.484-8.443c0.23-5.987,0.585-11.88,1.076-17.701c0.47-5.841,1.076-11.609,1.797-17.283h0.01
	c0,0,11.776,3.574,27.752,8.202C61.964,455.261,90.03,463.098,108.462,467.1z"/>
<path style="fill:#EDBF31;" d="M34.661,447.341c-1.181,9.603-2.445,21.253-3.25,34.858l-20.961-6.207
	c0.23-5.987,0.585-11.88,1.076-17.701c0.272-3.323,0.575-6.614,0.93-9.885c0.272-2.487,0.554-4.953,0.867-7.398h0.01
	C13.334,441.009,22.049,443.652,34.661,447.341z"/>
<path style="fill:#F75534;" d="M501.553,475.992l-76.184,22.57l-18.881,5.601c0,0-0.031-0.449-0.094-1.317
	c-0.313-4.19-1.358-18.066-3.041-37.951c-1.034-12.089-2.299-26.394-3.783-42.089c-2.602-27.46-5.883-59.183-9.749-90.739
	c-6.687-54.69-15.13-108.878-24.775-139.463c-0.606-1.912-1.212-3.73-1.829-5.444c0,0,55.954,44.178,96.747,126.391
	c11.797,23.73,22.309,50.636,29.853,80.562c3.762,14.89,6.792,30.532,8.861,46.895C500.111,452.325,501.093,463.986,501.553,475.992
	z"/>
<path style="fill:#BD391E;" d="M425.369,498.562l-18.881,5.601c0,0-0.031-0.449-0.094-1.317c-0.303-4.065-1.296-17.23-2.884-36.143
	c-0.052-0.596-0.104-1.202-0.157-1.808c-1.034-12.089-2.299-26.394-3.783-42.089c-2.602-27.46-5.883-59.183-9.749-90.739
	c-6.687-54.69-15.13-108.878-24.775-139.463c6.217,5.569,16.541,15.37,28.745,29.215c4.295,24.743,8.202,52.757,11.651,80.917
	c3.856,31.556,7.147,63.279,9.749,90.739c1.484,15.694,3.302,29.895,4.336,41.984c0.679,8.035,1.557,17.763,2.424,27.146
	C423.676,481.258,425.369,498.562,425.369,498.562z"/>
<path style="fill:#FFE666;" d="M501.553,475.992l-71.879,21.295l-23.186,6.875c0,0-0.92-13.051-2.947-37.063
	c7.011-1.526,15.412-3.594,24.283-5.914c32.308-8.464,70.844-20.177,70.844-20.177h0.01
	C500.111,452.325,501.093,463.986,501.553,475.992z"/>
<path style="fill:#EDBF31;" d="M425.369,498.562l-18.881,5.601c0,0-0.031-0.449-0.094-1.317c-0.303-4.065-1.296-17.23-2.884-36.143
	c6.802-1.484,13.5-2.957,18.442-4.096C423.676,481.258,425.369,498.562,425.369,498.562z"/>
<path style="fill:#F75534;" d="M417.083,269.071H94.711c0,0,20.386-113.904,161.196-156.411
	C396.687,155.166,417.083,269.071,417.083,269.071z"/>
<path style="fill:#BD391E;" d="M255.908,112.66C115.097,155.166,94.711,269.071,94.711,269.071h22.026
	C116.738,269.071,130.266,175.89,255.908,112.66z"/>
<path style="fill:#FFE666;" d="M414.997,75.175c0,68.722-73.767,124.431-164.774,124.431c-90.994,0-164.774-55.709-164.774-124.431
	c0-24.816,9.618-47.933,26.195-67.339c-1.942,8.215-2.966,16.735-2.966,25.455c0,68.722,63.377,124.431,141.547,124.431
	c78.183,0,141.561-55.708,141.561-124.431c0-8.72-1.024-17.214-2.953-25.429C405.393,27.27,414.997,50.372,414.997,75.175z"/>
<path style="fill:#EBC13F;" d="M404.848,32.12c0.582,4.678,0.89,9.427,0.89,14.238c0,73.435-69.622,132.966-155.515,132.966
	c-85.881,0-155.515-59.531-155.515-132.966c0-4.81,0.307-9.557,0.89-14.235c-6.553,13.415-10.149,27.913-10.149,43.052
	c0,68.722,73.78,124.43,164.774,124.43c91.007,0,164.774-55.709,164.774-124.43C414.997,60.037,411.402,45.538,404.848,32.12z"/>
<path style="fill:#E64524;" d="M415.86,272.78c-32.643,7.116-102.682,16.729-157.748,23.907c-0.711,0.094-1.4,0.146-2.111,0.146
	c-0.763,0-1.536-0.052-2.299-0.157c-17.105-2.32-128.512-17.533-157.612-23.865c-4.295-0.93-4.409-7.032-0.146-8.129
	c57.187-14.806,138-26.457,156.212-28.985c0.481-0.073,0.92-0.136,1.317-0.188c1.63-0.23,3.26-0.23,4.89,0
	c12.33,1.735,70.384,10.271,157.477,29.174C420.186,265.623,420.207,271.829,415.86,272.78z"/>
<path style="fill:#CF3E21;" d="M256.002,235.509v61.325c-0.763,0-1.536-0.052-2.299-0.157
	c-17.105-2.32-128.512-17.533-157.612-23.865c-4.295-0.93-4.409-7.032-0.146-8.129c57.187-14.806,138-26.457,156.212-28.985
	L256.002,235.509z"/>
<path d="M497.418,392.202c-0.927-3.681-1.932-7.369-2.973-11.053c-0.068-0.322-0.164-0.642-0.274-0.959
	c-1.962-6.881-4.094-13.746-6.418-20.511c-1.407-4.094-5.868-6.273-9.957-4.865c-4.093,1.405-6.271,5.863-4.865,9.957
	c1.519,4.424,2.947,8.895,4.308,13.381c-12.586,4.904-41.878,15.475-72.161,20.431c-2.126-21.118-4.326-41.183-6.57-59.951
	c21.926-3.876,46.021-11.536,57.447-15.394c1.221,2.569,2.427,5.167,3.605,7.779c1.308,2.901,4.162,4.618,7.149,4.618
	c1.077,0,2.171-0.224,3.216-0.694c3.946-1.778,5.703-6.42,3.925-10.365c-2.194-4.865-4.481-9.699-6.796-14.366
	c-0.026-0.055-0.054-0.11-0.082-0.165c-16.556-33.364-37.394-64.459-61.932-92.436c-8.172-14.601-19.543-30.992-35.195-47.002
	c0.538-0.396,1.083-0.788,1.615-1.19c33.128-25.017,51.373-58.486,51.373-94.238c0-25.867-9.697-50.903-28.043-72.4
	c-2.349-2.752-6.275-3.541-9.5-1.905c-3.227,1.632-4.917,5.262-4.091,8.782c1.822,7.762,2.746,15.714,2.746,23.638
	c0,41.727-25.276,78.398-63.175,99.002c-18.899-11.176-39.936-20.298-62.602-27.136c-1.476-0.446-3.051-0.445-4.528,0.001
	c-24.777,7.476-47.556,17.652-67.787,30.27c-17.403-8.342-32.72-20.057-44.559-34.526c-2.741-3.351-7.679-3.844-11.028-1.103
	c-3.35,2.741-3.844,7.678-1.103,11.028c14.021,17.138,32.349,30.822,53.142,40.221c0.624,0.38,1.291,0.674,1.987,0.866
	c20.277,8.836,42.804,13.643,65.925,13.643c26.505,0,51.417-6.147,73.022-16.91c0.567-0.209,1.112-0.485,1.622-0.823
	c42.856-21.978,72.313-62.259,74.61-108.68c5.072,11.563,7.685,23.709,7.685,36.03c0,34.862-20.709,66.194-53.459,87.579
	c-0.256,0.146-0.503,0.312-0.743,0.49c-27.549,17.761-63.482,28.524-102.735,28.524c-36.15,0-69.479-9.132-96.043-24.449
	c-0.305-0.207-0.623-0.386-0.949-0.544c-36.484-21.368-59.947-54.485-59.947-91.599c0-12.331,2.619-24.485,7.697-36.055
	c0.6,12.267,3.097,24.322,7.445,35.914c1.52,4.053,6.04,6.106,10.09,4.586c4.052-1.52,6.105-6.037,4.586-10.09
	c-4.373-11.658-6.59-23.851-6.59-36.24c0-7.957,0.928-15.915,2.756-23.652c0.833-3.521-0.854-7.155-4.08-8.792
	c-3.229-1.637-7.155-0.853-9.505,1.899c-18.363,21.502-28.07,46.548-28.07,72.429c0,35.752,18.247,69.22,51.379,94.239
	c2.729,2.061,5.539,4.036,8.414,5.94c-13.784,14.903-23.928,29.849-31.365,43.308c-24.17,27.767-44.698,58.506-61.011,91.383
	c-0.027,0.054-0.054,0.109-0.082,0.165c-11.217,22.587-20.33,46.123-27.168,70.119c-0.032,0.099-0.059,0.2-0.087,0.3
	c-1.092,3.844-2.132,7.699-3.105,11.564c-3.971,15.714-7.011,31.807-9.037,47.83c-1.488,11.758-2.473,23.758-2.93,35.668
	c-0.138,3.58,2.169,6.796,5.604,7.815l95.066,28.17c0.73,0.216,1.481,0.323,2.227,0.323h0.001c0.001,0,0.002,0,0.003,0
	c1.579,0,3.141-0.478,4.467-1.398c1.952-1.354,3.185-3.521,3.35-5.893c0.002-0.026,0.044-0.619,0.125-1.736
	c0.27-3.609,0.952-12.613,1.994-25.351h36.839h7.577c4.329,0,7.837-3.508,7.837-7.837c0-4.329-3.508-7.837-7.837-7.837h-7.576
	H116.77c0.446-5.181,0.892-10.256,1.339-15.256h275.787c0.446,5.001,0.892,10.075,1.339,15.256H214.206h-10.794
	c-4.329,0-7.837,3.508-7.837,7.837c0,4.329,3.508,7.837,7.837,7.837h10.794h182.341c1.045,12.77,1.728,21.786,1.996,25.377
	c0.08,1.1,0.121,1.682,0.123,1.709c0.165,2.372,1.398,4.539,3.351,5.893c1.327,0.921,2.888,1.398,4.466,1.398
	c0.001,0,0.001,0,0.002,0c0,0,0.001,0,0.002,0c0.693,0,1.388-0.101,2.069-0.288c0.051-0.014,0.103-0.019,0.154-0.033h0.001
	c0.001,0,0.002,0,0.002,0l14.858-4.403l80.206-23.766c2.576-0.764,4.518-2.764,5.269-5.227c0.251-0.82,0.369-1.693,0.334-2.588
	c-0.457-11.909-1.442-23.909-2.93-35.668C504.427,424.001,501.386,407.908,497.418,392.202z M204.306,142.747
	c15.797-8.8,33.081-16.142,51.602-21.89c16.807,5.215,32.615,11.759,47.205,19.511c-16.23,6.118-34.113,9.516-52.891,9.516
	C234.373,149.884,218.851,147.401,204.306,142.747z M29.784,396.029c0.228-0.903,0.467-1.805,0.702-2.705
	c14.006,5.42,43.665,15.913,74.897,20.886c-0.252,2.607-0.504,5.223-0.753,7.859c-1.09,11.539-2.144,23.176-3.204,35.378
	c-26.337-6.326-64.46-17.547-79.434-22.019C23.899,422.21,26.51,408.988,29.784,396.029z M56.049,323.236
	c11.427,3.86,35.52,11.518,57.445,15.394c-2.243,18.768-4.443,38.833-6.569,59.951c-30.283-4.957-59.579-15.529-72.163-20.432
	C40.446,359.442,47.572,341.055,56.049,323.236z M19.128,461.631c0.061-0.799,0.129-1.598,0.193-2.396
	c0.181-2.21,0.379-4.417,0.598-6.619c0.046-0.468,0.091-0.936,0.139-1.403c17.027,5.072,54.337,15.987,80.026,22.029
	c-0.719,8.665-1.267,15.602-1.656,20.647l-79.866-23.665C18.716,467.358,18.911,464.493,19.128,461.631z M115.403,323.05
	c-19.267-3.493-40.735-10.157-52.271-13.983c5.631-10.758,11.732-21.266,18.286-31.489c6.538,1.497,20.72,4.673,38.979,8.351
	C118.715,297.571,117.043,310,115.403,323.05z M113.169,268.414c83.948-20.666,137.128-24.973,142.737-25.384
	c5.62,0.41,58.687,4.69,142.722,25.384c-37.222,7.713-99.146,19.256-142.724,20.729C212.316,287.67,150.393,276.128,113.169,268.414
	z M430.561,277.537c6.558,10.23,12.668,20.751,18.311,31.532c-11.536,3.825-33.004,10.49-52.271,13.983
	c-1.646-13.109-3.321-25.55-5.003-37.161C409.942,282.192,424.137,279.009,430.561,277.537z M413.576,493.887
	c-0.389-5.045-0.936-11.982-1.656-20.647c25.689-6.043,62.998-16.957,80.026-22.029c0.048,0.467,0.093,0.935,0.139,1.403
	c0.217,2.203,0.416,4.409,0.598,6.619c0.066,0.798,0.134,1.597,0.193,2.396c0.217,2.863,0.413,5.728,0.566,8.591L413.576,493.887z
	 M481.508,393.327c0.234,0.902,0.485,1.805,0.712,2.706c3.274,12.956,5.884,26.178,7.791,39.395
	c-14.973,4.472-53.095,15.694-79.434,22.019c-1.058-12.199-2.113-23.838-3.204-35.379c-0.25-2.635-0.501-5.252-0.753-7.858
	C437.845,409.238,467.498,398.748,481.508,393.327z M250.223,207.443c39.023,0,76.108-9.851,106.33-27.991
	c27.848,27.681,41.596,56.74,47.912,74.253c-90.789-22.555-145.554-26.195-148.073-26.352c-0.325-0.021-0.653-0.021-0.978,0
	c-2.518,0.158-57.294,3.797-148.085,26.351c5.995-16.606,18.721-43.726,43.85-70.108
	C179.986,199.088,214.284,207.443,250.223,207.443z M119.535,431.02c0.232-2.498,0.465-4.989,0.699-7.473
	c3.09-32.607,6.362-63.064,9.726-90.528c1.907-15.606,3.866-30.376,5.838-44.064c36.723,7.026,83.815,14.676,119.848,15.862
	c0.087,0.003,0.172,0.004,0.258,0.004s0.172-0.001,0.258-0.004c36.092-1.188,83.286-8.864,120.037-15.9
	c1.969,13.642,3.93,28.425,5.845,44.105c3.364,27.461,6.636,57.919,9.726,90.524c0.235,2.485,0.468,4.977,0.699,7.475
	L119.535,431.02L119.535,431.02z"/>
<g>
</g>
<g>
</g>
<g>
</g>
<g>
</g>
<g>
</g>
<g>
</g>
<g>
</g>
<g>
</g>
<g>
</g>
<g>
</g>
<g>
</g>
<g>
</g>
<g>
</g>
<g>
</g>
<g>
</g>
</svg>
