<svg height="511pt" viewBox="1 -35 511.999 511" width="511pt" xmlns="http://www.w3.org/2000/svg"><path d="m377.121094 342.851562-5.128906 62.398438h-231.988282l-5.132812-62.398438h95.261718v-41.253906h-98.652343l-4.921875-59.820312h103.578125v-41.253906h-106.972657l-3.433593-41.753907 32.253906-116.71875h50.257813l53.753906 27.296875 53.753906-27.296875h50.257812l32.253907 116.71875-3.433594 41.753907h-106.96875v41.253906h103.574219l-4.917969 59.820312h-98.65625v41.253906zm0 0" fill="#c6c5ca"/><path d="m190.785156 241.777344h36.253906v59.820312h-36.253906zm0 0" fill="#898890"/><path d="m324.957031 241.777344h36.253907v59.820312h-36.253907zm0 0" fill="#898890"/><path d="m190.785156 342.851562h36.253906v62.398438h-36.253906zm0 0" fill="#898890"/><path d="m324.957031 342.851562h36.253907v62.398438h-36.253907zm0 0" fill="#898890"/><path d="m230.132812 192.789062h51.726563v56.722657h-51.726563zm0 0" fill="#ffb655"/><path d="m122.957031 241.777344h107.175781v-41.253906h-110.398437zm0 0" fill="#b77062"/><path d="m170.78125 241.777344h36.253906v59.820312h-36.253906zm0 0" fill="#b77062"/><path d="m304.957031 241.777344h36.253907v59.820312h-36.253907zm0 0" fill="#b77062"/><path d="m170.78125 342.851562h36.253906v62.398438h-36.253906zm0 0" fill="#b77062"/><path d="m304.957031 342.851562h36.253907v62.398438h-36.253907zm0 0" fill="#b77062"/><path d="m281.859375 241.777344h107.175781l3.226563-41.253906h-110.402344zm0 0" fill="#b77062"/><path d="m230.132812 293.863281h51.726563v56.722657h-51.726563zm0 0" fill="#ffb655"/><path d="m129.140625 342.851562h100.992187v-41.253906h-104.21875zm0 0" fill="#b77062"/><path d="m281.859375 342.851562h100.996094l3.222656-41.253906h-104.21875zm0 0" fill="#b77062"/><path d="m382.324219 433.054688h-252.652344l4.148437-27.804688h244.351563zm0 0" fill="#787680"/><path d="m372.925781 64.4375 67.910157-39.207031 56.042968 97.0625-67.910156 39.210937zm0 0" fill="#c6c5ca"/><path d="m499.753906 150.1875-57.984375 33.476562-12.941406-22.414062 67.914063-39.210938 7.207031 12.488282c-1.636719 6.113281-2.554688 9.542968-4.195313 15.660156zm0 0" fill="#787680"/><path d="m440.847656 25.230469-67.914062 39.210937-12.9375-22.414062 57.984375-33.476563c6.113281 1.636719 9.542969 2.554688 15.660156 4.195313zm0 0" fill="#787680"/><path d="m83.023438 161.507812-67.910157-39.210937 56.039063-97.0625 67.914062 39.210937zm0 0" fill="#c6c5ca"/><path d="m12.246094 150.1875 57.984375 33.476562 12.941406-22.414062-67.914063-39.210938-7.210937 12.488282c1.640625 6.113281 2.558594 9.542968 4.199219 15.660156zm0 0" fill="#787680"/><path d="m71.152344 25.230469 67.914062 39.210937 12.9375-22.414062-57.984375-33.476563c-6.117187 1.636719-9.542969 2.554688-15.660156 4.195313zm0 0" fill="#787680"/><g fill="#898890"><path d="m230.132812 200.523438h30.003907v41.253906h-30.003907zm0 0"/><path d="m230.132812 301.597656h30.003907v41.253906h-30.003907zm0 0"/><path d="m285.996094 69.347656 53.757812-27.296875h-30.003906l-38.753906 19.679688zm0 0"/><path d="m134.871094 342.851562 5.132812 62.398438h30l-5.132812-62.398438zm0 0"/><path d="m149.734375 158.769531 32.253906-116.71875h-30.003906l-32.25 116.71875 3.429687 41.753907h30.003907zm0 0"/><path d="m156.5625 241.777344h-30.003906l4.917968 59.820312h30.003907zm0 0"/></g><path d="m230.132812 192.789062h30.003907v56.722657h-30.003907zm0 0" fill="#ff7956"/><path d="m119.734375 200.523438 3.222656 41.253906h30.003907l-3.226563-41.253906zm0 0" fill="#895247"/><path d="m170.78125 241.777344h20.003906v59.820312h-20.003906zm0 0" fill="#895247"/><path d="m304.957031 241.777344h20v59.820312h-20zm0 0" fill="#895247"/><path d="m170.78125 342.851562h20.003906v62.398438h-20.003906zm0 0" fill="#895247"/><path d="m304.957031 342.851562h20v62.398438h-20zm0 0" fill="#895247"/><path d="m281.859375 200.523438h30v41.253906h-30zm0 0" fill="#895247"/><path d="m230.132812 293.863281h30.003907v56.722657h-30.003907zm0 0" fill="#ff7956"/><path d="m125.914062 301.597656 3.226563 41.253906h30l-3.226563-41.253906zm0 0" fill="#895247"/><path d="m281.859375 301.597656h30v41.253906h-30zm0 0" fill="#895247"/><path d="m133.820312 405.25-4.148437 27.804688h30l4.148437-27.804688zm0 0" fill="#57565c"/><path d="m402.9375 64.441406 45.410156-26.21875-7.5-12.992187-67.914062 39.210937 56.042968 97.066406 22.503907-12.992187zm0 0" fill="#898890"/><path d="m458.832031 161.25 44.90625-25.925781c.070313-.261719.140625-.527344.214844-.796875l-7.210937-12.488282-67.914063 39.210938 12.941406 22.414062 22.5-12.992187zm0 0" fill="#57565c"/><path d="m389.996094 42.027344 45.414062-26.21875-1.769531-3.0625c-6.113281-1.640625-9.542969-2.558594-15.660156-4.195313l-57.984375 33.476563 12.941406 22.414062 22.5-12.992187zm0 0" fill="#57565c"/><path d="m45.109375 122.296875 48.542969-84.074219-22.5-12.992187-56.042969 97.066406 67.914063 39.210937 7.5-12.992187zm0 0" fill="#898890"/><path d="m42.246094 150.1875c-1.566406-5.847656-2.472656-9.238281-3.980469-14.863281l-23.007813-13.285157-7.210937 12.488282c1.640625 6.113281 2.558594 9.542968 4.199219 15.660156l57.984375 33.476562 7.5-12.992187zm0 0" fill="#57565c"/><path d="m101.152344 25.230469 5.441406-9.421875-12.574219-7.257813c-6.113281 1.636719-9.542969 2.554688-15.660156 4.195313l-7.207031 12.484375 67.914062 39.210937 7.5-12.992187zm0 0" fill="#57565c"/><path d="m289.359375 185.289062h-25.859375v-60.304687h-15v60.304687h-25.867188v7.734376h-111.007812l4.394531 56.253906h106.613281v7.734375h66.726563v-7.734375h106.613281l4.398438-56.253906h-111.011719zm-159.464844 48.988282-2.050781-26.253906h94.789062v26.253906zm107.742188-5.625h18.359375v-15.003906h-18.359375v-13.359376h36.722656v41.726563h-36.722656zm146.511719-20.628906-2.050782 26.253906h-92.738281v-26.253906zm0 0"/><path d="m348.710938 261.777344h-15v32.320312h-21.253907v-32.320312h-15v32.320312h-8.097656v-7.734375h-66.726563v7.734375h-8.097656v-32.320312h-15v32.320312h-21.253906v-32.320312h-15v32.320312h-45.476562l4.398437 56.257813h41.078125v34.894531h15v-34.894531h21.253906v34.894531h15v-34.894531h8.097656v7.734375h66.726563v-7.734375h8.097656v34.894531h15v-34.894531h21.253907v34.894531h15v-34.894531h41.078124l4.398438-56.257813h-45.476562zm-212.632813 73.574218-2.054687-26.253906h88.609374v26.253906zm101.558594-5.625h18.359375v-15h-18.359375v-13.363281h36.722656v41.726563h-36.722656zm140.332031-20.628906-2.050781 26.253906h-86.558594v-26.253906zm0 0"/><path d="m380.132812 397.753906 2.820313-34.285156-14.949219-1.226562-2.921875 35.511718h-218.171875l-2.917968-35.511718-14.949219 1.226562 2.816406 34.285156h-4.503906l-6.390625 42.800782h270.0625l-6.390625-42.800782zm-241.761718 27.800782 1.914062-12.800782h231.425782l1.910156 12.800782zm0 0"/><path d="m499.488281 111.792969-48.394531-83.816407-12.511719-21.671874-21.660156-5.804688-58.976563 34.050781h-49.992187l-51.957031 26.382813-51.957032-26.382813h-49.988281l-58.972656-34.050781-21.660156 5.804688-12.511719 21.671874-48.394531 83.816407-12.511719 21.671875 5.804688 21.664062 67.171874 38.78125 56.128907-97.222656-16.957031 61.371094 1.898437 23.078125 14.949219-1.230469-1.679688-20.425781 30.378906-109.929688h42.75l55.550782 28.207031 55.550781-28.207031h42.75l30.378906 109.929688-1.679687 20.425781 14.949218 1.230469 1.898438-23.078125-16.964844-61.390625 56.144532 97.242187 67.171874-38.78125 5.804688-21.664062zm-406.527343-95.195313 48.796874 28.175782-5.4375 9.421874-54.925781-31.710937 1.90625-3.296875zm-74.273438 128.648438-2.589844-9.660156 1.757813-3.042969 54.921875 31.710937-5.292969 9.167969zm6.816406-25.949219 48.390625-83.820313 54.921875 31.707032-48.390625 83.820312zm393.535156-102.699219 9.660157 2.589844 1.90625 3.296875-54.925781 31.710937-5.4375-9.421874zm-35.855468 50.589844 54.921875-31.710938 48.390625 83.820313-54.921875 31.707031zm110.128906 78.058594-48.796875 28.171875-5.292969-9.164063 54.921875-31.710937 1.757813 3.042969zm0 0"/><path d="m399.066406 72.441406 12.992188-7.503906 36.039062 62.421875-12.988281 7.5zm0 0"/><path d="m421.707031 59.371094 12.988281-7.5 36.042969 62.421875-12.992187 7.5zm0 0"/><path d="m63.886719 127.367188 36.039062-62.421876 12.992188 7.5-36.039063 62.421876zm0 0"/><path d="m41.25 114.292969 36.039062-62.421875 12.992188 7.5-36.042969 62.425781zm0 0"/><path d="m139.117188 213.648438h15.003906v15.003906h-15.003906zm0 0"/><path d="m169.121094 213.648438h15v15.003906h-15zm0 0"/><path d="m199.121094 213.648438h15v15.003906h-15zm0 0"/><path d="m357.878906 213.648438h15.003906v15.003906h-15.003906zm0 0"/><path d="m327.878906 213.648438h15v15.003906h-15zm0 0"/><path d="m297.878906 213.648438h15v15.003906h-15zm0 0"/><path d="m139.117188 314.726562h15.003906v15h-15.003906zm0 0"/><path d="m169.121094 314.726562h15v15h-15zm0 0"/><path d="m199.121094 314.726562h15v15h-15zm0 0"/><path d="m357.878906 314.726562h15.003906v15h-15.003906zm0 0"/><path d="m327.878906 314.726562h15v15h-15zm0 0"/><path d="m297.878906 314.726562h15v15h-15zm0 0"/><path d="m374.6875 281.007812 1.628906-19.820312 14.949219 1.230469-1.628906 19.820312zm0 0"/><path d="m120.722656 262.382812 14.949219-1.230468 1.628906 19.820312-14.949219 1.226563zm0 0"/><path d="m359.75 163.144531-12.683594-45.898437 14.457032-3.996094 12.683593 45.898438zm-15.347656-55.539062-3.996094-14.457031 14.460938-3.996094 3.996093 14.457031zm-6.660156-24.097657-3.992188-14.457031 14.457031-3.996093 3.996094 14.457031zm0 0" fill="#fff"/></svg>