<svg height="511pt" viewBox="-16 1 511 511.999" width="511pt" xmlns="http://www.w3.org/2000/svg"><path d="m350.007812 226.996094 12.386719 50.476562h-62.863281zm-157.027343-78.273438-43.34375 33.996094 50.117187 50.117188h81.285156l50.121094-50.121094-43.339844-33.992188zm-62.191407 78.277344-12.386718 50.472656h62.859375zm0 0" fill="#fe512e"/><path d="m282.453125 190.777344c0 23.226562-18.828125 42.058594-42.054687 42.058594-23.230469 0-42.058594-18.832032-42.058594-42.058594 0-23.226563 18.828125-42.054688 42.058594-42.054688 23.226562 0 42.054687 18.828125 42.054687 42.054688zm0 0" fill="#feef7f"/><g fill="#fe512e"><path d="m366.019531 325.425781-125.621093 20.40625-125.617188-20.40625c-4.632812-7.21875-6.070312-9.460937-10.703125-16.679687l14.328125-31.273438h243.992188l14.328124 31.273438c-4.636718 7.21875-6.074218 9.460937-10.707031 16.679687zm0 0"/><path d="m102.359375 491.40625-68.359375-18.316406 37.089844-90.496094 56.378906 15.105469zm0 0"/><path d="m378.433594 491.40625 68.359375-18.316406-37.089844-90.496094-56.375 15.105469zm0 0"/><path d="m114.78125 325.425781c-4.632812-7.21875-6.070312-9.460937-10.703125-16.679687l3.128906-6.828125-7.867187-2.109375-33.371094 81.414062 61.5 16.476563 18.03125-67.285157zm0 0"/><path d="m381.457031 299.808594-7.863281 2.105468 3.128906 6.835938c-4.632812 7.214844-6.070312 9.457031-10.703125 16.675781l-30.722656 4.992188 18.027344 67.28125 61.5-16.476563zm0 0"/></g><path d="m300.90625 403.472656h-32.5625c-10.914062-10.914062-17.03125-17.03125-27.941406-27.945312-10.914063 10.914062-17.03125 17.03125-27.945313 27.945312h-32.5625c-7.660156-7.664062-12.960937-12.960937-19.214843-19.214844-4.207032 1.738282-4.519532 1.871094-8.726563 3.609376v61.089843l55.539063 55.542969h65.808593l55.539063-55.542969v-61.082031c-4.207032-1.738281-4.519532-1.871094-8.726563-3.609375-6.253906 6.25-11.546875 11.546875-19.207031 19.207031zm0 0" fill="#fff5cc"/><path d="m299.53125 277.472656 123.117188-123.113281 46.175781-143.226563-40.378907 11.707032-13.96875 24.195312-23.234374-13.414062-37.921876 10.992187 24.6875 39.875v51.378907l-96.96875 96.96875h-81.285156l-96.964844-96.96875v-51.378907l24.6875-39.875-37.925781-10.992187-23.230469 13.414062-13.96875-24.195312-40.382812-11.707032 46.179688 143.226563 123.113281 123.113281zm0 0" fill="#feef7f"/><path d="m151.953125 448.957031v-61.089843c4.207031-1.738282 4.519531-1.871094 8.726563-3.609376l19.214843 19.214844h32.5625c10.910157-10.914062 17.03125-17.03125 27.945313-27.945312 10.910156 10.914062 17.027344 17.03125 27.941406 27.945312h32.5625c7.660156-7.660156 12.957031-12.957031 19.207031-19.207031 4.207031 1.742187 4.519531 1.871094 8.726563 3.613281v61.082032l-36.222656 36.222656 79.105468-18.820313-18.398437-68.660156-18.027344-67.285156-94.898437 15.417969-94.902344-15.417969-18.027344 67.285156-18.398438 68.660156 79.105469 18.820313zm0 0" fill="#8ca4b7"/><path d="m262.652344 470.710938h-44.503906c-5.824219-5.824219-9.089844-9.089844-14.914063-14.914063v-12.78125h74.332031v12.78125c-5.824218 5.824219-9.089844 9.089844-14.914062 14.914063zm0 0" fill="#8ca4b7"/><path d="m350.007812 226.996094-50.476562 50.476562h30.003906l26.386719-26.386718zm0 0" fill="#c70024"/><path d="m130.789062 227-12.386718 50.472656h30.003906l6.476562-26.378906zm0 0" fill="#c70024"/><path d="m222.980469 148.722656h-30l-43.34375 33.992188 50.117187 50.121094h30l-50.117187-50.121094zm0 0" fill="#c70024"/><path d="m228.34375 190.777344c0-17.941406 11.234375-33.257813 27.054688-39.300782-4.660157-1.777343-9.71875-2.753906-15-2.753906-23.230469 0-42.058594 18.828125-42.058594 42.054688 0 23.226562 18.828125 42.058594 42.058594 42.058594 5.28125 0 10.339843-.976563 15-2.757813-15.820313-6.039063-27.054688-21.359375-27.054688-39.300781zm0 0" fill="#ffb655"/><path d="m144.785156 325.425781c-4.632812-7.21875-6.070312-9.460937-10.703125-16.679687l14.324219-31.273438h-30l-14.328125 31.273438c4.632813 7.21875 6.070313 9.460937 10.703125 16.679687l125.617188 20.40625 15-2.4375zm0 0" fill="#c70024"/><path d="m64.003906 473.089844 34.121094-83.25-27.035156-7.246094-37.089844 90.496094 68.359375 18.316406 2.011719-7.5zm0 0" fill="#c70024"/><path d="m383.328125 397.699219 29.34375-7.859375-2.96875-7.246094-56.375 15.105469 25.105469 93.707031 27.992187-7.5zm0 0" fill="#c70024"/><path d="m95.972656 381.222656 22.613282-55.179687-3.804688-.617188c-4.632812-7.21875-6.070312-9.460937-10.703125-16.675781l3.128906-6.832031-7.867187-2.109375-33.371094 81.414062 61.5 16.480469 2.011719-7.5zm0 0" fill="#c70024"/><path d="m365.300781 330.414062 26.90625-4.371093-10.75-26.234375-7.863281 2.105468 3.128906 6.835938c-4.632812 7.214844-6.070312 9.457031-10.703125 16.675781l-30.722656 4.992188 18.027344 67.28125 27.992187-7.5zm0 0" fill="#c70024"/><path d="m181.953125 403.472656h-2.058594c-7.660156-7.664062-12.960937-12.960937-19.214843-19.214844-4.207032 1.738282-4.519532 1.871094-8.726563 3.609376v61.089843l55.539063 55.542969h30.003906l-55.542969-55.542969zm0 0" fill="#ffc477"/><path d="m45.066406 20.726562-33.097656-9.59375 46.179688 143.226563 123.113281 123.113281h30.003906l-123.117187-123.113281zm0 0" fill="#ffb655"/><path d="m424.996094 386.261719-39.105469-95.40625-8.117187 2.175781-8.261719-18.03125-6.644531-27.082031-14.570313 3.578125 4.535156 18.476562h-35.195312l111.59375-111.589844 51.0625-158.382812-56.835938 16.472656-11.726562 20.316406-19.507813-11.261718-50.484375 14.632812 28.769531 46.460938v46.140625l-92.574218 92.570312h-2.046875c8.699219-8.933593 14.066406-21.128906 14.066406-34.554687 0-13.425782-5.367187-25.621094-14.066406-34.554688h9.34375l25.449219 19.957032 9.257812-11.800782-29.527344-23.15625h-100.019531l-29.53125 23.15625 9.257813 11.804688 25.453124-19.960938h9.339844c-8.703125 8.933594-14.070312 21.128906-14.070312 34.554688 0 13.425781 5.367187 25.621094 14.070312 34.554687h-2.050781l-92.570313-92.570312v-46.140625l28.765626-46.460938-50.484376-14.632812-19.503906 11.261718-11.730468-20.316406-56.835938-16.472656 51.0625 158.382812 111.59375 111.589844h-35.1875l4.53125-18.46875-14.566406-3.578125-6.644532 27.070313-8.261718 18.035156-8.125-2.175781-39.105469 95.40625 5.121094 1.375-37.089844 90.496093 83.835937 22.460938 6.765626-25.25 33.457031 7.960938 3.476562-14.59375-33.046875-7.863282c.804688-3.007812 28.402344-106 32.671875-121.941406l89.410157 14.523438 89.410156-14.523438c6.945312 25.921875 26.214844 97.835938 32.671875 121.941406l-35.527344 8.453125 3.472656 14.597657 35.941407-8.554688 6.765624 25.25 83.832032-22.460938-37.089844-90.5zm-41.257813 95.957031-21.226562-79.214844 42.753906-11.457031 31.355469 76.503906zm-177.898437-291.441406c0-19.050782 15.503906-34.554688 34.558594-34.554688 19.050781 0 34.554687 15.503906 34.554687 34.554688 0 19.054687-15.503906 34.554687-34.554687 34.554687-19.054688 0-34.558594-15.5-34.558594-34.554687zm-141.109375-40.445313-41.289063-128.0625 23.921875 6.933594 16.210938 28.074219 26.960937-15.5625 25.363282 7.351562-20.613282 33.285156v56.625l101.363282 101.359376h87.5l101.359374-101.359376v-56.625l-20.609374-33.285156 25.363281-7.351562 26.960937 15.566406 16.207032-28.078125 23.921874-6.933594-41.289062 128.0625-119.636719 119.640625h-112.054687zm-20.558594 317.71875 31.355469-76.5 42.753906 11.453125-21.226562 79.21875zm91.933594-131.5625-13.941407 52.027344-1.710937-.460937-44.3125-11.871094 24.28125-59.242188 9.855469 15.351563zm104.292969 1.746094-121.113282-19.675781-6.683594-10.414063c4.6875-10.234375 6.238282-13.609375 10.617188-23.167969h234.363281c9.050781 19.753907 2.371094 5.175782 10.613281 23.167969l-6.683593 10.414063c-13.878907 2.253906-107.234375 17.421875-121.113281 19.675781zm130.125-5.941406 9.851562-15.347657 24.277344 59.238282-46.023438 12.332031-13.9375-52.027344zm0 0"/><path d="m336.34375 382.859375-17.992188-7.4375-20.550781 20.550781h-26.351562l-31.046875-31.050781-31.050782 31.050781h-26.347656l-20.558594-20.5625-17.992187 7.441406v69.210938l59.933594 59.9375h72.023437l59.933594-59.9375zm-15.003906 62.992187-51.144532 51.148438h-59.59375l-51.148437-51.148438v-52.214843l17.332031 17.335937h38.777344l24.835938-24.835937 24.835937 24.835937h38.777344l17.328125-17.328125zm0 0"/><path d="m269.660156 428.539062-11.371094-9.785156-14.417968 16.757813h-6.949219l-14.40625-16.757813-11.375 9.78125 5.996094 6.976563h-21.402344v23.390625l19.308594 19.308594h50.714843l19.308594-19.308594v-23.390625h-21.410156zm.402344 21.976563v2.175781l-10.519531 10.519532h-38.289063l-10.519531-10.519532v-2.175781zm0 0"/><path d="m250.378906 247.476562h30.003906v15h-30.003906zm0 0" fill="#fff"/><path d="m225.378906 247.476562h15v15h-15zm0 0" fill="#fff"/><path d="m200.375 247.476562h15.003906v15h-15.003906zm0 0" fill="#fff"/></svg>