<svg id="Layer_5" enable-background="new 0 0 64 64" height="512" viewBox="0 0 64 64" width="512" xmlns="http://www.w3.org/2000/svg"><g><g><path d="m18.28 8h27.44c-1.67 1.46-2.72 3.61-2.72 6 0 4.42 3.58 8 8 8 .53 0 1.05-.05 1.55-.15h.01c.3 2.29.44 4.6.44 6.92v3.23h-12v5 1 6c0 1.1.9 2 2 2h9.5l-1.33 14.19c-.1 1.02-.96 1.81-1.99 1.81h-10.43c-1 0-1.85-.74-1.98-1.74l-3.64-27.27c-.07-.57-.56-.99-1.13-.99s-1.06.42-1.13.99l-3.64 27.27c-.13 1-.98 1.74-1.98 1.74h-10.43c-1.03 0-1.89-.79-1.99-1.81l-1.33-14.19h9.5c1.1 0 2-.9 2-2v-6-1-5h-12v-3.23c0-2.32.14-4.63.44-6.92h.01c.5.1 1.02.15 1.55.15 4.42 0 8-3.58 8-8 0-2.39-1.05-4.54-2.72-6z" fill="#d3a06c"/><path d="m49 2v6h-3.28-27.44-3.28v-6z" fill="#b27946"/><path d="m23 38v6c0 1.1-.9 2-2 2h-9.5-.5c-1.1 0-2-.9-2-2v-6z" fill="#ffc729"/><path d="m55 38v6c0 1.1-.9 2-2 2h-.5-9.5c-1.1 0-2-.9-2-2v-6z" fill="#ffc729"/><path d="m23 37v1h-14c-1.1 0-2-.9-2-2v-2c0-1.1.9-2 2-2h2 12z" fill="#fcd770"/><path d="m57 34v2c0 1.1-.9 2-2 2h-14v-1-5h12 2c1.1 0 2 .9 2 2z" fill="#fcd770"/><g fill="#ccd1d9"><path d="m18.28 8c1.67 1.46 2.72 3.61 2.72 6 0 4.42-3.58 8-8 8-.53 0-1.05-.05-1.55-.15h-.01c.14-1.22.34-2.44.57-3.65.67-3.48 1.67-6.9 2.99-10.2z"/><path d="m52.56 21.85h-.01c-.5.1-1.02.15-1.55.15-4.42 0-8-3.58-8-8 0-2.39 1.05-4.54 2.72-6h3.28c1.78 4.45 2.98 9.11 3.56 13.85z"/></g></g><g><path d="m55 31h-1v-2.229c0-7.21-1.346-14.262-4-20.962v-6.809h-36v6.808c-2.654 6.7-4 13.752-4 20.962v2.23h-1c-1.654 0-3 1.346-3 3v2c0 1.302.839 2.402 2 2.816v5.184c0 1.512 1.128 2.754 2.585 2.958l1.249 13.322c.146 1.55 1.431 2.72 2.987 2.72h10.428c1.497 0 2.775-1.119 2.974-2.604l3.637-27.274c.02-.14.262-.141.281.001l3.637 27.273c.198 1.485 1.476 2.604 2.973 2.604h10.428c1.557 0 2.841-1.169 2.987-2.72l1.249-13.322c1.457-.204 2.585-1.446 2.585-2.958v-5.184c1.161-.414 2-1.514 2-2.816v-2c0-1.654-1.346-3-3-3zm-3.552-10.022c-.15.009-.3.022-.448.022-3.859 0-7-3.14-7-7 0-1.889.775-3.687 2.124-5h2.182c1.501 3.886 2.558 7.89 3.142 11.978zm-3.448-17.978v4h-32v-4zm-32.306 6h2.182c1.349 1.313 2.124 3.111 2.124 5 0 3.86-3.141 7-7 7-.148 0-.298-.013-.448-.022.584-4.088 1.641-8.092 3.142-11.978zm-7.694 25c0-.551.448-1 1-1h13v4h-13c-.552 0-1-.449-1-1zm2 10v-5h12v5c0 .551-.448 1-1 1h-10c-.552 0-1-.449-1-1zm40.175 16.093c-.049.517-.478.907-.996.907h-10.428c-.499 0-.925-.374-.991-.868l-3.637-27.272c-.141-1.061-1.053-1.86-2.123-1.86s-1.982.799-2.123 1.859l-3.637 27.273c-.066.494-.492.868-.991.868h-10.428c-.519 0-.947-.39-.995-.907l-1.227-13.093h8.401c1.654 0 3-1.346 3-3v-5-2-6h-12v-2.229c0-1.949.112-3.884.315-5.805.229.018.458.034.685.034 4.963 0 9-4.038 9-9 0-1.799-.552-3.533-1.536-5h23.072c-.985 1.467-1.536 3.201-1.536 5 0 4.962 4.037 9 9 9 .227 0 .456-.016.685-.034.203 1.921.315 3.856.315 5.805v2.229h-12v6 2 5c0 1.654 1.346 3 3 3h8.401zm2.825-15.093h-10c-.552 0-1-.449-1-1v-5h12v5c0 .551-.448 1-1 1zm3-9c0 .551-.448 1-1 1h-13v-4h13c.552 0 1 .449 1 1z"/><path d="m34 15h2v2h-2z"/><path d="m34 11h2v2h-2z"/><path d="m28 15h2v2h-2z"/><path d="m28 11h2v2h-2z"/></g></g></svg>