<?xml version="1.0" encoding="iso-8859-1"?>
<!-- Generator: Adobe Illustrator 19.0.0, SVG Export Plug-In . SVG Version: 6.00 Build 0)  -->
<svg version="1.1" id="Capa_1" xmlns="http://www.w3.org/2000/svg" xmlns:xlink="http://www.w3.org/1999/xlink" x="0px" y="0px"
	 viewBox="0 0 512 512" style="enable-background:new 0 0 512 512;" xml:space="preserve">
<path style="fill:#75706B;" d="M435.726,78.495c-16.823-3.204-33.028,7.548-36.194,24.017L373.68,218.446l12.85-154.822
	c1.387-16.709-11.327-31.393-28.397-32.797c-17.07-1.404-32.034,11.005-33.421,27.714L310.14,218.533V40.359
	C310.14,23.592,296.255,10,279.127,10s-31.015,13.592-31.015,30.359l-1.586,178.261L229.85,57.841
	c-1.73-16.678-16.945-28.779-33.982-27.028s-29.448,16.69-27.718,33.368l16.31,157.249l-0.334,30.902
	c0.348,16.521-20.249,57.38-35.252,27.102l-38.459-71.905c-6.692-15.386-24.861-22.369-40.579-15.597
	c-15.719,6.773-23.037,24.737-16.344,40.124c0,0,35.5,76.074,36.209,76.769c0,0,76.383,119.114,103.582,119.114v30.413h204.173
	v-37.171c16.919-17.971,36.272-59.054,36.272-101.838v-66.289c0.037-0.174,0.08-0.345,0.114-0.52l26.613-138.418
	C463.621,97.647,452.55,81.699,435.726,78.495z"/>
<path style="fill:#EE584F;" d="M275.003,344.673H328.4c11.55,0,21-9.45,21-21l0,0c0-11.55-9.45-21-21-21h-53.397
	c-11.55,0-21,9.45-21,21l0,0C254.004,335.223,263.453,344.673,275.003,344.673z"/>
<rect x="193.28" y="458.35" style="fill:#F6A98A;" width="204.17" height="43.648"/>
<path d="M464.045,85.983c-6.17-9.09-15.563-15.239-26.448-17.312c-17.504-3.333-34.548,4.865-43.044,19.181l1.942-23.401
	c0.895-10.785-2.544-21.266-9.683-29.511c-7.087-8.185-16.981-13.185-27.86-14.079c-16.263-1.338-31.114,6.898-38.812,19.89v-0.393
	C320.14,18.104,301.741,0,279.127,0c-22.615,0-41.015,18.104-41.014,40.27l-0.074,8.269c-5.8-17.729-23.618-29.687-43.193-27.674
	c-10.859,1.116-20.649,6.316-27.566,14.644c-6.969,8.39-10.193,18.939-9.076,29.704l16.251,156.681l-0.328,30.331
	c-0.001,0.106,0,0.212,0.002,0.318c0.073,3.459-1.629,10.505-5.022,17.28c-3.215,6.417-6.351,9.485-7.804,10.304
	c-0.679-0.594-1.965-2.097-3.469-5.133c-0.046-0.093-0.094-0.185-0.143-0.276l-38.282-71.574
	c-9.012-20.125-32.928-29.274-53.53-20.396c-10.169,4.382-17.993,12.415-22.032,22.621c-3.953,9.989-3.785,20.883,0.475,30.676
	c0.035,0.081,0.071,0.161,0.108,0.24c28.204,60.438,34.637,74.036,36.921,77.895l-0.067,0.043
	c0.193,0.301,19.563,30.445,42.031,60.187c31.212,41.317,48.784,56.205,59.969,61.204v22.738V502c0,5.523,4.477,10,10,10h204.173
	c5.522,0,10-4.477,10-10v-43.648v-33.356c18.449-21.654,36.272-63.553,36.272-105.653V254.08l26.547-138.076
	C472.288,105.531,470.077,94.87,464.045,85.983z M387.457,492H203.282v-23.648h184.174V492H387.457z M450.635,112.227
	l-26.617,138.445l0.012-0.065l-0.08,0.359c-0.146,0.687-0.221,1.386-0.221,2.088v66.289c0,38.546-17.287,77.707-33.553,94.983
	c-1.746,1.855-2.719,4.307-2.719,6.855v27.171H203.282v-20.413c0-5.523-4.461-10-9.984-10c-0.511-0.023-12.999-1.201-54.32-55.971
	c-20.923-27.733-39.049-55.73-40.735-58.345c-2.399-4.641-22.959-48.511-35.63-75.664c-2.078-4.854-2.14-10.258-0.171-15.23
	c2.068-5.226,6.099-9.35,11.35-11.613c10.648-4.587,22.963,0.079,27.452,10.402c0.107,0.247,0.225,0.49,0.352,0.728l38.391,71.776
	c8.518,17.063,19.704,17.184,25.625,15.731c17.852-4.38,28.712-33.502,28.514-47.454l0.333-30.761
	c0.004-0.38-0.014-0.761-0.053-1.14l-16.31-157.249c-0.557-5.367,1.065-10.645,4.567-14.86c3.554-4.278,8.606-6.951,14.227-7.529
	c11.537-1.188,21.856,6.94,23.014,18.112L236.58,219.65c0.547,5.276,5.112,9.214,10.419,8.957c5.299-0.25,9.48-4.595,9.527-9.9
	l1.586-178.35c0-11.226,9.428-20.358,21.015-20.358s21.014,9.133,21.014,20.358v178.174c0,5.346,4.205,9.747,9.546,9.99
	c5.325,0.231,9.928-3.759,10.413-9.083l14.579-160.071c0.93-11.192,11.089-19.521,22.636-18.575
	c5.633,0.463,10.739,3.034,14.379,7.238c3.588,4.144,5.318,9.387,4.872,14.765l-12.85,154.822c-0.435,5.24,3.263,9.922,8.46,10.713
	c5.209,0.785,10.121-2.578,11.266-7.709l25.853-115.935c0.021-0.096,0.041-0.192,0.06-0.289
	c2.121-11.037,13.116-18.25,24.503-16.082c5.632,1.073,10.476,4.232,13.642,8.897C450.525,101.676,451.639,107.007,450.635,112.227z
	"/>
<path d="M328.401,292.673h-53.398c-17.093,0-30.999,13.907-30.999,31s13.906,31,30.999,31h53.398c17.093,0,30.999-13.907,30.999-31
	S345.494,292.673,328.401,292.673z M328.401,334.673h-53.398c-6.065,0-11-4.935-11-11s4.934-11,11-11h53.398c6.065,0,11,4.935,11,11
	S334.466,334.673,328.401,334.673z"/>
<circle cx="259.4" cy="389.68" r="10"/>
<circle cx="299.4" cy="389.68" r="10"/>
<circle cx="339.4" cy="389.68" r="10"/>
<circle cx="377.4" cy="382.68" r="10"/>
<circle cx="388.23" cy="343.84" r="10"/>
<circle cx="389.9" cy="300.18" r="10"/>
<circle cx="393.4" cy="264.18" r="10"/>
<circle cx="351.4" cy="264.18" r="10"/>
<circle cx="310.4" cy="263.18" r="10"/>
<circle cx="269.4" cy="263.18" r="10"/>
<circle cx="227.24" cy="264.18" r="10"/>
<circle cx="216.74" cy="303.68" r="10"/>
<circle cx="216.74" cy="343.68" r="10"/>
<circle cx="174.24" cy="343.68" r="10"/>
<circle cx="218.41" cy="388.68" r="10"/>
<g>
</g>
<g>
</g>
<g>
</g>
<g>
</g>
<g>
</g>
<g>
</g>
<g>
</g>
<g>
</g>
<g>
</g>
<g>
</g>
<g>
</g>
<g>
</g>
<g>
</g>
<g>
</g>
<g>
</g>
</svg>
