<?xml version="1.0" encoding="iso-8859-1"?>
<!-- Generator: Adobe Illustrator 19.0.0, SVG Export Plug-In . SVG Version: 6.00 Build 0)  -->
<svg version="1.1" id="Capa_1" xmlns="http://www.w3.org/2000/svg" xmlns:xlink="http://www.w3.org/1999/xlink" x="0px" y="0px"
	 viewBox="0 0 511.998 511.998" style="enable-background:new 0 0 511.998 511.998;" xml:space="preserve">
<path style="fill:#CBC2BA;" d="M348.563,459.359H225.458c-10.433,0-18.97-8.536-18.97-18.969v-44.292
	c0-10.433,8.536-18.97,18.97-18.97h123.104c10.433,0,18.97,8.536,18.97,18.97v44.292
	C367.532,450.823,358.996,459.359,348.563,459.359z"/>
<g>
	<rect x="367.529" y="398.24" style="fill:#75706B;" width="40.01" height="40.01"/>
	<rect x="166.479" y="398.24" style="fill:#75706B;" width="40.01" height="40.01"/>
</g>
<g>
	<path style="fill:#F6A98A;" d="M367.532,438.251v2.132c0,10.437-8.539,18.976-18.975,18.976H225.463
		c-10.436,0-18.975-8.539-18.975-18.976v-2.132h-12.464l-0.187,63.746h188.207l0.225-63.746H367.532z"/>
	<path style="fill:#F6A98A;" d="M404.161,65.116c-13.868-2.578-27.227,6.074-29.838,19.325l-21.312,93.284l10.593-124.574
		c1.143-13.445-9.338-25.26-23.41-26.39c-14.072-1.129-26.408,8.855-27.551,22.3L300.63,177.794V34.431
		c0-13.491-11.447-24.427-25.567-24.427s-25.568,10.937-25.568,24.427l-1.307,143.434L234.442,48.498
		c-1.426-13.419-13.969-23.156-28.014-21.748c-14.045,1.409-24.277,13.43-22.85,26.849l13.446,126.527l-0.275,24.865
		c0.287,13.293-16.693,46.169-29.061,21.807l-31.705-57.857c-5.517-12.38-20.494-17.999-33.452-12.549s-18.991,19.904-13.474,32.285
		c0,0,29.265,61.212,29.85,61.77c0,0,52.966,95.843,75.388,95.843l-0.152,51.948h12.347v-2.132c0-10.437,8.539-18.976,18.975-18.976
		h123.094c10.436,0,18.975,8.539,18.975,18.976v2.132h14.88l0.203-57.386c13.948-14.46,19.899-47.516,19.899-81.942v-53.338
		c0.03-0.14,22.033-111.793,22.033-111.793C427.157,80.527,418.03,67.695,404.161,65.116z"/>
</g>
<path d="M412.517,258.909v-52.363c0.798-4.041,4.489-22.765,21.844-110.834c1.744-8.854-0.117-17.887-5.239-25.436
	c-5.355-7.891-13.571-13.217-23.133-14.994c-12.873-2.393-25.467,2.299-33.483,11.242L373.571,54
	c0.763-8.967-2.065-17.738-7.962-24.699c-6.176-7.289-14.917-11.732-24.615-12.51c-12.242-0.986-23.568,4.195-30.706,12.834
	C307.866,12.905,292.993,0,275.064,0c-19.244,0-34.967,14.869-35.553,33.275c-6.883-11.055-19.959-17.896-34.081-16.479
	c-9.68,0.971-18.329,5.588-24.353,13c-5.753,7.079-8.397,15.908-7.446,24.86L187.015,180.6l-0.269,24.279
	c-0.001,0.109,0,0.218,0.002,0.327c0.126,5.835-5.011,16.481-8.571,19.666c-0.413-0.55-33.242-60.41-33.242-60.41
	c-7.851-17.011-28.508-24.769-46.281-17.293c-8.93,3.755-15.77,10.682-19.261,19.505c-3.364,8.503-3.176,17.762,0.527,26.073
	c0.036,0.082,0.074,0.163,0.112,0.243c21.727,45.444,27.803,58.09,30.183,62.259l-0.063,0.035
	c0.549,0.994,13.633,24.61,29.729,48.648c21.711,32.424,35.054,45.134,44.389,49.825l-0.101,34.474h-17.691
	c-5.524,0-10.003,4.479-10.003,10.004v40.014c0,5.525,4.478,10.004,10.003,10.004h17.515l-0.157,53.713
	c-0.008,2.658,1.043,5.21,2.919,7.092c1.877,1.883,4.426,2.94,7.083,2.94h188.208c5.511,0,9.983-4.457,10.003-9.968l0.19-53.777
	h15.305c5.524,0,10.003-4.479,10.003-10.004v-40.014c0-5.525-4.478-10.004-10.003-10.004h-15.093l0.154-43.619
	C409.849,323.043,412.517,282.116,412.517,258.909z M196.486,428.247h-20.005V408.24h20.005V428.247z M372.078,491.993H203.87
	l0.094-32.199c5.307,5.873,12.979,9.569,21.499,9.569h123.094c9.749,0,18.389-4.84,23.644-12.243L372.078,491.993z M216.491,440.383
	v-44.278c0-4.948,4.025-8.972,8.972-8.972h123.094c4.947,0,8.972,4.025,8.972,8.972v44.278c0,4.948-4.025,8.973-8.972,8.973H225.463
	C220.516,449.356,216.491,445.33,216.491,440.383z M397.54,408.24v20.007h-20.005V408.24H397.54z M375.416,333.905
	c-1.791,1.856-2.795,4.331-2.804,6.91l-0.138,38.944c-5.226-7.624-13.997-12.634-23.917-12.634H225.463
	c-8.39,0-15.958,3.584-21.255,9.302l0.088-30.109c0.008-2.658-1.043-5.21-2.919-7.092c-1.844-1.85-4.337-2.903-6.944-2.94
	c-0.894-0.192-11.161-3.238-38.833-44.838c-15.202-22.853-27.814-45.614-27.94-45.841c-0.065-0.118-0.133-0.235-0.203-0.351
	c-2.014-3.813-18.914-39.011-29.312-60.759c-1.45-3.329-1.504-7.04-0.151-10.461c1.496-3.779,4.483-6.77,8.413-8.422
	c7.961-3.348,17.129-0.028,20.438,7.4c0.111,0.25,0.233,0.495,0.364,0.736l31.633,57.725c7.93,15.479,18.857,14.628,23.197,13.54
	c15.448-3.874,24.856-28.346,24.711-40.049l0.274-24.728c0.004-0.39-13.501-127.695-13.501-127.695
	c-0.384-3.616,0.709-7.212,3.077-10.127c2.639-3.247,6.484-5.276,10.825-5.711c8.568-0.863,16.225,4.906,17.069,12.851
	l13.747,129.367c0.56,5.272,5.123,9.182,10.431,8.935c5.294-0.256,9.47-4.599,9.518-9.9l1.309-143.527
	c0-7.953,6.982-14.424,15.565-14.424c8.582,0,15.564,6.471,15.564,14.424v143.364c0,5.344,4.2,9.744,9.538,9.993
	c5.334,0.246,9.928-3.743,10.424-9.063L322.61,49.91c0.676-7.954,8.207-13.855,16.784-13.177c4.353,0.349,8.242,2.303,10.952,5.501
	c2.431,2.87,3.6,6.446,3.292,10.069l-10.593,124.574c-0.445,5.235,3.235,9.922,8.425,10.731c5.19,0.815,10.122-2.534,11.293-7.656
	l21.311-93.284c0.022-0.098,0.043-0.196,0.063-0.295c1.551-7.875,9.712-12.999,18.195-11.423l0,0
	c4.268,0.794,7.904,3.123,10.235,6.558c2.099,3.094,2.867,6.764,2.165,10.334c-0.218,1.104-21.733,110.285-22.026,111.758
	c-0.13,0.648-0.196,55.307-0.196,55.307C392.512,294.237,385.961,322.974,375.416,333.905z"/>
<circle cx="287.339" cy="418.24" r="10"/>
<circle cx="247.329" cy="418.24" r="10"/>
<circle cx="328.349" cy="418.24" r="10"/>
<g>
</g>
<g>
</g>
<g>
</g>
<g>
</g>
<g>
</g>
<g>
</g>
<g>
</g>
<g>
</g>
<g>
</g>
<g>
</g>
<g>
</g>
<g>
</g>
<g>
</g>
<g>
</g>
<g>
</g>
</svg>
