<?xml version="1.0" encoding="iso-8859-1"?>
<!-- Generator: Adobe Illustrator 19.0.0, SVG Export Plug-In . SVG Version: 6.00 Build 0)  -->
<svg version="1.1" id="Capa_1" xmlns="http://www.w3.org/2000/svg" xmlns:xlink="http://www.w3.org/1999/xlink" x="0px" y="0px"
	 viewBox="0 0 512 512" style="enable-background:new 0 0 512 512;" xml:space="preserve">
<path style="fill:#F96B50;" d="M504.399,273.8v56.543c0,63.306-51.332,114.627-114.637,114.627H122.224
	c-63.295,0-114.617-51.322-114.617-114.627V273.8c0-8.162,0.852-16.131,2.484-23.805c10.95,51.869,56.989,90.812,112.133,90.812
	h267.538c55.134,0,101.193-38.942,112.153-90.812C503.537,257.669,504.399,265.638,504.399,273.8z"/>
<g>
	<path style="fill:#DD4D3A;" d="M504.396,169.636V273.8c0-8.162-0.862-16.131-2.484-23.805v-0.02
		c-10.97-51.869-57.009-90.791-112.153-90.791H122.221c-55.124,0-101.173,38.922-112.133,90.791v0.02
		c-1.632,7.675-2.484,15.644-2.484,23.805V169.636c0-63.306,51.322-114.627,114.617-114.627h267.538
		C453.074,55.009,504.396,106.33,504.396,169.636z"/>
	<path style="fill:#DD4D3A;" d="M196.337,340.806V444.97h-74.113c-63.295,0-114.617-51.322-114.617-114.627V273.8
		c0-8.162,0.852-16.131,2.484-23.805c10.95,51.869,56.989,90.812,112.133,90.812H196.337z"/>
</g>
<polyline style="fill:#F96B50;" points="199.229,340.802 60.55,340.802 8.843,392.884 60.55,444.968 200.243,444.968 "/>
<path style="fill:#FFE7C4;" d="M299.121,328.782h-86.259c-14.529,0-26.31,11.781-26.31,26.32v75.573
	c0,14.529,11.781,26.31,26.31,26.31h86.259c14.539,0,26.32-11.781,26.32-26.31v-75.573
	C325.44,340.563,313.659,328.782,299.121,328.782z M300.094,430.675c0,0.527-0.436,0.963-0.973,0.963h-86.259
	c-0.527,0-0.963-0.436-0.963-0.963v-75.573c0-0.537,0.436-0.973,0.963-0.973h86.259c0.537,0,0.973,0.436,0.973,0.973V430.675z"/>
<path d="M389.76,47.409H334.07c-4.199,0-7.604,3.405-7.604,7.604s3.405,7.604,7.604,7.604h55.689
	c59.018,0,107.032,48.008,107.032,107.019v45.138c-7.47-13.511-17.489-25.621-29.568-35.527
	c-21.762-17.845-49.272-27.672-77.464-27.672H122.227c-28.186,0-55.693,9.827-77.453,27.672
	c-12.078,9.905-22.097,22.016-29.566,35.527v-45.138c0-59.011,48.008-107.019,107.019-107.019h186.496
	c4.199,0,7.604-3.405,7.604-7.604s-3.405-7.604-7.604-7.604H122.227C54.831,47.409,0,102.239,0,169.636v160.71
	c0,9.214,1.031,18.403,3.065,27.311c0.935,4.094,5.014,6.653,9.105,5.721c4.094-0.935,6.655-5.012,5.721-9.105
	c-1.78-7.801-2.684-15.851-2.684-23.928v-45.029c9.016,16.321,21.752,30.492,37.482,41.392c1.321,0.916,2.831,1.355,4.324,1.355
	c2.41,0,4.78-1.143,6.257-3.274c2.392-3.452,1.533-8.189-1.919-10.582c-22.16-15.356-37.544-38.105-43.467-64.192
	c5.229-23.023,18.147-43.932,36.532-59.01c19.047-15.621,43.13-24.224,67.809-24.224h267.533c24.685,0,48.772,8.603,67.821,24.224
	c18.377,15.07,31.291,35.966,36.526,58.974c-5.228,23.011-18.14,43.911-36.521,58.986c-19.052,15.626-43.14,24.23-67.825,24.23
	h-43.523c-4.199,0-7.604,3.405-7.604,7.604c0,4.199,3.405,7.604,7.604,7.604h43.523c28.193,0,55.706-9.83,77.47-27.679
	c12.077-9.904,22.095-22.013,29.562-35.52v45.138c0,59.011-48.014,107.019-107.032,107.019h-43.523
	c-4.199,0-7.604,3.405-7.604,7.604s3.405,7.604,7.604,7.604h43.523c67.404,0,122.24-54.831,122.24-122.227V169.636
	C512,102.239,457.163,47.409,389.76,47.409z"/>
<path d="M299.124,321.178h-86.255c-18.704,0-33.921,15.217-33.921,33.921v75.572c0,18.704,15.217,33.921,33.921,33.921h86.255
	c18.704,0,33.921-15.216,33.921-33.921v-75.572C333.044,336.395,317.827,321.178,299.124,321.178z M317.836,430.67
	c0,10.318-8.395,18.713-18.713,18.713h-86.255c-10.318,0-18.713-8.395-18.713-18.713v-75.572c0-10.318,8.395-18.713,18.713-18.713
	h86.255c10.318,0,18.713,8.395,18.713,18.713V430.67z"/>
<path d="M299.124,346.524h-86.255c-4.728,0-8.574,3.846-8.574,8.574v75.572c0,4.728,3.846,8.574,8.574,8.574h86.255
	c4.728,0,8.574-3.846,8.574-8.574v-75.572C307.698,350.371,303.851,346.524,299.124,346.524z M292.49,424.036h-72.987v-62.304
	h72.987V424.036z"/>
<path d="M237.303,400.488h18.693c4.199,0,7.604-3.405,7.604-7.604c0-4.199-3.405-7.604-7.604-7.604h-18.693
	c-4.199,0-7.604,3.405-7.604,7.604C229.699,397.083,233.104,400.488,237.303,400.488z"/>
<path d="M368.137,398.444c3.526,5.349,11.937,3.894,13.645-2.196c0.844-3.006-0.317-6.354-2.855-8.18
	c-2.735-1.968-6.519-1.9-9.175,0.178C366.658,390.669,365.996,395.185,368.137,398.444z"/>
<path d="M95.034,389.999c-1.778-2.701-5.242-3.971-8.349-3.1c-3.19,0.893-5.485,3.814-5.567,7.132
	c-0.163,6.661,8.055,10.252,12.859,5.679C96.622,397.189,97.031,393.032,95.034,389.999z"/>
<path d="M141.307,387.199c-3.113-1.315-6.833-0.303-8.903,2.345c-1.959,2.508-2.126,6.089-0.414,8.773
	c3.721,5.83,12.898,3.779,13.924-2.98C146.435,391.916,144.476,388.538,141.307,387.199z"/>
<path d="M169.825,437.364H63.715l-18.378-18.513c-2.958-2.98-7.773-2.997-10.754-0.04c-2.98,2.958-2.998,7.773-0.04,10.754
	l20.609,20.76c1.428,1.438,3.37,2.247,5.397,2.247h109.276c4.199,0,7.604-3.405,7.604-7.604
	C177.429,440.769,174.025,437.364,169.825,437.364z"/>
<path d="M19.557,392.884l44.158-44.478h105.096c4.199,0,7.604-3.405,7.604-7.604s-3.405-7.604-7.604-7.604H60.55
	c-2.027,0-3.969,0.809-5.396,2.247L3.447,387.527c-2.944,2.965-2.944,7.75,0,10.714l13.414,13.513
	c1.486,1.497,3.441,2.247,5.396,2.247c1.937,0,3.874-0.735,5.357-2.208c2.98-2.958,2.998-7.773,0.039-10.753L19.557,392.884z"/>
<g>
</g>
<g>
</g>
<g>
</g>
<g>
</g>
<g>
</g>
<g>
</g>
<g>
</g>
<g>
</g>
<g>
</g>
<g>
</g>
<g>
</g>
<g>
</g>
<g>
</g>
<g>
</g>
<g>
</g>
</svg>
