<?xml version="1.0" encoding="iso-8859-1"?>
<!-- Generator: Adobe Illustrator 19.0.0, SVG Export Plug-In . SVG Version: 6.00 Build 0)  -->
<svg version="1.1" id="Capa_1" xmlns="http://www.w3.org/2000/svg" xmlns:xlink="http://www.w3.org/1999/xlink" x="0px" y="0px"
	 viewBox="0 0 512 512" style="enable-background:new 0 0 512 512;" xml:space="preserve">
<path style="fill:#FFE7C4;" d="M504.354,77.808v356.383H298.288v-95.312c0-11.678-4.732-22.245-12.382-29.904
	c-7.415-7.415-17.563-12.086-28.813-12.372c-0.357-0.01-0.724-0.01-1.091-0.01c-23.356,0-42.286,18.93-42.286,42.286v95.312H7.649
	V77.808H504.354z"/>
<g>
	<path style="fill:#E2BB83;" d="M504.351,252.143l-21.112-3.274c-32.859-5.096-57.1-33.383-57.1-66.636v-20.873v-25.72h78.211
		v116.503"/>
	<path style="fill:#E2BB83;" d="M7.649,252.143l21.112-3.274c32.859-5.096,57.1-33.383,57.1-66.636v-20.873v-25.72H7.649V252.143"/>
	<rect x="7.649" y="77.81" style="fill:#E2BB83;" width="35.728" height="356.372"/>
	<path style="fill:#E2BB83;" d="M298.288,434.191v-95.312c0-11.678-4.732-22.245-12.382-29.904
		c-7.415-7.415-17.563-12.086-28.813-12.372c64.786,0.581,72.853,53.087,72.853,137.588L298.288,434.191L298.288,434.191z"/>
</g>
<path d="M504.351,70.163H7.649C3.425,70.163,0,73.588,0,77.812v356.376c0,4.225,3.425,7.649,7.649,7.649h206.062
	c4.225,0,7.649-3.425,7.649-7.649V388.6c0-4.225-3.425-7.649-7.649-7.649s-7.649,3.425-7.649,7.649v37.938H15.299v-167.84
	l14.635-2.269c17.695-2.744,33.856-11.743,45.508-25.34c11.651-13.598,18.068-30.948,18.068-48.853v-20.873
	c0-4.225-3.425-7.649-7.649-7.649s-7.649,3.425-7.649,7.649v20.873c0,29.683-21.29,54.528-50.622,59.076l-12.29,1.904v-99.926
	H225.36v71.923c0,4.225,3.425,7.649,7.649,7.649s7.649-3.425,7.649-7.649v-71.923h30.682v71.923c0,4.225,3.424,7.649,7.649,7.649
	s7.649-3.425,7.649-7.649v-71.923h63.705c4.226,0,7.649-3.425,7.649-7.649s-3.424-7.649-7.649-7.649H286.64v-16.81
	c0-4.225-3.424-7.649-7.649-7.649s-7.649,3.425-7.649,7.649v16.81h-30.682v-16.81c0-4.225-3.425-7.649-7.649-7.649
	s-7.649,3.425-7.649,7.649v16.81H15.299V85.462h481.402v42.529H375.844c-4.226,0-7.649,3.425-7.649,7.649s3.424,7.649,7.649,7.649
	h120.857v99.927l-12.291-1.906c-29.333-4.548-50.622-29.393-50.622-59.076v-20.873c0-4.225-3.424-7.649-7.649-7.649
	s-7.649,3.425-7.649,7.649v20.873c0,17.907,6.416,35.257,18.068,48.853c11.652,13.598,27.814,22.596,45.508,25.34l14.636,2.269
	v167.84H305.938v-87.66c0-27.536-22.403-49.939-49.939-49.939s-49.938,22.403-49.938,49.939V363.1c0,4.225,3.425,7.649,7.649,7.649
	s7.649-3.425,7.649-7.649v-24.222c0-19.1,15.54-34.64,34.64-34.64c19.1,0,34.639,15.54,34.639,34.64v95.309
	c0,4.225,3.424,7.649,7.649,7.649h206.062c4.226,0,7.649-3.425,7.649-7.649V77.812C512,73.588,508.576,70.163,504.351,70.163z"/>
<g>
</g>
<g>
</g>
<g>
</g>
<g>
</g>
<g>
</g>
<g>
</g>
<g>
</g>
<g>
</g>
<g>
</g>
<g>
</g>
<g>
</g>
<g>
</g>
<g>
</g>
<g>
</g>
<g>
</g>
</svg>
