<svg id="Layer_5" enable-background="new 0 0 64 64" height="512" viewBox="0 0 64 64" width="512" xmlns="http://www.w3.org/2000/svg"><g><g><path d="m42 62h-8v-31.76c0-1.37-.77-2.63-2-3.24-1.23.61-2 1.87-2 3.24v31.76h-8-8s-6-19-6-30c0-5.33.71-10.2 1.43-13.79.47-2.32 1.26-4.55 2.34-6.64.34.27.77.43 1.23.43h2v1c0 .55.45 1 1 1h2c.55 0 1-.45 1-1v-1h6c0 1.1.9 2 2 2h10c1.1 0 2-.9 2-2h6v1c0 .55.45 1 1 1h2c.55 0 1-.45 1-1v-1h2c.46 0 .89-.16 1.23-.43 1.08 2.09 1.87 4.32 2.34 6.64.72 3.59 1.43 8.46 1.43 13.79 0 11-6 30-6 30z" fill="#969faa"/><g fill="#ccd1d9"><path d="m11.77 11.57c-.47-.36-.77-.93-.77-1.57v-4c0-1.1.9-2 2-2h2v8h-2c-.46 0-.89-.16-1.23-.43z"/><path d="m19 4h6v8h-6z"/><path d="m39 4h6v8h-6z"/><path d="m52.23 11.57c-.34.27-.77.43-1.23.43h-2v-8h2c1.1 0 2 .9 2 2v4c0 .64-.3 1.21-.77 1.57z"/></g><path d="m19 12v1c0 .55-.45 1-1 1h-2c-.55 0-1-.45-1-1v-1-8-1c0-.55.45-1 1-1h2c.55 0 1 .45 1 1v1z" fill="#fcd770"/><path d="m39 4v8c0 1.1-.9 2-2 2h-10c-1.1 0-2-.9-2-2v-8c0-1.1.9-2 2-2h10c1.1 0 2 .9 2 2z" fill="#fcd770"/><path d="m49 12v1c0 .55-.45 1-1 1h-2c-.55 0-1-.45-1-1v-1-8-1c0-.55.45-1 1-1h2c.55 0 1 .45 1 1v1z" fill="#fcd770"/><path d="m29 6h6v4h-6z" fill="#ffeaa7"/></g><g><path d="m36 5h-8v6h8zm-2 4h-4v-2h4z"/><path d="m55.549 18.009c-.441-2.176-1.163-4.274-2.121-6.261.356-.493.572-1.094.572-1.748v-4c0-1.654-1.346-3-3-3h-1c0-1.103-.897-2-2-2h-2c-1.103 0-2 .897-2 2h-4.184c-.414-1.161-1.514-2-2.816-2h-10c-1.302 0-2.402.839-2.816 2h-4.184c0-1.103-.897-2-2-2h-2c-1.103 0-2 .897-2 2h-1c-1.654 0-3 1.346-3 3v4c0 .654.216 1.255.572 1.748-.958 1.986-1.68 4.085-2.121 6.261-.963 4.766-1.451 9.473-1.451 13.991 0 11.027 5.8 29.52 6.047 30.301l.221.699h17.732v-32.764c0-.813.381-1.544 1-2.034.619.49 1 1.221 1 2.034v32.764h17.732l.221-.699c.247-.781 6.047-19.274 6.047-30.301 0-4.518-.488-9.225-1.451-13.991zm-4.549-13.009c.552 0 1 .449 1 1v4c0 .551-.448 1-1 1h-1v-6zm-5-2h2l.001 10h-2.001zm-2 8h-4v-6h4zm-18-7c0-.551.448-1 1-1h10c.552 0 1 .449 1 1v8c0 .551-.448 1-1 1h-10c-.552 0-1-.449-1-1zm-2 1v6h-4v-6zm-8-2h2l.001 10h-2.001zm-4 3c0-.551.448-1 1-1h1v6h-1c-.552 0-1-.449-1-1zm37.262 55h-5.91c1.355-4.5 5.648-19.509 5.648-29h-2c0 9.552-4.678 25.506-5.739 29h-6.261v-30.764c0-1.544-.753-2.951-2-3.805v-7.431h-2v7.432c-1.247.854-2 2.26-2 3.804v30.764h-6.261c-1.061-3.494-5.739-19.448-5.739-29h-2c0 9.491 4.293 24.5 5.648 29h-5.91c-1.066-3.517-5.738-19.458-5.738-29 0-4.385.475-8.959 1.412-13.595.387-1.913 1.01-3.759 1.831-5.514.243.064.494.109.757.109h1c0 1.103.897 2 2 2h2c1.103 0 2-.897 2-2h4.184c.414 1.161 1.514 2 2.816 2h10c1.302 0 2.402-.839 2.816-2h4.184c0 1.103.897 2 2 2h2c1.103 0 2-.897 2-2h1c.263 0 .514-.045.757-.109.82 1.755 1.444 3.602 1.831 5.514.937 4.636 1.412 9.21 1.412 13.595 0 9.542-4.672 25.483-5.738 29z"/></g></g></svg>