<svg id="Capa_1" enable-background="new 0 0 512 512" height="512" viewBox="0 0 512 512" width="512" xmlns="http://www.w3.org/2000/svg"><g><g><path d="m375.291 145.667.211-4.096-10.006-81.578h-44.292v85.674z" fill="#d1a184"/><path d="m190.796 59.993h-44.292l-10.006 81.578.211 4.096h54.087z" fill="#d1a184"/><path d="m321.204 145.667v-85.674h-130.408v85.674h-54.087l16.236 315.335h82.46l20.595-309.759 20.595 309.759h82.46l16.236-315.335z" fill="#ddb9a3"/><g fill="#fff7bf"><path d="m156.51 502h75.941l2.954-40.998h-82.46z"/><path d="m276.595 461.002 2.954 40.998h75.941l3.565-40.998z"/></g><path d="m146.504 10h218.992v49.993h-218.992z" fill="#fff7bf"/><path d="m228.502 10h54.995v49.993h-54.995z" fill="#d1a184"/></g><g><path d="m320.2 203c-4.175 0-7.984-2.688-9.402-6.611-1.378-3.812-.246-8.232 2.809-10.906 3.277-2.868 8.173-3.259 11.871-.97 3.53 2.186 5.358 6.454 4.511 10.519-.957 4.588-5.099 7.968-9.789 7.968z"/><path d="m385.428 140.354-9.932-80.974v-49.38c0-5.523-4.477-10-10-10h-218.992c-5.523 0-10 4.477-10 10v49.38l-9.932 80.974c-.07.574.15 5.827.15 5.827v.001l16.236 315.333c.001.017.002.033.003.05.002.037.005.074.007.111.003.049.007.098.011.147.001.015.002.03.003.045l3.565 40.998c.449 5.168 4.775 9.134 9.962 9.134h75.94c5.244 0 9.597-4.051 9.974-9.281l2.954-40.998c.001-.008.001-.016.001-.024.001-.011.002-.021.003-.032l10.619-159.687 10.617 159.687c.001.011.002.021.003.032.001.008.001.016.001.024l2.954 40.998c.377 5.23 4.73 9.281 9.974 9.281h75.94c5.187 0 9.513-3.966 9.962-9.133l3.566-40.998c.001-.016.002-.032.004-.048.004-.047.007-.094.01-.141.003-.038.005-.077.007-.115.001-.016.002-.032.003-.048l16.235-315.332s0-.001 0-.002c.002-.002.222-5.255.152-5.829zm-35.871 310.647h-19.353v-213.066c0-5.523-4.477-10-10-10s-10 4.477-10 10v213.067h-24.252l-19.415-292.018h10.463c5.523 0 10-4.477 10-10s-4.477-10-10-10h-42c-5.523 0-10 4.477-10 10s4.477 10 10 10h10.463l-19.415 292.018h-24.544v-257.999c0-5.523-4.477-10-10-10s-10 4.477-10 10v257.999h-19.061l-15.206-295.335h43.559c5.523 0 10-4.477 10-10v-75.674h110.408v75.674c0 5.523 4.477 10 10 10h43.559zm-194.205-381.008h25.443v65.674h-33.499zm175.852 65.674v-65.674h25.443l8.055 65.674zm24.292-85.674h-61.999v-29.993h61.999zm-81.998-29.993v29.993h-34.995v-29.993zm-116.994 0h61.998v29.993h-61.998zm66.641 472h-57.467l-1.826-20.998h60.806zm123.177 0h-57.467l-1.513-20.998h60.806z"/></g></g></svg>