<svg id="Capa_1" enable-background="new 0 0 512.001 512.001" height="512" viewBox="0 0 512.001 512.001" width="512" xmlns="http://www.w3.org/2000/svg"><g><g><path d="m316 40 60-30h-240l60 30c33.14 16.57 46.57 56.86 30 90-58.67 96.39-74.02 219.39-43.71 328.36 45.97-25.98 102.44-25.81 148.28.48 32.41-108.28 16.68-232.67-44.57-328.84-16.57-33.14-3.14-73.43 30-90z" fill="#8690af"/><g fill="#ff7b79"><path d="m398.281 185.71c-13.45-33.65-46.041-55.71-82.281-55.71l60-120-60 30c-33.14 16.57-46.57 56.86-30 90 69.84 109.658 79.587 253.883 30 369 11.2 1.6 22.58 3.04 34 3 55.99-.21 112.78-20.78 152-60z"/><path d="m196 40-60-30 60 120c-36.24 0-68.83 22.06-82.28 55.71l-103.72 256.29c39.22 39.22 96.01 59.79 152 60 11.42.04 22.8-1.4 34-3-47.523-118.988-35.655-261.135 30-369 16.57-33.14 3.141-73.43-30-90z"/></g></g><g><path d="m477.159 353.961c-2.072-5.12-7.901-7.591-13.021-5.519-5.12 2.071-7.59 7.901-5.518 13.021l31.576 78.023c-35.867 33.25-86.569 52.313-140.23 52.514-6.612.047-13.276-.49-19.789-1.228 25.172-64.671 32.01-135.578 23.145-202.213-7.042-52.928-24.113-103.911-49.62-148.56h12.298c32.343 0 60.995 19.399 73.01 49.461l35.845 88.573c2.061 5.095 7.875 7.6 13.021 5.519 5.12-2.071 7.59-7.901 5.518-13.021l-35.829-88.533c-13.094-32.76-41.995-55.428-75.996-60.777l53.375-106.75c3.26-6.519-1.379-14.379-8.838-14.465-.035 0-.07-.006-.106-.006h-240c-.033 0-.065.006-.099.006-7.307.077-12.075 7.707-8.908 14.317.023.049.038.1.063.149l53.375 106.75c-34.002 5.348-62.9 28.011-75.98 60.737l-103.72 256.29c-1.506 3.722-.641 7.983 2.199 10.822 41.878 41.876 101.493 62.93 159.522 62.93 12.213 0 24.44-1.599 34.962-3.102 6.412-.916 10.272-7.601 7.873-13.608-4.138-10.362-7.86-21.056-11.116-31.883 39.067-19.229 85.42-19.095 124.388.354-3.443 10.646-7.374 21.139-11.743 31.282-1.232 2.86-1.061 6.131.462 8.848 1.523 2.716 4.225 4.567 7.308 5.008 10.523 1.503 22.748 3.102 34.964 3.102.162 0 .326 0 .487-.001 61.305-.229 119.271-23.167 159.033-62.929 2.839-2.839 3.705-7.101 2.199-10.822zm-274.978-233.961-43.82-87.639 33.167 16.584c26.333 13.167 38.05 44.076 27.934 71.056h-17.281zm-1.708-88.944-22.112-11.056h155.279l-22.111 11.056c-33.299 16.649-49.293 54.307-39.977 88.944h-31.104c9.317-34.637-6.677-72.295-39.975-88.944zm92.065 88.944c-10.115-26.98 1.601-57.889 27.934-71.056l33.167-16.584-43.819 87.64zm-130.5 372c-53.663-.201-104.366-19.264-140.232-52.514l101.201-250.064c12-30.022 40.651-49.432 72.994-49.432h12.681c-57.452 104.776-67.782 236.939-26.528 350.745-6.617.756-13.393 1.289-20.116 1.265zm26.789-48.194c-25.159-102.652-9.418-214.916 42.847-303.806h48.788c54.911 89.153 71.006 201.631 43.808 304.312-42.686-20.107-92.624-20.289-135.443-.506z"/><circle cx="451" cy="316" r="10"/></g></g></svg>