<svg height="512pt" viewBox="-114 0 512 512" width="512pt" xmlns="http://www.w3.org/2000/svg"><path d="m222.632812 7.5h-39.3125c-5.445312 0-9.863281 4.417969-9.863281 9.863281v123.136719h59.039063v-123.136719c0-5.445312-4.417969-9.863281-9.863282-9.863281zm0 0" fill="#f6cb43"/><path d="m232.496094 17.410156v123.09375h-19.816406v-123.09375c0-5.46875-4.4375-9.90625-9.90625-9.90625h19.816406c5.46875 0 9.90625 4.4375 9.90625 9.90625zm0 0" fill="#fab03c"/><path d="m222.632812 7.5h-39.3125c-5.445312 0-9.863281 4.417969-9.863281 9.863281v27.726563c0 15.800781 12.808594 28.605468 28.605469 28.605468h1.824219c15.800781 0 28.609375-12.804687 28.609375-28.605468v-27.726563c0-5.445312-4.417969-9.863281-9.863282-9.863281zm0 0" fill="#c1bab8"/><path d="m232.496094 17.410156v27.554688c0 12.761718-8.3125 23.570312-19.816406 27.316406v-54.871094c0-5.46875-4.4375-9.90625-9.90625-9.90625h19.816406c5.46875 0 9.90625 4.4375 9.90625 9.90625zm0 0" fill="#b7a6a3"/><path d="m100.652344 7.5h-39.308594c-5.449219 0-9.863281 4.417969-9.863281 9.863281v123.136719h59.035156v-123.136719c0-5.445312-4.414063-9.863281-9.863281-9.863281zm0 0" fill="#f6cb43"/><path d="m110.519531 17.410156v123.09375h-19.816406v-123.09375c0-5.46875-4.4375-9.90625-9.90625-9.90625h19.816406c5.46875 0 9.90625 4.4375 9.90625 9.90625zm0 0" fill="#fab03c"/><path d="m100.652344 7.5h-39.308594c-5.449219 0-9.863281 4.417969-9.863281 9.863281v27.726563c0 15.800781 12.804687 28.605468 28.605469 28.605468h1.824218c15.800782 0 28.605469-12.804687 28.605469-28.605468v-27.726563c0-5.445312-4.414063-9.863281-9.863281-9.863281zm0 0" fill="#c1bab8"/><path d="m110.519531 17.410156v27.554688c0 12.761718-8.3125 23.570312-19.816406 27.316406v-54.871094c0-5.46875-4.4375-9.90625-9.90625-9.90625h19.816406c5.46875 0 9.90625 4.4375 9.90625 9.90625zm0 0" fill="#b7a6a3"/><path d="m247.695312 271.613281-4.9375 82.648438h-201.542968l-4.9375-82.648438c-.101563-1.667969-.609375-3.285156-1.480469-4.710937l-11.394531-18.609375c-4.992188-8.15625-7.636719-17.53125-7.636719-27.09375v-62c0-16.863281 13.671875-30.535157 30.539063-30.535157h191.367187c16.863281 0 30.535156 13.671876 30.535156 30.535157v62c0 9.5625-2.640625 18.9375-7.636719 27.09375l-11.394531 18.609375c-.871093 1.425781-1.378906 3.042968-1.480469 4.710937zm0 0" fill="#cf8671"/><path d="m268.207031 159.199219v62c0 9.5625-2.640625 18.941406-7.640625 27.089843l-11.390625 18.609376c-.867187 1.429687-1.378906 3.042968-1.480469 4.710937l-4.9375 82.652344h-17.210937l4.941406-82.652344c.097657-1.667969.609375-3.28125 1.480469-4.710937l11.386719-18.609376c5-8.148437 7.640625-17.527343 7.640625-27.089843v-62c0-16.871094-13.667969-30.539063-30.539063-30.539063h17.210938c16.867187 0 30.539062 13.667969 30.539062 30.539063zm0 0" fill="#a86552"/><path d="m244.707031 321.75-1.949219 32.511719h-201.539062l-1.953125-32.511719zm0 0" fill="#f6cb43"/><path d="m244.695312 321.75-1.9375 32.511719h-17.210937l1.941406-32.511719zm0 0" fill="#fab03c"/><path d="m253.695312 355.617188c-.859374-4.6875-4.941406-8.089844-9.703124-8.089844h-204.007813c-4.765625 0-8.847656 3.40625-9.703125 8.089844l-22.78125 124.371093c0 13.539063 10.972656 24.511719 24.511719 24.511719 16.171875 0 29.285156-13.109375 29.285156-29.285156v.777344c0 15.746093 12.761719 28.507812 28.503906 28.507812h1.535157c13.117187 0 23.753906-10.632812 23.753906-23.753906v-4.753906c0 15.746093 12.761718 28.507812 28.503906 28.507812h1.535156c13.117188 0 23.753906-10.632812 23.753906-23.753906v-4.753906c0 15.746093 12.761719 28.507812 28.507813 28.507812h1.535156c13.117188 0 23.75-10.632812 23.75-23.753906v-5.53125c0 16.175781 13.113281 29.285156 29.285157 29.285156 13.539062 0 24.511718-10.972656 24.511718-24.511719zm0 0" fill="#fc4830"/><path d="m115.089844 347.527344h-53.792969v128.464844c0 15.746093 12.761719 28.507812 28.503906 28.507812h1.535157c13.117187 0 23.753906-10.636719 23.753906-23.753906zm0 0" fill="#e81610"/><path d="m168.882812 347.527344h-53.792968v128.464844c0 15.746093 12.761718 28.507812 28.503906 28.507812h1.535156c13.117188 0 23.753906-10.636719 23.753906-23.753906zm0 0" fill="#fc4830"/><path d="m222.679688 347.527344h-53.796876v128.464844c0 15.746093 12.765626 28.507812 28.507813 28.507812h1.535156c13.117188 0 23.753907-10.636719 23.753907-23.753906zm0 0" fill="#e81610"/><path d="m202.859375 48.097656h.117187c4.140626 0 7.5-3.355468 7.5-7.5 0-4.144531-3.359374-7.5-7.5-7.5h-.117187c-4.140625 0-7.5 3.355469-7.5 7.5 0 4.144532 3.359375 7.5 7.5 7.5zm0 0"/><path d="m80.882812 48.097656h.113282c4.144531 0 7.5-3.355468 7.5-7.5 0-4.144531-3.355469-7.5-7.5-7.5h-.113282c-4.140624 0-7.5 3.355469-7.5 7.5 0 4.144532 3.359376 7.5 7.5 7.5zm0 0"/><path d="m249.570312 464.5c-.019531 0-.039062 0-.058593 0-4.113281 0-7.464844 3.320312-7.5 7.441406-.03125 4.140625 3.300781 7.523438 7.441406 7.558594h.128906.058594c4.113281 0 7.464844-3.320312 7.5-7.441406.03125-4.144532-3.300781-7.527344-7.445313-7.558594zm0 0"/><path d="m195.113281 464.5h-.125c-.019531 0-.039062 0-.058593 0-4.113282 0-7.464844 3.316406-7.5 7.441406-.03125 4.140625 3.300781 7.523438 7.441406 7.558594h.125.058594c4.117187 0 7.46875-3.320312 7.5-7.441406.035156-4.144532-3.296876-7.527344-7.441407-7.558594zm0 0"/><path d="m142.109375 464.5h-.125c-.019531 0-.039063 0-.058594 0-4.117187 0-7.46875 3.316406-7.5 7.441406-.03125 4.140625 3.300781 7.523438 7.441407 7.558594h.125.058593c4.113281 0 7.46875-3.320312 7.5-7.441406.03125-4.144532-3.300781-7.527344-7.441406-7.558594zm0 0"/><path d="m89.101562 464.5h-.125c-.019531 0-.039062 0-.058593 0-4.113281 0-7.464844 3.316406-7.5 7.441406-.03125 4.140625 3.300781 7.523438 7.441406 7.558594h.125.0625c4.113281 0 7.464844-3.320312 7.496094-7.441406.03125-4.144532-3.300781-7.527344-7.441407-7.558594zm0 0"/><path d="m34.519531 464.5h-.125c-.019531 0-.039062 0-.058593 0-4.117188 0-7.46875 3.316406-7.5 7.441406-.03125 4.140625 3.300781 7.523438 7.441406 7.558594h.125.058594c4.113281 0 7.46875-3.320312 7.5-7.441406.03125-4.144532-3.300782-7.527344-7.441407-7.558594zm0 0"/><path d="m283.851562 478.640625-10.109374-55.195313c-.746094-4.074218-4.652344-6.773437-8.730469-6.023437-4.074219.742187-6.769531 4.652344-6.023438 8.726563l9.972657 54.464843c-.328126 9.089844-7.824219 16.390625-16.996094 16.390625-12.015625 0-21.785156-9.773437-21.785156-21.785156v-120.191406h13.8125c1.140624 0 2.117187.816406 2.324218 1.941406l6.519532 35.582031c.746093 4.070313 4.648437 6.773438 8.726562 6.023438 4.078125-.746094 6.773438-4.652344 6.027344-8.726563l-6.519532-35.582031c-1.058593-5.796875-4.925781-10.464844-10.035156-12.734375l4.148438-69.472656c.027344-.4375.160156-.867188.390625-1.242188l11.394531-18.609375c5.71875-9.335937 8.738281-20.058593 8.738281-31.007812v-62c0-20.191407-15.816406-36.753907-35.710937-37.960938v-7.242187c0-4.144532-3.355469-7.5-7.5-7.5-4.140625 0-7.5 3.355468-7.5 7.5v7.164062h-14.722656v-7.136718c0-4.144532-3.359376-7.5-7.5-7.5-4.140626 0-7.5 3.355468-7.5 7.5v7.136718h-14.316407v-46.804687c5.941407 4.296875 13.230469 6.839843 21.105469 6.839843h1.824219c7.878906 0 15.167969-2.542968 21.109375-6.839843v6.980469c0 4.144531 3.355468 7.5 7.5 7.5 4.140625 0 7.5-3.355469 7.5-7.5v-63.972657c0-9.574219-7.789063-17.363281-17.363282-17.363281h-39.3125c-8.976562 0-16.382812 6.847656-17.273437 15.59375-.058594.582031-.089844 105.570312-.089844 105.570312h-47.941406s-.027344-104.988281-.089844-105.570312c-.890625-8.746094-8.296875-15.59375-17.273437-15.59375h-39.308594c-9.574219 0-17.363281 7.789062-17.363281 17.363281v103.878907c-19.894531 1.207031-35.710938 17.765624-35.710938 37.957031v62c0 10.949219 3.019531 21.671875 8.738281 31.011719l11.394532 18.605468c.226562.375.363281.804688.386718 1.242188l4.152344 69.472656c-5.113281 2.269531-8.976562 6.9375-10.039062 12.734375l-22.78125 124.371094c-.0820315.449219-.121094.898437-.121094 1.351562 0 17.652344 14.359375 32.011719 32.011719 32.011719 11.816406 0 22.351562-5.605469 29.085937-14.289062 6.582032 8.675781 17 14.289062 28.703125 14.289062h1.535157c10.207031 0 19.289062-4.917969 24.996093-12.511719 6.609375 7.65625 16.378907 12.511719 27.265625 12.511719h1.535156c10.207032 0 19.289063-4.917969 24.996094-12.511719 6.605469 7.65625 16.378906 12.511719 27.261719 12.511719h1.535156c10.328125 0 19.5-5.03125 25.191407-12.773438 6.75 7.816407 16.730468 12.773438 27.847656 12.773438 17.648437 0 32.007812-14.359375 32.007812-32.011719 0-.453125-.039062-.902343-.121094-1.347656zm-61.21875-463.640625c1.300782 0 2.363282 1.0625 2.363282 2.363281v27.726563c0 11.636718-9.46875 21.105468-21.105469 21.105468h-1.824219c-11.640625 0-21.109375-9.46875-21.109375-21.105468v-27.726563c0-1.304687 1.0625-2.363281 2.367188-2.363281zm-134.136718 106.164062v-7.140624c0-4.140626-3.355469-7.5-7.5-7.5-4.140625 0-7.5 3.359374-7.5 7.5v7.140624h-14.519532v-46.808593c5.941407 4.296875 13.234376 6.839843 21.109376 6.839843h1.824218c7.875 0 15.164063-2.542968 21.105469-6.839843v46.808593zm-29.515625-103.800781c0-1.304687 1.058593-2.363281 2.363281-2.363281h39.308594c1.304687 0 2.367187 1.0625 2.367187 2.363281v27.726563c0 11.636718-9.46875 21.105468-21.109375 21.105468h-1.824218c-11.636719 0-21.105469-9.46875-21.105469-21.105468zm-35.714844 203.835938v-15.648438c5.472656 14.707031 19.566406 24.539063 35.308594 24.539063h36.707031c17.609375 0 33.097656-12.492188 36.824219-29.703125.878906-4.046875-1.691407-8.039063-5.742188-8.917969-4.042969-.875-8.039062 1.695312-8.917969 5.742188-2.242187 10.359374-11.566406 17.878906-22.164062 17.878906h-36.707031c-9.621094 0-18.222657-6.101563-21.402344-15.179688l-13.902344-39.671875v-1.039062c0-12.703125 10.332031-23.035157 23.035157-23.035157h191.367187c12.699219 0 23.035156 10.332032 23.035156 23.035157v1.039062l-13.902343 39.671875c-3.183594 9.078125-11.785157 15.179688-21.40625 15.179688h-36.703126c-10.601562 0-19.921874-7.519532-22.167968-17.878906-.875-4.046876-4.867188-6.617188-8.917969-5.742188-4.046875.878906-6.617187 4.871094-5.742187 8.917969 3.730468 17.210937 19.21875 29.703125 36.828124 29.703125h36.703126c15.742187 0 29.835937-9.832032 35.308593-24.539063v15.648438c0 8.183593-2.257812 16.199219-6.53125 23.179687l-11.394531 18.609375c-1.507812 2.464844-2.398438 5.292969-2.570312 8.175781l-2.574219 43.089844h-88.089844v-10.21875h12.96875c12.761719 0 23.144531-10.378906 23.144531-23.140625 0-4.144531-3.359375-7.5-7.5-7.5-4.144531 0-7.5 3.355469-7.5 7.5 0 4.488281-3.652344 8.140625-8.144531 8.140625h-12.96875v-19.125h12.96875c12.761719 0 23.144531-10.382812 23.144531-23.144531 0-4.144531-3.359375-7.5-7.5-7.5-4.144531 0-7.5 3.355469-7.5 7.5 0 4.492187-3.652344 8.144531-8.144531 8.144531h-12.96875v-5.234375c0-4.144531-3.359375-7.5-7.5-7.5-4.144531 0-7.5 3.355469-7.5 7.5v5.234375h-13.085937c-4.488282 0-8.144532-3.652344-8.144532-8.144531 0-4.144531-3.355468-7.5-7.5-7.5-4.140625 0-7.5 3.355469-7.5 7.5 0 12.761719 10.382813 23.144531 23.144532 23.144531h13.085937v19.125h-13.085937c-4.488282 0-8.144532-3.652344-8.144532-8.140625 0-4.144531-3.355468-7.5-7.5-7.5-4.140625 0-7.5 3.355469-7.5 7.5 0 12.761719 10.382813 23.140625 23.144532 23.140625h13.085937v10.21875h-36.226563c-4.144531 0-7.5 3.355469-7.5 7.5 0 4.144532 3.355469 7.5 7.5 7.5h138.421876l-.644532 10.773438h-188.21875l-.644531-10.773438h18.421875c4.140625 0 7.5-3.355468 7.5-7.5 0-4.144531-3.359375-7.5-7.5-7.5h-19.316406l-2.574219-43.089844c-.171875-2.882812-1.0625-5.710937-2.570313-8.175781l-11.394531-18.609375c-4.273437-6.980468-6.535156-14.996094-6.535156-23.179687zm8.746094 275.800781c-9.171875 0-16.671875-7.296875-17-16.390625l22.644531-123.644531c.207031-1.121094 1.183594-1.9375 2.328125-1.9375h13.8125v120.1875c0 12.011718-9.773437 21.785156-21.785156 21.785156zm59.324219 0h-1.535157c-11.582031 0-21.003906-9.421875-21.003906-21.007812v-120.964844h17.175781v23.078125c0 4.140625 3.355469 7.5 7.5 7.5 4.140625 0 7.5-3.359375 7.5-7.5v-23.078125h6.617188v125.71875c0 8.964844-7.289063 16.253906-16.253906 16.253906zm53.796874 0h-1.535156c-11.585937 0-21.007812-9.421875-21.007812-21.007812v-120.964844h11.957031v23.078125c0 4.140625 3.355469 7.5 7.5 7.5 4.140625 0 7.5-3.359375 7.5-7.5v-23.078125h11.839844v125.71875c-.003907 8.964844-7.292969 16.253906-16.253907 16.253906zm53.792969 0h-1.535156c-11.582031 0-21.007813-9.421875-21.007813-21.007812v-120.964844h7.285157v23.078125c0 4.140625 3.359375 7.5 7.5 7.5s7.5-3.359375 7.5-7.5v-23.078125h16.511719v125.71875c0 8.964844-7.292969 16.253906-16.253907 16.253906zm0 0"/></svg>