<svg height="511pt" viewBox="1 -100 511.999 511" width="511pt" xmlns="http://www.w3.org/2000/svg"><g fill-rule="evenodd"><path d="m86 201.847656c0-33.136718 26.863281-60 60-60s60 26.863282 60 60c0 33.136719-26.863281 60-60 60s-60-26.863281-60-60zm157.996094-20c-9.265625-45.644531-49.617188-80.003906-97.996094-80.003906-14.695312 0-28.648438 3.171875-41.214844 8.863281-28.808594 13.046875-50.332031 39.355469-56.785156 71.140625h-18c-11.046875 0-20 8.953125-20 20 0 11.042969 8.953125 20 20 20h18.003906c9.265625 45.640625 49.617188 80 97.996094 80s88.734375-34.359375 98-80h24.003906c9.265625 45.640625 49.617188 80 97.996094 80s88.734375-34.359375 98-80h18c11.046875 0 20-8.957031 20-20 0-11.046875-8.953125-20-20-20h-18c-6.453125-31.785156-27.976562-58.09375-56.785156-71.140625-12.566406-5.691406-26.519532-8.863281-41.214844-8.863281-48.378906 0-88.730469 34.359375-97.996094 80.003906zm62.003906 20c0-33.136718 26.863281-60 60-60s60 26.863282 60 60c0 33.136719-26.863281 60-60 60s-60-26.863281-60-60zm0 0" fill="#b278d3"/><path d="m206 201.847656c0 33.136719-26.863281 60-60 60s-60-26.863281-60-60c0-33.136718 26.863281-60 60-60s60 26.863282 60 60zm0 0" fill="#858fa6"/><path d="m426 201.847656c0 33.136719-26.863281 60-60 60s-60-26.863281-60-60c0-33.136718 26.863281-60 60-60s60 26.863282 60 60zm0 0" fill="#858fa6"/><path d="m383.648438 62.058594 23.566406 48.648437c28.808594 13.050781 50.332031 39.359375 56.785156 71.140625h18c1.492188 0 2.949219.164063 4.347656.472656l-1.511718-3.117187-65.1875-134.582031c-6.648438-13.726563-16.378907-22.449219-28.167969-27.789063-10.585938-4.792969-22.214844-6.390625-34.367188-6.328125l-54.363281.273438c-11 .054687-19.875 9.015625-19.820312 20.015625.054687 11 9.015624 19.875 20.019531 19.820312l54.363281-.273437c6.910156-.035156 13.058594.660156 17.707031 2.765625 3.4375 1.554687 6.398438 4.34375 8.628907 8.953125zm0 0" fill="#c9a0e1"/><path d="m128.351562 62.058594-23.5625 48.648437c-28.8125 13.050781-50.335937 39.359375-56.785156 71.140625h-18.003906c-1.492188 0-2.945312.164063-4.347656.472656l1.511718-3.117187 65.1875-134.582031c6.648438-13.726563 16.378907-22.449219 28.171876-27.789063 10.582031-4.792969 22.214843-6.390625 34.363281-6.328125l54.363281.273438c11 .054687 19.875 9.015625 19.820312 20.015625-.054687 11-9.015624 19.875-20.015624 19.820312l-54.367188-.273437c-6.910156-.035156-13.058594.660156-17.707031 2.765625-3.4375 1.554687-6.398438 4.34375-8.628907 8.953125zm0 0" fill="#c9a0e1"/></g><path d="m493.496094 174.140625-64.847656-133.878906c-7.234376-14.9375-18.355469-25.886719-33.042969-32.539063-10.726563-4.855468-23.105469-7.222656-37.828125-7.222656-.238282 0-.476563 0-.714844 0l-54.363281.273438c-16.496094.082031-29.851563 13.570312-29.769531 30.066406.082031 16.445312 13.484374 29.769531 29.914062 29.769531h.152344l54.363281-.273437c6.203125-.054688 10.714844.601562 13.53125 1.875.945313.429687 2.363281 1.332031 3.757813 4.207031l13.410156 27.683593c-7.15625-1.476562-14.535156-2.253906-22.058594-2.253906-49.339844 0-92.605469 33.183594-105.855469 80h-8.289062c-13.25-46.816406-56.515625-80-105.855469-80-7.523438 0-14.902344.78125-22.058594 2.253906l13.410156-27.683593c1.394532-2.875 2.8125-3.777344 3.757813-4.207031 2.816406-1.273438 7.398437-1.933594 13.527344-1.875l54.367187.273437h.152344c16.425781 0 29.832031-13.324219 29.914062-29.769531.082032-16.496094-13.273437-29.984375-29.769531-30.066406l-54.363281-.273438c-.238281 0-.476562 0-.714844 0-14.722656 0-27.101562 2.363281-37.828125 7.222656-14.691406 6.652344-25.808593 17.601563-33.042969 32.539063-2.410156 4.972656-.332031 10.953125 4.640626 13.359375 4.96875 2.410156 10.949218.332031 13.359374-4.640625 5.210938-10.765625 12.832032-18.300781 23.296876-23.039063 8.21875-3.722656 18.058593-5.523437 30.1875-5.441406l54.367187.273438c5.46875.027343 9.894531 4.5 9.867187 9.96875-.027343 5.449218-4.472656 9.867187-9.914062 9.867187-.019531 0-.035156 0-.054688 0l-54.363281-.273437c-9.339843-.058594-16.269531 1.113281-21.882812 3.65625-5.835938 2.644531-10.382813 7.257812-13.503907 13.707031l-22.097656 45.621093c-13.878906 6.894532-26.179687 16.640626-36.054687 28.550782l.917969-1.890625c2.40625-4.972657.328124-10.953125-4.640626-13.359375s-10.953124-.328125-13.359374 4.640625l-25.613282 52.878906c-10.851562 4.519531-18.503906 15.234375-18.503906 27.707031 0 16.542969 13.457031 30 30 30h10.144531c13.25 46.816406 56.515625 80 105.855469 80s92.605469-33.183594 105.855469-80h8.289062c13.25 46.816406 56.515625 80 105.855469 80s92.605469-33.183594 105.855469-80h10.144531c16.539062 0 30-13.457031 30-30 0-12.472656-7.652344-23.1875-18.503906-27.707031zm-100.847656-116.441406c-3.125-6.449219-7.667969-11.0625-13.503907-13.703125-5.503906-2.496094-12.292969-3.660156-21.339843-3.660156-.179688 0-.363282 0-.542969 0l-54.367188.273437c-5.4375-.003906-9.9375-4.398437-9.964843-9.867187-.027344-5.46875 4.398437-9.941407 9.867187-9.96875l54.367187-.273438h.609376c11.816406 0 21.5 1.78125 29.578124 5.441406 10.460938 4.738282 18.082032 12.273438 23.296876 23.039063l40.152343 82.894531c-9.875-11.914062-22.175781-21.660156-36.054687-28.554688zm89.351562 154.148437h-18c-4.757812 0-8.855469 3.347656-9.800781 8.011719-8.46875 41.710937-45.5625 71.988281-88.199219 71.988281s-79.730469-30.277344-88.199219-71.988281c-.941406-4.664063-5.042969-8.011719-9.796875-8.011719h-24.007812c-4.753906 0-8.851563 3.347656-9.796875 8.011719-8.46875 41.710937-45.5625 71.988281-88.199219 71.988281s-79.730469-30.277344-88.199219-71.988281c-.945312-4.664063-5.042969-8.011719-9.800781-8.011719h-18c-5.515625 0-10-4.488281-10-10 0-5.515625 4.484375-10 10-10h18c4.757812 0 8.855469-3.351562 9.800781-8.011718 8.46875-41.714844 45.5625-71.988282 88.199219-71.988282s79.730469 30.273438 88.199219 71.988282c.941406 4.660156 5.042969 8.011718 9.796875 8.011718h24.007812c4.753906 0 8.851563-3.351562 9.796875-8.011718 8.46875-41.714844 45.5625-71.988282 88.199219-71.988282s79.730469 30.273438 88.199219 71.988282c.945312 4.660156 5.042969 8.011718 9.800781 8.011718h18c5.515625 0 10 4.484375 10 10 0 5.511719-4.484375 10-10 10zm0 0"/><path d="m146 131.847656c-38.597656 0-70 31.402344-70 70s31.402344 70 70 70 70-31.402344 70-70-31.402344-70-70-70zm0 120c-27.570312 0-50-22.429687-50-50 0-27.570312 22.429688-50 50-50s50 22.429688 50 50c0 27.570313-22.429688 50-50 50zm0 0"/><path d="m366 131.847656c-38.597656 0-70 31.402344-70 70 0 17.0625 6.214844 33.503906 17.496094 46.292969 3.65625 4.140625 9.976562 4.535156 14.117187.882813 4.140625-3.65625 4.535157-9.972657.882813-14.117188-8.058594-9.128906-12.496094-20.871094-12.496094-33.058594 0-27.570312 22.429688-50 50-50s50 22.429688 50 50c0 12.191406-4.4375 23.933594-12.5 33.066406-3.65625 4.140626-3.261719 10.460938.878906 14.113282 1.902344 1.679687 4.261719 2.503906 6.613282 2.503906 2.769531 0 5.523437-1.144531 7.5-3.382812 11.289062-12.789063 17.507812-29.234376 17.507812-46.300782 0-38.597656-31.402344-70-70-70zm0 0"/><path d="m68.792969 94.316406c1.285156.550782 2.621093.8125 3.9375.8125 3.878906 0 7.570312-2.273437 9.195312-6.0625l.003907-.007812c2.175781-5.074219-.179688-10.953125-5.253907-13.125-5.078125-2.183594-10.957031.175781-13.132812 5.253906-2.175781 5.074219.175781 10.953125 5.25 13.128906zm0 0"/><path d="m366 251.847656h-.007812c-5.519532 0-9.996094 4.476563-9.996094 10 0 5.519532 4.480468 10 10.003906 10s10-4.480468 10-10c0-5.523437-4.476562-10-10-10zm0 0"/></svg>