<svg height="512pt" viewBox="0 -28 512.04 512" width="512pt" xmlns="http://www.w3.org/2000/svg"><path d="m455.800781 184.019531c0 17.121094-21.039062 32.71875-55.359375 44.234375v-.082031c-31.761718-16.640625-84.722656-27.511719-144.640625-27.511719-59.921875 0-112.878906 10.871094-144.640625 27.511719v.082031c-34.320312-11.515625-55.359375-27.113281-55.359375-44.234375 0-35.359375 89.519531-64 200-64s200 28.640625 200 64zm0 0" fill="#f6bb42"/><path d="m255.800781 228.980469v36.953125l-24 13.847656-32-18.488281 24.398438-14.082031zm0 0" fill="#6ba7e8"/><path d="m279.800781 279.78125v27.679688l-24 13.917968-24-13.917968v-27.679688l24-13.847656zm0 0" fill="#5d9cec"/><path d="m231.800781 307.460938v.070312l-32 18.402344v-64.640625l32 18.488281zm0 0" fill="#78b4ea"/><path d="m255.800781 321.378906v36.875l-25.679687-14.792968-30.320313-17.441407v-.085937l32-18.402344v-.070312zm0 0" fill="#6ba7e8"/><path d="m311.800781 325.933594v.085937l-30.320312 17.441407-25.679688 14.792968v-36.875l24-13.917968zm0 0" fill="#4a89dc"/><path d="m311.800781 261.292969v64.640625l-32-18.472656v-27.679688zm0 0" fill="#3981d1"/><path d="m311.800781 261.292969-32 18.488281-24-13.847656v-36.953125l31.597657 18.230469zm0 0" fill="#4a89dc"/><path d="m455.800781 184.019531v96c0 32.550781-76 59.441407-174.320312 63.441407l30.320312-17.441407v-64.726562l-24.402343-14.082031c44.160156-2.230469 83.511718-9.117188 113.042968-18.957032 34.320313-11.515625 55.359375-27.113281 55.359375-44.234375zm0 0" fill="#ffce54"/><path d="m111.160156 228.253906c29.519532 9.839844 68.878906 16.726563 113.039063 18.957032l-24.398438 14.082031v64.726562l30.320313 17.441407c-98.320313-4-174.320313-30.890626-174.320313-63.441407v-96c0 17.121094 21.039063 32.71875 55.359375 44.234375zm0 0" fill="#ffce54"/><path d="m439.800781 80.019531c-4.425781 0-8-3.574219-8-8v-48c0-4.421875 3.574219-8 8-8 4.421875 0 8 3.578125 8 8v48c0 4.425781-3.578125 8-8 8zm0 0"/><path d="m447.800781 56.019531h-16c-4.425781 0-8-3.574219-8-8 0-4.421875 3.574219-8 8-8h16c4.421875 0 8 3.578125 8 8 0 4.425781-3.578125 8-8 8zm0 0"/><path d="m135.800781 456.019531c-4.425781 0-8-3.574219-8-8v-48c0-4.421875 3.574219-8 8-8 4.421875 0 8 3.578125 8 8v48c0 4.425781-3.578125 8-8 8zm0 0"/><path d="m143.800781 432.019531h-16c-4.425781 0-8-3.574219-8-8 0-4.421875 3.574219-8 8-8h16c4.421875 0 8 3.578125 8 8 0 4.425781-3.578125 8-8 8zm0 0"/><path d="m479.800781 416.019531c-4.425781 0-8-3.574219-8-8v-32c0-4.421875 3.574219-8 8-8 4.421875 0 8 3.578125 8 8v32c0 4.425781-3.578125 8-8 8zm0 0"/><path d="m487.800781 400.019531h-16c-4.425781 0-8-3.574219-8-8 0-4.421875 3.574219-8 8-8h16c4.421875 0 8 3.578125 8 8 0 4.425781-3.578125 8-8 8zm0 0"/><path d="m39.800781 48.019531c-4.425781 0-8-3.574219-8-8v-32c0-4.421875 3.574219-7.9999998 8-7.9999998 4.421875 0 8 3.5781248 8 7.9999998v32c0 4.425781-3.578125 8-8 8zm0 0"/><path d="m47.800781 32.019531h-16c-4.425781 0-8-3.574219-8-8 0-4.421875 3.574219-8 8-8h16c4.421875 0 8 3.578125 8 8 0 4.425781-3.578125 8-8 8zm0 0"/><path d="m504.039062 216.019531c-4.421874 0-8.039062-3.574219-8.039062-8 0-4.421875 3.535156-8 7.953125-8h.085937c4.417969 0 8 3.578125 8 8 0 4.425781-3.582031 8-8 8zm0 0"/><path d="m168.039062 80.019531c-4.421874 0-8.039062-3.574219-8.039062-8 0-4.421875 3.535156-8 7.953125-8h.085937c4.417969 0 8 3.578125 8 8 0 4.425781-3.582031 8-8 8zm0 0"/><path d="m8.039062 192.019531c-4.421874 0-8.039062-3.574219-8.039062-8 0-4.421875 3.535156-8 7.953125-8h.085937c4.417969 0 8 3.578125 8 8 0 4.425781-3.582031 8-8 8zm0 0"/><path d="m384.039062 432.019531c-4.421874 0-8.039062-3.574219-8.039062-8 0-4.421875 3.535156-8 7.953125-8h.085937c4.417969 0 8 3.578125 8 8 0 4.425781-3.582031 8-8 8zm0 0"/><path d="m256.039062 440.019531c-4.421874 0-8.039062-3.574219-8.039062-8 0-4.421875 3.535156-8 7.953125-8h.085937c4.417969 0 8 3.578125 8 8 0 4.425781-3.582031 8-8 8zm0 0"/><path d="m40.039062 368.019531c-4.421874 0-8.039062-3.574219-8.039062-8 0-4.421875 3.535156-8 7.953125-8h.085937c4.417969 0 8 3.578125 8 8 0 4.425781-3.582031 8-8 8zm0 0"/><path d="m320.039062 32.019531c-4.421874 0-8.039062-3.574219-8.039062-8 0-4.421875 3.535156-8 7.953125-8h.085937c4.417969 0 8 3.578125 8 8 0 4.425781-3.582031 8-8 8zm0 0"/><path d="m455.800781 192.019531c-4.425781 0-8-3.574219-8-8 0-26.488281-78.847656-56-192-56-113.152343 0-192 29.511719-192 56 0 4.425781-3.578125 8-8 8-4.425781 0-8-3.574219-8-8 0-46.765625 107.167969-72 208-72s208 25.234375 208 72c0 4.425781-3.578125 8-8 8zm0 0"/><path d="m230.144531 351.5c-.113281 0-.222656 0-.335937-.007812-87.664063-3.601563-182.007813-27.496094-182.007813-71.472657 0-4.421875 3.574219-8 8-8 4.421875 0 8 3.578125 8 8 0 23.402344 63.71875 51.265625 166.664063 55.488281 4.414062.175782 7.839844 3.902344 7.664062 8.320313-.167968 4.304687-3.722656 7.671875-7.984375 7.671875zm0 0"/><path d="m281.449219 351.5c-4.265625 0-7.816407-3.367188-7.984375-7.671875-.175782-4.417969 3.246094-8.144531 7.664062-8.320313 102.941406-4.222656 166.671875-32.085937 166.671875-55.488281 0-4.421875 3.574219-8 8-8 4.421875 0 8 3.578125 8 8 0 43.976563-94.351562 67.871094-182.015625 71.472657-.113281.007812-.226562.007812-.335937.007812zm0 0"/><path d="m224.207031 255.21875c-.144531 0-.269531 0-.414062-.007812-84.769531-4.304688-175.992188-28.414063-175.992188-71.191407 0-4.421875 3.574219-8 8-8 4.421875 0 8 3.578125 8 8 0 22.625 61.480469 50.167969 160.808594 55.207031 4.414063.226563 7.804687 3.984376 7.582031 8.402344-.222656 4.269532-3.75 7.589844-7.984375 7.589844zm0 0"/><path d="m287.40625 255.21875c-4.230469 0-7.765625-3.320312-7.980469-7.589844-.21875-4.417968 3.167969-8.167968 7.582031-8.402344 99.3125-5.039062 160.792969-32.582031 160.792969-55.207031 0-4.421875 3.574219-8 8-8 4.421875 0 8 3.578125 8 8 0 42.777344-91.214843 66.886719-175.976562 71.191407-.144531.007812-.273438.007812-.417969.007812zm0 0"/><path d="m111.167969 236.21875c-2.878907 0-5.664063-1.558594-7.097657-4.285156-2.054687-3.914063-.535156-8.753906 3.378907-10.800782 34.007812-17.816406 89.472656-28.449218 148.351562-28.449218 58.863281 0 114.320313 10.625 148.34375 28.433594 3.910157 2.046874 5.421875 6.878906 3.375 10.796874-2.046875 3.921876-6.863281 5.449219-10.800781 3.378907-31.832031-16.664063-84.511719-26.609375-140.917969-26.609375-56.425781 0-109.105469 9.953125-140.929687 26.625-1.183594.625-2.457032.910156-3.703125.910156zm0 0"/><path d="m455.800781 288.019531c-4.425781 0-8-3.574219-8-8v-96c0-4.421875 3.574219-8 8-8 4.421875 0 8 3.578125 8 8v96c0 4.425781-3.578125 8-8 8zm0 0"/><path d="m55.800781 288.019531c-4.425781 0-8-3.574219-8-8v-96c0-4.421875 3.574219-8 8-8 4.421875 0 8 3.578125 8 8v96c0 4.425781-3.578125 8-8 8zm0 0"/><path d="m255.800781 329.363281c-1.386719 0-2.769531-.359375-4-1.070312l-24-13.863281c-2.480469-1.433594-4-4.074219-4-6.929688v-27.703125c0-2.855469 1.519531-5.503906 4-6.929687l24-13.863282c2.472657-1.425781 5.527344-1.425781 8 0l24 13.863282c2.480469 1.433593 4 4.074218 4 6.929687v27.703125c0 2.855469-1.519531 5.503906-4 6.929688l-24 13.863281c-1.234375.710937-2.617187 1.070312-4 1.070312zm-16-26.488281 16 9.242188 16-9.242188v-18.472656l-16-9.238282-16 9.238282zm0 0"/><path d="m255.800781 366.300781c-1.386719 0-2.761719-.359375-4-1.074219l-56-32.300781c-2.480469-1.433593-4-4.074219-4-6.929687v-64.703125c0-2.855469 1.519531-5.503907 4-6.929688l56-32.304687c2.488281-1.421875 5.511719-1.421875 8 0l56 32.304687c2.480469 1.433594 4 4.074219 4 6.929688v64.703125c0 2.855468-1.519531 5.503906-4 6.929687l-56 32.300781c-1.242187.714844-2.617187 1.074219-4 1.074219zm-48-44.921875 48 27.6875 48-27.6875v-55.472656l-48-27.6875-48 27.6875zm0 0"/><path d="m255.800781 273.925781c-4.425781 0-8-3.578125-8-8v-36.9375c0-4.425781 3.574219-8 8-8 4.421875 0 8 3.574219 8 8v36.9375c0 4.421875-3.578125 8-8 8zm0 0"/><path d="m255.800781 366.300781c-4.425781 0-8-3.578125-8-8v-36.9375c0-4.421875 3.574219-8 8-8 4.421875 0 8 3.578125 8 8v36.9375c0 4.421875-3.578125 8-8 8zm0 0"/><path d="m231.777344 287.789062c-1.363282 0-2.738282-.34375-3.992188-1.074218l-31.984375-18.472656c-3.832031-2.207032-5.144531-7.101563-2.929687-10.925782 2.207031-3.832031 7.105468-5.144531 10.929687-2.929687l31.984375 18.472656c3.832032 2.207031 5.144532 7.105469 2.925782 10.929687-1.480469 2.566407-4.167969 4-6.933594 4zm0 0"/><path d="m311.777344 333.972656c-1.363282 0-2.738282-.34375-3.992188-1.074218l-31.984375-18.460938c-3.832031-2.210938-5.144531-7.105469-2.929687-10.929688 2.21875-3.832031 7.105468-5.144531 10.929687-2.929687l31.984375 18.472656c3.832032 2.210938 5.144532 7.105469 2.925782 10.929688-1.480469 2.558593-4.167969 3.992187-6.933594 3.992187zm0 0"/><path d="m199.808594 333.972656c-2.769532 0-5.457032-1.441406-6.9375-4-2.207032-3.832031-.894532-8.71875 2.929687-10.929687l31.984375-18.464844c3.816406-2.214844 8.710938-.894531 10.925782 2.929687 2.210937 3.832032.898437 8.71875-2.925782 10.929688l-31.984375 18.460938c-1.257812.730468-2.632812 1.074218-3.992187 1.074218zm0 0"/><path d="m279.808594 287.789062c-2.769532 0-5.457032-1.441406-6.9375-4-2.207032-3.832031-.894532-8.722656 2.929687-10.929687l31.984375-18.464844c3.816406-2.207031 8.710938-.894531 10.925782 2.929688 2.210937 3.832031.898437 8.71875-2.925782 10.929687l-31.984375 18.460938c-1.257812.730468-2.632812 1.074218-3.992187 1.074218zm0 0"/></svg>