<svg height="512" viewBox="0 0 60 60" width="512" xmlns="http://www.w3.org/2000/svg"><g id="015---Dollar-Necklace" fill="none"><g id="Icons" transform="translate(0 1)"><g fill="#ff9801"><path id="Shape" d="m3.447 6.95c-.77333333-1.126-1.49233333-2.28933333-2.157-3.49-.2761446-.40982162-.37334814-.9144824-.26918548-1.39755562.10416267-.48307322.40069477-.90283475.82118548-1.16244438l1.505-.739c.88883948-.37118925 1.9133413.00890311 2.345.87.58533333 1.05466667 1.219 2.07766667 1.901 3.069.57466814.76969896.45349524 1.85325593-.277 2.477l-1.334 1.016c-.41859684.26215358-.92618137.34175143-1.4049313.22031702-.47874993-.1214344-.88702996-.4333403-1.1300687-.86331702z"/><path id="Shape" d="m11.757 15.923c-1.0626667-.8566667-2.08166667-1.7643333-3.057-2.723-.37896926-.313702-.61374066-.7682892-.65015918-1.2589015-.03641853-.4906122.12866089-.9748806.45715918-1.3410985l1.23-1.14c.7399338-.61077443 1.8265465-.54389923 2.486.153.8566667.8406667 1.754 1.6406667 2.692 2.4.770549.5741667.9649965 1.6469055.445 2.455-.3333333.4506667-.663.9023333-.989 1.355-.3277157.3694994-.7921242.5891255-1.2856532.6080057s-.9733594-.1646235-1.3283468-.5080057z"/><path id="Shape" d="m21.432 21.787c-1.274-.554-2.5133333-1.1673333-3.718-1.84-.4535003-.2012109-.805-.579113-.9728962-1.045974s-.1375852-.9820729.0838962-1.426026l.887-1.423c.5581558-.786335 1.6305201-1.0050063 2.452-.5 1.0613333.592 2.1533333 1.1326667 3.276 1.622.9063771.3453804 1.3924212 1.3318667 1.114 2.261-.2.5233333-.3976667 1.0463333-.593 1.569-.2239484.4466482-.6203459.7826624-1.0976405.9304369-.4772947.1477745-.9942101.0945297-1.4313595-.1474369z"/></g><path id="Shape" d="m58.71 3.46c-.6604913 1.19912774-1.3814187 2.36395949-2.16 3.49-.2417409.430034-.6493851.74200458-1.1276436.86298697-.4782585.12098238-.9852116.04037239-1.4023564-.22298697-.113-.084-1.228-.925-1.34-1.01-.7277341-.62726479-.8457027-1.71082878-.27-2.48.68-.99 1.31-2.02 1.9-3.07.424313-.86637135 1.45276-1.24874264 2.34-.87.5.24 1.01.49 1.51.73.4199103.26263186.7154365.68425059.8190829 1.16856203.1036464.48431143.0065609.98995211-.2690829 1.40143797z" fill="#f57c00"/><path id="Shape" d="m55.71 3.46c-.6975367 1.26318001-1.461956 2.48825368-2.29 3.67-.25-.18-.49-.36-.74-.55-.7277341-.62726479-.8457027-1.71082878-.27-2.48.68-.99 1.31-2.02 1.9-3.07.079218-.14820859.1766388-.28594151.29-.41.19.09.37.18.56.27.4199103.26263186.7154365.68425059.8190829 1.16856203.1036464.48431143.0065609.98995211-.2690829 1.40143797z" fill="#ff9801"/><path id="Shape" d="m51.3 13.2c-.9698647.9615456-1.9913775 1.8695569-3.06 2.72-.3540321.3437031-.8333366.527488-1.3264022.5085966-.4930655-.0188914-.9569024-.238812-1.2835978-.6085966-.877-1.2-1.149-1.483-1.24-1.94-.1416687-.7036255.1252558-1.4270295.69-1.87.94-.76 1.84-1.56 2.7-2.4.6584465-.69470701 1.7426227-.76028219 2.48-.15.1.095 1.117 1.035 1.23 1.14.3310257.3648343.4980581.8493976.4621542 1.3407151-.035904.4913176-.2716066.9464502-.6521542 1.2592849z" fill="#f57c00"/><path id="Shape" d="m50.61 9.79c-.0336974.5229342-.2662754 1.0131371-.65 1.37-.98.96-2 1.87-3.06 2.72-.700794.6743298-1.809206.6743298-2.51 0-.1416687-.7036255.1252558-1.4270295.69-1.87.94-.76 1.84-1.56 2.7-2.4.6584465-.69470701 1.7426227-.76028219 2.48-.15.12.11.23.22.35.33z" fill="#ff9801"/><path id="Shape" d="m38.568 21.787c1.274-.554 2.5133333-1.1673333 3.718-1.84.4535003-.2012109.805-.579113.9728962-1.045974s.1375852-.9820729-.0838962-1.426026l-.887-1.423c-.5581558-.786335-1.6305201-1.0050063-2.452-.5-1.0606667.592-2.1526667 1.1326667-3.276 1.622-.9063771.3453804-1.3924212 1.3318667-1.114 2.261.2.5233333.3976667 1.0463333.593 1.569.2239484.4466482.6203459.7826624 1.0976405.9304369.4772947.1477745.9942101.0945297 1.4313595-.1474369z" fill="#ff9801"/><path id="Shape" d="m33 26.707v-3.72c0-1.6568542-1.3431458-3-3-3s-3 1.3431458-3 3v3.713z" fill="#ff9801"/><path id="Shape" d="m38.67 44.81c1.2778648 4.4628841-1.2522589 9.1273826-5.69 10.49-.1413369 1.4478304-1.3086396 2.5812983-2.76 2.68-.1463326.0140001-.2936674.0140001-.44 0-1.4513604-.0987017-2.6186631-1.2321696-2.76-2.68-3.7862081-1.1675164-6.2710863-4.7871557-6-8.74.0857456-1.3021729 1.196261-2.2971947 2.5-2.24.6266387.0324937 1.2144267.3136183 1.633047.7810463.4186202.467428.6334835 1.0825374.596953 1.7089537 0 0-.01.128-.01.34.0022047 2.0922453 1.6977547 3.7877953 3.79 3.79h.94c2.0931592 0 3.79-1.6968408 3.79-3.79s-1.6968408-3.79-3.79-3.79h-.84c-4.3031138.0503939-7.9693758-3.1134985-8.5491211-7.3776776s2.1087464-8.2920452 6.2691211-9.3923224c.5205352-.9849404 1.5439905-1.600331 2.6580193-1.598233 1.1140287.0020979 2.1351589.621339 2.6519807 1.608233 3.9463021 1.0481777 6.5961431 4.7462153 6.32 8.82-.0455803.7517205-.4441106 1.437561-1.0746416 1.8493765-.6305309.4118155-1.4187192.5010506-2.1253584.2406235-.9704805-.3569267-1.5922308-1.307839-1.53-2.34.0924199-1.0601952-.2639724-2.1105624-.9824865-2.8956056s-1.7332989-1.2328139-2.7975135-1.2343944h-.94c-2.0931592 0-3.79 1.6968408-3.79 3.79s1.6968408 3.79 3.79 3.79h.94c3.2857897.0013635 6.2796067 1.8870794 7.7 4.85z" fill="#ffdc00"/><path id="Shape" d="m39 47.15c.0022141 3.744352-2.4404683 7.0513056-6.02 8.15-.1050616 1.0102033-.7141146 1.8986528-1.6184681 2.3609227-.9043534.46227-1.9811894.4355807-2.8615319-.0709227.8317615-.4820992 1.3820901-1.3336211 1.48-2.29 4.4366445-1.3639572 6.9661437-6.0273045 5.69-10.49l-.5-1.34c-1.230639-2.5598444-3.6504979-4.3428983-6.46-4.76.074-.316-.1-.09.82-.09.9659878-.054261 1.9348676.0231148 2.88.23 3.858651.898928 6.5892099 4.3380234 6.59 8.3z" fill="#fec108"/><path id="Shape" d="m38.98 35.42c-.0539724.8890127-.600603 1.6731807-1.4160452 2.0313853-.8154423.3582046-1.7627332.2302812-2.4539548-.3313853.657477-.5689262.9907307-1.4263991.89-2.29-.002197-3.8637372-2.6047011-7.2420667-6.34-8.23-.2646089-.5022267-.667029-.9185234-1.16-1.2.7070365-.4097918 1.5506479-.5134143 2.3358412-.2869163.7851933.2264981 1.4440058.7635122 1.8241588 1.4869163 3.9489273 1.0443737 6.6005891 4.7449524 6.32 8.82z" fill="#fec108"/><path id="Shape" d="m36 43.987c5 0 6-7 6-7s1 7 6 7c-5 0-6 7-6 7s-1-7-6-7z" fill="#ffeb3a"/><path id="Shape" d="m12.714 32.987c4.286 0 5.143-6 5.143-6s.857 6 5.143 6c-4.286 0-5.143 6-5.143 6s-.857-6-5.143-6z" fill="#ffeb3a"/></g><path id="Shape" d="m59.865 2.489c-.1977121-.64985694-.6556359-1.18886759-1.265-1.489l-1.514-.746c-1.3666916-.60388362-2.9672996-.03953018-3.653 1.288-.567 1.024-1.189 2.031-1.852 2.994-.8262787 1.15171557-.6719119 2.73728977.361 3.708-.379.473-.765.93-1.153 1.368-1.1338043-.84904228-2.7210961-.72717315-3.712.285-.834.818-1.716 1.6-2.621 2.334-1.1168623.8638041-1.425824 2.4188543-.724 3.644-.2386667.1646667-.4793333.327-.722.487-.8791051-1.1098786-2.4422897-1.4010015-3.662-.682-1.03.575-2.1 1.106-3.188 1.579-1.3249664.5354126-2.0491271 1.968772-1.694 3.353-.5413333.1913333-1.0916667.3706667-1.651.538-1.5562736-1.5508333-4.0737264-1.5508333-5.63 0-.56-.1666667-1.11-.346-1.65-.538.3544684-1.3861064-.372516-2.8204038-1.7-3.354-1.084-.472-2.157-1-3.188-1.579-1.2202007-.7165938-2.7818498-.4248244-3.661.684-.242-.16-.4823333-.3223333-.721-.487.7025706-1.2260841.3926416-2.7825599-.726-3.646-.9-.73-1.786-1.515-2.621-2.333-.9907676-1.01160082-2.5773828-1.13345081-3.711-.285-.387-.437-.773-.894-1.153-1.367 1.03468357-.9708791 1.18833452-2.55874826.359-3.71-.661-.962-1.284-1.969-1.851-2.994-.68717452-1.32712574-2.28909334-1.88944089-3.655-1.283l-1.497.735c-.61518558.30083135-1.07720651.84438538-1.275 1.5-.24712496.82178715-.14589403 1.70900393.28 2.454.675 1.218 1.418 2.42 2.208 3.569.47389518.70957882 1.21820191 1.19361317 2.059 1.339.13758852.02187698.27668311.03291093.416.033.49049603.00091161.96968056-.14730776 1.374-.425.418.52133333.84033333 1.0213333 1.267 1.5-.4438289.455194-.69462353 1.0642667-.7 1.7-.00149934.8511611.34581012 1.6657663.961 2.254.994.975 2.046 1.912 3.128 2.785.5588785.4583742 1.2572394.7126764 1.98.721.126126.0003364.2521143-.0083524.377-.026.6342259-.0788903 1.2127864-.4017077 1.613-.9.273.189.547.374.825.556-.3121145.5562688-.3963533 1.2118974-.235 1.829.2262812.8293338.7824829 1.5297359 1.539 1.938 1.232.688 2.513 1.322 3.805 1.884.4212215.1849302.8759742.2812588 1.336.283.4011382.001651.7984563-.0779487 1.168-.234.5798199-.2404475 1.045179-.6943517 1.3-1.268.437.155.878.3 1.327.442-.1026758.3441889-.1575231.7008645-.163 1.06v3.013c-1.2019028.4779688-2.295789 1.1920381-3.217 2.1-.8441965.8475086-1.5204222 1.8470875-1.993 2.946-1.0217808-1.1945514-1.6941224-2.6478888-1.943-4.2-.0702214-.4928083-.4922138-.8589326-.99-.8589326s-.9197786.3661243-.99.8589326c-.007.051-.792 5.143-4.153 5.143-.5522847 0-1 .4477153-1 1s.4477153 1 1 1c3.361 0 4.146 5.092 4.153 5.143.0702214.4928083.4922138.8589326.99.8589326s.9197786-.3661243.99-.8589326c.1982761-1.1642553.6073067-2.2825661 1.207-3.3.5010646 4.6399827 4.2864142 8.2357686 8.946 8.498v5.616c-1.3105755-.2543814-2.2576821-1.4009672-2.26-2.736 0-.081 0-.2.008-.342.0581307-.89323-.2477638-1.7719552-.848-2.436-.9122007-1.0152539-2.3462164-1.3809299-3.6331961-.9264699-1.2869798.4544599-2.1733943 1.6395291-2.2458039 3.0024699-.011.217-.021.422-.021.639-.0120366 3.9607945 2.4386146 7.5119659 6.146 8.906.4803765 1.7320444 2.0570743 2.9309678 3.8545 2.9309678s3.3741235-1.1989234 3.8545-2.9309678c1.2585024-.4861806 2.4030635-1.2269791 3.362-2.176 1.5990597-1.5936413 2.5734001-3.7080238 2.746-5.959.4977663 1.016324.8502138 2.0975669 1.047 3.212.0715423.4916435.4931785.8562098.99.856.4970993-.0004308.9184121-.3659378.989-.858.009-.061.925-6.141 5.01-6.141.5522847 0 1-.4477153 1-1s-.4477153-1-1-1c-4.067 0-5-6.082-5.01-6.143-.0715423-.4916435-.4931785-.8562098-.99-.856-.4967704.000359-.9179619.3653349-.989.857-.006.046-.524 3.482-2.509 5.194-1.6563244-2.5758077-4.4438522-4.2049935-7.501-4.384v-5.6c1.3105755.2543814 2.2576821 1.4009672 2.26 2.736 0 .088 0 .2-.008.316-.0582069.893419.2481006 1.7722942.849 2.436.9123257 1.0145386 2.3458894 1.379739 3.632422.9253597 1.2865327-.4543794 2.1727675-1.6388894 2.245578-3.0013597.011-.217.021-.423.021-.639-.0007969-3.8973927-2.3782937-7.400238-6-8.84v-3c-.0055303-.3589119-.0593468-.7154463-.16-1.06.449-.14.89-.288 1.327-.443.2543549.5742042.7198253 1.0285749 1.3 1.269.3695437.1560513.7668618.235651 1.168.234.4600258-.0017412.9147785-.0980698 1.336-.283 1.292-.562 2.573-1.2 3.805-1.884.7565171-.4082641 1.3127188-1.1086662 1.539-1.938.1617622-.6169674.0778776-1.2726295-.234-1.829.278-.182.552-.368.825-.557.3999042.498149.9781002.8209632 1.612.9.1248857.0176476.250874.0263364.377.026.7227896-.0081642 1.4212017-.262485 1.98-.721 1.075-.871 2.125-1.802 3.125-2.784.6161167-.5889184.9638253-1.4046964.962-2.257-.0055832-.6356915-.2563474-1.2446901-.7-1.7.4273333-.4806667.8493333-.98066667 1.266-1.5.4048775.27731291.8842577.42548496 1.375.425.1383199-.00013068.2764143-.01116486.413-.033.8412671-.14554518 1.5861401-.62947773 2.061-1.339.793-1.154 1.536-2.356 2.208-3.572.4248157-.7449848.5260015-1.63144413.28-2.453zm-29.865 19.498c1.1045695 0 2 .8954305 2 2v1.554c-1.2310608-.7342913-2.7645556-.7388917-4-.012v-1.542c0-1.1045695.8954305-2 2-2zm-25.01-14.108c-.29713306-.063243-.55628683-.24346119-.719-.5-.753-1.1-1.462-2.242-2.106-3.408-.1557831-.26219732-.20042133-.57574487-.124-.871.03472369-.13115492.12237622-.24198829.242-.306l1.5-.735c.07962244-.0381926.16669389-.05833855.255-.059.3314711.02062045.62752577.21444315.779.51.6 1.08 1.254 2.143 1.952 3.157.26712841.33230339.24216487.81220604-.058 1.115l-1.342 1.018c-.11003736.07746255-.24717799.1060486-.379.079zm8.228 8.537c-.3023817.023153-.6016965-.0738638-.833-.27-1.031-.833-2.035-1.726-2.984-2.656-.22160534-.20422-.35201272-.4888107-.362-.79-.00392387-.1373114.0497359-.2700105.148-.366l.611-.567c.005 0 .011-.005.015-.009l.01-.013.588-.545c.1219618-.1070333.2797857-.1641641.442-.16.2516674.005811.4913569.1086374.669.287.881.862 1.811 1.691 2.764 2.46.3528424.2420363.4670216.7108176.265 1.088l-.992 1.361c-.0850289.1031785-.207839.168005-.341.18zm9.532 5.5c-.2994939.1091971-.6303227.0933404-.918-.044-1.232-.536-2.454-1.141-3.63-1.8-.2743012-.1413432-.4806383-.3865712-.573-.681-.0393869-.1308694-.0234874-.2721574.044-.391l.883-1.415c.1394711-.1983829.3707732-.3115813.613-.3.1779526.0008969.3527578.0470069.508.134 1.088.608 2.219 1.168 3.364 1.666.4146223.1377829.6622072.5622752.578.991l-.6 1.578c-.0502257.1198832-.1474777.2138814-.269.26zm-4.893 14.754c-.4710748-1.047543-1.185569-1.9674027-2.084-2.683.8989354-.7167282 1.6134675-1.6380084 2.084-2.687.4710748 1.047543 1.185569 1.9674027 2.084 2.683-.8989354.7167282-1.6134675 1.6380084-2.084 2.687zm13.143 8.744c1.315226.2903068 2.2537904 1.45313 2.26 2.8.0037306.7358063-.2868255 1.442574-.807 1.963-.3966242.3961274-.9026256.664625-1.453.771zm11-3.953c.5684743 1.4003666 1.5077859 2.6193628 2.717 3.526-1.2096441.9062014-2.1490567 2.1253287-2.717 3.526-.5679433-1.4006713-1.5073559-2.6197986-2.717-3.526 1.2092141-.9066372 2.1485257-2.1256334 2.717-3.526zm-13-2.9c-1.3180829-.2666606-2.2642824-1.4272204-2.26-2.772-.0037306-.7358063.2868255-1.442574.807-1.963.3962366-.3972244.9022768-.6667874 1.453-.774zm9-2.735c0 .182-.009.355-.018.528-.0533245.7499739-.6895131 1.3239123-1.441 1.3-.360335-.0139589-.7000543-.1717099-.9432217-.4379913-.2431673-.2662814-.3695069-.6188902-.3507783-.9790087.012-.157.013-.32.013-.452-.0082481-2.6412092-2.1487836-4.7795103-4.79-4.785h-.94c-2.6286224.0379083-4.7396548 2.1796043-4.7396548 4.8085s2.1110324 4.7705917 4.7396548 4.8085h.94c2.4919713.0104363 4.8199324 1.2439417 6.228 3.3-.2308138.043433-.4651358.0655263-.7.066-.5522847 0-1 .4477153-1 1s.4477153 1 1 1c.6272042-.0012425 1.243988.1603618 1.79.469.1372688.5546615.2084301 1.1236163.212 1.695.0069257 1.9919312-.7830679 3.903903-2.194 5.31-.8769679.8680982-1.9482438 1.5146347-3.125 1.886-.3839066.1184988-.6596143.4552561-.7.855-.1234697 1.0024462-.9749786 1.7555107-1.985 1.7555107s-1.8615303-.7530645-1.985-1.7555107c-.0400046-.4001216-.3157836-.7373599-.7-.856-3.1629639-.9651741-5.3205011-3.8880662-5.311-7.195 0-.182.009-.355.018-.529.0644908-.744473.6938392-1.3122404 1.441-1.3.365589.0198088.708517.1833646.954.455.2389765.2646792.3621274.6139667.342.97-.013.126-.015.331-.015.47.0071497 2.6419904 2.1480056 4.7815055 4.79 4.787h.94c2.645444 0 4.79-2.144556 4.79-4.79.0144146-2.6616274-2.1284115-4.8326368-4.79-4.853h-.94c-4.1566483-.0049592-7.5250408-3.3733517-7.53-7.53 0-.221.034-.453.054-.681.3048272-.1031459.624202-.1568252.946-.159.5522847 0 1-.4477153 1-1s-.4477153-1-1-1c-.1441028-.0038084-.2877741-.0175073-.43-.041.9021712-2.1686578 2.7639264-3.7926555 5.035-4.392.2703883-.0718166.498659-.2529838.63-.5.2952891-.5616748.8402879-.9492651 1.4677667-1.043841.6274788-.094576 1.2625083.115156 1.7102333.564841.1471073.1519761.2729208.3232037.374.509.1322714.2378957.3558029.411593.619.481 3.2968868.8702722 5.5938879 3.8521853 5.594 7.262zm4.372-16.435c-.0923617.2944288-.2986988.5396568-.573.681-1.176.656-2.4 1.261-3.63 1.8-.2876773.1373404-.6185061.1531971-.918.044-.1240493-.0453929-.2236577-.1402925-.275-.262l-.59-1.561c-.0907415-.4304908.1557156-.860608.573-1 1.146-.5 2.277-1.058 3.364-1.665.1560528-.0877936.3319479-.1342629.511-.135.2385667-.013264.4674207.0960731.607.29l.892 1.43c.0631547.1160362.0772006.2525341.039.379zm8.227-5.9c-.952.932-1.955 1.826-2.984 2.656-.2310336.1966201-.5305531.2937032-.833.27-.1358354-.0129652-.2604709-.0808825-.345-.188l-.983-1.347c-.2073724-.3770749-.0954262-.8499286.259-1.094.954-.77 1.885-1.6 2.764-2.461.179065-.1788042.4200214-.2819178.673-.288.1586149-.0041546.3130545.0511298.433.155l.594.55.01.014s.011.006.015.01l.618.572c.0948715.0949271.1462656.2248599.142.359-.0102095.3011369-.1405795.5856459-.362.79zm7.236-9.513c-.642 1.16-1.35 2.306-2.106 3.407-.1631111.25659822-.4225901.43679201-.72.5-.134292.02714601-.2738212-.00293429-.385-.083l-1.324-1.015c-.3055381-.30135891-.3340291-.78484159-.066-1.12.7-1.014 1.355-2.077 1.953-3.156.1505194-.29520183.4453471-.48934737.776-.511.0859904-.00081296.1710716.01763839.249.054l1.514.743c.1149993.06466133.1992836.17271801.234.3.0772222.29794542.032221.61439407-.125.879z" fill="#000"/></g></svg>