<svg height="512pt" viewBox="-100 0 512 512" width="512pt" xmlns="http://www.w3.org/2000/svg"><path d="m144.003906 8c8.878906 0 16 7.199219 16 16s-7.121094 16-16 16c-8.800781 0-16-7.199219-16-16s7.199219-16 16-16zm0 0" fill="#965353"/><path d="m304.003906 208v16h-32v-24c0-57.519531-46.480468-104-104-104v-16.71875c2.558594.480469 5.277344.71875 8 .71875 70.804688 0 128 57.28125 128 128zm0 0" fill="#773e3e"/><path d="m272.003906 224h32v32h-32zm0 0" fill="#ed5565"/><path d="m272.003906 256h32v32h-32zm0 0" fill="#ed5565"/><path d="m176.003906 432c-2.722656 0-5.441406.238281-8 .71875v-16.71875c57.519532 0 104-46.480469 104-104v-24h32v16c0 70.71875-57.195312 128-128 128zm0 0" fill="#773e3e"/><path d="m144.003906 472c8.878906 0 16 7.199219 16 16s-7.121094 16-16 16c-8.800781 0-16-7.199219-16-16s7.199219-16 16-16zm0 0" fill="#965353"/><path d="m32.003906 72v56l-24-24v-56zm0 0" fill="#e6e9ed"/><path d="m32.003906 128v-56l24-24v56zm0 0" fill="#e6e9ed"/><path d="m176.003906 88c-30.875 0-56-25.128906-56-56 0-4.425781 3.574219-8 8-8 4.421875 0 8 3.574219 8 8 0 22.054688 17.941406 40 40 40 4.421875 0 8 3.574219 8 8s-3.578125 8-8 8zm0 0"/><path d="m304.003906 216c-4.425781 0-8-3.574219-8-8 0-66.167969-53.832031-120-120-120-4.425781 0-8-3.574219-8-8s3.574219-8 8-8c74.988282 0 136 61.007812 136 136 0 4.425781-3.578125 8-8 8zm0 0"/><path d="m272.003906 208c-4.425781 0-8-3.574219-8-8 0-52.9375-43.066406-96-96-96-4.425781 0-8-3.574219-8-8s3.574219-8 8-8c61.757813 0 112 50.238281 112 112 0 4.425781-3.578125 8-8 8zm0 0"/><path d="m144.003906 48c-13.234375 0-24-10.769531-24-24s10.765625-24 24-24c13.230469 0 24 10.769531 24 24s-10.769531 24-24 24zm0-32c-4.417968 0-8 3.585938-8 8s3.582032 8 8 8c4.414063 0 8-3.585938 8-8s-3.585937-8-8-8zm0 0"/><path d="m128.003906 40c-4.425781 0-8-3.574219-8-8v-8c0-4.425781 3.574219-8 8-8 4.421875 0 8 3.574219 8 8v8c0 4.425781-3.578125 8-8 8zm0 0"/><path d="m128.003906 488c-4.425781 0-8-3.574219-8-8 0-30.871094 25.125-56 56-56 4.421875 0 8 3.574219 8 8s-3.578125 8-8 8c-22.058594 0-40 17.945312-40 40 0 4.425781-3.578125 8-8 8zm0 0"/><path d="m176.003906 440c-4.425781 0-8-3.574219-8-8s3.574219-8 8-8c66.167969 0 120-53.832031 120-120 0-4.425781 3.574219-8 8-8 4.421875 0 8 3.574219 8 8 0 74.992188-61.011718 136-136 136zm0 0"/><path d="m168.003906 424c-4.425781 0-8-3.574219-8-8s3.574219-8 8-8c52.933594 0 96-43.0625 96-96 0-4.425781 3.574219-8 8-8 4.421875 0 8 3.574219 8 8 0 61.761719-50.242187 112-112 112zm0 0"/><path d="m144.003906 512c-13.234375 0-24-10.769531-24-24s10.765625-24 24-24c13.230469 0 24 10.769531 24 24s-10.769531 24-24 24zm0-32c-4.417968 0-8 3.585938-8 8s3.582032 8 8 8c4.414063 0 8-3.585938 8-8s-3.585937-8-8-8zm0 0"/><path d="m128.003906 496c-4.425781 0-8-3.574219-8-8v-8c0-4.425781 3.574219-8 8-8 4.421875 0 8 3.574219 8 8v8c0 4.425781-3.578125 8-8 8zm0 0"/><path d="m304.003906 312c-4.425781 0-8-3.574219-8-8v-96c0-4.425781 3.574219-8 8-8 4.421875 0 8 3.574219 8 8v96c0 4.425781-3.578125 8-8 8zm0 0"/><path d="m272.003906 320c-4.425781 0-8-3.574219-8-8v-112c0-4.425781 3.574219-8 8-8 4.421875 0 8 3.574219 8 8v112c0 4.425781-3.578125 8-8 8zm0 0"/><path d="m168.003906 104c-4.425781 0-8-3.574219-8-8v-16.664062c0-4.425782 3.574219-8 8-8 4.421875 0 8 3.574218 8 8v16.664062c0 4.425781-3.578125 8-8 8zm0 0"/><path d="m168.003906 440.671875c-4.425781 0-8-3.574219-8-8v-16.671875c0-4.425781 3.574219-8 8-8 4.421875 0 8 3.574219 8 8v16.671875c0 4.425781-3.578125 8-8 8zm0 0"/><path d="m304.003906 232h-32c-4.425781 0-8-3.574219-8-8s3.574219-8 8-8h32c4.421875 0 8 3.574219 8 8s-3.578125 8-8 8zm0 0"/><path d="m304.003906 264h-32c-4.425781 0-8-3.574219-8-8s3.574219-8 8-8h32c4.421875 0 8 3.574219 8 8s-3.578125 8-8 8zm0 0"/><path d="m304.003906 296h-32c-4.425781 0-8-3.574219-8-8s3.574219-8 8-8h32c4.421875 0 8 3.574219 8 8s-3.578125 8-8 8zm0 0"/><path d="m128.003906 488c-4.425781 0-8-3.574219-8-8v-448c0-4.425781 3.574219-8 8-8 4.421875 0 8 3.574219 8 8v448c0 4.425781-3.578125 8-8 8zm0 0"/><path d="m32.003906 472c-4.425781 0-8-3.574219-8-8v-416c0-4.425781 3.574219-8 8-8 4.421875 0 8 3.574219 8 8v416c0 4.425781-3.578125 8-8 8zm0 0"/><path d="m32.003906 80c-2.050781 0-4.097656-.785156-5.65625-2.34375-3.128906-3.128906-3.128906-8.183594 0-11.3125l24-24c3.125-3.128906 8.183594-3.128906 11.308594 0 3.128906 3.128906 3.128906 8.183594 0 11.3125l-24 24c-1.558594 1.558594-3.605469 2.34375-5.652344 2.34375zm0 0"/><path d="m32.003906 80c-2.050781 0-4.097656-.785156-5.65625-2.34375l-24-24c-3.128906-3.128906-3.128906-8.183594 0-11.3125 3.125-3.128906 8.183594-3.128906 11.308594 0l24 24c3.128906 3.128906 3.128906 8.183594 0 11.3125-1.558594 1.558594-3.605469 2.34375-5.652344 2.34375zm0 0"/><path d="m32.003906 136c-2.050781 0-4.097656-.785156-5.65625-2.34375-3.128906-3.128906-3.128906-8.183594 0-11.3125l24-24c3.125-3.128906 8.183594-3.128906 11.308594 0 3.128906 3.128906 3.128906 8.183594 0 11.3125l-24 24c-1.558594 1.558594-3.605469 2.34375-5.652344 2.34375zm0 0"/><path d="m32.003906 136c-2.050781 0-4.097656-.785156-5.65625-2.34375l-24-24c-3.128906-3.128906-3.128906-8.183594 0-11.3125 3.125-3.128906 8.183594-3.128906 11.308594 0l24 24c3.128906 3.128906 3.128906 8.183594 0 11.3125-1.558594 1.558594-3.605469 2.34375-5.652344 2.34375zm0 0"/><path d="m8.003906 112c-4.425781 0-7.99999975-3.574219-7.99999975-8v-56c0-4.425781 3.57421875-8 7.99999975-8 4.421875 0 8 3.574219 8 8v56c0 4.425781-3.578125 8-8 8zm0 0"/><path d="m56.003906 112c-4.425781 0-8-3.574219-8-8v-56c0-4.425781 3.574219-8 8-8 4.421875 0 8 3.574219 8 8v56c0 4.425781-3.578125 8-8 8zm0 0"/><path d="m32.011719 472c-2.585938 0-5.128907-1.246094-6.664063-3.558594l-16-24c-2.457031-3.679687-1.464844-8.640625 2.214844-11.097656 3.679688-2.449219 8.648438-1.457031 11.09375 2.214844l16 24c2.457031 3.679687 1.464844 8.640625-2.214844 11.097656-1.367187.902344-2.910156 1.34375-4.429687 1.34375zm0 0"/><path d="m31.992188 472c-1.519532 0-3.0625-.441406-4.429688-1.34375-3.679688-2.457031-4.671875-7.417969-2.214844-11.097656l16-24c2.4375-3.671875 7.398438-4.664063 11.09375-2.214844 3.679688 2.457031 4.671875 7.417969 2.214844 11.097656l-16 24c-1.535156 2.3125-4.078125 3.558594-6.664062 3.558594zm0 0"/></svg>