<svg height="511pt" viewBox="1 -14 511.99975 511" width="511pt" xmlns="http://www.w3.org/2000/svg"><path d="m84.601562 288.40625-74.601562 74.605469 110.945312 110.945312 87.109376-87.105469c29.03125-1.257812 57.6875-12.910156 79.730468-34.949218l150.597656-150.601563c11.058594-11.054687 11.066407-29.171875 0-40.234375-11.019531-11.023437-29.027343-11.066406-40.105468-.132812l24.121094-24.121094c11.054687-11.050781 11.066406-29.167969 0-40.234375-11.0625-11.066406-29.167969-11.066406-40.234376 0l19.246094-19.246094c11.054688-11.054687 11.066406-29.171875 0-40.238281-11.066406-11.0625-29.171875-11.0625-40.238281.003906l-21.847656 21.847656c10.953125-11.070312 10.921875-29.101562-.105469-40.128906-11.066406-11.066406-29.171875-11.066406-40.238281 0l-107.046875 107.046875c-9.058594-1.839843-18.859375.734375-25.847656 7.722657l-48.308594 48.304687c-28.894532 28.898437-39.988282 68.976563-33.175782 106.515625zm0 0" fill="#ffd4bd" fill-rule="evenodd"/><path d="m124.847656 188.964844 48.308594-48.304688c4.46875-4.472656 10.679688-6.160156 16.46875-5.074218.167969.039062.332031.078124.5.109374 3.34375.726563 6.527344 2.367188 9.121094 4.964844l49.300781 49.300782c7.195313 7.191406 7.195313 18.898437 0 26.089843-7.191406 7.195313-18.898437 7.195313-26.09375.003907l-29.183594-29.183594c-3.902343-3.90625-10.234375-3.90625-14.140625 0-3.90625 3.902344-3.90625 10.234375 0 14.140625l8.320313 8.320312c22.351562 22.363281 30.328125 54.984375 20.808593 85.140625-1.660156 5.265625 1.261719 10.882813 6.527344 12.546875 1.003906.316407 2.015625.464844 3.011719.464844 4.25 0 8.1875-2.726563 9.535156-6.992187 6.261719-19.832032 6.398438-40.53125 1-59.726563 12.074219 2.273437 25.035157-1.246094 34.359375-10.570313 14.988282-14.992187 14.988282-39.386718 0-54.378906l-49.300781-49.300781c-1.355469-1.351563-2.785156-2.578125-4.28125-3.6875l30.371094-30.371094c3.90625-3.90625 3.90625-10.238281 0-14.144531-3.902344-3.902344-10.234375-3.902344-14.140625 0l-37.023438 37.023438c-10.539062-.578126-21.269531 3.144531-29.304687 11.179687l-48.308594 48.304687c-29.089844 29.09375-42.402344 69.96875-36.777344 110.121094l-70.996093 70.996094c-3.90625 3.90625-3.90625 10.238281 0 14.144531 1.953124 1.949219 4.511718 2.929688 7.070312 2.929688s5.117188-.980469 7.070312-2.929688l62.886719-62.886719c1.878907 2.148438 4.621094 3.421876 7.519531 3.421876.925782 0 1.867188-.128907 2.800782-.402344 5.300781-1.542969 8.347656-7.09375 6.804687-12.394532-11.289062-38.730468-.648437-80.441406 27.765625-108.855468zm0 0"/><path d="m294.855469 358.972656 150.597656-150.601562c7.238281-7.238282 11.226563-16.890625 11.226563-27.183594.003906-10.296875-3.984376-19.953125-11.222657-27.195312-4.726562-4.726563-10.386719-7.957032-16.390625-9.703126l.402344-.402343c7.238281-7.238281 11.222656-16.890625 11.226562-27.183594 0-10.300781-3.984374-19.957031-11.226562-27.199219-4.871094-4.871094-10.742188-8.148437-16.957031-9.855468 4.664062-6.480469 7.191406-14.25 7.191406-22.429688.003906-10.296875-3.984375-19.957031-11.222656-27.195312-14.367188-14.367188-37.371094-14.957032-52.457031-1.78125-1.738282-6.046876-4.980469-11.746094-9.734376-16.5-14.992187-14.988282-39.386718-14.988282-54.378906.003906l-10 10c-3.90625 3.902344-3.90625 10.234375 0 14.140625s10.238282 3.90625 14.140625 0l10-10c7.195313-7.195313 18.902344-7.195313 26.09375 0 7.191407 7.1875 7.195313 18.882812.015625 26.082031l-78.070312 78.066406c-3.90625 3.90625-3.90625 10.238282 0 14.144532 3.90625 3.902343 10.238281 3.902343 14.140625 0l78.042969-78.042969c.003906-.003907.011718-.007813.015624-.011719.007813-.011719.015626-.023438.027344-.03125l21.925782-21.925781c7.195312-7.195313 18.902343-7.195313 26.097656 0 3.460937 3.460937 5.367187 8.09375 5.363281 13.046875 0 4.953125-1.90625 9.585937-5.363281 13.046875l-19.238282 19.238281c-.003906 0-.007812.003906-.011718.007812 0 0-.003906.003907-.003906.003907l-80.761719 80.761719c-3.902344 3.902343-3.902344 10.234374 0 14.140624 1.953125 1.953126 4.511719 2.929688 7.070312 2.929688 2.5625 0 5.121094-.976562 7.074219-2.929688l80.769531-80.769531c7.191407-7.1875 18.894531-7.1875 26.089844.007813 3.460937 3.460937 5.367187 8.09375 5.363281 13.046875 0 4.953125-1.90625 9.585937-5.363281 13.046875l-24.234375 24.230468c-.003906.007813-.011719.011719-.019531.019532 0 .003906-.003907.007812-.007813.007812l-56.503906 56.507813c-3.90625 3.902343-3.90625 10.234375 0 14.140625 1.949219 1.953125 4.511719 2.929687 7.070312 2.929687 2.558594 0 5.117188-.976562 7.070313-2.929687l56.523437-56.523438c7.195313-7.183594 18.894532-7.183594 26.085938.007813 3.460938 3.460937 5.367188 8.097656 5.367188 13.050781s-1.90625 9.585938-5.367188 13.046875l-150.597656 150.59375c-32.574219 32.574219-82.648438 41.363281-124.613282 21.875-3.808593-1.773437-8.3125-.972656-11.28125 1.996094l-36.28125 36.277343c-3.902343 3.90625-3.902343 10.238282 0 14.144532 1.953126 1.953125 4.515626 2.929687 7.074219 2.929687 2.558594 0 5.117188-.976562 7.070313-2.929687l31.476562-31.480469c10.035156 4.015625 20.402344 6.691406 30.855469 8.105469l-71.140625 71.140625c-3.902344 3.90625-3.902344 10.238281 0 14.144531 1.953125 1.949219 4.511719 2.929688 7.070312 2.929688 2.5625 0 5.121094-.980469 7.074219-2.929688l84.464844-84.46875c30.480469-2.289062 59.9375-15.160156 82.371094-37.589844zm0 0"/><path d="m79.960938 433.574219-.007813.003906c-3.730469 4.070313-3.453125 10.394531.617187 14.125 1.921876 1.761719 4.339844 2.628906 6.753907 2.628906 2.707031 0 5.40625-1.09375 7.378906-3.246093 3.730469-4.070313 3.457031-10.394532-.613281-14.128907-4.070313-3.730469-10.398438-3.453125-14.128906.617188zm0 0"/><path d="m502 180.972656c-5.523438 0-10 4.476563-10 10v46.621094c0 5.523438 4.476562 10 10 10s10-4.476562 10-10v-46.621094c0-5.523437-4.476562-10-10-10zm0 0"/><path d="m308.84375 420.753906h-46.625c-5.523438 0-10 4.480469-10 10 0 5.523438 4.476562 10 10 10h46.625c5.523438 0 10-4.476562 10-10 0-5.519531-4.476562-10-10-10zm0 0"/><path d="m376.496094 382.671875-30.921875-8.285156c-5.335938-1.429688-10.820313 1.734375-12.25 7.070312-1.429688 5.335938 1.738281 10.816407 7.070312 12.246094l30.925781 8.289063c.863282.230468 1.734376.339843 2.59375.339843 4.414063 0 8.457032-2.945312 9.652344-7.414062 1.429688-5.332031-1.734375-10.816407-7.070312-12.246094zm0 0"/><path d="m464.949219 269.152344c-1.429688-5.335938-6.914063-8.503906-12.246094-7.074219-5.335937 1.429687-8.5 6.914063-7.070313 12.25l8.285157 30.921875c1.199219 4.46875 5.238281 7.414062 9.652343 7.414062.855469 0 1.730469-.109374 2.59375-.34375 5.335938-1.429687 8.5-6.914062 7.074219-12.246093zm0 0"/><path d="m414.496094 329.105469c-3.90625-3.902344-10.238282-3.902344-14.144532 0-3.902343 3.90625-3.902343 10.238281 0 14.144531l11.320313 11.316406c1.953125 1.953125 4.511719 2.929688 7.070313 2.929688 2.558593 0 5.117187-.976563 7.070312-2.929688 3.90625-3.902344 3.90625-10.234375 0-14.140625zm0 0"/><path d="m260.695312 67.101562c2.558594 0 5.117188-.976562 7.070313-2.929687l.003906-.003906c3.90625-3.90625 3.902344-10.234375 0-14.140625-3.90625-3.902344-10.238281-3.902344-14.144531.003906-3.90625 3.902344-3.90625 10.234375 0 14.140625 1.953125 1.953125 4.511719 2.929687 7.070312 2.929687zm0 0"/></svg>