<svg height="512pt" viewBox="0 0 512 512.01229" width="512pt" xmlns="http://www.w3.org/2000/svg"><path d="m133.839844 344.21875 324.886718-324.863281 45.273438-11.359375-11.273438 45.28125-324.960937 324.878906zm0 0" fill="#e6e9ed"/><path d="m180.085938 390.476562c8.863281-4.320312 19.914062-2.726562 27.273437 4.632813 9.367187 9.445313 9.367187 24.648437.007813 34.007813-9.367188 9.359374-24.5625 9.359374-33.921876-.007813l-34-33.921875-22.558593-22.640625-34-34c-9.359375-9.351563-9.359375-24.550781 0-33.902344 9.351562-9.359375 24.550781-9.359375 34.007812 0 7.351563 7.351563 8.953125 18.398438 4.632813 27.265625l12.320312 12.316406 33.917969 33.929688zm0 0" fill="#ffce54"/><path d="m55.917969 478.714844c.398437 6.5625-1.917969 13.183594-6.960938 18.242187-9.359375 9.429688-24.550781 9.4375-33.910156-.007812-9.367187-9.359375-9.367187-24.5625 0-33.921875 5.039063-5.03125 11.757813-7.351563 18.320313-6.960938 5.679687.25 11.183593 2.570313 15.589843 6.96875 4.410157 4.402344 6.722657 10 6.960938 15.679688zm0 0" fill="#ffce54"/><path d="m116.878906 372.539062-35.441406 35.457032-32.007812 32-16.0625 16.070312c5.679687.25 11.183593 2.570313 15.589843 6.96875 4.410157 4.402344 6.722657 10 6.960938 15.679688l70.71875-70.71875 12.808593-12.816406zm0 0" fill="#ed5565"/><path d="m190.636719 420.125c-4.421875 0-8.039063-3.578125-8.039063-8 0-4.425781 3.535156-8 7.953125-8h.085938c4.417969 0 8 3.574219 8 8 0 4.421875-3.582031 8-8 8zm0 0"/><path d="m492.703125 61.261719c-.640625 0-1.296875-.082031-1.945313-.242188-4.289062-1.070312-6.894531-5.414062-5.824218-9.695312l11.3125-45.246094c1.070312-4.296875 5.40625-6.929687 9.695312-5.824219 4.289063 1.070313 6.898438 5.414063 5.824219 9.695313l-11.3125 45.246093c-.910156 3.648438-4.167969 6.066407-7.75 6.066407zm0 0"/><path d="m458.75 27.324219c-3.582031 0-6.839844-2.425781-7.75-6.0625-1.082031-4.28125 1.527344-8.625 5.820312-9.699219l45.25-11.308594c4.28125-1.105468 8.625 1.519532 9.695313 5.824219 1.082031 4.277344-1.527344 8.621094-5.824219 9.695313l-45.246094 11.3125c-.648437.160156-1.304687.238281-1.945312.238281zm0 0"/><path d="m167.773438 386.179688c-2.046876 0-4.09375-.785157-5.65625-2.34375-3.128907-3.128907-3.128907-8.183594 0-11.3125l324.921874-324.917969c3.128907-3.128907 8.183594-3.128907 11.3125 0 3.125 3.125 3.125 8.183593 0 11.3125l-324.921874 324.925781c-1.566407 1.558594-3.609376 2.335938-5.65625 2.335938zm0 0"/><path d="m133.839844 352.246094c-2.050782 0-4.097656-.785156-5.65625-2.347656-3.128906-3.125-3.128906-8.183594 0-11.308594l324.917968-324.921875c3.128907-3.128907 8.183594-3.128907 11.3125 0 3.128907 3.128906 3.128907 8.183593 0 11.3125l-324.917968 324.917969c-1.570313 1.570312-3.617188 2.347656-5.65625 2.347656zm0 0"/><path d="m180.054688 398.46875c-2.046876 0-4.097657-.785156-5.65625-2.34375l-58.527344-58.527344c-3.128906-3.128906-3.128906-8.183594 0-11.3125s8.183594-3.128906 11.3125 0l58.527344 58.527344c3.128906 3.128906 3.128906 8.183594 0 11.3125-1.5625 1.558594-3.609376 2.34375-5.65625 2.34375zm0 0"/><path d="m173.414062 437.09375c-2.046874 0-4.097656-.785156-5.65625-2.34375l-90.503906-90.503906c-3.128906-3.128906-3.128906-8.1875 0-11.3125 3.128906-3.128906 8.183594-3.128906 11.3125 0l90.503906 90.503906c3.128907 3.125 3.128907 8.183594 0 11.3125-1.558593 1.558594-3.609374 2.34375-5.65625 2.34375zm0 0"/><path d="m190.40625 444.125c-8.550781 0-16.59375-3.328125-22.640625-9.367188-3.136719-3.128906-3.136719-8.183593-.015625-11.3125 3.128906-3.144531 8.199219-3.128906 11.3125-.015624 6.0625 6.054687 16.609375 6.054687 22.640625.015624 6.238281-6.242187 6.230469-16.394531 0-22.640624-6.242187-6.222657-16.394531-6.214844-22.617187.007812-3.128907 3.128906-8.183594 3.128906-11.3125 0-3.128907-3.128906-3.128907-8.183594 0-11.3125 12.472656-12.472656 32.777343-12.464844 45.242187-.007812 12.480469 12.496093 12.480469 32.800781.007813 45.257812-6.035157 6.046875-14.074219 9.375-22.617188 9.375zm0 0"/><path d="m100.125 329.621094c-4.421875 0-8.039062-3.578125-8.039062-8 0-4.425782 3.535156-8 7.953124-8h.085938c4.417969 0 8 3.574218 8 8 0 4.421875-3.589844 8-8 8zm0 0"/><path d="m116.863281 346.589844c-2.050781 0-4.097656-.785156-5.648437-2.335938-3.136719-3.128906-3.136719-8.1875-.015625-11.3125 6.230469-6.25 6.230469-16.410156 0-22.65625-6.242188-6.21875-16.402344-6.21875-22.625.015625-6.238281 6.238281-6.230469 16.390625 0 22.640625 3.121093 3.125 3.121093 8.183594-.015625 11.3125-3.113282 3.109375-8.183594 3.125-11.3125-.019531-12.464844-12.476563-12.464844-32.78125.007812-45.238281 12.457032-12.488282 32.761719-12.480469 45.257813-.023438 12.46875 12.496094 12.46875 32.792969.015625 45.261719-1.5625 1.578125-3.617188 2.355469-5.664063 2.355469zm0 0"/><path d="m33.335938 464.058594c-2.050782 0-4.097657-.78125-5.65625-2.34375-3.128907-3.125-3.128907-8.183594 0-11.3125l83.511718-83.511719c3.125-3.125 8.183594-3.125 11.3125 0 3.125 3.128906 3.125 8.1875 0 11.3125l-83.515625 83.511719c-1.558593 1.5625-3.605469 2.34375-5.652343 2.34375zm0 0"/><path d="m55.941406 486.699219c-2.046875 0-4.09375-.78125-5.65625-2.34375-3.128906-3.128907-3.128906-8.183594 0-11.3125l83.527344-83.527344c3.128906-3.128906 8.1875-3.128906 11.3125 0 3.128906 3.128906 3.128906 8.183594 0 11.3125l-83.527344 83.527344c-1.558594 1.5625-3.609375 2.34375-5.65625 2.34375zm0 0"/><path d="m32 512.011719c-8.546875 0-16.585938-3.328125-22.625-9.382813-6.039062-6.023437-9.3671875-14.066406-9.3671875-22.609375 0-8.550781 3.3281255-16.582031 9.3749995-22.632812 12.078126-12.078125 33.167969-12.070313 45.238282-.007813 12.480468 12.496094 12.480468 32.800782.007812 45.257813-6.046875 6.046875-14.078125 9.375-22.628906 9.375zm0-47.984375c-4.273438 0-8.289062 1.65625-11.304688 4.671875-3.023437 3.023437-4.6875 7.050781-4.6875 11.320312 0 4.273438 1.664063 8.28125 4.679688 11.296875 6.0625 6.0625 16.582031 6.054688 22.628906.007813 6.234375-6.230469 6.226563-16.382813-.007812-22.632813-3.015625-3.007812-7.03125-4.664062-11.308594-4.664062zm0 0"/><path d="m203.070312 316.933594c-2.046874 0-4.097656-.785156-5.65625-2.34375-3.128906-3.128906-3.128906-8.1875 0-11.3125l227.425782-227.410156c3.125-3.125 8.183594-3.125 11.308594 0 3.128906 3.128906 3.128906 8.183593 0 11.3125l-227.421876 227.410156c-1.558593 1.566406-3.609374 2.34375-5.65625 2.34375zm0 0"/><path d="m94.628906 448.011719h-45.246094c-4.425781 0-8-3.574219-8-8 0-4.421875 3.574219-8 8-8h45.246094c4.425782 0 8 3.578125 8 8 0 4.425781-3.574218 8-8 8zm0 0"/><path d="m126.628906 416.011719h-45.246094c-4.425781 0-8-3.574219-8-8 0-4.421875 3.574219-8 8-8h45.246094c4.425782 0 8 3.578125 8 8 0 4.425781-3.574218 8-8 8zm0 0"/><path d="m464.007812 232.011719c-4.425781 0-8-3.574219-8-8v-32c0-4.421875 3.574219-8 8-8 4.421876 0 8 3.578125 8 8v32c0 4.425781-3.578124 8-8 8zm0 0"/><path d="m472.007812 216.011719h-16c-4.425781 0-8-3.574219-8-8 0-4.421875 3.574219-8 8-8h16c4.421876 0 8 3.578125 8 8 0 4.425781-3.578124 8-8 8zm0 0"/><path d="m280.007812 488.011719c-4.425781 0-8-3.574219-8-8v-48c0-4.421875 3.574219-8 8-8 4.421876 0 8 3.578125 8 8v48c0 4.425781-3.578124 8-8 8zm0 0"/><path d="m288.007812 464.011719h-16c-4.425781 0-8-3.574219-8-8 0-4.421875 3.574219-8 8-8h16c4.421876 0 8 3.578125 8 8 0 4.425781-3.578124 8-8 8zm0 0"/><path d="m360.246094 336.011719c-4.425782 0-8.039063-3.574219-8.039063-8 0-4.421875 3.535157-8 7.949219-8h.089844c4.417968 0 8 3.578125 8 8 0 4.425781-3.582032 8-8 8zm0 0"/><path d="m440.246094 424.011719c-4.425782 0-8.039063-3.574219-8.039063-8 0-4.421875 3.535157-8 7.949219-8h.089844c4.417968 0 8 3.578125 8 8 0 4.425781-3.582032 8-8 8zm0 0"/><path d="m40.007812 256.011719c-4.425781 0-8-3.574219-8-8v-32c0-4.421875 3.574219-8 8-8 4.421876 0 8 3.578125 8 8v32c0 4.425781-3.578124 8-8 8zm0 0"/><path d="m48.007812 240.011719h-16c-4.425781 0-8-3.574219-8-8 0-4.421875 3.574219-8 8-8h16c4.421876 0 8 3.578125 8 8 0 4.425781-3.578124 8-8 8zm0 0"/><path d="m296.007812 72.011719c-4.425781 0-8-3.574219-8-8v-48c0-4.421875 3.574219-8 8-8 4.421876 0 8 3.578125 8 8v48c0 4.425781-3.578124 8-8 8zm0 0"/><path d="m304.007812 48.011719h-16c-4.425781 0-8-3.574219-8-8 0-4.421875 3.574219-8 8-8h16c4.421876 0 8 3.578125 8 8 0 4.425781-3.578124 8-8 8zm0 0"/><path d="m152.246094 72.011719c-4.425782 0-8.039063-3.574219-8.039063-8 0-4.421875 3.535157-8 7.949219-8h.089844c4.417968 0 8 3.578125 8 8 0 4.425781-3.582032 8-8 8zm0 0"/><path d="m184.246094 200.011719c-4.425782 0-8.039063-3.574219-8.039063-8 0-4.421875 3.535157-8 7.949219-8h.089844c4.417968 0 8 3.578125 8 8 0 4.425781-3.582032 8-8 8zm0 0"/></svg>