<svg id="Layer_1_1_" enable-background="new 0 0 64 64" height="512" viewBox="0 0 64 64" width="512" xmlns="http://www.w3.org/2000/svg"><path d="m58.003 10.997-.003.003-4.06-4.394c-1.879-1.458-4.06-2.571-6.467-3.213l-1.473-.393v22l15-4c0-3.655-1.092-7.106-2.997-10.003z" fill="#707070"/><path d="m10.06 6.606-4.064 4.391c-1.904 2.897-2.996 6.348-2.996 10.003l15 4v-22l-1.473.393c-2.407.642-4.587 1.754-6.467 3.213z" fill="#707070"/><g fill="#bebebe"><path d="m50 19 8-8 .003-.003 1.582-1.582c.781-.781.781-2.047 0-2.828l-1.734-1.734c-.932-.932-2.496-.723-3.151.422l-6.7 11.725c1.105 0 2 .895 2 2z"/><path d="m49.914 23.956-3.914 1.044v-6-6-4l-2-1-5 4h-7-7l-5-4-2 1v4 6 6l-4.022-1.073.022 9.818c0 1.602 1.569 2.732 3.088 2.226l.174-.058 14.738-4.913 14.912 4.971c1.519.506 3.088-.625 3.088-2.226z"/><path d="m16 17-6.701-11.727c-.654-1.145-2.218-1.354-3.151-.421l-1.734 1.734c-.781.781-.781 2.047 0 2.828l1.582 1.582 8.004 8.004c0-1.105.895-2 2-2z"/><path d="m25 60h14l-3-3 3-3h-14l3 3z"/></g><path d="m41 57h-5l3 3 1 1h7v-8h-1-6l-1 1-3 3z" fill="#ab7b20"/><path d="m32 12h7l5-4-3-2-3-3-2 3h-8l-2-3-3 3-3 2 5 4z" fill="#707070"/><path d="m17 61h7l1-1 3-3h-5 5l-3-3-1-1h-6-1z" fill="#ab7b20"/><circle cx="16" cy="19" fill="#ab7b20" r="2"/><circle cx="48" cy="19" fill="#ab7b20" r="2"/><path d="m17.263 35.912c.169 4.212 1.857 10.294 1.996 13.086.104 2.102-1.259 4.002-1.259 4.002h28s-1.38-2.083-1.292-4.002c.129-2.805 1.813-8.714 1.989-13.099l-14.697-4.899z" fill="#cfcfcf"/><path d="m32 31-14.737 4.912c.055 1.379.275 2.959.548 4.558l14.169-5.506 14.244 5.102c.236-1.442.421-2.871.473-4.167z" fill="#b8b8b8"/><path d="m60.293 10.121c1.168-1.17 1.168-3.072 0-4.242l-1.734-1.734c-.666-.666-1.582-.973-2.519-.853-.935.125-1.739.667-2.207 1.485l-.218.381c-1.805-1.238-3.772-2.168-5.885-2.731l-1.473-.393c-.301-.083-.621-.017-.867.173s-.39.482-.39.793v4.382l-.498-.249-2.865-1.91-2.93-2.93c-.212-.212-.504-.316-.806-.288-.298.029-.567.191-.733.44l-1.703 2.555h-6.93l-1.703-2.555c-.166-.249-.436-.411-.733-.44-.301-.026-.594.076-.806.288l-2.93 2.93-2.865 1.91-.498.249v-4.382c0-.311-.145-.604-.391-.793-.247-.189-.565-.255-.867-.173l-1.472.393c-2.113.563-4.08 1.493-5.885 2.732l-.218-.381c-.467-.819-1.272-1.361-2.207-1.486-.934-.121-1.853.187-2.519.853l-1.734 1.734c-1.168 1.17-1.168 3.072 0 4.242l1.028 1.028c-1.784 2.983-2.735 6.368-2.735 9.851 0 .453.305.85.742.966l10.238 2.73.02 9.048c0 1.089.506 2.078 1.389 2.715.586.423 1.27.619 1.965.615.194 2.199.662 4.691 1.099 6.946.385 1.989.75 3.868.807 5.027.059 1.204-.484 2.359-.819 2.952h-.441c-.552 0-1 .447-1 1v8c0 .553.448 1 1 1h7c.265 0 .52-.105.707-.293l.707-.706h13.172l.707.707c.187.188.442.293.707.293h7c.552 0 1-.447 1-1v-8c0-.553-.448-1-1-1h-.428c-.387-.714-.912-1.927-.865-2.956.053-1.159.413-3.006.794-4.96.438-2.246.907-4.733 1.103-6.994.02 0 .039.005.059.005.689 0 1.365-.217 1.947-.636.884-.637 1.39-1.626 1.39-2.724l-.079-9.013 10.337-2.757c.437-.115.742-.512.742-.965 0-3.483-.951-6.867-2.735-9.85zm-3.988-4.847c.311-.042.617.063.84.284l1.734 1.734c.39.39.39 1.024 0 1.414l-8.494 8.494c-.243-.321-.547-.588-.897-.79l6.081-10.64c.156-.273.424-.454.736-.496zm-8.305 12.726c.551 0 1 .448 1 1s-.449 1-1 1-1-.448-1-1 .449-1 1-1zm-.785-13.642c1.944.519 3.751 1.385 5.404 2.542l-5.237 9.165c-.132.028-.257.075-.382.119v-11.882zm-23.66 2.474c.055-.036.106-.078.152-.125l2.138-2.138 1.323 1.985c.186.279.498.446.832.446h8c.334 0 .646-.167.832-.445l1.323-1.985 2.138 2.138c.046.047.098.089.152.125l1.862 1.241-3.658 2.926h-13.298l-3.658-2.927zm-7.555 11.168c.551 0 1 .448 1 1s-.449 1-1 1-1-.448-1-1 .449-1 1-1zm.785-13.642.215-.056v11.883c-.125-.045-.25-.091-.382-.119l-5.237-9.165c1.652-1.158 3.46-2.024 5.404-2.543zm-11.664 2.935 1.734-1.734c.222-.222.524-.325.84-.284.312.042.58.223.736.495l6.081 10.641c-.35.202-.654.469-.897.79l-8.493-8.494c-.39-.39-.39-1.024-.001-1.414zm1.07 5.312 6.856 6.856c.223 1.434 1.456 2.539 2.953 2.539.352 0 .686-.072 1-.184v1.883l-12.983-3.463c.118-2.684.863-5.287 2.174-7.631zm8.809 21.137-.019-8.513 2.761.736c.085.024.172.035.258.035.218 0 .433-.071.609-.207.246-.189.391-.482.391-.793v-10.523l8 3.2v9.646l-9.372 3.748.743 1.857 10-4c.38-.152.629-.519.629-.928v-11c0-.409-.249-.776-.628-.929l-9.372-3.748v-2.705l.875-.437 4.501 3.601c.177.141.397.218.624.218h6v17.28l-14.228 4.742c-.416.142-.858.07-1.213-.185-.355-.257-.559-.654-.559-1.095zm8.586 26.258h-5.586v-6h5.586l2 2h-2.586v2h2.586zm3.828-1 1.293-1.293c.391-.391.391-1.023 0-1.414l-1.293-1.293h9.172l-1.293 1.293c-.391.391-.391 1.023 0 1.414l1.293 1.293zm18.586 1h-5.586l-2-2h2.586v-2h-2.586l2-2h5.586zm-6-8c-.265 0-.52.105-.707.293l-.707.707h-13.172l-.707-.707c-.187-.188-.442-.293-.707-.293h-4.341c.346-.829.656-1.902.599-3.052-.064-1.301-.424-3.158-.841-5.308-.445-2.302-.942-4.874-1.108-7.023l13.691-4.563 13.638 4.547c-.165 2.23-.651 4.795-1.1 7.1-.413 2.117-.769 3.944-.829 5.251-.05 1.09.286 2.193.647 3.048zm9-18.256c0 .438-.204.836-.559 1.093-.354.257-.797.324-1.213.186l-14.228-4.743v-17.28h6c.227 0 .447-.077.625-.219l4.501-3.601.874.438v2.704l-9.372 3.749c-.379.153-.628.52-.628.929v11c0 .409.249.776.628.929l10 4 .743-1.857-9.371-3.749v-9.646l8-3.2v10.523c0 .311.145.604.391.793.176.136.391.207.609.207.086 0 .173-.011.258-.034l2.668-.711zm10.983-13.508-12.983 3.462v-1.883c.314.113.648.185 1 .185 1.497 0 2.73-1.105 2.953-2.539l6.856-6.855c1.312 2.343 2.056 4.946 2.174 7.63z"/><path d="m37.614 39.434 6.143 1.536.485-1.939-6.142-1.537c-3.99-.998-8.209-.998-12.199 0l-6.143 1.536.485 1.939 6.143-1.536c3.672-.917 7.556-.915 11.228.001z"/><path d="m25.9 42.494-5.143 1.286.485 1.939 5.143-1.286c3.672-.917 7.556-.917 11.229 0l5.143 1.286.485-1.939-5.142-1.286c-3.991-.998-8.209-.998-12.2 0z"/></svg>