<svg id="Layer_5" enable-background="new 0 0 64 64" height="512" viewBox="0 0 64 64" width="512" xmlns="http://www.w3.org/2000/svg"><g><g><path d="m13 2h38v4h-38z" fill="#d3a06c"/><path d="m51 6v6h-4-30-4v-6z" fill="#b27946"/><path d="m33 37h-2l-1.51 17.34c-1.03.57-3.86 1.66-10.49 1.66-9 0-10-2-10-2v-28h2c3.31 0 6-2.69 6-6v-8h30v8c0 3.31 2.69 6 6 6h2v28s-1 2-10 2c-6.63 0-9.46-1.09-10.49-1.66z" fill="#aab2bd"/><path d="m55 54v6s-1 2-10 2-10-2-10-2l-.49-5.66c1.03.57 3.86 1.66 10.49 1.66 9 0 10-2 10-2z" fill="#ccd1d9"/><path d="m29.49 54.34-.49 5.66s-1 2-10 2-10-2-10-2v-6s1 2 10 2c6.63 0 9.46-1.09 10.49-1.66z" fill="#ccd1d9"/><path d="m23 47v2c0 .55-.45 1-1 1h-8c-.55 0-1-.45-1-1v-2c0-.55.45-1 1-1h8c.55 0 1 .45 1 1z" fill="#e6e9ed"/><g fill="#b4dd7f"><path d="m17 12v8c0 3.31-2.69 6-6 6h-2v-7.51c0-1.6.63-3.12 1.76-4.25l2.24-2.24z"/><path d="m55 18.49v7.51h-2c-3.31 0-6-2.69-6-6v-8h4l2.24 2.24c1.13 1.13 1.76 2.65 1.76 4.25z"/></g></g><g><path d="m53.95 13.535-1.95-1.949v-10.586h-40v10.586l-1.95 1.949c-1.322 1.323-2.05 3.081-2.05 4.95v41.751l.105.211c.3.599 1.971 2.553 10.895 2.553s10.595-1.954 10.895-2.553l.085-.171 1.937-22.276h.167l1.937 22.276.085.171c.299.599 1.97 2.553 10.894 2.553s10.595-1.954 10.895-2.553l.105-.211v-41.751c0-1.869-.728-3.627-2.05-4.95zm-19.877 24.258c1.124-.433 1.927-1.518 1.927-2.793v-18h-2v18c0 .552-.449 1-1 1h-2c-.551 0-1-.448-1-1v-7h-2v7c0 1.275.803 2.36 1.927 2.793l-1.383 15.9c-1.183.514-3.916 1.307-9.544 1.307-6.404 0-8.462-1.035-9-1.412v-26.588h1c3.86 0 7-3.141 7-7v-7h28v7c0 3.859 3.14 7 7 7h1v26.588c-.538.377-2.596 1.412-9 1.412-5.63 0-8.362-.793-9.545-1.307zm-20.073-30.793h36v4h-36zm40 11.485v6.515h-1c-2.757 0-5-2.243-5-5v-7h2.586l1.949 1.949c.945.946 1.465 2.201 1.465 3.536zm-4-15.485v2h-36v-2zm-38.536 11.949 1.95-1.949h2.586v7c0 2.757-2.243 5-5 5h-1v-6.515c0-1.335.52-2.59 1.464-3.536zm7.536 46.051c-6.391 0-8.457-1.032-9-1.412v-3.766c1.52.614 4.209 1.178 9 1.178 4.732 0 7.628-.548 9.353-1.106l-.319 3.669c-.487.358-2.5 1.437-9.034 1.437zm26 0c-6.534 0-8.547-1.079-9.034-1.437l-.319-3.669c1.725.558 4.62 1.106 9.353 1.106 4.791 0 7.48-.564 9-1.178v3.766c-.543.38-2.609 1.412-9 1.412z"/><path d="m22 45h-8c-1.103 0-2 .897-2 2v2c0 1.103.897 2 2 2h8c1.103 0 2-.897 2-2v-2c0-1.103-.897-2-2-2zm-8 4v-2h8l.001 2z"/></g></g></svg>