<svg id="Layer_5" enable-background="new 0 0 64 64" height="512" viewBox="0 0 64 64" width="512" xmlns="http://www.w3.org/2000/svg"><g><g><path d="m28 6v4c0 1.1-.9 2-2 2h-8-14c-1.1 0-2-.9-2-2v-4z" fill="#d3a06c"/><path d="m28 4v2h-26v-2c0-1.1.9-2 2-2h22c1.1 0 2 .9 2 2z" fill="#dfb28b"/><path d="m12 52v2h-8v-6h4c2.21 0 4 1.79 4 4z" fill="#cf9e76"/><path d="m50.55 42.48-8.55-.48-8 4-5.57-5.22-5.21-4.89-5.22-4.89v-7-6-6h-14v32h5c3.87 0 7 3.13 7 7v3h18 26v-1.54c0-5.31-4.15-9.69-9.45-9.98z" fill="#cf9e76"/><path d="m36.31 36.67-5.15-4.84-5.16-4.83v-3-6-6h-8v6 6 7l5.22 4.89 5.21 4.89 5.57 5.22 8-4z" fill="#b27946"/><path d="m14 62h-4-4-2c-1.1 0-2-.9-2-2v-4c0-1.1.9-2 2-2h8 4 18 26c1.1 0 2 .9 2 2v4c0 1.1-.9 2-2 2h-2-4-4-4-4-4-4-3l-2-2h-11v2z" fill="#969faa"/><path d="m16 51v3h-4v-2c0-2.21-1.79-4-4-4h-4v-4h5c3.87 0 7 3.13 7 7z" fill="#e6e9ed"/><g fill="#fcd770"><circle cx="10" cy="28" r="2"/><circle cx="10" cy="20" r="2"/></g></g><g><path d="m61 53.184v-.724c0-5.835-4.564-10.66-10.39-10.983l-8.192-.455-15.418-14.455v-13.751c1.161-.414 2-1.514 2-2.816v-6c0-1.654-1.346-3-3-3h-22c-1.654 0-3 1.346-3 3v6c0 1.302.839 2.402 2 2.816v40.369c-1.161.413-2 1.513-2 2.815v4c0 1.654 1.346 3 3 3h15v-2h9.586l2 2h29.414c1.654 0 3-1.346 3-3v-4c0-1.302-.839-2.402-2-2.816zm-2-.724v.54h-24v-6.382l7.21-3.605 8.289.46c4.767.265 8.501 4.213 8.501 8.987zm-54-3.46h3c1.654 0 3 1.346 3 3v1h-6zm3-2h-3v-2h4c3.309 0 6 2.691 6 6v2h-2v-1c0-2.757-2.243-5-5-5zm1-4h-4v-30h12v18.433l16 15v6.567h-16v-2c0-4.411-3.589-8-8-8zm16-20h-6v-4h6zm-6 2h6v1.382l-6 3zm6-8h-6v-4h6zm9.176 27.794-4.01-3.759 6.093-3.046 4.009 3.759zm-5.566-5.217-3.662-3.433 6.093-3.047 3.662 3.433zm.876-7.938-6.093 3.047-3.662-3.433 6.093-3.047zm-3.486-20.639h-22c-.551 0-1-.449-1-1v-3h24v3c0 .551-.449 1-1 1zm-22-8h22c.551 0 1 .449 1 1v1h-24v-1c0-.551.449-1 1-1zm57 57c0 .551-.449 1-1 1h-1v-2h-2v2h-2v-2h-2v2h-2v-2h-2v2h-2v-2h-2v2h-2v-2h-2v2h-2v-2h-2v2h-2v-2h-2v2h-1.586l-2-2h-12.414v2h-2v-2h-2v2h-2v-2h-2v2h-2v-2h-2v2h-1c-.551 0-1-.449-1-1v-4c0-.551.449-1 1-1h56c.551 0 1 .449 1 1z"/><path d="m10 17c-1.654 0-3 1.346-3 3s1.346 3 3 3 3-1.346 3-3-1.346-3-3-3zm0 4c-.551 0-1-.449-1-1s.449-1 1-1 1 .449 1 1-.449 1-1 1z"/><path d="m10 25c-1.654 0-3 1.346-3 3s1.346 3 3 3 3-1.346 3-3-1.346-3-3-3zm0 4c-.551 0-1-.449-1-1s.449-1 1-1 1 .449 1 1-.449 1-1 1z"/></g></g></svg>