<svg height="512pt" viewBox="-106 0 512 512" width="512pt" xmlns="http://www.w3.org/2000/svg"><path d="m277.851562 111.925781c-2.484374-2.476562-5.113281-4.746093-7.855468-6.828125 0-.03125.003906-.066406.003906-.097656v-60c0-24.8125-20.1875-45-45-45-11.515625 0-22.03125 4.355469-30 11.496094-7.96875-7.140625-18.484375-11.496094-30-11.496094-11.648438 0-22.277344 4.449219-30.273438 11.734375-7.9375-6.996094-18.339843-11.253906-29.726562-11.253906-20.722656 0-38.210938 14.082031-43.414062 33.179687-5.136719-2.046875-10.730469-3.179687-16.585938-3.179687-24.8125 0-45 20.183593-45 45v82.917969c0 45.003906 10.367188 90.0625 30 130.5625v208.039062c0 8.285156 6.714844 15 15 15h180c8.285156 0 15-6.714844 15-15v-205.507812c2.511719-2.5625 6.703125-6.808594 13.6875-13.839844 29.863281-30.078125 46.3125-69.984375 46.3125-112.371094 0-20.144531-7.867188-39.097656-22.148438-53.355469zm-52.851562-81.925781c8.269531 0 15 6.730469 15 15v46.507812c-4.878906-.992187-9.886719-1.507812-14.972656-1.507812-.042969 0-15.027344 0-15.027344 0v-45c0-8.269531 6.730469-15 15-15zm-75 15c0-8.269531 6.730469-15 15-15s15 6.730469 15 15v45h-30zm-60 .480469c0-8.273438 6.730469-15 15-15s15 6.726562 15 15v60c0 8.269531-6.730469 15-15 15s-15-6.730469-15-15zm-60 30c0-8.273438 6.730469-15 15-15s15 6.726562 15 15v30c0 8.269531-6.730469 15-15 15s-15-6.730469-15-15zm202.398438 181.03125c-5.074219 5.109375-9.605469 9.6875-12.867188 13.007812-7.128906 7.257813-9.53125 9.703125-9.53125 15.960938v196.519531h-150v-196.519531c0-.121094-.015625-.234375-.019531-.355469-.003907-.316406-.019531-.632812-.046875-.949219-.015625-.203125-.042969-.398437-.066406-.597656-.035157-.28125-.078126-.5625-.128907-.84375-.042969-.234375-.097656-.464844-.148437-.699219-.058594-.230468-.113282-.464844-.183594-.699218-.078125-.269532-.164062-.535157-.257812-.800782-.066407-.191406-.132813-.382812-.207032-.574218-.117187-.292969-.246094-.578126-.378906-.859376-.050781-.109374-.089844-.222656-.144531-.332031-18.59375-37.179687-28.417969-78.800781-28.417969-120.371093v-10.5c4.695312 1.664062 9.742188 2.582031 15 2.582031 11.515625 0 22.03125-4.355469 30-11.496094 7.96875 7.140625 18.484375 11.496094 30 11.496094 9.339844 0 18.023438-2.863281 25.222656-7.753907 7.25 12.402344 17.949219 22.535157 30.78125 29.089844-24.917968 19.21875-41.003906 49.355469-41.003906 83.183594 0 8.285156 6.714844 15 15 15s15-6.714844 15-15c0-41.355469 33.644531-75 75-75 8.285156 0 15-6.714844 15-15s-6.714844-15-15-15c-1.453125 0-2.898438.039062-4.339844.097656-.546875-.0625-1.097656-.097656-1.660156-.097656h-24c-19.554688 0-36.238281-12.539062-42.429688-30h72.429688c11.914062 0 23.15625 4.671875 31.652344 13.15625 8.609375 8.589844 13.347656 20 13.347656 32.125 0 34.414062-13.355469 66.8125-37.601562 91.230469zm0 0"/></svg>