<svg height="512pt" viewBox="-31 0 512 512.001" width="512pt" xmlns="http://www.w3.org/2000/svg"><path d="m229.847656 312.875c-.667968.335938-1.3125.722656-1.921875 1.15625-39.351562 27.867188-130.71875 76.140625-149.644531 80.808594-5.894531-1.886719-12.027344-2.839844-18.28125-2.839844-33.082031 0-60 26.917969-60 60 0 31.640625 24.804688 54.683594 59.109375 55.074219 32.46875 3.652343 62.117187 5.289062 88.136719 4.859375 61.585937-1.011719 93.5625-11.335938 114.722656-18.167969 27.816406-8.984375 28.78125-8.128906 48.792969 2.8125 13.226562 7.230469 28.214843 15.421875 46.082031 15.421875 38.191406 0 70.957031-21.835938 85.519531-56.988281 15.683594-37.859375 7.648438-84.210938-26.347656-118.207031-13.621094-13.621094-25.382813-25.382813-23.089844-48.335938.027344-.277344.046875-.554688.0625-.832031l11.996094-271.976563c.179687-4.085937-1.316406-8.070312-4.148437-11.027344-2.828126-2.960937-6.742188-4.632812-10.835938-4.632812h-180c-4.371094 0-8.527344 1.910156-11.378906 5.226562-2.847656 3.316407-4.109375 7.710938-3.449219 12.035157l42.878906 281.042969c.472657 6.019531-2.796875 11.84375-8.203125 14.570312zm38.027344-17.875c-.023438-.257812-.058594-.515625-.097656-.769531l-40.316406-264.230469h146.863281l-11.289063 255.917969c-3.507812 36.820312 16.871094 57.203125 31.769532 72.101562 28.8125 28.808594 29.140624 63.0625 19.84375 85.511719-9.980469 24.085938-31.585938 38.46875-57.804688 38.46875-10.199219 0-21.125-5.972656-31.691406-11.746094-26.640625-14.566406-35.226563-17.042968-72.402344-5.039062-20.628906 6.660156-48.882812 15.78125-105.996094 16.722656-42.5625.703125-84.328125-4.859375-86.753906-4.859375-14.929688 0-30-7.753906-30-25.078125 0-16.542969 13.460938-30 30-30v15c0 8.285156 6.71875 15 15 15 8.285156 0 15-6.714844 15-15v-14.445312c4.261719-1.402344 9.445312-3.4375 15.929688-6.277344 38.039062-16.648438 107.347656-55.308594 138.496093-77.175782 15.859375-8.542968 25.25-26.109374 23.449219-44.101562zm0 0"/><path d="m330 422c24.8125 0 45-20.1875 45-45 0-8.285156-6.714844-15-15-15s-15 6.714844-15 15c0 8.269531-6.726562 15-15 15-8.269531 0-15-6.730469-15-15 0-8.285156-6.714844-15-15-15s-15 6.714844-15 15c0 24.8125 20.1875 45 45 45zm0 0"/></svg>