<?xml version="1.0" encoding="iso-8859-1"?>
<!-- Generator: Adobe Illustrator 19.0.0, SVG Export Plug-In . SVG Version: 6.00 Build 0)  -->
<svg version="1.1" id="Capa_1" xmlns="http://www.w3.org/2000/svg" xmlns:xlink="http://www.w3.org/1999/xlink" x="0px" y="0px"
	 viewBox="0 0 511.999 511.999" style="enable-background:new 0 0 511.999 511.999;" xml:space="preserve">
<g>
	<g>
		<path d="M256,0L34.297,128v255.998l221.703,128l221.703-128V128L256,0z M271.001,43.303l161.7,93.357l-60.046,34.667
			l-101.654-58.69V43.303z M240.999,43.304v69.334l-101.654,58.69l-60.045-34.667L240.999,43.304z M64.299,162.643l60.045,34.667
			v117.38l-60.045,34.667V162.643z M240.999,468.697L79.299,375.339l60.045-34.668l101.654,58.69V468.697z M154.346,314.689V197.31
			L256,138.62l101.654,58.69v117.38L256,373.379L154.346,314.689z M271,468.697v-69.335l101.654-58.69l60.045,34.667L271,468.697z
			 M447.701,349.357l-60.045-34.667V197.31l60.045-34.667V349.357z"/>
	</g>
</g>
<g>
</g>
<g>
</g>
<g>
</g>
<g>
</g>
<g>
</g>
<g>
</g>
<g>
</g>
<g>
</g>
<g>
</g>
<g>
</g>
<g>
</g>
<g>
</g>
<g>
</g>
<g>
</g>
<g>
</g>
</svg>
