<svg height="512pt" viewBox="0 0 512 512.01715" width="512pt" xmlns="http://www.w3.org/2000/svg"><path d="m480.433594 101.058594c-6.84375-.527344-13.6875 1.03125-19.625 4.472656v-37.265625c.070312-14.902344-9.601563-28.101563-23.832032-32.527344-9.140624-2.851562-19.050781-1.777343-27.367187 2.960938v-4.566407c-.023437-8.007812-2.832031-15.757812-7.945313-21.921874-6.445312-7.757813-16.015624-12.2382818-26.101562-12.210938-18.851562 0-34.136719 15.28125-34.136719 34.132812v4.582032c-10.210937-5.917969-22.757812-6.117188-33.152343-.527344-10.390626 5.59375-17.144532 16.171875-17.832032 27.953125-6.867187-6.167969-15.96875-9.242187-25.171875-8.496094-9.199219.75-17.6875 5.25-23.46875 12.449219l-13.433593-34.78125c-5.328126-13.957031-19.140626-22.800781-34.046876-21.804688-3.4375.203126-6.816406.953126-10.015624 2.226563-5.621094 2.144531-10.570313 5.742187-14.335938 10.429687l-1.640625-4.265624c-2.832031-7.511719-8.289063-13.738282-15.359375-17.527344-8.820312-4.96875-19.398438-5.738282-28.84375-2.101563-17.519531 6.867188-26.238281 26.566407-19.53125 44.152344l1.621094 4.207031c-12.066406-1.898437-24.222656 2.792969-31.886719 12.304688-7.660156 9.511718-9.65625 22.390625-5.234375 33.773437l58.273438 151.273438c3.804687 9.316406 6.105468 19.179687 6.828124 29.214843.167969 3.003907-1.230468 5.878907-3.695312 7.597657-2.285156 1.605469-5.230469 1.925781-7.808594.851562-8.484375-3.59375-16.558594-8.097656-24.070312-13.429687l-.855469-.589844c-27.433594-19.34375-55.808594-39.382812-75.859375-31.632812-12.316406 4.476562-20.878906 15.742187-21.8984375 28.808593.1249995 11.25 7.2929685 21.214844 17.9218755 24.90625 16.367187 7.304688 44.722656 38.402344 69.734374 65.8125 5.972657 6.542969 11.878907 13.019531 17.585938 19.148438 20.683594 22.347656 53.835938 39.335937 77.996094 49.664062 10.410156 4.488281 18.582031 12.976563 22.671875 23.550781l.964843 2.558594c-16.410156 7.964844-19.140624 17.808594-19.140624 23.425782 0 22.40625 38.628906 34.132812 76.800781 34.132812 16.976562.253906 33.878906-2.339844 49.996093-7.679688 22.765626 5.332032 46.089844 7.910157 69.46875 7.679688 53.429688 0 110.933594-12.015625 110.933594-38.398438 0-6.042968-3.132812-14.429687-17.066406-21.8125v-25.71875c-.078125-2.167968.738281-4.273437 2.261719-5.820312 31.511719-28.824219 31.871093-76.886719 31.871093-78.917969v-204.796875c.339844-18.25-13.40625-33.695312-31.574218-35.476562zm-215.890625 393.875c-38.800781 0-59.734375-12.109375-59.734375-17.066406 0-1.578126 3.601562-5.972657 14.242187-9.976563 1.355469-.074219 2.667969-.492187 3.8125-1.21875 3.398438-2.121094 4.746094-6.394531 3.175781-10.078125.003907-.070312.003907-.136719 0-.207031 0-.109375-.128906-.1875-.171874-.289063-.101563-.289062-.222657-.574218-.355469-.851562-.632813-1.519532-1.273438-3.191406-1.902344-4.855469l-1.707031-4.472656c-5.75-14.910157-17.253906-26.878907-31.925782-33.210938-18.523437-7.953125-52.582031-24.441406-72.207031-45.613281-5.691406-6.109375-11.554687-12.542969-17.484375-19.035156-28.683594-31.445313-55.765625-61.152344-75.4375-69.921875-5.246094-2.304688-7.859375-5.300781-7.78125-8.910157.941406-6.121093 5.175782-11.230468 11.015625-13.285156 11.539063-4.421875 39.46875 15.265625 59.871094 29.660156l.851563.589844c8.402343 5.972656 17.425781 11.011719 26.914062 15.035156l.488281.214844h.066407c17.335937 6.417969 36.117187 7.863282 54.230468 4.171875 3.011719-.472656 5.542969-2.515625 6.640625-5.359375 1.097657-2.847656.59375-6.0625-1.324219-8.433594-1.914062-2.371093-4.949218-3.542968-7.960937-3.070312-6.613281 1.070312-13.304687 1.535156-20.003906 1.402344 2.398437-4.167969 3.578125-8.921875 3.414062-13.722656-.804687-11.890626-3.5-23.578126-7.984375-34.621094l-58.277344-151.277344c-1.628906-4.226562-1.507812-8.925781.332032-13.066406 1.835937-4.140625 5.246094-7.378906 9.472656-9 4.230469-1.640625 8.933594-1.53125 13.082031.300781 4.144531 1.835937 7.390625 5.246094 9.019531 9.476563l.050782.085937v.078125l28.757812 69.894531c1.3125 3.203125 4.425782 5.292969 7.886719 5.300781 1.109375 0 2.210937-.222656 3.234375-.648437 4.335938-1.792969 6.414062-6.746094 4.648438-11.09375l-28.6875-69.753906-12.269532-31.785157c-3.363281-8.800781.992188-18.667968 9.761719-22.109374 4.730469-1.816407 10.027344-1.414063 14.429687 1.101562 3.535157 1.859375 6.265626 4.949219 7.679688 8.683594l12.210938 31.738281v.160156l40.71875 105.371094c1.707031 4.394531 6.648437 6.574219 11.042968 4.871094 4.394532-1.703125 6.578125-6.644531 4.875-11.042969l-40.644531-105.332031v-.113281l-.050781-.128907c-1.582032-4.175781-1.4375-8.8125.40625-12.882812 1.859375-4.1875 5.320312-7.453125 9.609375-9.0625 1.550781-.613281 3.191406-.976563 4.855469-1.074219 7.464843-.457031 14.363281 3.96875 17.066406 10.9375l23.894531 62.097656.09375.222656 19.90625 51.683594c1.269531 3.296875 4.433594 5.46875 7.964844 5.472656 1.046875-.003906 2.085937-.199218 3.0625-.582031 4.394531-1.691406 6.589843-6.628906 4.898437-11.023437l-19.910156-51.6875-.058594-.160156c-1.5625-4.152344-1.417968-8.753907.402344-12.800782 2.015625-4.566406 5.9375-8.011718 10.726562-9.429687 9.03125-2.28125 18.304688 2.742187 21.332032 11.554687l4.523437 11.785156c.261719.539063.589844 1.050782.972657 1.515626v130.3125c.238281 10.074218-1.136719 20.121093-4.070313 29.757812-.917969 2.84375-3.242187 5.007812-6.144531 5.71875-2.757813.707031-5.6875-.050781-7.75-2.015625-6.648438-6.351563-12.554688-13.441406-17.601563-21.128906-19.398437-28.980469-46.941406-63.53125-68.445312-63.53125-13.105469-.273438-25.15625 7.132812-30.832031 18.945312-3.949219 10.554688-.859376 22.457031 7.730468 29.753907 14.660156 14.671874 40.386719 69.121093 59.382813 116.617187 11.339843 28.253906 36.140625 56.023437 54.957031 74.351563 8.117188 7.96875 12.691406 18.867187 12.695312 30.242187v2.558594c-11.390624 6.070312-17.152343 13.398437-17.152343 21.933593.765625 8.554688 5.988281 16.070313 13.738281 19.769532-7.378906 1.023437-14.820312 1.542968-22.269531 1.5625zm230.398437-153.601563c0 .417969-.296875 42.515625-26.359375 66.347657-5.03125 4.785156-7.847656 11.445312-7.773437 18.390624v26.195313c-.007813.75-.121094 1.496094-.339844 2.210937-1.207031 4.160157.894531 8.5625 4.886719 10.242188 10.292969 4.339844 12.519531 8.164062 12.519531 8.882812 0 6.195313-32.886719 21.332032-93.867188 21.332032-60.976562 0-93.867187-15.136719-93.867187-21.332032 0-.710937 2.253906-4.550781 12.628906-8.960937 4.144531-1.753906 6.214844-6.425781 4.730469-10.675781-.167969-.554688-.238281-1.128906-.207031-1.707032v-3.15625c-.015625-15.976562-6.449219-31.277343-17.859375-42.460937-14.429688-14.066406-40.25-41.667969-51.019532-68.488281-6.589843-16.460938-40.59375-99.765625-63.148437-122.328125-4.054687-4.0625-5.417969-7.816407-4.027344-11.160157 3.085938-5.359374 8.871094-8.585937 15.054688-8.398437 8.128906 0 28.542969 17.503906 54.167969 55.9375 5.773437 8.773437 12.527343 16.859375 20.128906 24.105469 6.292968 5.949218 15.1875 8.265625 23.578125 6.144531 8.519531-2.132813 15.367187-8.460937 18.167969-16.785156 3.535156-11.414063 5.207031-23.320313 4.957031-35.269531v-162.132813c-.011719-6.097656 3.230469-11.738281 8.503906-14.796875s11.78125-3.070312 17.066406-.035156c5.289063 3.039062 8.550781 8.667968 8.5625 14.765625v145.132812c0 4.714844 3.820313 8.535157 8.535157 8.535157 4.710937 0 8.53125-3.820313 8.53125-8.535157v-179.199219c0-9.425781 7.644531-17.066406 17.070312-17.066406 5.003906-.019531 9.753906 2.191406 12.960938 6.035156 2.59375 3.089844 4.015624 6.996094 4.019531 11.03125v34.132813c0 .078125.042969.136719.042969.207031v144.859375c0 4.714844 3.820312 8.535157 8.53125 8.535157 4.714843 0 8.535156-3.820313 8.535156-8.535157v-145.203125c.488281-9.082031 8.015625-16.183594 17.109375-16.148437 9.09375.039062 16.5625 7.199219 16.980469 16.285156v153.601563c0 4.710937 3.820312 8.53125 8.53125 8.53125 4.714843 0 8.535156-3.820313 8.535156-8.53125v-86.835938c0-4.507812 1.800781-8.832031 5-12.007812 3.488281-3.554688 8.382812-5.371094 13.347656-4.949219 9.21875 1.195312 16.039062 9.167969 15.785156 18.460937zm0 0"/><path d="m469.214844 264.535156c-4.714844 0-8.535156 3.820313-8.535156 8.53125v51.199219c0 4.714844 3.820312 8.535156 8.535156 8.535156 4.710937 0 8.53125-3.820312 8.53125-8.535156v-51.199219c0-4.710937-3.820313-8.53125-8.53125-8.53125zm0 0"/><path d="m469.425781 349.984375c-4.632812-.015625-8.472656 3.59375-8.746093 8.21875-.632813 4.335937-2.769532 8.308594-6.03125 11.230469-2.15625 2.15625-3 5.296875-2.210938 8.242187.785156 2.945313 3.085938 5.25 6.03125 6.039063 2.945312.789062 6.089844-.050782 8.246094-2.207032 6.492187-6.011718 10.4375-14.277343 11.03125-23.109374-.007813-4.605469-3.710938-8.351563-8.320313-8.414063zm0 0"/><path d="m414.328125 453.164062c-30.199219 15.109376-69.429687-.136718-69.828125-.292968-4.378906-1.746094-9.34375.386718-11.09375 4.761718-1.75 4.378907.382812 9.347657 4.761719 11.09375 14.359375 5.300782 29.527343 8.078126 44.832031 8.210938 13.472656.21875 26.808594-2.703125 38.957031-8.535156 4.21875-2.105469 5.929688-7.234375 3.820313-11.449219-2.105469-4.21875-7.230469-5.929687-11.449219-3.824219zm0 0"/></svg>