<svg id="Layer_1" enable-background="new 0 0 512 512" height="512" viewBox="0 0 512 512" width="512" xmlns="http://www.w3.org/2000/svg"><g><g><path d="m118.821 16h32c8.837 0 16 7.163 16 16h-48c-4.418 0-8-3.582-8-8 0-4.418 3.582-8 8-8z" fill="#a5cd3c"/></g><g><g><path d="m286.821 416v64c0 8.84-7.16 16-16 16h-80c0-13.25 10.75-24 24-24h32v-24c-22.09 0-40-17.91-40-40v-40c0-8.84 3.58-16.84 9.37-22.63s13.79-9.37 22.63-9.37c17.67 0 32 14.33 32 32v32c0 8.84 7.16 16 16 16z" fill="#82aa41"/></g></g><g><path d="m325.218 176c-7.413-36.515-39.694-64-78.397-64h-64v-8c0-4.418-3.582-8-8-8h-8v-64h-48v32c0 8.836 7.164 16 16 16v16h-8c-4.418 0-8 3.582-8 8v104c0 17.673 14.327 32 32 32h56v80c0 35.346 28.654 64 64 64h48c8.836 0 16-7.164 16-16v-80l2.564-3.846c8.761-13.141 13.436-28.582 13.436-44.376v-63.778z" fill="#4b8c41"/></g><g><g><path d="m366.821 416v64c0 8.84-7.16 16-16 16h-80c0-13.25 10.75-24 24-24h32v-24c-22.09 0-40-17.91-40-40v-40c0-8.84 3.58-16.84 9.37-22.63s13.79-9.37 22.63-9.37c17.67 0 32 14.33 32 32v32c0 8.84 7.16 16 16 16z" fill="#a5cd3c"/></g></g><g><path d="m334.821 32v16h-12c-2.209 0-4 1.791-4 4 0 6.627 5.373 12 12 12h4c0 8.836 7.164 16 16 16v16h32v-64z" fill="#82aa41"/></g><g><path d="m366.821 16h-32c-4.418 0-8 3.582-8 8s3.582 8 8 8h32v32c0 8.837 7.164 16 16 16v-48c0-8.837-7.164-16-16-16z" fill="#a5cd3c"/></g><g><path d="m390.821 96h-48c-4.418 0-8 3.582-8 8v72c-17.673 0-32 14.327-32 32s14.327 32 32 32h32c17.673 0 32-14.327 32-32v-104c0-4.418-3.582-8-8-8z" fill="#a5cd3c"/></g><g><path d="m286.821 384h-16c-35.346 0-64-28.654-64-64v-72c0-13.255 10.745-24 24-24h32c13.255 0 24 10.745 24 24z" fill="#fab991"/></g><g><path d="m286.821 176h-24v-64h88c0 35.346-28.654 64-64 64z" fill="#fad7a0"/></g><g><path d="m334.821 128h-72v-16h88c0 8.837-7.163 16-16 16z" fill="#82aa41"/></g><g><path d="m174.821 176h24v-64h-88c0 35.346 28.654 64 64 64z" fill="#fad7a0"/></g><g><path d="m126.821 128h72v-16h-88c0 8.837 7.163 16 16 16z" fill="#82aa41"/></g><g><path d="m278.821 128c0-8.837-7.163-16-16-16h-6.111c-10.963 0-20.986 6.194-25.889 16-4.903-9.806-14.925-16-25.889-16h-6.111c-8.837 0-16 7.163-16 16v32c-8.837 0-16 7.163-16 16 0 17.673 14.327 32 32 32h48c17.673 0 32-14.327 32-32z" fill="#a5cd3c"/></g><g><path d="m246.821 192h-48c-8.837 0-16-7.163-16-16h80c0 8.837-7.163 16-16 16z" fill="#d7e6f0"/></g><g><path d="m158.821 48h-20c-2.209 0-4 1.791-4 4 0 6.627 5.373 12 12 12h4c0 8.837 7.164 16 16 16v-24c0-4.418-3.582-8-8-8z" fill="#a5cd3c"/></g></g></svg>