<?xml version="1.0" encoding="iso-8859-1"?>
<!-- Generator: Adobe Illustrator 19.0.0, SVG Export Plug-In . SVG Version: 6.00 Build 0)  -->
<svg version="1.1" id="Capa_1" xmlns="http://www.w3.org/2000/svg" xmlns:xlink="http://www.w3.org/1999/xlink" x="0px" y="0px"
	 viewBox="0 0 512.002 512.002" style="enable-background:new 0 0 512.002 512.002;" xml:space="preserve">
<g>
	<g>
		<path d="M394.446,143.388c-24.831-28.848-58.549-48.585-95.553-56.081l5.713-20.267c5.144-15.712,2.551-32.398-7.129-45.818
			C287.747,7.734,272.631,0,256.002,0c-16.629,0-31.745,7.734-41.474,21.221c-9.681,13.42-12.273,30.106-7.129,45.818l5.713,20.267
			c-36.858,7.466-70.445,27.061-95.261,55.742c-26.842,31.021-41.625,70.725-41.625,111.796c0,0.15,0.003,0.301,0.01,0.45
			l3.957,87.721l5.753,127.545c0.189,7.842,7.621,12.703,15.645,16.788c6.104,3.106,14.375,6.575,24.583,10.31
			c16.884,6.176,37.57,12.427,46.112,13.935c0.005,0.001,0.01,0.002,0.015,0.002c0.948,0.168,2.292,0.404,3.816,0.404
			c2.362-0.001,5.155-0.567,7.562-2.838c2.043-1.927,3.19-4.636,3.183-7.417v-19.867h138.277v19.885
			c-0.003,2.772,1.141,5.472,3.177,7.395c3.947,3.728,8.932,2.874,11.358,2.444c0.014-0.002,0.029-0.005,0.043-0.007
			c8.544-1.51,29.229-7.761,46.111-13.936c10.209-3.734,18.48-7.202,24.583-10.31c8.023-4.084,15.455-8.945,15.644-16.787
			l5.753-127.545l3.957-87.721c0.007-0.149,0.01-0.3,0.01-0.45C435.779,213.936,421.099,174.354,394.446,143.388z M230.749,32.921
			C236.673,24.71,245.877,20,256.002,20c10.125,0,19.33,4.71,25.253,12.921c5.923,8.212,7.489,18.432,4.295,28.04
			c-0.049,0.146-0.094,0.293-0.136,0.441l-17.621,62.51h-23.584l-17.621-62.51c-0.042-0.148-0.087-0.296-0.136-0.441
			C223.26,51.354,224.825,41.133,230.749,32.921z M105.798,466.83l-3.609-80.012l52.339,99.369
			C135.809,480.311,112.658,471.618,105.798,466.83z M336.371,340.436c-6.554,3.739-10.509,5.995-11.162,11.538
			c-0.045,0.388-0.068,0.778-0.068,1.169v108.732H186.863V353.144c0-0.391-0.023-0.781-0.068-1.169
			c-0.652-5.544-4.682-7.841-10.78-11.319c-3.134-1.787-7.458-4.146-12.853-7.01c-5.945-3.158-11.932-6.261-15.395-8.046v-45.897
			c15.403-0.898,49.963-0.924,65.058-0.042l2.332,97.256c-0.121,3.224,0.801,6.373,2.635,9.019l25.709,44.768
			c0.244,0.425,0.519,0.83,0.822,1.215c2.839,3.598,7.096,5.66,11.679,5.66c4.583,0,8.84-2.063,11.679-5.66
			c0.304-0.385,0.578-0.79,0.822-1.215l25.708-44.767c1.835-2.646,2.757-5.796,2.636-9.02l2.332-97.256
			c15.097-0.882,49.659-0.857,65.058,0.042v45.775c-3.75,1.954-8.984,4.696-14.189,7.474
			C344.304,336.018,339.702,338.536,336.371,340.436z M406.206,466.829c-6.859,4.787-30.008,13.479-48.729,19.357l52.339-99.368
			L406.206,466.829z M411.932,339.881l-66.792,126.807V358.456c6.679-3.854,21.12-11.54,33.677-18.01
			c3.328-1.715,5.419-5.146,5.419-8.89V271.11c0-3.744-2.084-7.198-5.439-9.014c-2.085-1.129-5.575-3.019-47.185-3.063
			c-0.496-0.001-0.982-0.001-1.468-0.001c-40.733,0-43.571,1.85-46.073,3.483c-2.905,1.896-4.646,5.073-4.689,8.454l-2.518,105.012
			l-20.863,36.328l-20.862-36.326l-2.518-105.008c-0.042-3.384-1.782-6.563-4.689-8.461c-2.533-1.652-5.378-3.521-47.542-3.482
			c-41.609,0.045-45.099,1.935-47.185,3.063c-3.354,1.815-5.438,5.27-5.438,9.014v57.623c0,5.314,2.863,10.258,7.472,12.903
			c0.14,0.08,0.281,0.156,0.424,0.229c11.55,5.906,24.858,12.946,31.2,16.589v108.232l-66.791-126.805l-3.846-85.26
			c0.105-71.884,52.283-134.524,122.33-148l5.455,19.35c-52.505,9.429-95.161,50.376-105.459,104.239
			c-1.037,5.425,2.52,10.663,7.944,11.7c0.634,0.121,1.266,0.18,1.889,0.18c4.703,0,8.895-3.334,9.811-8.124
			c9.976-52.181,55.802-90.053,108.961-90.053h17.688c41.802,0,79.657,23.184,98.792,60.506c2.52,4.914,8.545,6.856,13.461,4.336
			c4.915-2.52,6.856-8.546,4.336-13.461c-18.978-37.015-53.576-62.244-93.436-69.342l5.451-19.336
			c71.093,13.562,122.226,75.055,122.329,148.007L411.932,339.881z"/>
	</g>
</g>
<g>
	<g>
		<path d="M383.64,222.087h-0.01c-5.523,0-9.995,4.478-9.995,10s4.483,10,10.005,10c5.523,0,10-4.478,10-10
			S389.163,222.087,383.64,222.087z"/>
	</g>
</g>
<g>
</g>
<g>
</g>
<g>
</g>
<g>
</g>
<g>
</g>
<g>
</g>
<g>
</g>
<g>
</g>
<g>
</g>
<g>
</g>
<g>
</g>
<g>
</g>
<g>
</g>
<g>
</g>
<g>
</g>
</svg>
