<svg height="511pt" viewBox="-15 0 511 511.856" width="511pt" xmlns="http://www.w3.org/2000/svg"><path d="m392.421875 104.128906h-303.984375c-4.425781 0-8-3.578125-8-8 0-4.425781 3.574219-8 8-8h303.984375c4.421875 0 8 3.574219 8 8 0 4.421875-3.578125 8-8 8zm0 0"/><path d="m88.4375 104.128906c-4.425781 0-8-3.578125-8-8v-31.992187c0-4.425781 3.574219-8 8-8 4.421875 0 8 3.574219 8 8v31.992187c0 4.421875-3.578125 8-8 8zm0 0"/><path d="m392.421875 104.128906c-4.425781 0-8-3.578125-8-8v-31.992187c0-4.425781 3.574219-8 8-8 4.421875 0 8 3.574219 8 8v31.992187c0 4.421875-3.578125 8-8 8zm0 0"/><path d="m392.421875 72.136719h-303.984375c-4.425781 0-8-3.578125-8-8 0-4.425781 3.574219-8 8-8h303.984375c4.421875 0 8 3.574219 8 8 0 4.421875-3.578125 8-8 8zm0 0"/><path d="m104.4375 56c-4.425781 0-8-3.574219-8-8 0-26.472656 21.527344-48 48-48 4.421875 0 8 3.574219 8 8s-3.578125 8-8 8c-17.648438 0-32 14.351562-32 32 0 4.425781-3.578125 8-8 8zm0 0"/><path d="m376.421875 56c-4.425781 0-8-3.574219-8-8 0-17.648438-14.355469-32-32-32-4.425781 0-8-3.574219-8-8s3.574219-8 8-8c26.46875 0 48 21.527344 48 48 0 4.425781-3.578125 8-8 8zm0 0"/><path d="m336.421875 16h-191.984375c-4.425781 0-8-3.574219-8-8s3.574219-8 8-8h191.984375c4.421875 0 8 3.574219 8 8s-3.578125 8-8 8zm0 0"/><path d="m104.4375 72.136719c-4.425781 0-8-3.578125-8-8v-16.136719c0-4.425781 3.574219-8 8-8 4.421875 0 8 3.574219 8 8v16.144531c0 4.414063-3.578125 7.992188-8 7.992188zm0 0"/><path d="m376.421875 71.992188c-4.425781 0-8-3.578126-8-8v-15.992188c0-4.425781 3.574219-8 8-8 4.421875 0 8 3.574219 8 8v15.992188c0 4.421874-3.578125 8-8 8zm0 0"/><path d="m240.429688 511.855469c-132.335938 0-240-107.664063-240-240 0-69.847657 30.359374-136.113281 83.292968-181.785157 3.351563-2.886718 8.402344-2.519531 11.28125.832032 2.886719 3.34375 2.511719 8.402344-.832031 11.28125-49.40625 42.632812-77.742187 104.480468-77.742187 169.671875 0 123.511719 100.484374 224 224 224 123.511718 0 224-100.488281 224-224 0-65.28125-28.402344-127.175781-77.921876-169.824219-3.351562-2.878906-3.726562-7.933594-.839843-11.277344 2.894531-3.363281 7.9375-3.714844 11.28125-.84375 53.046875 45.683594 83.480469 112 83.480469 181.945313 0 132.335937-107.664063 240-240 240zm0 0"/><path d="m240.429688 471.855469c-110.28125 0-200-89.71875-200-200 0-79.34375 46.949218-151.246094 119.621093-183.183594 4.066407-1.785156 8.769531.0625 10.539063 4.105469 1.78125 4.046875-.058594 8.765625-4.105469 10.535156-66.855469 29.390625-110.054687 95.542969-110.054687 168.542969 0 101.464843 82.535156 184 184 184 101.460937 0 184-82.535157 184-184 0-72.992188-43.210938-139.160157-110.082032-168.542969-4.046875-1.777344-5.878906-6.496094-4.105468-10.535156 1.769531-4.042969 6.488281-5.882813 10.539062-4.105469 72.6875 31.9375 119.648438 103.839844 119.648438 183.183594 0 110.28125-89.722657 200-200 200zm0 0"/></svg>