<?xml version="1.0" encoding="iso-8859-1"?>
<!-- Generator: Adobe Illustrator 19.0.0, SVG Export Plug-In . SVG Version: 6.00 Build 0)  -->
<svg version="1.1" id="Capa_1" xmlns="http://www.w3.org/2000/svg" xmlns:xlink="http://www.w3.org/1999/xlink" x="0px" y="0px"
	 viewBox="0 0 512 512" style="enable-background:new 0 0 512 512;" xml:space="preserve">
<g>
	<g>
		<g>
			<path d="M480,0v23.648c-0.007,24.154-17.961,44.54-41.92,47.6l-287.792,36.736c-4.8,0.704-9.6,1.6-14.176,2.688
				C91.141,121.138,52.671,150.087,30.16,190.4c-24.521,43.06-30.044,94.373-15.248,141.664l15.872,50.544
				C10.596,422.756,0.055,467.062,0,512h32c0.051-40.177,9.526-79.782,27.664-115.632l5.552-10.944L45.44,322.432
				c-12.132-38.784-7.6-80.865,12.512-116.176c18.129-32.544,49.137-55.936,85.408-64.432c3.792-0.864,7.648-1.6,11.2-2.144
				l287.552-36.672c39.915-5.157,69.818-39.113,69.888-79.36V0H480z"/>
			<path d="M224,338.672V336h-0.272c-1.385-26.846-23.518-47.925-50.4-48H144v32h29.328c10.309,0.009,18.663,8.363,18.672,18.672
				V512h32v-73.328c32.41,45.939,85.107,73.281,141.328,73.328H464v-32h-98.672C287.315,479.903,224.097,416.685,224,338.672z"/>
			<rect x="352" y="384" width="32" height="32"/>
		</g>
	</g>
</g>
<g>
</g>
<g>
</g>
<g>
</g>
<g>
</g>
<g>
</g>
<g>
</g>
<g>
</g>
<g>
</g>
<g>
</g>
<g>
</g>
<g>
</g>
<g>
</g>
<g>
</g>
<g>
</g>
<g>
</g>
</svg>
