<svg height="511pt" viewBox="0 0 511.96692 511" width="511pt" xmlns="http://www.w3.org/2000/svg"><path d="m138.511719 217.867188c-3.527344 0-6.769531-2.359376-7.71875-5.9375-15.449219-57.832032 1.222656-120.015626 43.503906-162.289063 42.277344-42.269531 104.457031-58.933594 162.277344-43.492187 4.273437 1.140624 6.808593 5.519531 5.664062 9.789062-1.132812 4.273438-5.550781 6.832031-9.789062 5.664062-52.328125-13.976562-108.601563 1.113282-146.839844 39.351563-38.25 38.25-53.328125 94.519531-39.363281 146.847656 1.144531 4.265625-1.390625 8.648438-5.660156 9.792969-.691407.183594-1.386719.273438-2.074219.273438zm0 0"/><path d="m158.742188 197.675781c-3.871094 0-7.269532-2.816406-7.894532-6.761719-7.128906-45.40625 7.984375-91.871093 40.425782-124.3125 32.4375-32.429687 78.902343-47.503906 124.261718-40.421874 4.359375.6875 7.34375 4.78125 6.664063 9.152343-.695313 4.367188-4.832031 7.292969-9.152344 6.664063-40.304687-6.363282-81.621094 7.09375-110.472656 35.925781-28.832031 28.832031-42.261719 70.152344-35.917969 110.511719.679688 4.367187-2.296875 8.464844-6.664062 9.152344-.425782.054687-.832032.089843-1.25.089843zm0 0"/><path d="m332.6875 136.835938c-2.046875 0-4.09375-.785157-5.65625-2.34375-34.3125-34.3125-34.3125-90.136719 0-124.449219 3.128906-3.128907 8.183594-3.128907 11.3125 0 3.128906 3.128906 3.128906 8.183593 0 11.3125-28.070312 28.070312-28.070312 73.75 0 101.824219 3.128906 3.125 3.128906 8.183593 0 11.3125-1.558594 1.558593-3.609375 2.34375-5.65625 2.34375zm0 0"/><path d="m332.6875 23.699219c-2.046875 0-4.09375-.785157-5.65625-2.34375-3.128906-3.128907-3.128906-8.183594 0-11.3125l1.832031-1.832031c3.128907-3.128907 8.183594-3.128907 11.3125 0 3.128907 3.128906 3.128907 8.183593 0 11.3125l-1.832031 1.832031c-1.558594 1.566406-3.609375 2.34375-5.65625 2.34375zm0 0"/><path d="m140.351562 216.027344c-2.046874 0-4.09375-.785156-5.65625-2.34375-3.128906-3.128906-3.128906-8.183594 0-11.3125 34.320313-34.320313 90.152344-34.304688 124.457032 0 3.128906 3.128906 3.128906 8.183594 0 11.3125-3.128906 3.125-8.183594 3.125-11.3125 0-28.0625-28.066406-73.75-28.082032-101.832032 0-1.558593 1.566406-3.609374 2.34375-5.65625 2.34375zm0 0"/><path d="m138.519531 217.859375c-2.046875 0-4.09375-.785156-5.65625-2.34375-3.128906-3.128906-3.128906-8.183594 0-11.3125l1.832031-1.832031c3.128907-3.128906 8.183594-3.128906 11.3125 0 3.128907 3.128906 3.128907 8.183594 0 11.3125l-1.832031 1.832031c-1.558593 1.558594-3.609375 2.34375-5.65625 2.34375zm0 0"/><path d="m343.71875 387.296875c-14.429688 0-28.949219-1.847656-43.207031-5.664063-4.265625-1.132812-6.808594-5.519531-5.664063-9.789062 1.144532-4.273438 5.578125-6.808594 9.792969-5.664062 52.335937 13.976562 108.605469-1.121094 146.847656-39.359376 38.238281-38.242187 53.328125-94.515624 39.359375-146.84375-1.144531-4.261718 1.390625-8.644531 5.664063-9.789062 4.222656-1.136719 8.648437 1.390625 9.792969 5.664062 15.4375 57.832032-1.226563 120.015626-43.503907 162.277344-31.847656 31.847656-75 49.167969-119.082031 49.167969zm0 0"/><path d="m343.769531 363.324219c-7.402343 0-14.832031-.570313-22.25-1.738281-4.367187-.6875-7.34375-4.785157-6.664062-9.152344.6875-4.367188 4.785156-7.3125 9.152343-6.664063 40.328126 6.378907 81.679688-7.085937 110.511719-35.917969 28.824219-28.832031 42.257813-70.136718 35.921875-110.472656-.679687-4.367187 2.300782-8.464844 6.664063-9.152344 4.503906-.625 8.460937 2.304688 9.152343 6.664063 7.117188 45.375-7.992187 91.832031-40.425781 124.265625-27.144531 27.148438-64.121093 42.167969-102.0625 42.167969zm0 0"/><path d="m440.167969 211.136719c-22.535157 0-45.070313-8.574219-62.222657-25.734375-3.128906-3.128906-3.128906-8.183594 0-11.3125 3.125-3.128906 8.183594-3.128906 11.3125 0 28.09375 28.089844 73.757813 28.074218 101.820313 0 3.128906-3.128906 8.1875-3.128906 11.3125 0 3.128906 3.128906 3.128906 8.183594 0 11.3125-17.160156 17.160156-39.6875 25.734375-62.222656 25.734375zm0 0"/><path d="m496.734375 187.746094c-2.054687 0-4.109375-.792969-5.671875-2.351563-3.117188-3.136719-3.101562-8.199219.027344-11.320312l1.832031-1.832031c3.132813-3.128907 8.199219-3.09375 11.316406.023437 3.121094 3.136719 3.105469 8.199219-.023437 11.320313l-1.832032 1.832031c-1.558593 1.550781-3.605468 2.328125-5.648437 2.328125zm0 0"/><path d="m304.40625 380.082031c-2.046875 0-4.09375-.785156-5.652344-2.34375-3.128906-3.128906-3.128906-8.183593 0-11.3125 28.070313-28.078125 28.070313-73.75 0-101.832031-3.128906-3.128906-3.128906-8.183594 0-11.3125 3.125-3.125 8.183594-3.125 11.308594 0 34.3125 34.3125 34.3125 90.144531 0 124.457031-1.558594 1.558594-3.605469 2.34375-5.65625 2.34375zm0 0"/><path d="m302.574219 381.914062c-2.046875 0-4.09375-.785156-5.652344-2.34375-3.128906-3.128906-3.128906-8.183593 0-11.3125l1.832031-1.832031c3.125-3.128906 8.183594-3.128906 11.308594 0 3.128906 3.128907 3.128906 8.183594 0 11.3125l-1.832031 1.832031c-1.558594 1.558594-3.605469 2.34375-5.65625 2.34375zm0 0"/><path d="m383.601562 187.746094c-2.050781 0-4.097656-.785156-5.65625-2.34375l-50.914062-50.910156c-3.128906-3.128907-3.128906-8.1875 0-11.3125 3.128906-3.128907 8.183594-3.128907 11.3125 0l50.914062 50.910156c3.125 3.128906 3.125 8.183594 0 11.3125-1.5625 1.558594-3.609374 2.34375-5.65625 2.34375zm0 0"/><path d="m304.40625 266.9375c-2.046875 0-4.09375-.78125-5.652344-2.34375l-50.914062-50.910156c-3.128906-3.128906-3.128906-8.183594 0-11.3125s8.183594-3.128906 11.3125 0l50.910156 50.910156c3.128906 3.128906 3.128906 8.183594 0 11.3125-1.558594 1.570312-3.605469 2.34375-5.65625 2.34375zm0 0"/><path d="m222.863281 269.28125c-2.046875 0-4.09375-.78125-5.65625-2.34375-3.128906-3.128906-3.128906-8.183594 0-11.3125l143.769531-143.765625c3.128907-3.128906 8.183594-3.128906 11.3125 0 3.125 3.128906 3.125 8.183594 0 11.3125l-143.769531 143.765625c-1.558593 1.570312-3.609375 2.34375-5.65625 2.34375zm0 0"/><path d="m251.152344 297.570312c-2.046875 0-4.097656-.785156-5.65625-2.34375-3.128906-3.128906-3.128906-8.183593 0-11.3125l143.769531-143.765624c3.125-3.128907 8.183594-3.128907 11.308594 0 3.128906 3.125 3.128906 8.183593 0 11.308593l-143.765625 143.769531c-1.570313 1.558594-3.617188 2.34375-5.65625 2.34375zm0 0"/><path d="m13.855469 478.289062c-2.046875 0-4.09375-.78125-5.65625-2.34375-3.128907-3.125-3.128907-8.183593 0-11.3125l186.386719-186.382812c3.125-3.128906 8.183593-3.128906 11.308593 0 3.128907 3.128906 3.128907 8.183594 0 11.3125l-186.382812 186.382812c-1.558594 1.570313-3.609375 2.34375-5.65625 2.34375zm0 0"/><path d="m42.144531 506.578125c-2.046875 0-4.097656-.785156-5.65625-2.34375-3.128906-3.128906-3.128906-8.183594 0-11.3125l186.382813-186.382813c3.128906-3.128906 8.183594-3.128906 11.3125 0 3.128906 3.128907 3.128906 8.183594 0 11.3125l-186.382813 186.382813c-1.570312 1.558594-3.617187 2.34375-5.65625 2.34375zm0 0"/><path d="m394.902344 153.800781c-1.148438 0-2.308594-.238281-3.414063-.773437-3.992187-1.890625-5.703125-6.65625-3.808593-10.648438l25.457031-53.738281c1.886719-3.988281 6.671875-5.71875 10.648437-3.804687 3.992188 1.886718 5.703125 6.65625 3.808594 10.648437l-25.457031 53.734375c-1.359375 2.894531-4.234375 4.582031-7.234375 4.582031zm0 0"/><path d="m366.640625 125.523438c-3 0-5.863281-1.6875-7.234375-4.578126-1.894531-3.992187-.183594-8.757812 3.808594-10.648437l53.738281-25.453125c3.976563-1.890625 8.757813-.183594 10.648437 3.808594 1.894532 3.988281.183594 8.757812-3.808593 10.644531l-53.738281 25.457031c-1.101563.511719-2.261719.769532-3.414063.769532zm0 0"/><path d="m394.910156 153.800781c-2.046875 0-4.09375-.78125-5.652344-2.34375l-28.28125-28.277343c-3.128906-3.128907-3.128906-8.183594 0-11.3125 3.128907-3.128907 8.183594-3.128907 11.3125 0l28.277344 28.28125c3.128906 3.125 3.128906 8.183593 0 11.308593-1.558594 1.5625-3.605468 2.34375-5.65625 2.34375zm0 0"/><path d="m28 512.417969c-7.167969 0-14.335938-2.726563-19.800781-8.183594-5.289063-5.289063-8.199219-12.3125-8.199219-19.800781 0-7.480469 2.910156-14.503906 8.199219-19.800782 3.128906-3.125 8.183593-3.125 11.3125 0 3.128906 3.128907 3.128906 8.1875 0 11.3125-2.265625 2.273438-3.511719 5.289063-3.511719 8.488282 0 3.199218 1.246094 6.21875 3.511719 8.488281 4.671875 4.671875 12.296875 4.671875 16.96875 0 3.128906-3.128906 8.183593-3.128906 11.3125 0 3.128906 3.128906 3.128906 8.183594 0 11.3125-5.457031 5.457031-12.625 8.183594-19.792969 8.183594zm0 0"/><path d="m321.382812 170.777344c-.375 0-.757812-.023438-1.144531-.078125l-39.597656-5.664063c-4.375-.625-7.417969-4.679687-6.792969-9.058594.632813-4.375 4.703125-7.414062 9.054688-6.789062l39.601562 5.664062c4.375.621094 7.417969 4.679688 6.792969 9.054688-.570313 4-3.992187 6.871094-7.914063 6.871094zm0 0"/><path d="m287.425781 204.714844c-3.921875 0-7.347656-2.871094-7.914062-6.863282l-5.65625-39.601562c-.625-4.375 2.417969-8.429688 6.792969-9.054688 4.375-.65625 8.429687 2.414063 9.054687 6.792969l5.65625 39.597657c.625 4.375-2.414063 8.433593-6.792969 9.054687-.390625.050781-.765625.074219-1.140625.074219zm0 0"/><path d="m355.328125 238.660156c-.375 0-.761719-.027344-1.144531-.082031l-39.597656-5.65625c-4.378907-.625-7.417969-4.679687-6.792969-9.054687.621093-4.375 4.6875-7.410157 9.054687-6.792969l39.601563 5.65625c4.375.625 7.414062 4.679687 6.789062 9.054687-.566406 4-3.992187 6.875-7.910156 6.875zm0 0"/><path d="m355.3125 238.660156c-3.921875 0-7.34375-2.875-7.914062-6.867187l-5.664063-39.597657c-.621094-4.375 2.417969-8.433593 6.792969-9.058593 4.34375-.628907 8.425781 2.417969 9.058594 6.792969l5.660156 39.601562c.625 4.375-2.414063 8.429688-6.789063 9.054688-.386719.046874-.769531.074218-1.144531.074218zm0 0"/><path d="m197.894531 362.136719c-2.046875 0-4.09375-.78125-5.65625-2.34375l-39.597656-39.597657c-3.128906-3.128906-3.128906-8.183593 0-11.3125 3.128906-3.128906 8.183594-3.128906 11.3125 0l39.597656 39.601563c3.128907 3.125 3.128907 8.183594 0 11.308594-1.558593 1.5625-3.605469 2.34375-5.65625 2.34375zm0 0"/><path d="m61.9375 498.089844c-2.050781 0-4.097656-.785156-5.65625-2.34375l-39.59375-39.589844c-3.128906-3.128906-3.128906-8.1875 0-11.3125 3.128906-3.128906 8.183594-3.128906 11.3125 0l39.59375 39.589844c3.125 3.128906 3.125 8.183594 0 11.3125-1.5625 1.558594-3.609375 2.34375-5.65625 2.34375zm0 0"/><path d="m200.238281 291.914062c-2.046875 0-4.09375-.785156-5.652343-2.34375-9.363282-9.359374-9.363282-24.574218 0-33.9375 9.046874-9.054687 24.863281-9.070312 33.933593 0 3.128907 3.128907 3.128907 8.1875 0 11.3125-3.128906 3.128907-8.183593 3.128907-11.3125 0-3.039062-3.015624-8.296875-3.03125-11.304687 0-3.125 3.121094-3.125 8.191407-.007813 11.3125 3.128907 3.128907 3.128907 8.183594 0 11.3125-1.558593 1.558594-3.605469 2.34375-5.65625 2.34375zm0 0"/><path d="m239.832031 324.867188c-6.144531 0-12.289062-2.335938-16.96875-7.015626-3.128906-3.128906-3.128906-8.183593 0-11.3125 3.128907-3.128906 8.183594-3.128906 11.3125 0 3.128907 3.128907 8.183594 3.128907 11.3125 0 1.511719-1.511718 2.34375-3.511718 2.34375-5.65625 0-2.136718-.832031-4.144531-2.34375-5.65625-3.128906-3.128906-3.128906-8.183593 0-11.3125 3.128907-3.128906 8.183594-3.128906 11.3125 0 4.527344 4.527344 7.03125 10.558594 7.03125 16.96875 0 6.414063-2.503906 12.449219-7.03125 16.976563-4.671875 4.671875-10.816406 7.007813-16.96875 7.007813zm0 0"/><path d="m251.152344 297.570312c-2.046875 0-4.097656-.785156-5.65625-2.34375l-28.28125-28.28125c-3.125-3.125-3.125-8.183593 0-11.3125 3.128906-3.125 8.183594-3.125 11.3125 0l28.28125 28.28125c3.128906 3.128907 3.128906 8.183594 0 11.3125-1.570313 1.558594-3.617188 2.34375-5.65625 2.34375zm0 0"/><path d="m228.519531 320.195312c-2.046875 0-4.09375-.785156-5.65625-2.34375l-28.277343-28.28125c-3.128907-3.128906-3.128907-8.183593 0-11.3125 3.125-3.128906 8.183593-3.128906 11.308593 0l28.28125 28.28125c3.128907 3.128907 3.128907 8.183594 0 11.3125-1.558593 1.558594-3.609375 2.34375-5.65625 2.34375zm0 0"/><path d="m188.28125 360.433594h-56.5625c-4.421875 0-8-3.574219-8-8 0-4.421875 3.578125-8 8-8h56.5625c4.421875 0 8 3.578125 8 8 0 4.425781-3.578125 8-8 8zm0 0"/><path d="m156.28125 392.433594h-56.5625c-4.421875 0-8-3.574219-8-8 0-4.421875 3.578125-8 8-8h56.5625c4.421875 0 8 3.578125 8 8 0 4.425781-3.578125 8-8 8zm0 0"/><path d="m124.28125 424.433594h-56.5625c-4.421875 0-8-3.574219-8-8 0-4.421875 3.578125-8 8-8h56.5625c4.421875 0 8 3.578125 8 8 0 4.425781-3.578125 8-8 8zm0 0"/><path d="m92.28125 456.433594h-56.5625c-4.421875 0-8-3.574219-8-8 0-4.421875 3.578125-8 8-8h56.5625c4.421875 0 8 3.578125 8 8 0 4.425781-3.578125 8-8 8zm0 0"/></svg>