<svg id="Capa_1" enable-background="new 0 0 512 512" height="512" viewBox="0 0 512 512" width="512" xmlns="http://www.w3.org/2000/svg"><g><circle cx="118" cy="76" r="10"/><circle cx="394" cy="76" r="10"/><path d="m226 66.001h-63c-5.522 0-10 4.478-10 10s4.478 10 10 10h52.132l-3.33 40h-187.604l-3.33-40h52.132c5.522 0 10-4.478 10-10s-4.478-10-10-10h-63c-2.797 0-5.465 1.171-7.358 3.229-1.894 2.059-2.839 4.815-2.607 7.602.353 4.23 28.897 346.763 30 360 .433 5.184 4.765 9.17 9.966 9.17h156c5.201 0 9.533-3.986 9.966-9.17.009-.114 29.164-349.973 30-360 .231-2.786-.714-5.543-2.607-7.602-1.895-2.058-4.563-3.229-7.36-3.229zm-197.814 107.751 71.314 46.141-64.025 41.349zm14.863 178.398 74.877-48.257 75.025 48.263-1.153 13.844h-147.595zm151.783-22.565-58.439-37.594 65.065-41.933zm8.72-104.67-162.385 104.655-3.81-45.735c.449-.29 169.951-109.773 170.459-110.101zm6.585-78.914-.213 2.562-91.999 59.43-91.847-59.427-.214-2.566h184.273zm-160.936 280-3.333-40h144.263l-3.333 40z"/><path d="m502 66.001h-63c-5.522 0-10 4.478-10 10s4.478 10 10 10h52.132l-3.33 40h-187.604l-3.33-40h52.132c5.522 0 10-4.478 10-10s-4.478-10-10-10h-63c-2.797 0-5.465 1.171-7.358 3.229-1.894 2.059-2.839 4.815-2.607 7.602 3.568 42.81 26.415 316.984 30 360 .433 5.184 4.765 9.17 9.966 9.17h156c5.201 0 9.533-3.986 9.966-9.17.009-.114 29.164-349.973 30-360 .231-2.786-.714-5.543-2.607-7.602-1.895-2.058-4.563-3.229-7.36-3.229zm-197.814 107.751 71.314 46.141-64.025 41.349zm14.863 178.398 74.877-48.257 75.025 48.263-1.153 13.844h-147.595zm151.783-22.565-58.439-37.594 65.065-41.933zm8.72-104.67-162.385 104.655-3.81-45.735c24.449-15.792 146.209-94.417 170.459-110.101zm6.585-78.914-.213 2.562-91.999 59.43-91.847-59.427-.214-2.566h184.273zm-160.936 280-3.333-40h144.263l-3.333 40z"/></g></svg>