<svg id="Capa_1" enable-background="new 0 0 354.06 354.06" height="512" viewBox="0 0 354.06 354.06" width="512" xmlns="http://www.w3.org/2000/svg"><path d="m343.984 47.928c6.892-6.904 6.892-18.128 0-25.032l-10.232-10.232c-3.93-3.93-9.335-5.742-14.864-5.033-5.517.738-10.262 3.936-13.023 8.763l-1.286 2.248c-10.651-7.305-22.258-12.793-34.727-16.115l-8.692-2.319c-1.776-.49-3.664-.1-5.116 1.021s-2.301 2.844-2.301 4.679v25.858l-2.939-1.469-16.906-11.271-17.29-17.29c-1.251-1.251-2.974-1.865-4.756-1.699-1.758.171-3.346 1.127-4.325 2.596l-10.05 15.077h-40.893l-10.05-15.077c-.98-1.469-2.573-2.425-4.325-2.596-1.776-.153-3.505.448-4.756 1.699l-17.29 17.29-16.906 11.271-2.939 1.469v-25.858c0-1.835-.856-3.564-2.307-4.679-1.458-1.115-3.334-1.505-5.116-1.021l-8.686 2.319c-12.469 3.322-24.076 8.81-34.727 16.121l-1.286-2.248c-2.756-4.833-7.506-8.031-13.023-8.769-5.511-.714-10.934 1.103-14.864 5.033l-10.233 10.233c-6.892 6.904-6.892 18.128 0 25.032l6.066 6.066c-10.527 17.602-16.138 37.576-16.138 58.129 0 2.673 1.8 5.016 4.378 5.7l60.413 16.109.118 53.391c0 6.426 2.986 12.262 8.196 16.021 3.458 2.496 7.494 3.653 11.595 3.629 1.145 12.976 3.906 27.681 6.485 40.987 2.272 11.737 4.426 22.825 4.762 29.664.348 7.105-2.856 13.92-4.833 17.419h-2.602c-3.257 0-5.901 2.638-5.901 5.901v47.207c0 3.263 2.644 5.901 5.901 5.901h41.306c1.564 0 3.068-.62 4.172-1.729l4.172-4.166h77.726l4.172 4.172c1.103 1.109 2.608 1.729 4.172 1.729h41.306c3.257 0 5.901-2.638 5.901-5.901v-47.207c0-3.263-2.644-5.901-5.901-5.901h-2.526c-2.284-4.213-5.382-11.371-5.104-17.443.313-6.839 2.437-17.738 4.685-29.268 2.585-13.253 5.352-27.929 6.509-41.271.118 0 .23.03.348.03 4.066 0 8.055-1.28 11.489-3.753 5.216-3.759 8.202-9.595 8.202-16.074l-.466-53.185 60.997-16.269c2.579-.679 4.378-3.021 4.378-5.694 0-20.553-5.612-40.521-16.139-58.124zm-23.533-28.601c1.835-.248 3.641.372 4.957 1.676l10.232 10.232c2.301 2.301 2.301 6.043 0 8.344l-50.122 50.122c-1.434-1.894-3.228-3.47-5.293-4.662l35.883-62.785c.92-1.611 2.502-2.679 4.343-2.927zm-49.007 75.094c3.251 0 5.901 2.644 5.901 5.901s-2.65 5.901-5.901 5.901-5.901-2.644-5.901-5.901 2.65-5.901 5.901-5.901zm-4.632-80.499c11.471 3.063 22.134 8.173 31.888 15l-30.903 54.082c-.779.165-1.517.443-2.254.702v-70.115zm-139.615 14.598c.325-.212.626-.46.897-.738l12.616-12.616 7.807 11.713c1.098 1.646 2.939 2.632 4.91 2.632h47.207c1.971 0 3.812-.985 4.91-2.626l7.807-11.713 12.616 12.616c.271.277.578.525.897.738l10.987 7.323-21.585 17.266h-78.47l-21.586-17.272zm-44.581 65.901c3.251 0 5.901 2.644 5.901 5.901s-2.649 5.901-5.901 5.901-5.901-2.644-5.901-5.901 2.65-5.901 5.901-5.901zm4.632-80.499 1.269-.33v70.12c-.738-.266-1.475-.537-2.254-.702l-30.903-54.082c9.748-6.834 20.417-11.944 31.888-15.006zm-68.828 17.319 10.232-10.232c1.31-1.31 3.092-1.918 4.957-1.676 1.841.248 3.423 1.316 4.343 2.921l35.883 62.791c-2.065 1.192-3.859 2.768-5.293 4.662l-50.116-50.123c-2.301-2.301-2.301-6.042-.006-8.343zm6.314 31.345 40.456 40.456c1.316 8.462 8.592 14.982 17.425 14.982 2.077 0 4.048-.425 5.901-1.086v11.111l-76.611-20.435c.697-15.836 5.093-31.196 12.829-45.028zm51.981 124.727-.112-50.234 16.292 4.343c.502.142 1.015.207 1.522.207 1.286 0 2.555-.419 3.594-1.221 1.452-1.115 2.307-2.844 2.307-4.679v-62.096l47.207 18.883v56.92l-55.303 22.116 4.384 10.958 59.009-23.604c2.242-.897 3.712-3.063 3.712-5.476v-64.91c0-2.413-1.469-4.579-3.706-5.482l-55.303-22.116v-15.962l5.163-2.579 26.56 21.249c1.044.832 2.343 1.286 3.682 1.286h35.405v101.967l-83.958 27.982c-2.455.838-5.063.413-7.158-1.092-2.093-1.515-3.297-3.858-3.297-6.46zm50.665 154.945h-32.962v-35.405h32.962l11.802 11.802h-15.26v11.802h15.26zm22.589-5.901 7.63-7.63c2.307-2.307 2.307-6.037 0-8.344l-7.63-7.63h54.123l-7.63 7.63c-2.307 2.307-2.307 6.037 0 8.344l7.63 7.63zm109.673 5.901h-32.962l-11.802-11.802h15.26v-11.802h-15.26l11.802-11.802h32.962zm-35.405-47.207c-1.564 0-3.068.62-4.172 1.729l-4.172 4.172h-77.726l-4.172-4.172c-1.103-1.109-2.608-1.729-4.172-1.729h-25.616c2.042-4.892 3.871-11.223 3.535-18.01-.378-7.677-2.502-18.635-4.963-31.322-2.626-13.584-5.559-28.761-6.538-41.442l80.789-26.926 80.476 26.831c-.974 13.159-3.841 28.295-6.491 41.896-2.437 12.492-4.538 23.273-4.892 30.986-.295 6.432 1.688 12.941 3.818 17.986h-25.704zm53.108-107.726c0 2.585-1.204 4.933-3.299 6.45-2.089 1.517-4.703 1.912-7.158 1.098l-83.958-27.988v-101.968h35.405c1.34 0 2.638-.454 3.688-1.292l26.56-21.249 5.157 2.585v15.956l-55.303 22.122c-2.236.903-3.706 3.068-3.706 5.482v64.91c0 2.413 1.469 4.579 3.706 5.482l59.009 23.604 4.384-10.958-55.297-22.122v-56.92l47.207-18.883v62.095c0 1.835.856 3.564 2.307 4.679 1.039.803 2.307 1.221 3.594 1.221.507 0 1.021-.065 1.522-.201l15.744-4.196zm64.809-79.709-76.611 20.429v-11.111c1.853.667 3.824 1.092 5.901 1.092 8.834 0 16.109-6.52 17.425-14.982l40.456-40.451c7.743 13.825 12.133 29.185 12.829 45.023z"/><path d="m210.158 220.901 36.249 9.064 2.862-11.442-36.243-9.07c-23.545-5.889-48.44-5.889-71.985 0l-36.249 9.064 2.862 11.442 36.249-9.064c21.668-5.411 44.587-5.399 66.255.006z"/><path d="m141.035 238.957-30.348 7.589 2.862 11.442 30.348-7.589c21.668-5.411 44.587-5.411 66.261 0l30.348 7.589 2.862-11.442-30.342-7.589c-23.551-5.889-48.441-5.889-71.991 0z"/></svg>