<svg height="496pt" viewBox="0 0 496 496" width="496pt" xmlns="http://www.w3.org/2000/svg"><path d="m248 144h16v16h-16zm0 0"/><path d="m296 144h16v16h-16zm0 0"/><path d="m248 240h16v16h-16zm0 0"/><path d="m296 240h16v16h-16zm0 0"/><path d="m496 272v-16h-8.640625c-.640625-4.441406-1.773437-8.71875-3.398437-12.769531l7.453124-4.308594-8-13.851563-7.476562 4.320313c-2.738281-3.460937-5.867188-6.597656-9.335938-9.335937l4.320313-7.488282-13.859375-8-4.308594 7.464844c-4.035156-1.617188-8.3125-2.75-12.753906-3.390625v-8.640625h-16v8.640625c-4.441406.640625-8.71875 1.773437-12.761719 3.398437l-4.308593-7.464843-13.859376 8 4.320313 7.488281c-3.460937 2.738281-6.597656 5.867188-9.335937 9.335938l-7.480469-4.320313-8 13.851563 7.457031 4.308593c-1.617188 4.042969-2.75 8.320313-3.390625 12.761719h-8.640625v16h8.640625c.816406 5.648438 2.464844 11.023438 4.839844 16h-20.617188c-.550781-8.480469-.863281-16.976562-.863281-25.480469v-166.519531h8c13.230469 0 24-10.769531 24-24v-72h-256v72c0 13.230469 10.769531 24 24 24h8v194.390625c0 16.378906-7.335938 31.632813-20.128906 41.867187-9.457032 7.574219-21.351563 11.742188-33.480469 11.742188h-44.78125c-38.386719 0-69.609375 31.222656-69.609375 69.609375v66.390625c0 8.824219 7.175781 16 16 16h196.6875c4.207031 0 8.335938-1.710938 11.3125-4.6875l27.3125-27.3125 16.191406.007812 4.976563 19.863282c1.785156 7.144531 8.167969 12.128906 15.519531 12.128906h80c8.824219 0 16-7.175781 16-16v-22.519531c0-33.480469-4.121094-66.921875-12.238281-99.417969-4.441407-17.773438-7.488281-35.855469-9.417969-54.0625h30.542969c8.296875 8.113281 19.097656 13.632812 31.113281 15.359375v8.640625h16v-8.640625c4.441406-.640625 8.71875-1.773437 12.761719-3.398437l4.300781 7.453124 13.859375-8-4.320313-7.484374c3.460938-2.738282 6.589844-5.867188 9.328126-9.328126l7.484374 4.320313 8-13.859375-7.453124-4.300781c1.625-4.042969 2.757812-8.320313 3.398437-12.761719zm-151.710938 0h-108.976562l-19.746094-19.742188c.25-1.386718.433594-2.800781.433594-4.257812s-.183594-2.871094-.433594-4.257812l19.746094-19.742188h108.6875v38.519531c0 3.167969.214844 6.320313.289062 9.480469zm-.289062-64h-115.3125l-21.535156 21.535156c-4.152344-3.40625-9.375-5.535156-15.152344-5.535156-2.816406 0-5.488281.574219-8 1.472656v-50.953125c2.511719.90625 5.183594 1.480469 8 1.480469 5.777344 0 11-2.128906 15.152344-5.535156l21.535156 21.535156h115.3125zm-144 40c0 4.40625-3.585938 8-8 8s-8-3.59375-8-8 3.585938-8 8-8 8 3.59375 8 8zm-16-96c0-4.40625 3.585938-8 8-8s8 3.59375 8 8-3.585938 8-8 8-8-3.59375-8-8zm160 24h-108.6875l-19.746094-19.742188c.25-1.386718.433594-2.800781.433594-4.257812s-.183594-2.871094-.433594-4.257812l19.746094-19.742188h108.6875zm-192-104v-56h224v56c0 4.40625-3.585938 8-8 8h-36.6875l-27.3125-27.3125-27.3125 27.3125h-116.6875c-4.414062 0-8-3.59375-8-8zm131.3125 24 20.6875-20.6875 20.6875 20.6875h19.3125v16h-115.3125l-21.535156 21.535156c-4.152344-3.40625-9.375-5.535156-15.152344-5.535156-2.816406 0-5.488281.574219-8 1.472656v-33.472656zm-213.703125 264h44.78125c15.753906 0 31.195313-5.414062 43.488281-15.246094 16.601563-13.289062 26.121094-33.105468 26.121094-54.363281v-19.863281c2.511719.898437 5.183594 1.472656 8 1.472656 5.777344 0 11-2.128906 15.152344-5.535156l21.535156 21.535156h116.121094c1.34375 21.535156 4.558594 42.929688 9.269531 64h-90.476563c-27.671874 0-53.691406 10.777344-73.257812 30.34375-16.542969 16.542969-38.542969 25.65625-61.945312 25.65625h-40.398438v16h40.398438c27.671874 0 53.691406-10.777344 73.257812-30.34375 16.542969-16.542969 38.542969-25.65625 61.945312-25.65625h93.957032c2.464844 10.585938 4.457031 21.257812 6.042968 32h-103.722656c-14.957031 0-29.023437 5.832031-39.597656 16.40625l-23.59375 23.59375h-180.6875v-16h56v-16h-55.703125c2.816406-26.9375 25.648437-48 53.3125-48zm298.390625 120h-16v-24h-16v24h-16v-24h-16v23.992188h-16l-4.976562-19.863282c-1.785157-7.144531-8.167969-12.128906-15.519532-12.128906h-16.191406c-4.207031 0-8.335938 1.710938-11.3125 4.6875l-27.3125 27.3125h-196.6875v-24h187.3125l28.28125-28.28125c7.550781-7.550781 17.597656-11.71875 28.285156-11.71875h105.777344c1.464844 13.777344 2.34375 27.617188 2.34375 41.480469zm56-216c0-4.414062 3.585938-8 8-8s8 3.585938 8 8-3.585938 8-8 8-8-3.585938-8-8zm-2.28125 21.59375c3.128906 1.503906 6.585938 2.40625 10.28125 2.40625 13.230469 0 24-10.769531 24-24s-10.769531-24-24-24-24 10.769531-24 24c0 3.695312.902344 7.152344 2.40625 10.28125l-11.742188 11.742188c-4.191406-6.328126-6.664062-13.886719-6.664062-22.023438 0-22.054688 17.945312-40 40-40s40 17.945312 40 40-17.945312 40-40 40c-8.136719 0-15.695312-2.472656-22.023438-6.664062zm0 0"/></svg>