<svg id="Capa_1" enable-background="new 0 0 512 512" height="512" viewBox="0 0 512 512" width="512" xmlns="http://www.w3.org/2000/svg"><path id="XMLID_1515_" d="m425.278 69.419c1.01-1.562 1.604-3.42 1.604-5.419v-54c0-5.522-4.478-10-10-10h-321.764c-5.522 0-10 4.478-10 10v54c0 1.999.593 3.857 1.604 5.419-8.188 12.48-12.722 27.249-12.722 42.297v390.284c0 5.522 4.478 10 10 10h151.765c5.522 0 10-4.478 10-10v-240.418c0-14.428 3.575-28.738 10.235-41.48 6.66 12.742 10.235 27.053 10.235 41.48v240.418c0 5.522 4.478 10 10 10h151.765c5.522 0 10-4.478 10-10v-390.284c0-15.048-4.534-29.817-12.722-42.297zm-7.278 270.404-27.109 24.399c-17.181 15.462-31.128 33.862-41.362 54.093v-.086c0-79.326 24.155-157.402 68.472-222.882v144.476zm-255.528 78.492c-10.234-20.231-24.182-38.631-41.362-54.093l-27.11-24.399v-144.476c44.316 65.48 68.472 143.556 68.472 222.882zm-68.472-51.586 13.73 12.358c32.302 29.072 51.801 69.776 54.426 112.913h-68.156zm169.963-171.279c-1.892-2.488-4.837-3.95-7.963-3.95s-6.071 1.462-7.963 3.95c-14.362 18.905-22.272 42.391-22.272 66.132v230.418h-43.293v-73.771c0-92.72-31.41-183.815-88.472-256.858v-49.656c0-13.845 5.184-27.372 14.315-37.715h102.917c5.522 0 10-4.478 10-10s-4.478-10-10-10h-106.114v-34h301.764v34h-105.654c-5.522 0-10 4.478-10 10s4.478 10 10 10h102.457c9.131 10.343 14.315 23.87 14.315 37.716v49.656c-57.062 73.042-88.472 164.138-88.472 256.858v73.77h-43.293v-230.418c0-23.741-7.91-47.227-22.272-66.132zm85.881 296.55c2.624-43.137 22.123-83.841 54.426-112.913l13.73-12.358v125.271z"/><path id="XMLID_1542_" d="m256.24 54.24c-2.631 0-5.21 1.06-7.07 2.93-1.87 1.85-2.93 4.43-2.93 7.07 0 2.63 1.06 5.199 2.93 7.069 1.86 1.86 4.439 2.931 7.07 2.931 2.63 0 5.199-1.07 7.069-2.931 1.86-1.87 2.931-4.439 2.931-7.069 0-2.641-1.07-5.221-2.931-7.07-1.87-1.87-4.439-2.93-7.069-2.93z"/></svg>