<svg id="Layer_3" enable-background="new 0 0 64 64" height="512" viewBox="0 0 64 64" width="512" xmlns="http://www.w3.org/2000/svg"><path d="m51.363 50.092.008-.02c-.003-.001-.006-.003-.009-.005l-2.362-44.093v-3.974c0-.552-.448-1-1-1h-32c-.552 0-1 .448-1 1v3.974l-2.362 44.093c-.003.001-.006.003-.009.005l.008.02-.635 11.855c-.015.274.084.542.273.741.188.199.451.312.725.312h8c.463 0 .865-.317.973-.768l10.027-41.932 10.027 41.933c.108.45.51.767.973.767h8c.274 0 .537-.113.726-.312s.288-.467.273-.741zm-6.363-15.707-1.592-3.502c-.934-2.056-1.408-4.244-1.408-6.504v-.777c0-4.518 1.963-8.807 5.311-11.77l1.978 36.923c-1.427-1.291-2.289-3.129-2.289-5.14 0-3.206-.673-6.311-2-9.23zm-28-31.385h30v2h-30zm-.311 8.832c3.348 2.964 5.311 7.252 5.311 11.771v.777c0 2.259-.474 4.447-1.409 6.503l-1.591 3.502c-1.327 2.919-2 6.024-2 9.23 0 2.011-.862 3.849-2.289 5.14zm3.522 49.168h-6.156l.517-9.659c2.726-1.589 4.428-4.495 4.428-7.726 0-1.357.138-2.693.401-4.003l.768 1.28c.544.907.831 1.944.831 3v.28c0 1.941.709 3.768 1.991 5.202zm11.789-46c-.463 0-.865.317-.973.768l-7.413 31.002c-.398-.798-.614-1.681-.614-2.598v-.28c0-1.418-.386-2.812-1.116-4.028l-1.752-2.92c.204-.584.429-1.162.688-1.73l1.592-3.502c1.054-2.319 1.588-4.786 1.588-7.333v-.777c0-5.608-2.681-10.903-7.179-14.234l.127-2.368h30.104l.127 2.369c-4.498 3.331-7.179 8.625-7.179 14.234v.777c0 2.547.534 5.013 1.588 7.331l1.592 3.503c.258.569.484 1.147.688 1.73l-1.752 2.92c-.73 1.216-1.116 2.61-1.116 4.028v.28c0 .917-.216 1.8-.614 2.597l-7.413-31.002c-.108-.45-.51-.767-.973-.767zm11.789 46-2.78-11.626c1.282-1.434 1.991-3.261 1.991-5.202v-.28c0-1.056.287-2.093.831-2.999l.768-1.28c.263 1.309.401 2.645.401 4.002 0 3.231 1.702 6.137 4.427 7.725l.518 9.66z"/></svg>