<svg id="Capa_1" enable-background="new 0 0 512 512" height="512" viewBox="0 0 512 512" width="512" xmlns="http://www.w3.org/2000/svg"><g><path d="m435.332 87.397c-.012-1.369-.445-2.714-1.331-4.032-.048-.072-58.155-80.267-58.155-80.267-1.41-1.946-3.669-3.098-6.073-3.098h-227.613c-2.404 0-4.662 1.152-6.073 3.099 0 0-57.958 79.964-58.019 80.048-1.36 1.876-1.772 4.521-1.049 6.729.292.894.774 1.743 1.375 2.465.067.08 119.776 132.135 119.776 132.135h-70.446c-12.667 0-22.972 10.305-22.972 22.972v24.577c0 12.667 10.305 22.972 22.972 22.972h6.115c-16.999 24.561-26.16 53.662-26.16 84.144 0 53.072 28.648 102.428 74.766 128.807 7.486 4.281 16.47 5.222 24.647 2.58 8.113-2.62 14.79-8.576 18.317-16.339 6.558-14.432 1.16-31.191-12.557-38.983-27.326-15.526-44.302-44.673-44.302-76.064 0-8.551 1.23-16.996 3.656-25.102 1.188-3.969-1.066-8.147-5.035-9.336-3.969-1.184-8.147 1.067-9.335 5.035-2.844 9.502-4.286 19.395-4.286 29.402 0 36.776 19.884 70.92 51.892 89.106 6.81 3.868 9.582 12.537 6.31 19.736-1.812 3.987-5.104 6.924-9.271 8.27-4.231 1.367-8.703.896-12.59-1.326-41.458-23.714-67.213-68.081-67.213-115.786 0-31.011 10.552-60.431 29.927-84.144h44.942c-8.337 5.802-15.875 12.886-22.325 21.14-2.551 3.264-1.973 7.977 1.291 10.527 3.265 2.553 7.978 1.974 10.528-1.291 11.666-14.926 27.47-25.411 45.177-30.376h46.053c36.739 10.357 63.809 44.238 63.809 84.144 0 31.392-16.976 60.538-44.301 76.063-13.718 7.792-19.116 24.552-12.559 38.984 3.527 7.763 10.204 13.719 18.317 16.339 3.054.986 6.22 1.473 9.378 1.473 5.3 0 10.579-1.371 15.27-4.053 46.117-26.379 74.766-75.734 74.766-128.807 0-30.482-9.166-59.582-26.165-84.144h7.422c12.667 0 22.973-10.305 22.973-22.972v-24.577c0-12.667-10.306-22.972-22.973-22.972h-70.447s119.69-132.03 119.747-132.097c1.188-1.406 1.839-3.13 1.824-4.981zm-80.546-72.397-43.185 59.582-41.324-59.582zm-57.649 65.048h-84.472l43.166-59.556zm4.319 15-37.889 129.428h-15.842l-39.62-129.428zm-60.17-80.048-43.185 59.582-41.323-59.582zm-99.113 5.262 41.465 59.786h-84.798zm-41.107 74.786h91.353l39.62 129.428h-13.621zm286.886 284.092c0 47.706-25.755 92.072-67.213 115.785-3.887 2.224-8.358 2.695-12.59 1.327-4.167-1.346-7.46-4.282-9.271-8.27-3.271-7.199-.499-15.868 6.312-19.737 32.008-18.186 51.892-52.329 51.892-89.105 0-27.232-10.572-52.867-29.769-72.181-4.431-4.458-9.21-8.445-14.263-11.963h44.98c19.374 23.712 29.922 53.133 29.922 84.144zm-3.743-139.664c4.396 0 7.973 3.576 7.973 7.972v24.577c0 4.396-3.576 7.972-7.973 7.972h-256.485c-4.396 0-7.972-3.576-7.972-7.972v-24.577c0-4.396 3.576-7.972 7.972-7.972zm-90.695-15h-14.317l37.89-129.428h93.78zm32.651-144.428 43.464-59.967 43.464 59.967z"/></g></svg>