<svg id="Capa_1" enable-background="new 0 0 512 512" height="512" viewBox="0 0 512 512" width="512" xmlns="http://www.w3.org/2000/svg"><path d="m316.778 131.574 14.018-84.108c1.083-6.495-2.198-12.938-8.088-15.882l-60-30c-4.223-2.111-9.193-2.111-13.416 0l-60 30c-5.89 2.945-9.171 9.387-8.088 15.882l14.018 84.108c-60.85 24.228-104.222 83.401-104.222 153.426v152c0 5.682 3.21 10.875 8.292 13.417l120 60c4.651 2.326 10.173 2.075 14.594-.657 4.423-2.733 7.114-7.561 7.114-12.76v-100c0-6.457-4.132-12.188-10.257-14.23l-49.743-16.581v-60.377l60 20v19.188c0 8.284 6.716 15 15 15s15-6.716 15-15v-19.188l60-20v60.377l-49.743 16.582c-6.125 2.041-10.257 7.773-10.257 14.229v100c0 5.199 2.691 10.027 7.114 12.76 4.431 2.738 9.953 2.977 14.594.657l120-60c5.082-2.542 8.292-7.735 8.292-13.417v-152c0-69.967-43.318-129.177-104.222-153.426zm51.689 78.426h-64.76l8.006-48.033c23.51 10.567 42.984 27.34 56.754 48.033zm-128.461 7.792-18.158-108.946 34.152-17.075 34.152 17.076-18.158 108.946-15.994 15.994zm15.994-186.021 43.383 21.691-4.071 24.424-32.604-16.302c-4.223-2.111-9.193-2.111-13.416 0l-32.604 16.302-4.071-24.424zm-55.712 130.196 8.005 48.033h-64.76c13.77-20.693 33.244-37.466 56.755-48.033zm190.712 265.762-90 45v-64.917l49.743-16.582c6.125-2.042 10.257-7.773 10.257-14.23v-92c0-4.822-2.317-9.349-6.229-12.168-3.911-2.819-8.939-3.586-13.514-2.062l-85.257 28.418-85.257-28.419c-4.571-1.523-9.602-.757-13.514 2.062s-6.229 7.347-6.229 12.169v92c0 6.457 4.132 12.188 10.257 14.23l49.743 16.582v64.917l-90-45v-142.729c0-15.709 2.673-30.862 7.616-45h91.171l25.606 25.606c2.929 2.93 6.768 4.394 10.607 4.394s7.678-1.464 10.606-4.394l25.607-25.606h91.171c4.943 14.138 7.616 29.292 7.616 45z"/></svg>