<?xml version="1.0" encoding="iso-8859-1"?>
<!-- Generator: Adobe Illustrator 19.0.0, SVG Export Plug-In . SVG Version: 6.00 Build 0)  -->
<svg version="1.1" id="Capa_1" xmlns="http://www.w3.org/2000/svg" xmlns:xlink="http://www.w3.org/1999/xlink" x="0px" y="0px"
	 viewBox="0 0 512 512" style="enable-background:new 0 0 512 512;" xml:space="preserve">
<g>
	<g>
		<path d="M274.213,163.078l95.037-88.339c0.078-0.073,0.148-0.151,0.223-0.227c0.053-0.054,0.107-0.106,0.159-0.161
			c0.21-0.225,0.407-0.459,0.586-0.703c0.022-0.031,0.042-0.064,0.064-0.095c0.169-0.239,0.322-0.485,0.461-0.738
			c0.016-0.029,0.037-0.054,0.052-0.084c0.009-0.017,0.015-0.036,0.024-0.053c0.146-0.278,0.274-0.563,0.383-0.855
			c0.019-0.051,0.035-0.103,0.053-0.154c0.092-0.261,0.17-0.527,0.233-0.796c0.011-0.046,0.025-0.092,0.035-0.138
			c0.063-0.294,0.106-0.591,0.134-0.89c0.006-0.068,0.01-0.135,0.015-0.203c0.019-0.282,0.026-0.565,0.013-0.848
			c-0.001-0.025,0-0.049-0.001-0.074c-0.016-0.305-0.055-0.609-0.108-0.912c-0.011-0.062-0.023-0.124-0.035-0.186
			c-0.12-0.601-0.313-1.191-0.581-1.76c-0.031-0.065-0.062-0.129-0.095-0.193c-0.141-0.278-0.293-0.552-0.47-0.816L329.129,3.402
			c-0.044-0.065-0.097-0.122-0.142-0.186c-0.116-0.162-0.234-0.32-0.361-0.471c-0.074-0.088-0.152-0.171-0.23-0.255
			c-0.143-0.155-0.288-0.307-0.442-0.45c-0.071-0.065-0.145-0.125-0.218-0.187c-0.172-0.147-0.346-0.29-0.529-0.421
			c-0.06-0.043-0.124-0.081-0.186-0.122c-0.205-0.137-0.412-0.269-0.628-0.385c-0.039-0.021-0.079-0.037-0.118-0.057
			C325.206,0.314,324.009,0,322.764,0H189.321c-0.34,0-0.677,0.023-1.01,0.067c-2.197,0.266-4.189,1.472-5.44,3.335l-41.264,61.451
			c-0.178,0.264-0.33,0.539-0.471,0.817c-0.032,0.064-0.064,0.127-0.094,0.192c-0.268,0.569-0.462,1.16-0.582,1.761
			c-0.012,0.061-0.024,0.122-0.035,0.184c-0.053,0.303-0.092,0.607-0.108,0.913c-0.001,0.024,0,0.049-0.001,0.074
			c-0.012,0.284-0.006,0.567,0.013,0.849c0.005,0.067,0.009,0.133,0.015,0.201c0.028,0.299,0.071,0.597,0.134,0.891
			c0.01,0.046,0.024,0.092,0.035,0.138c0.063,0.269,0.141,0.535,0.233,0.797c0.018,0.051,0.033,0.102,0.053,0.152
			c0.11,0.292,0.238,0.577,0.384,0.856c0.009,0.017,0.014,0.036,0.024,0.053c0.016,0.029,0.036,0.054,0.052,0.084
			c0.139,0.253,0.292,0.499,0.461,0.738c0.022,0.031,0.042,0.064,0.064,0.095c0.179,0.244,0.375,0.478,0.586,0.703
			c0.052,0.055,0.105,0.108,0.159,0.161c0.075,0.076,0.145,0.154,0.223,0.227l95.037,88.339
			c-76.533,9.04-136.096,74.304-136.096,153.228c0,85.086,69.222,154.308,154.308,154.308s154.308-69.222,154.308-154.308
			C410.309,237.382,350.746,172.118,274.213,163.078z M272.757,143.501l22.234-66.712h49.536L272.757,143.501z M256.02,145.247
			l-22.7-68.457h45.515L256.02,145.247z M323.458,22.453l26.194,39.008h-47.367L323.458,22.453z M309.878,15.339l-20.48,37.733
			l-20.48-37.733H309.878z M276.51,61.461h-40.935l20.468-37.709L276.51,61.461z M243.168,15.339l-20.48,37.734l-20.48-37.734
			H243.168z M188.589,22.383L209.8,61.461h-47.451L188.589,22.383z M167.473,76.79h49.697l22.142,66.776L167.473,76.79z
			 M256,455.284c-76.633,0-138.979-62.346-138.979-138.979S179.367,177.326,256,177.326s138.979,62.346,138.979,138.979
			S332.633,455.284,256,455.284z"/>
	</g>
</g>
<g>
	<g>
		<path d="M332.818,136.281c-3.894-1.663-8.397,0.147-10.059,4.038c-1.663,3.893,0.145,8.396,4.038,10.059
			c66.56,28.434,109.569,93.564,109.569,165.928c0,99.454-80.912,180.366-180.366,180.366S75.634,415.759,75.634,316.305
			c0-72.5,43.121-137.679,109.855-166.049c3.895-1.657,5.71-6.156,4.055-10.052c-1.658-3.897-6.158-5.711-10.052-4.055
			C107.088,166.931,60.305,237.646,60.305,316.305C60.305,424.212,148.093,512,256,512s195.695-87.788,195.695-195.695
			C451.695,237.793,405.033,167.13,332.818,136.281z"/>
	</g>
</g>
<g>
</g>
<g>
</g>
<g>
</g>
<g>
</g>
<g>
</g>
<g>
</g>
<g>
</g>
<g>
</g>
<g>
</g>
<g>
</g>
<g>
</g>
<g>
</g>
<g>
</g>
<g>
</g>
<g>
</g>
</svg>
