<svg height="512pt" viewBox="-42 0 511 512" width="512pt" xmlns="http://www.w3.org/2000/svg"><path d="m304.640625 338.46875c29.21875 0 53.425781-21.871094 57.109375-50.101562h64.761719v-83.214844h-171.398438v-205.152344h-83.214843v205.152344h-171.398438v83.214844h64.761719c3.683593 28.230468 27.890625 50.101562 57.109375 50.101562h49.527344v20.027344h-49.527344c-36.023438 0-67.054688-24.425782-75.46875-59.390625l-17.144532 1.753906v82.894531c0 37.230469 21.800782 71.464844 55.535157 87.210938l8.699219 4.0625v21.980468h-10.863282c-34.683594 0-62.898437-28.210937-62.898437-62.894531v-133.253906h-14.988281v133.253906c0 42.945313 34.9375 77.886719 77.886718 77.886719h25.851563v-46.523438l-17.34375-8.09375c-28.484375-13.296874-46.890625-42.199218-46.890625-73.632812v-52.214844c16.691406 25.660156 45.496094 41.949219 77.625 41.949219h49.527344v35.140625l41.605468 41.609375 41.609375-41.609375v-35.140625h49.527344c32.128906 0 60.933594-16.289063 77.621094-41.949219v52.214844c0 31.433594-18.402344 60.335938-46.886719 73.632812l-17.347656 8.09375v46.523438h25.855468c42.945313 0 77.886719-34.941406 77.886719-77.886719v-133.253906h-14.992187v133.253906c0 34.679688-28.214844 62.894531-62.894532 62.894531h-10.863281v-21.980468l8.695313-4.0625c33.738281-15.746094 55.539062-49.980469 55.539062-87.214844v-82.890625l-17.144531-1.753906c-8.414063 34.964843-39.449219 59.386719-75.46875 59.386719h-49.527344v-20.023438zm0-14.992188h-49.316406c2.046875-19.699218 18.75-35.109374 38.984375-35.109374h52.273437c-3.550781 19.929687-21.007812 35.109374-41.941406 35.109374zm-289.148437-50.101562v-53.234375h171.398437v-205.148437h53.230469v205.152343h171.398437v53.230469zm106.878906 50.101562c-20.9375 0-38.394532-15.179687-41.945313-35.109374h52.277344c20.230469 0 36.933594 15.410156 38.980469 35.109374zm117.75 4.085938v74.851562l-26.617188 26.617188-26.613281-26.617188v-74.851562c0-15.402344-6.457031-29.320312-16.808594-39.195312h86.847657c-10.351563 9.875-16.808594 23.792968-16.808594 39.195312zm0 0"/><path d="m206.007812 61.832031h14.992188v14.992188h-14.992188zm0 0"/><path d="m206.007812 90.824219h14.992188v14.992187h-14.992188zm0 0"/><path d="m206.007812 120.808594h14.992188v14.988281h-14.992188zm0 0"/><path d="m206.007812 150.789062h14.992188v14.992188h-14.992188zm0 0"/><path d="m206.007812 180.773438h14.992188v14.992187h-14.992188zm0 0"/><path d="m206.007812 210.757812h14.992188v14.988282h-14.992188zm0 0"/><path d="m86.078125 240.730469h14.992187v14.992187h-14.992187zm0 0"/><path d="m56.09375 240.730469h14.992188v14.992187h-14.992188zm0 0"/><path d="m26.113281 240.730469h14.988281v14.992187h-14.988281zm0 0"/><path d="m116.058594 240.730469h14.992187v14.992187h-14.992187zm0 0"/><path d="m146.042969 240.730469h14.992187v14.992187h-14.992187zm0 0"/><path d="m176.027344 240.730469h14.992187v14.992187h-14.992187zm0 0"/><path d="m235.992188 240.730469h14.992187v14.992187h-14.992187zm0 0"/><path d="m265.976562 240.730469h14.988282v14.992187h-14.988282zm0 0"/><path d="m295.957031 240.730469h14.992188v14.992187h-14.992188zm0 0"/><path d="m325.941406 240.730469h14.992188v14.992187h-14.992188zm0 0"/><path d="m355.925781 240.730469h14.988281v14.992187h-14.988281zm0 0"/><path d="m385.90625 240.730469h14.992188v14.992187h-14.992188zm0 0"/><path d="m206.007812 240.738281h14.992188v14.992188h-14.992188zm0 0"/><path d="m382.066406 193.492188 14.898438-1.671876c-8.089844-72.023437-57.96875-132.871093-127.074219-155.011718l-4.574219 14.273437c63.492188 20.347657 109.320313 76.246094 116.75 142.410157zm0 0"/><path d="m161.691406 51.085938-4.574218-14.277344c-69.105469 22.140625-118.984376 82.988281-127.074219 155.011718l14.898437 1.675782c7.429688-66.167969 53.257813-122.066406 116.75-142.410156zm0 0"/><path d="m347.382812 490.90625-.914062-14.964844c18.5625-1.132812 34.328125-14.613281 38.339844-32.78125l14.636718 3.230469c-5.445312 24.667969-26.855468 42.976563-52.0625 44.515625zm0 0"/><path d="m356.191406 188.894531c-5.398437-32.386719-21.925781-62.324219-46.539062-84.296875l9.980468-11.183594c27.15625 24.238282 45.390626 57.273438 51.34375 93.015626zm-53.832031-90.386719c-3.730469-2.914062-7.648437-5.675781-11.644531-8.207031l8.019531-12.667969c4.414063 2.796876 8.738281 5.847657 12.855469 9.0625zm-19.832031-13.019531c-4.164063-2.265625-8.484375-4.34375-12.835938-6.179687l5.820313-13.8125c4.808593 2.023437 9.578125 4.320312 14.179687 6.824218zm0 0"/><path d="m230.125 395.171875h-14.988281v-39.6875h14.988281zm0-49.683594h-14.988281v-14.992187h14.988281zm.308594-24.242187-14.917969-1.464844c.539063-5.5 1.660156-10.949219 3.332031-16.199219l14.28125 4.550781c-1.351562 4.246094-2.257812 8.660157-2.695312 13.113282zm0 0"/></svg>