<svg height="496pt" viewBox="-112 0 496 496" width="496pt" xmlns="http://www.w3.org/2000/svg"><path d="m256 38.566406v-38.566406h-240v38.566406c-10.601562 27.027344-16 55.449219-16 84.503906v1.769532c0 7.65625.382812 15.417968 1.152344 23.054687l30.847656 308.511719v39.59375h80v-39.640625l23.289062-271.703125c.0625-.734375 1.359376-.726562 1.421876-.007812l23.289062 271.710937v39.640625h80v-39.59375l30.847656-308.503906c.769532-7.644532 1.152344-15.40625 1.152344-23.0625v-1.769532c0-29.054687-5.398438-57.46875-16-84.503906zm0 84.511719v1.769531c0 7.128906-.359375 14.351563-1.070312 21.464844l-5.617188 56.167969-23.097656 23.09375 5.585937-70.726563 24.152344-33.808594c.007813.671876.046875 1.351563.046875 2.039063zm-36.519531 187.859375 21.09375-21.097656-15.8125 158.160156h-16.105469zm23.609375-46.242188-21.675782 21.671876 2.867188-36.238282 22.519531-22.519531zm-211.089844-248.695312h208v16h-208zm31.34375 432h-16.105469l-15.71875-157.160156 21.074219 21.070312zm-34.335938-182.296875-3.710937-37.085937 22.496094 22.496093 2.863281 36.238281zm-6.222656-62.230469-5.722656-57.167968c-.703125-7.113282-1.0625-14.335938-1.0625-21.464844v-1.769532c0-.6875.039062-1.359374.046875-2.046874l24.152344 33.808593 5.664062 71.703125zm73.214844 276.527344h-48v-16h48zm40-312c-8.742188 0-15.902344 6.566406-16.65625 15.289062l-22.6875 264.710938h-17.257812l-23.589844-298.839844-38.039063-53.257812c2.0625-16.335938 6.007813-32.351563 11.789063-47.902344h89.808594l-1.613282 2.015625c-14.035156 17.527344-21.753906 39.535156-21.753906 61.984375h16c0-18.832031 6.480469-37.289062 18.230469-51.984375l5.769531-7.207031 5.769531 7.207031c11.75 14.695313 18.230469 33.152344 18.230469 51.984375h16c0-22.449219-7.71875-44.457031-21.742188-61.984375l-1.609374-2.015625h89.808593c5.773438 15.542969 9.71875 31.566406 11.789063 47.902344l-38.039063 53.257812-23.597656 298.839844h-17.257813l-22.6875-264.71875c-.761718-8.714844-7.921874-15.28125-16.664062-15.28125zm88 312h-48v-16h48zm0 0"/><path d="m160 128h16v16h-16zm0 0"/><path d="m96 128h16v16h-16zm0 0"/></svg>